<?xml version="1.0" encoding="UTF-8"?>
<!DOCTYPE svg PUBLIC "-//W3C//DTD SVG 1.1//EN" "http://www.w3.org/Graphics/SVG/1.1/DTD/svg11.dtd">
<svg xmlns="http://www.w3.org/2000/svg" version="1.1" width="500px" height="500px" style="shape-rendering:geometricPrecision; text-rendering:geometricPrecision; image-rendering:optimizeQuality; fill-rule:evenodd; clip-rule:evenodd" xmlns:xlink="http://www.w3.org/1999/xlink">
<g><path style="opacity:1" fill="#fbf2fa" d="M 378.5,107.5 C 375.576,104.203 371.909,102.203 367.5,101.5C 362.316,100.002 356.983,99.6684 351.5,100.5C 336.182,97.3971 321.849,99.8971 308.5,108C 303.145,112.291 302.145,117.458 305.5,123.5C 303.204,126.306 301.537,129.473 300.5,133C 300.703,135.406 301.703,137.406 303.5,139C 304.744,139.456 305.577,138.956 306,137.5C 306.422,139.426 307.589,140.426 309.5,140.5C 308.646,150.571 310.146,160.238 314,169.5C 318.532,175.273 324.366,178.273 331.5,178.5C 328.833,179.167 326.167,179.833 323.5,180.5C 311.423,183.916 304.756,191.916 303.5,204.5C 301.296,208.922 299.629,213.589 298.5,218.5C 296.574,217.758 294.741,216.758 293,215.5C 292.271,208.582 290.604,201.916 288,195.5C 282.727,190.331 278.393,184.331 275,177.5C 272.478,174.674 270.478,175.007 269,178.5C 267.002,176.337 264.668,174.67 262,173.5C 260.518,175.112 258.685,176.112 256.5,176.5C 256.556,181.042 256.056,185.375 255,189.5C 260.314,198.136 263.98,207.47 266,217.5C 267.814,222.964 270.98,227.464 275.5,231C 283.107,235.609 290.441,240.609 297.5,246C 299.028,247.648 299.695,249.648 299.5,252C 295.751,266.906 290.585,281.406 284,295.5C 274.548,299.636 266.214,305.302 259,312.5C 258.421,313.928 258.588,315.262 259.5,316.5C 232.031,326.384 204.031,329.718 175.5,326.5C 174.463,325.07 173.796,323.403 173.5,321.5C 174.211,319.897 175.211,317.897 176.5,315.5C 180.914,315.169 185.248,314.335 189.5,313C 190.376,311.414 191.376,309.914 192.5,308.5C 195.201,308.025 197.201,306.692 198.5,304.5C 204.819,308.063 211.652,310.396 219,311.5C 228.248,310.253 233.581,304.919 235,295.5C 236.093,282.419 237.76,269.419 240,256.5C 241.697,250.104 244.697,244.438 249,239.5C 249.813,237.564 250.313,235.564 250.5,233.5C 250.5,232.833 250.5,232.167 250.5,231.5C 256.215,225.985 257.049,219.652 253,212.5C 252.101,210.632 250.601,209.632 248.5,209.5C 246.157,210.658 243.823,211.658 241.5,212.5C 239.521,214.961 237.021,216.961 234,218.5C 233.333,219.833 232.667,221.167 232,222.5C 231.686,227.774 230.353,232.774 228,237.5C 228.162,249.18 224.995,259.846 218.5,269.5C 210.352,263.184 204.685,255.184 201.5,245.5C 201.806,242.615 201.473,239.948 200.5,237.5C 200.737,236.209 200.404,235.209 199.5,234.5C 199.5,233.167 199.5,231.833 199.5,230.5C 204.379,228.964 209.379,227.964 214.5,227.5C 215.885,226.426 217.051,225.093 218,223.5C 218.744,219.273 219.578,215.106 220.5,211C 220.167,210.667 219.833,210.333 219.5,210C 220.5,209.667 221.5,209.333 222.5,209C 221.562,207.937 220.562,206.77 219.5,205.5C 220.815,203.801 220.815,202.135 219.5,200.5C 221.663,196.844 221.33,193.178 218.5,189.5C 219.689,188.571 221.022,188.238 222.5,188.5C 220.548,183.939 218.048,179.605 215,175.5C 213.786,173.951 212.286,172.785 210.5,172C 204.569,170.529 198.569,170.196 192.5,171C 191.619,171.708 190.953,172.542 190.5,173.5C 182.402,174.066 174.402,175.399 166.5,177.5C 162.344,175.025 158.011,174.859 153.5,177C 147.333,180.5 142.5,185.333 139,191.5C 137.887,195.508 136.387,199.341 134.5,203C 135.623,204.044 136.956,204.71 138.5,205C 137.175,208.915 137.508,212.748 139.5,216.5C 140.651,217.731 141.817,217.731 143,216.5C 144.245,219.324 145.745,221.991 147.5,224.5C 146.962,226.117 146.629,227.784 146.5,229.5C 144.552,231.32 143.552,233.654 143.5,236.5C 140.167,240.5 136.5,244.167 132.5,247.5C 125.199,252.823 117.532,257.656 109.5,262C 102.704,266.963 96.3704,272.463 90.5,278.5C 72.273,252.977 68.4396,225.31 79,195.5C 82.2413,188.011 86.2413,181.011 91,174.5C 101.333,162.167 111.667,149.833 122,137.5C 129.681,126.145 136.348,114.145 142,101.5C 163.94,65.9501 195.774,45.1167 237.5,39C 280.328,32.2891 318.662,42.2891 352.5,69C 365.065,79.3265 373.732,92.1599 378.5,107.5 Z"/></g>
<g><path style="opacity:1" fill="#fcf3fa" d="M 149.5,38.5 C 155.89,38.4308 161.89,39.9308 167.5,43C 171.13,46.0498 172.297,49.8831 171,54.5C 164.227,60.2468 157.56,66.2468 151,72.5C 144.212,81.6231 137.046,90.4565 129.5,99C 123.239,102.915 117.739,102.082 113,96.5C 107.675,75.8073 113.509,58.9739 130.5,46C 136.509,42.316 142.842,39.816 149.5,38.5 Z"/></g>
<g><path style="opacity:0.985" fill="#f6f6f6" d="M 424.5,69.5 C 426.582,69.472 428.416,70.1387 430,71.5C 431.481,74.9561 433.148,78.2895 435,81.5C 435.792,79.4127 436.959,77.5793 438.5,76C 440.464,75.376 442.131,75.876 443.5,77.5C 446.405,82.3088 446.071,86.8088 442.5,91C 445.847,94.188 448.18,98.0213 449.5,102.5C 448.905,104.857 447.905,107.023 446.5,109C 440.6,112.953 434.266,115.786 427.5,117.5C 425.074,117.596 422.907,116.93 421,115.5C 419.132,112.395 417.965,109.062 417.5,105.5C 411.439,105.723 407.272,103.056 405,97.5C 404.657,93.0133 406.824,91.0133 411.5,91.5C 410.341,88.3381 409.008,85.1714 407.5,82C 407.941,79.2777 409.441,77.4443 412,76.5C 414.791,77.5619 417.457,78.8952 420,80.5C 419.883,75.9825 421.383,72.3158 424.5,69.5 Z M 431.5,85.5 C 434.153,86.1415 435.319,87.8082 435,90.5C 431.45,90.158 430.283,88.4913 431.5,85.5 Z M 416.5,92.5 C 419.076,92.7218 419.91,94.0551 419,96.5C 417.519,95.5291 416.685,94.1958 416.5,92.5 Z"/></g>
<g><path style="opacity:1" fill="#4a6066" d="M 191.5,85.5 C 218.486,85.3186 230.652,98.652 228,125.5C 222.469,140.525 211.635,148.025 195.5,148C 193.257,150.488 191.257,153.154 189.5,156C 188.552,156.483 187.552,156.649 186.5,156.5C 186.436,152.78 185.936,149.114 185,145.5C 166.038,133.94 161.705,118.274 172,98.5C 177.218,91.9926 183.718,87.6593 191.5,85.5 Z"/></g>
<g><path style="opacity:1" fill="#faf7fb" d="M 216.5,95.5 C 221.1,99.1073 224.1,103.774 225.5,109.5C 225.637,112.812 224.637,115.646 222.5,118C 223.574,118.739 224.241,119.739 224.5,121C 223.691,122.784 223.024,124.617 222.5,126.5C 220.586,130.674 217.752,134.674 214,138.5C 212.293,137.541 210.459,136.875 208.5,136.5C 205.868,137.44 203.202,137.607 200.5,137C 197.357,136.06 194.357,134.727 191.5,133C 188.144,132.785 184.811,132.785 181.5,133C 177.721,131.596 176.721,129.096 178.5,125.5C 179.981,126.48 181.315,127.647 182.5,129C 183.5,129.667 184.5,129.667 185.5,129C 184.315,127.647 182.981,126.48 181.5,125.5C 180.548,123.955 180.215,122.288 180.5,120.5C 176.177,116.846 175.511,112.512 178.5,107.5C 177.332,106.094 177.665,104.928 179.5,104C 185.309,102.974 191.142,102.141 197,101.5C 199.102,102.038 199.935,103.038 199.5,104.5C 205.156,100.483 210.823,100.149 216.5,103.5C 217.167,103.167 217.833,102.833 218.5,102.5C 216.022,97.4806 212.522,96.1473 208,98.5C 205.344,95.8715 202.511,95.3715 199.5,97C 201.167,97.3333 202.833,97.6667 204.5,98C 203.91,99.2989 202.91,100.132 201.5,100.5C 197.21,99.3518 193.543,97.1851 190.5,94C 189.216,93.3162 188.049,93.4829 187,94.5C 186.5,94 186,93.5 185.5,93C 187.167,92 188.833,91 190.5,90C 194.199,89.6659 197.699,89.4992 201,89.5C 205.919,92.1812 211.085,94.1812 216.5,95.5 Z"/></g>
<g><path style="opacity:1" fill="#1e2e35" d="M 351.5,100.5 C 353.302,101.458 355.302,102.125 357.5,102.5C 360.612,104.572 363.612,106.905 366.5,109.5C 367.583,108.635 367.749,107.635 367,106.5C 365.293,104.963 363.793,103.296 362.5,101.5C 364.167,101.5 365.833,101.5 367.5,101.5C 371.909,102.203 375.576,104.203 378.5,107.5C 380.584,110.765 382.917,113.932 385.5,117C 391.339,118.715 396.506,121.548 401,125.5C 402.251,131.725 402.917,138.058 403,144.5C 405.333,148.167 407.667,151.833 410,155.5C 410.667,157.5 410.667,159.5 410,161.5C 408,164.167 406,166.833 404,169.5C 403.494,175.4 402.16,181.067 400,186.5C 399.184,187.823 398.017,188.489 396.5,188.5C 391.028,185.006 385.028,182.672 378.5,181.5C 378.167,181.5 377.833,181.5 377.5,181.5C 373.764,180.011 369.764,179.344 365.5,179.5C 365.672,178.508 365.338,177.842 364.5,177.5C 363.965,171.086 362.965,164.752 361.5,158.5C 372.598,157.693 376.931,151.693 374.5,140.5C 374.123,138.742 373.456,137.075 372.5,135.5C 368.342,134.073 364.342,134.407 360.5,136.5C 359.424,138.987 358.09,141.32 356.5,143.5C 356.025,140.845 354.691,138.845 352.5,137.5C 349.357,136.866 346.857,135.2 345,132.5C 342.66,128.479 341.326,124.146 341,119.5C 334.3,123.199 327.133,124.366 319.5,123C 317.336,122.086 315.336,120.919 313.5,119.5C 310.668,122.169 309.168,125.502 309,129.5C 308.421,133.203 308.588,136.869 309.5,140.5C 307.589,140.426 306.422,139.426 306,137.5C 305.577,138.956 304.744,139.456 303.5,139C 301.703,137.406 300.703,135.406 300.5,133C 301.537,129.473 303.204,126.306 305.5,123.5C 302.145,117.458 303.145,112.291 308.5,108C 321.849,99.8971 336.182,97.3971 351.5,100.5 Z"/></g>
<g><path style="opacity:1" fill="#b58ab7" d="M 367.5,101.5 C 365.833,101.5 364.167,101.5 362.5,101.5C 360.585,101.216 358.919,101.549 357.5,102.5C 355.302,102.125 353.302,101.458 351.5,100.5C 356.983,99.6684 362.316,100.002 367.5,101.5 Z"/></g>
<g><path style="opacity:1" fill="#b46eb7" d="M 362.5,101.5 C 363.793,103.296 365.293,104.963 367,106.5C 367.749,107.635 367.583,108.635 366.5,109.5C 363.612,106.905 360.612,104.572 357.5,102.5C 358.919,101.549 360.585,101.216 362.5,101.5 Z"/></g>
<g><path style="opacity:1" fill="#c87cc2" d="M 211.5,123.5 C 213.914,119.165 214.747,114.499 214,109.5C 210.835,106.574 207.002,105.241 202.5,105.5C 207.656,102.368 212.156,103.368 216,108.5C 217.389,114.49 215.889,119.49 211.5,123.5 Z"/></g>
<g><path style="opacity:1" fill="#d169cb" d="M 196.5,109.5 C 198.205,107.808 200.205,106.475 202.5,105.5C 207.002,105.241 210.835,106.574 214,109.5C 214.747,114.499 213.914,119.165 211.5,123.5C 207.245,129.292 201.579,132.459 194.5,133C 191.58,131.054 188.913,128.887 186.5,126.5C 186.649,125.448 186.483,124.448 186,123.5C 179.602,118.341 179.102,112.841 184.5,107C 189.145,104.696 193.145,105.529 196.5,109.5 Z"/></g>
<g><path style="opacity:1" fill="#c77bc3" d="M 196.5,109.5 C 193.145,105.529 189.145,104.696 184.5,107C 179.102,112.841 179.602,118.341 186,123.5C 186.483,124.448 186.649,125.448 186.5,126.5C 184.139,124.806 182.139,122.806 180.5,120.5C 176.861,113.742 178.195,108.242 184.5,104C 188.12,103.159 191.454,103.826 194.5,106C 195.823,106.816 196.489,107.983 196.5,109.5 Z"/></g>
<g><path style="opacity:0.353" fill="#f8f8f8" d="M 69.5,109.5 C 73.2877,110.692 75.4544,113.358 76,117.5C 78.0027,115.078 80.5027,114.245 83.5,115C 84.8222,120.132 86.8222,124.965 89.5,129.5C 89.1012,131.197 88.6012,132.863 88,134.5C 85.6667,135.833 83.3333,137.167 81,138.5C 80.8397,146.997 76.673,150.164 68.5,148C 63.2466,147.131 59.0799,144.631 56,140.5C 55.1218,136.432 55.9551,132.766 58.5,129.5C 54.1718,124.665 54.5052,120.332 59.5,116.5C 60.8333,117.167 62.1667,117.833 63.5,118.5C 65.2753,115.262 67.2753,112.262 69.5,109.5 Z"/></g>
<g><path style="opacity:1" fill="#f5f8f8" d="M 216.5,95.5 C 211.085,94.1812 205.919,92.1812 201,89.5C 197.699,89.4992 194.199,89.6659 190.5,90C 188.833,91 187.167,92 185.5,93C 186,93.5 186.5,94 187,94.5C 188.049,93.4829 189.216,93.3162 190.5,94C 193.543,97.1851 197.21,99.3518 201.5,100.5C 202.91,100.132 203.91,99.2989 204.5,98C 202.833,97.6667 201.167,97.3333 199.5,97C 202.511,95.3715 205.344,95.8715 208,98.5C 212.522,96.1473 216.022,97.4806 218.5,102.5C 217.833,102.833 217.167,103.167 216.5,103.5C 210.823,100.149 205.156,100.483 199.5,104.5C 199.935,103.038 199.102,102.038 197,101.5C 191.142,102.141 185.309,102.974 179.5,104C 177.665,104.928 177.332,106.094 178.5,107.5C 175.511,112.512 176.177,116.846 180.5,120.5C 180.215,122.288 180.548,123.955 181.5,125.5C 182.981,126.48 184.315,127.647 185.5,129C 184.5,129.667 183.5,129.667 182.5,129C 181.315,127.647 179.981,126.48 178.5,125.5C 176.721,129.096 177.721,131.596 181.5,133C 184.811,132.785 188.144,132.785 191.5,133C 194.357,134.727 197.357,136.06 200.5,137C 203.202,137.607 205.868,137.44 208.5,136.5C 210.459,136.875 212.293,137.541 214,138.5C 217.752,134.674 220.586,130.674 222.5,126.5C 223.024,124.617 223.691,122.784 224.5,121C 224.241,119.739 223.574,118.739 222.5,118C 224.637,115.646 225.637,112.812 225.5,109.5C 227.789,134.049 216.456,145.883 191.5,145C 175.153,139.813 167.653,128.646 169,111.5C 175.414,91.8768 188.581,84.7102 208.5,90C 211.756,91.116 214.422,92.9493 216.5,95.5 Z"/></g>
<g><path style="opacity:1" fill="#3b3136" d="M 374.5,140.5 C 369.711,135.225 364.878,135.225 360,140.5C 359.517,141.448 359.351,142.448 359.5,143.5C 358.162,145.113 356.495,145.613 354.5,145C 352.887,142.772 352.22,140.272 352.5,137.5C 354.691,138.845 356.025,140.845 356.5,143.5C 358.09,141.32 359.424,138.987 360.5,136.5C 364.342,134.407 368.342,134.073 372.5,135.5C 373.456,137.075 374.123,138.742 374.5,140.5 Z"/></g>
<g><path style="opacity:1" fill="#fca8a7" d="M 352.5,137.5 C 352.22,140.272 352.887,142.772 354.5,145C 356.495,145.613 358.162,145.113 359.5,143.5C 361.048,143.179 361.715,142.179 361.5,140.5C 364.546,141.394 367.546,141.561 370.5,141C 375.395,151.11 372.228,156.61 361,157.5C 361.121,164.517 361.788,171.517 363,178.5C 364.107,179.712 364.607,179.379 364.5,177.5C 365.338,177.842 365.672,178.508 365.5,179.5C 363.228,187.383 358.562,193.383 351.5,197.5C 347.287,197.338 343.287,198.005 339.5,199.5C 336.774,199.318 334.107,198.818 331.5,198C 330.398,195.599 330.231,193.099 331,190.5C 332.481,189.529 333.315,188.196 333.5,186.5C 334.39,184.218 334.556,181.885 334,179.5C 333.329,178.748 332.496,178.414 331.5,178.5C 324.366,178.273 318.532,175.273 314,169.5C 310.146,160.238 308.646,150.571 309.5,140.5C 308.588,136.869 308.421,133.203 309,129.5C 309.168,125.502 310.668,122.169 313.5,119.5C 315.336,120.919 317.336,122.086 319.5,123C 327.133,124.366 334.3,123.199 341,119.5C 341.326,124.146 342.66,128.479 345,132.5C 346.857,135.2 349.357,136.866 352.5,137.5 Z"/></g>
<g><path style="opacity:1" fill="#3b2e32" d="M 313.5,139.5 C 317.138,138.737 318.638,140.07 318,143.5C 314.331,145.009 312.831,143.676 313.5,139.5 Z"/></g>
<g><path style="opacity:1" fill="#3b312e" d="M 333.5,139.5 C 337.138,138.737 338.638,140.07 338,143.5C 334.331,145.009 332.831,143.676 333.5,139.5 Z"/></g>
<g><path style="opacity:1" fill="#342b22" d="M 335.5,132.5 C 338.932,132.248 339.932,133.581 338.5,136.5C 335.649,136.037 334.649,134.704 335.5,132.5 Z"/></g>
<g><path style="opacity:1" fill="#3c2c25" d="M 312.5,132.5 C 317.707,133.351 317.707,134.684 312.5,136.5C 311.374,135.192 311.374,133.858 312.5,132.5 Z"/></g>
<g><path style="opacity:1" fill="#e7a9ad" d="M 374.5,140.5 C 376.931,151.693 372.598,157.693 361.5,158.5C 362.965,164.752 363.965,171.086 364.5,177.5C 364.607,179.379 364.107,179.712 363,178.5C 361.788,171.517 361.121,164.517 361,157.5C 372.228,156.61 375.395,151.11 370.5,141C 367.546,141.561 364.546,141.394 361.5,140.5C 361.715,142.179 361.048,143.179 359.5,143.5C 359.351,142.448 359.517,141.448 360,140.5C 364.878,135.225 369.711,135.225 374.5,140.5 Z"/></g>
<g><path style="opacity:1" fill="#07080a" d="M 219.5,200.5 C 218.761,200.369 218.094,200.536 217.5,201C 218.602,203.401 218.769,205.901 218,208.5C 216.941,206.341 215.441,204.674 213.5,203.5C 212.878,202.373 212.045,201.373 211,200.5C 210.667,195.833 210.333,191.167 210,186.5C 204.13,180.998 197.63,176.665 190.5,173.5C 190.953,172.542 191.619,171.708 192.5,171C 198.569,170.196 204.569,170.529 210.5,172C 212.286,172.785 213.786,173.951 215,175.5C 218.048,179.605 220.548,183.939 222.5,188.5C 221.022,188.238 219.689,188.571 218.5,189.5C 221.33,193.178 221.663,196.844 219.5,200.5 Z"/></g>
<g><path style="opacity:1" fill="#040506" d="M 166.5,177.5 C 167.74,178.973 168.74,180.64 169.5,182.5C 168.009,183.244 166.509,183.91 165,184.5C 164.667,189.5 164.333,194.5 164,199.5C 161.18,204.389 159.846,209.722 160,215.5C 158.826,217.671 156.993,218.671 154.5,218.5C 154.425,221.206 154.092,223.873 153.5,226.5C 151.142,226.747 149.142,226.081 147.5,224.5C 145.745,221.991 144.245,219.324 143,216.5C 141.817,217.731 140.651,217.731 139.5,216.5C 137.508,212.748 137.175,208.915 138.5,205C 136.956,204.71 135.623,204.044 134.5,203C 136.387,199.341 137.887,195.508 139,191.5C 142.5,185.333 147.333,180.5 153.5,177C 158.011,174.859 162.344,175.025 166.5,177.5 Z"/></g>
<g><path style="opacity:1" fill="#f7abb5" d="M 323.5,180.5 C 323.649,181.552 323.483,182.552 323,183.5C 320.27,185.967 317.77,188.633 315.5,191.5C 311.938,196.271 307.938,200.605 303.5,204.5C 304.756,191.916 311.423,183.916 323.5,180.5 Z"/></g>
<g><path style="opacity:1" fill="#fda9a9" d="M 298.5,218.5 C 308.518,223.655 318.684,228.655 329,233.5C 331.335,232.586 333.502,231.253 335.5,229.5C 341.436,224.046 347.103,218.379 352.5,212.5C 356.5,208.833 360.5,205.167 364.5,201.5C 366.017,201.489 367.184,200.823 368,199.5C 370.113,195.609 371.946,191.609 373.5,187.5C 375.938,186.069 377.604,184.069 378.5,181.5C 385.028,182.672 391.028,185.006 396.5,188.5C 402.905,197.851 404.238,207.851 400.5,218.5C 400.657,217.127 400.49,215.793 400,214.5C 398.144,217.556 396.311,220.556 394.5,223.5C 394.167,223.5 393.833,223.5 393.5,223.5C 388.209,228.825 382.876,234.158 377.5,239.5C 377.167,240.5 376.5,241.167 375.5,241.5C 368.991,247.113 361.991,252.279 354.5,257C 348.446,263.911 340.78,266.911 331.5,266C 325.681,263.242 320.014,260.409 314.5,257.5C 312.956,257.297 311.622,256.63 310.5,255.5C 310.167,255.833 309.833,256.167 309.5,256.5C 310.633,264.117 310.8,271.784 310,279.5C 309.71,283.208 308.543,286.541 306.5,289.5C 292.424,306.235 278.757,323.235 265.5,340.5C 264.448,340.649 263.448,340.483 262.5,340C 261.901,338.378 261.234,336.878 260.5,335.5C 258.314,335.489 257.481,334.489 258,332.5C 263.792,326.878 268.625,320.544 272.5,313.5C 272.167,313.167 271.833,312.833 271.5,312.5C 267.853,314.995 263.853,316.329 259.5,316.5C 258.588,315.262 258.421,313.928 259,312.5C 266.214,305.302 274.548,299.636 284,295.5C 290.585,281.406 295.751,266.906 299.5,252C 299.695,249.648 299.028,247.648 297.5,246C 290.441,240.609 283.107,235.609 275.5,231C 270.98,227.464 267.814,222.964 266,217.5C 263.98,207.47 260.314,198.136 255,189.5C 256.056,185.375 256.556,181.042 256.5,176.5C 258.685,176.112 260.518,175.112 262,173.5C 264.668,174.67 267.002,176.337 269,178.5C 270.478,175.007 272.478,174.674 275,177.5C 278.393,184.331 282.727,190.331 288,195.5C 290.604,201.916 292.271,208.582 293,215.5C 294.741,216.758 296.574,217.758 298.5,218.5 Z"/></g>
<g><path style="opacity:1" fill="#d269ca" d="M 352.5,212.5 C 347.103,218.379 341.436,224.046 335.5,229.5C 333.502,231.253 331.335,232.586 329,233.5C 318.684,228.655 308.518,223.655 298.5,218.5C 299.629,213.589 301.296,208.922 303.5,204.5C 307.938,200.605 311.938,196.271 315.5,191.5C 317.371,191.141 318.871,190.141 320,188.5C 322.427,189.781 324.927,190.781 327.5,191.5C 327.336,194.187 327.503,196.854 328,199.5C 332.249,201.405 336.749,202.405 341.5,202.5C 345.451,201.373 349.451,200.54 353.5,200C 353.833,200.333 354.167,200.667 354.5,201C 353.5,201.333 352.5,201.667 351.5,202C 352.833,202.667 354.167,203.333 355.5,204C 354.576,204.85 354.576,205.85 355.5,207C 354.259,208.731 353.259,210.564 352.5,212.5 Z"/></g>
<g><path style="opacity:1" fill="#ef91bb" d="M 377.5,181.5 C 377.833,181.5 378.167,181.5 378.5,181.5C 377.604,184.069 375.938,186.069 373.5,187.5C 371.946,191.609 370.113,195.609 368,199.5C 367.184,200.823 366.017,201.489 364.5,201.5C 367.918,197.004 370.584,192.004 372.5,186.5C 374.549,185.118 376.215,183.452 377.5,181.5 Z"/></g>
<g><path style="opacity:1" fill="#d26bc4" d="M 331.5,178.5 C 332.496,178.414 333.329,178.748 334,179.5C 334.556,181.885 334.39,184.218 333.5,186.5C 328.682,189.782 327.682,193.949 330.5,199C 337.806,201.271 344.806,200.771 351.5,197.5C 358.562,193.383 363.228,187.383 365.5,179.5C 369.764,179.344 373.764,180.011 377.5,181.5C 376.215,183.452 374.549,185.118 372.5,186.5C 370.584,192.004 367.918,197.004 364.5,201.5C 360.5,205.167 356.5,208.833 352.5,212.5C 353.259,210.564 354.259,208.731 355.5,207C 354.576,205.85 354.576,204.85 355.5,204C 354.167,203.333 352.833,202.667 351.5,202C 352.5,201.667 353.5,201.333 354.5,201C 354.167,200.667 353.833,200.333 353.5,200C 349.451,200.54 345.451,201.373 341.5,202.5C 336.749,202.405 332.249,201.405 328,199.5C 327.503,196.854 327.336,194.187 327.5,191.5C 324.927,190.781 322.427,189.781 320,188.5C 318.871,190.141 317.371,191.141 315.5,191.5C 317.77,188.633 320.27,185.967 323,183.5C 323.483,182.552 323.649,181.552 323.5,180.5C 326.167,179.833 328.833,179.167 331.5,178.5 Z"/></g>
<g><path style="opacity:1" fill="#f99cc3" d="M 333.5,186.5 C 333.315,188.196 332.481,189.529 331,190.5C 330.231,193.099 330.398,195.599 331.5,198C 334.107,198.818 336.774,199.318 339.5,199.5C 343.287,198.005 347.287,197.338 351.5,197.5C 344.806,200.771 337.806,201.271 330.5,199C 327.682,193.949 328.682,189.782 333.5,186.5 Z"/></g>
<g><path style="opacity:1" fill="#dcdedf" d="M 213.5,203.5 C 215.441,204.674 216.941,206.341 218,208.5C 218.769,205.901 218.602,203.401 217.5,201C 218.094,200.536 218.761,200.369 219.5,200.5C 220.815,202.135 220.815,203.801 219.5,205.5C 220.562,206.77 221.562,207.937 222.5,209C 221.5,209.333 220.5,209.667 219.5,210C 219.833,210.333 220.167,210.667 220.5,211C 219.578,215.106 218.744,219.273 218,223.5C 217.051,225.093 215.885,226.426 214.5,227.5C 212.295,225.637 210.961,223.303 210.5,220.5C 212.794,218.524 214.46,216.024 215.5,213C 215.024,209.204 212.858,207.704 209,208.5C 201.611,208.484 199.444,211.65 202.5,218C 202.833,218.167 203.167,218.333 203.5,218.5C 204.251,217.624 204.751,216.624 205,215.5C 205.894,217.767 207.394,219.434 209.5,220.5C 207.953,226.196 204.119,229.196 198,229.5C 196.016,229.259 194.183,228.592 192.5,227.5C 191.893,227.624 191.56,227.957 191.5,228.5C 191.5,229.5 191.5,230.5 191.5,231.5C 185.944,229.39 183.777,225.39 185,219.5C 187.333,215.833 190.333,212.833 194,210.5C 195.943,208.01 197.109,205.177 197.5,202C 195.782,195.731 193.115,189.898 189.5,184.5C 190.002,183.479 190.668,183.312 191.5,184C 195.5,188.667 199.5,193.333 203.5,198C 206.406,200.619 209.739,202.453 213.5,203.5 Z"/></g>
<g><path style="opacity:1" fill="#ead0e8" d="M 233.5,194.5 C 234.644,196.1 235.811,197.767 237,199.5C 237.333,197.833 237.667,196.167 238,194.5C 240.304,197.64 242.804,200.64 245.5,203.5C 250.181,199.684 250.514,200.184 246.5,205C 244.559,205.743 242.726,205.576 241,204.5C 240.086,206.664 238.919,208.664 237.5,210.5C 236.556,205.388 235.222,200.055 233.5,194.5 Z"/></g>
<g><path style="opacity:0.362" fill="#f8f8f8" d="M 434.5,202.5 C 436.017,202.511 437.184,203.177 438,204.5C 438.878,207.257 439.878,209.924 441,212.5C 442.72,208.554 445.553,207.221 449.5,208.5C 450.553,211.815 450.553,215.148 449.5,218.5C 453.976,218.822 455.476,221.156 454,225.5C 451.924,230.064 448.924,231.064 445,228.5C 446.283,233.321 445.117,237.487 441.5,241C 440.271,241.781 438.938,242.281 437.5,242.5C 432.047,241.183 426.88,239.183 422,236.5C 420.994,234.466 420.494,232.3 420.5,230C 421.388,224.174 421.554,218.341 421,212.5C 423.237,208.98 425.904,208.647 429,211.5C 429.872,207.819 431.706,204.819 434.5,202.5 Z"/></g>
<g><path style="opacity:1" fill="#0d0d0e" d="M 210.5,220.5 C 210.167,220.5 209.833,220.5 209.5,220.5C 207.394,219.434 205.894,217.767 205,215.5C 204.751,216.624 204.251,217.624 203.5,218.5C 203.167,218.333 202.833,218.167 202.5,218C 199.444,211.65 201.611,208.484 209,208.5C 212.858,207.704 215.024,209.204 215.5,213C 214.46,216.024 212.794,218.524 210.5,220.5 Z"/></g>
<g><path style="opacity:1" fill="#2c454d" d="M 250.5,231.5 C 251.357,224.303 248.357,221.636 241.5,223.5C 241.773,225.958 240.773,227.625 238.5,228.5C 237.526,230.743 237.192,233.076 237.5,235.5C 236.778,231.886 235.778,228.219 234.5,224.5C 234.778,221.305 236.445,219.305 239.5,218.5C 240.128,216.742 241.128,215.242 242.5,214C 241.944,213.617 241.611,213.117 241.5,212.5C 243.823,211.658 246.157,210.658 248.5,209.5C 250.601,209.632 252.101,210.632 253,212.5C 257.049,219.652 256.215,225.985 250.5,231.5 Z"/></g>
<g><path style="opacity:1" fill="#38565f" d="M 190.5,173.5 C 197.63,176.665 204.13,180.998 210,186.5C 210.333,191.167 210.667,195.833 211,200.5C 212.045,201.373 212.878,202.373 213.5,203.5C 209.739,202.453 206.406,200.619 203.5,198C 199.5,193.333 195.5,188.667 191.5,184C 190.668,183.312 190.002,183.479 189.5,184.5C 193.115,189.898 195.782,195.731 197.5,202C 197.109,205.177 195.943,208.01 194,210.5C 190.333,212.833 187.333,215.833 185,219.5C 183.777,225.39 185.944,229.39 191.5,231.5C 190.891,234.878 192.224,236.878 195.5,237.5C 182.541,242.003 169.875,241.169 157.5,235C 156.773,233.601 156.273,232.101 156,230.5C 153.25,231.291 150.417,231.291 147.5,230.5C 146.833,230.5 146.5,230.167 146.5,229.5C 146.629,227.784 146.962,226.117 147.5,224.5C 149.142,226.081 151.142,226.747 153.5,226.5C 154.092,223.873 154.425,221.206 154.5,218.5C 156.993,218.671 158.826,217.671 160,215.5C 159.846,209.722 161.18,204.389 164,199.5C 164.333,194.5 164.667,189.5 165,184.5C 166.509,183.91 168.009,183.244 169.5,182.5C 168.74,180.64 167.74,178.973 166.5,177.5C 174.402,175.399 182.402,174.066 190.5,173.5 Z"/></g>
<g><path style="opacity:1" fill="#000608" d="M 183.5,196.5 C 185.017,199.495 184.017,200.661 180.5,200C 179.483,198.951 179.316,197.784 180,196.5C 181.292,195.209 182.458,195.209 183.5,196.5 Z"/></g>
<g><path style="opacity:1" fill="#6d7879" d="M 183.5,196.5 C 183.361,198.337 182.694,198.67 181.5,197.5C 181.957,196.702 182.624,196.369 183.5,196.5 Z"/></g>
<g><path style="opacity:1" fill="#1a2e36" d="M 250.5,231.5 C 250.5,232.167 250.5,232.833 250.5,233.5C 246.242,234.408 241.908,235.075 237.5,235.5C 237.192,233.076 237.526,230.743 238.5,228.5C 240.773,227.625 241.773,225.958 241.5,223.5C 248.357,221.636 251.357,224.303 250.5,231.5 Z"/></g>
<g><path style="opacity:1" fill="#373839" d="M 209.5,220.5 C 209.833,220.5 210.167,220.5 210.5,220.5C 210.961,223.303 212.295,225.637 214.5,227.5C 209.379,227.964 204.379,228.964 199.5,230.5C 196.579,230.717 193.913,230.051 191.5,228.5C 191.56,227.957 191.893,227.624 192.5,227.5C 194.183,228.592 196.016,229.259 198,229.5C 204.119,229.196 207.953,226.196 209.5,220.5 Z"/></g>
<g><path style="opacity:1" fill="#d977b4" d="M 393.5,223.5 C 392.588,225.595 391.421,227.595 390,229.5C 385.94,233.07 381.773,236.404 377.5,239.5C 382.876,234.158 388.209,228.825 393.5,223.5 Z"/></g>
<g><path style="opacity:1" fill="#d168cb" d="M 400.5,267.5 C 401.254,272.463 401.587,277.463 401.5,282.5C 402.5,282.5 403.5,282.5 404.5,282.5C 406.037,287.479 406.37,292.479 405.5,297.5C 405.167,298.5 404.5,299.167 403.5,299.5C 401.143,299.337 398.81,299.503 396.5,300C 394.792,302.043 392.792,303.71 390.5,305C 373.421,308.683 356.088,309.516 338.5,307.5C 333.781,306.372 329.114,305.038 324.5,303.5C 318.171,299.161 312.171,294.494 306.5,289.5C 308.543,286.541 309.71,283.208 310,279.5C 310.8,271.784 310.633,264.117 309.5,256.5C 309.833,256.167 310.167,255.833 310.5,255.5C 311.622,256.63 312.956,257.297 314.5,257.5C 322.669,266.067 332.669,269.234 344.5,267C 349.167,264 353.833,261 358.5,258C 360.356,254.209 363.356,251.543 367.5,250C 369.961,246.944 372.627,244.111 375.5,241.5C 376.5,241.167 377.167,240.5 377.5,239.5C 381.773,236.404 385.94,233.07 390,229.5C 391.421,227.595 392.588,225.595 393.5,223.5C 393.833,223.5 394.167,223.5 394.5,223.5C 395.794,222.71 396.961,221.71 398,220.5C 399.196,226.508 398.363,232.175 395.5,237.5C 397.143,243.999 396.81,250.333 394.5,256.5C 396.799,260.106 398.799,263.772 400.5,267.5 Z"/></g>
<g><path style="opacity:1" fill="#f0aaae" d="M 191.5,228.5 C 193.913,230.051 196.579,230.717 199.5,230.5C 199.5,231.833 199.5,233.167 199.5,234.5C 198.764,236.229 197.43,237.229 195.5,237.5C 192.224,236.878 190.891,234.878 191.5,231.5C 191.5,230.5 191.5,229.5 191.5,228.5 Z"/></g>
<g><path style="opacity:1" fill="#cb75c4" d="M 400.5,218.5 C 399.905,228.667 399.238,238.833 398.5,249C 398.84,255.211 399.507,261.378 400.5,267.5C 398.799,263.772 396.799,260.106 394.5,256.5C 396.81,250.333 397.143,243.999 395.5,237.5C 398.363,232.175 399.196,226.508 398,220.5C 396.961,221.71 395.794,222.71 394.5,223.5C 396.311,220.556 398.144,217.556 400,214.5C 400.49,215.793 400.657,217.127 400.5,218.5 Z"/></g>
<g><path style="opacity:1" fill="#50526f" d="M 147.5,230.5 C 150.417,231.291 153.25,231.291 156,230.5C 156.273,232.101 156.773,233.601 157.5,235C 169.875,241.169 182.541,242.003 195.5,237.5C 197.43,237.229 198.764,236.229 199.5,234.5C 200.404,235.209 200.737,236.209 200.5,237.5C 181.371,244.856 163.704,242.523 147.5,230.5 Z"/></g>
<g><path style="opacity:1" fill="#c26fc1" d="M 146.5,229.5 C 146.5,230.167 146.833,230.5 147.5,230.5C 163.704,242.523 181.371,244.856 200.5,237.5C 201.473,239.948 201.806,242.615 201.5,245.5C 200.833,245.5 200.167,245.5 199.5,245.5C 199.5,243.833 199.5,242.167 199.5,240.5C 187.722,242.794 175.722,243.961 163.5,244C 165.771,246.092 168.437,247.426 171.5,248C 178.18,248.474 184.846,248.307 191.5,247.5C 191.5,247.833 191.5,248.167 191.5,248.5C 189.621,249.341 187.621,249.675 185.5,249.5C 169.656,250.677 155.656,246.344 143.5,236.5C 143.552,233.654 144.552,231.32 146.5,229.5 Z"/></g>
<g><path style="opacity:1" fill="#cf68ca" d="M 199.5,245.5 C 197.22,247.223 194.553,247.889 191.5,247.5C 184.846,248.307 178.18,248.474 171.5,248C 168.437,247.426 165.771,246.092 163.5,244C 175.722,243.961 187.722,242.794 199.5,240.5C 199.5,242.167 199.5,243.833 199.5,245.5 Z"/></g>
<g><path style="opacity:1" fill="#3f5868" d="M 143.5,236.5 C 155.656,246.344 169.656,250.677 185.5,249.5C 185.5,249.833 185.5,250.167 185.5,250.5C 177.12,250.738 168.787,250.238 160.5,249C 159.132,246.815 157.132,245.649 154.5,245.5C 151.325,246.849 148.325,248.516 145.5,250.5C 146.744,252.133 146.244,253.133 144,253.5C 143.055,253.095 142.388,252.428 142,251.5C 140.301,252.406 138.467,252.739 136.5,252.5C 136.618,249.75 137.951,247.75 140.5,246.5C 141.386,245.675 141.719,244.675 141.5,243.5C 138.393,244.553 135.393,245.886 132.5,247.5C 136.5,244.167 140.167,240.5 143.5,236.5 Z"/></g>
<g><path style="opacity:1" fill="#385a64" d="M 185.5,250.5 C 183.92,258.987 179.753,265.987 173,271.5C 170.216,274.717 168.882,278.384 169,282.5C 169.893,281.289 170.726,281.289 171.5,282.5C 169.775,284.957 169.275,287.623 170,290.5C 170.667,289.833 171.333,289.167 172,288.5C 172.638,298.85 172.471,309.183 171.5,319.5C 170.778,319.918 170.278,320.584 170,321.5C 169.428,330.174 168.761,338.841 168,347.5C 167.853,350.571 167.02,353.404 165.5,356C 165.728,356.399 166.062,356.565 166.5,356.5C 165.039,361.831 165.372,366.997 167.5,372C 166.442,383.706 171.275,392.206 182,397.5C 182.902,403.201 180.402,406.701 174.5,408C 169.49,409.125 164.823,408.458 160.5,406C 156.674,398.166 153.507,390 151,381.5C 149.378,380.901 147.878,380.234 146.5,379.5C 148.842,379.225 148.842,378.392 146.5,377C 147.738,377.077 148.738,376.911 149.5,376.5C 147.705,367.951 147.038,359.284 147.5,350.5C 147.325,340.781 146.492,331.115 145,321.5C 144.465,317.962 143.632,314.628 142.5,311.5C 140.045,303.344 138.379,295.011 137.5,286.5C 135.103,289.727 133.936,293.394 134,297.5C 132.108,298.13 130.441,299.13 129,300.5C 128.501,306.491 128.334,312.491 128.5,318.5C 125.193,317.519 121.86,316.519 118.5,315.5C 117.833,315.833 117.167,316.167 116.5,316.5C 117.747,318.323 118.414,320.323 118.5,322.5C 115.15,322.335 111.817,322.502 108.5,323C 106.536,324.451 105.203,326.284 104.5,328.5C 122.054,329.313 133.054,338.98 137.5,357.5C 136.46,362.688 134.793,367.688 132.5,372.5C 131.624,373.251 130.624,373.751 129.5,374C 129.728,374.399 130.062,374.565 130.5,374.5C 126.547,379.153 121.547,382.32 115.5,384C 122.783,385.662 130.116,386.995 137.5,388C 140.991,390.461 141.991,393.627 140.5,397.5C 137.323,400.363 133.656,402.196 129.5,403C 124.397,403.571 119.397,403.071 114.5,401.5C 111.542,395.209 106.876,390.542 100.5,387.5C 102.167,386.833 103.833,386.167 105.5,385.5C 95.3522,380.794 84.6856,377.627 73.5,376C 71.2726,375.059 69.2726,373.892 67.5,372.5C 64.474,365.011 62.8074,357.345 62.5,349.5C 63.4227,345.936 63.756,342.269 63.5,338.5C 64.6044,333.545 65.6044,328.545 66.5,323.5C 71.0721,306.615 79.0721,291.615 90.5,278.5C 96.3704,272.463 102.704,266.963 109.5,262C 117.532,257.656 125.199,252.823 132.5,247.5C 135.393,245.886 138.393,244.553 141.5,243.5C 141.719,244.675 141.386,245.675 140.5,246.5C 137.951,247.75 136.618,249.75 136.5,252.5C 138.467,252.739 140.301,252.406 142,251.5C 142.388,252.428 143.055,253.095 144,253.5C 146.244,253.133 146.744,252.133 145.5,250.5C 148.325,248.516 151.325,246.849 154.5,245.5C 157.132,245.649 159.132,246.815 160.5,249C 168.787,250.238 177.12,250.738 185.5,250.5 Z"/></g>
<g><path style="opacity:1" fill="#e7cfe5" d="M 263.5,231.5 C 264.217,234.714 266.217,236.88 269.5,238C 268.13,240.833 268.464,243.5 270.5,246C 269.376,246.839 268.709,248.006 268.5,249.5C 269.988,254.103 270.821,258.77 271,263.5C 269.292,255.205 266.126,247.538 261.5,240.5C 259.577,239.692 257.577,239.192 255.5,239C 256.997,237.129 258.997,236.129 261.5,236C 262.582,234.67 263.249,233.17 263.5,231.5 Z"/></g>
<g><path style="opacity:1" fill="#f193bc" d="M 375.5,241.5 C 372.627,244.111 369.961,246.944 367.5,250C 363.356,251.543 360.356,254.209 358.5,258C 353.833,261 349.167,264 344.5,267C 332.669,269.234 322.669,266.067 314.5,257.5C 320.014,260.409 325.681,263.242 331.5,266C 340.78,266.911 348.446,263.911 354.5,257C 361.991,252.279 368.991,247.113 375.5,241.5 Z"/></g>
<g><path style="opacity:1" fill="#edeeef" d="M 191.5,248.5 C 206.566,261.64 210.733,277.64 204,296.5C 202.391,299.407 200.558,302.073 198.5,304.5C 197.201,306.692 195.201,308.025 192.5,308.5C 191.376,309.914 190.376,311.414 189.5,313C 185.248,314.335 180.914,315.169 176.5,315.5C 175.211,317.897 174.211,319.897 173.5,321.5C 172.833,320.833 172.167,320.167 171.5,319.5C 172.471,309.183 172.638,298.85 172,288.5C 171.333,289.167 170.667,289.833 170,290.5C 169.275,287.623 169.775,284.957 171.5,282.5C 170.726,281.289 169.893,281.289 169,282.5C 168.882,278.384 170.216,274.717 173,271.5C 179.753,265.987 183.92,258.987 185.5,250.5C 185.5,250.167 185.5,249.833 185.5,249.5C 187.621,249.675 189.621,249.341 191.5,248.5 Z"/></g>
<g><path style="opacity:1" fill="#3a5a63" d="M 241.5,212.5 C 241.611,213.117 241.944,213.617 242.5,214C 241.128,215.242 240.128,216.742 239.5,218.5C 236.445,219.305 234.778,221.305 234.5,224.5C 235.778,228.219 236.778,231.886 237.5,235.5C 241.908,235.075 246.242,234.408 250.5,233.5C 250.313,235.564 249.813,237.564 249,239.5C 244.697,244.438 241.697,250.104 240,256.5C 237.76,269.419 236.093,282.419 235,295.5C 233.581,304.919 228.248,310.253 219,311.5C 211.652,310.396 204.819,308.063 198.5,304.5C 200.558,302.073 202.391,299.407 204,296.5C 210.733,277.64 206.566,261.64 191.5,248.5C 191.5,248.167 191.5,247.833 191.5,247.5C 194.553,247.889 197.22,247.223 199.5,245.5C 200.167,245.5 200.833,245.5 201.5,245.5C 204.685,255.184 210.352,263.184 218.5,269.5C 224.995,259.846 228.162,249.18 228,237.5C 230.353,232.774 231.686,227.774 232,222.5C 232.667,221.167 233.333,219.833 234,218.5C 237.021,216.961 239.521,214.961 241.5,212.5 Z"/></g>
<g><path style="opacity:0.98" fill="#f7f7f7" d="M 37.5,250.5 C 43.8256,249.981 47.3256,252.981 48,259.5C 50.9497,253.663 54.2831,253.33 58,258.5C 60.0435,262.25 59.8768,265.916 57.5,269.5C 59.9835,272.8 61.6501,276.467 62.5,280.5C 62.4441,283.111 61.4441,285.278 59.5,287C 54.4347,290.449 48.9347,292.949 43,294.5C 36.1066,293.095 32.7732,288.762 33,281.5C 24.9454,283.606 21.4454,280.606 22.5,272.5C 24.1667,271.333 25.8333,270.167 27.5,269C 20.9416,259.065 23.2749,255.899 34.5,259.5C 35.1849,256.353 36.1849,253.353 37.5,250.5 Z M 35.5,270.5 C 36.4972,270.47 37.1639,270.97 37.5,272C 34.6295,279.046 33.9628,278.546 35.5,270.5 Z"/></g>
<g><path style="opacity:1" fill="#d07ac6" d="M 400.5,267.5 C 404.971,276.93 407.638,286.93 408.5,297.5C 408.167,297.5 407.833,297.5 407.5,297.5C 407.062,296.494 406.396,296.494 405.5,297.5C 406.37,292.479 406.037,287.479 404.5,282.5C 403.5,282.5 402.5,282.5 401.5,282.5C 401.587,277.463 401.254,272.463 400.5,267.5 Z"/></g>
<g><path style="opacity:1" fill="#43556a" d="M 407.5,297.5 C 406.185,298.667 405.519,300.167 405.5,302C 406.715,307.503 406.715,313.003 405.5,318.5C 404.264,319.246 402.93,319.579 401.5,319.5C 401.827,314.456 401.494,309.456 400.5,304.5C 397.283,307.152 393.783,309.152 390,310.5C 388.938,309.903 387.772,309.57 386.5,309.5C 368.81,312.07 351.143,312.07 333.5,309.5C 331.097,307.794 328.43,306.461 325.5,305.5C 325.137,304.817 324.804,304.15 324.5,303.5C 329.114,305.038 333.781,306.372 338.5,307.5C 341.868,309.059 345.535,309.892 349.5,310C 367.146,311.764 384.146,309.431 400.5,303C 401.71,301.961 402.71,300.794 403.5,299.5C 404.5,299.167 405.167,298.5 405.5,297.5C 406.396,296.494 407.062,296.494 407.5,297.5 Z"/></g>
<g><path style="opacity:1" fill="#385963" d="M 306.5,289.5 C 312.171,294.494 318.171,299.161 324.5,303.5C 324.804,304.15 325.137,304.817 325.5,305.5C 328.43,306.461 331.097,307.794 333.5,309.5C 351.143,312.07 368.81,312.07 386.5,309.5C 387.772,309.57 388.938,309.903 390,310.5C 393.783,309.152 397.283,307.152 400.5,304.5C 401.494,309.456 401.827,314.456 401.5,319.5C 402.93,319.579 404.264,319.246 405.5,318.5C 406.715,313.003 406.715,307.503 405.5,302C 405.519,300.167 406.185,298.667 407.5,297.5C 407.833,297.5 408.167,297.5 408.5,297.5C 408.5,299.167 408.5,300.833 408.5,302.5C 409.02,312.344 408.02,322.011 405.5,331.5C 402.84,337.646 399.507,343.479 395.5,349C 396.416,349.278 397.082,349.778 397.5,350.5C 395.61,350.297 394.11,350.963 393,352.5C 390.833,355.333 388.667,358.167 386.5,361C 386.728,361.399 387.062,361.565 387.5,361.5C 383.873,365.139 380.539,369.139 377.5,373.5C 379.003,374.052 380.669,374.052 382.5,373.5C 384.896,377.286 387.063,381.286 389,385.5C 390.225,390.085 390.725,394.752 390.5,399.5C 389.294,402.298 387.294,404.465 384.5,406C 369.439,416.534 353.439,425.534 336.5,433C 321.998,438.389 309.165,435.889 298,425.5C 297,423.5 296,421.5 295,419.5C 294.827,413.652 294.327,407.985 293.5,402.5C 299.6,390.3 305.767,377.967 312,365.5C 318.365,356.095 324.198,346.428 329.5,336.5C 321.078,327.66 315.245,317.327 312,305.5C 310.733,315.434 313.067,324.434 319,332.5C 319.667,334.167 319.667,335.833 319,337.5C 303.816,356.022 288.983,374.855 274.5,394C 265.863,400.73 256.863,401.23 247.5,395.5C 246.702,395.957 246.369,396.624 246.5,397.5C 245.21,396.942 244.377,395.942 244,394.5C 242.254,382.149 244.921,370.816 252,360.5C 256.262,353.632 260.762,346.965 265.5,340.5C 278.757,323.235 292.424,306.235 306.5,289.5 Z"/></g>
<g><path style="opacity:1" fill="#bc70bf" d="M 403.5,299.5 C 402.71,300.794 401.71,301.961 400.5,303C 384.146,309.431 367.146,311.764 349.5,310C 345.535,309.892 341.868,309.059 338.5,307.5C 356.088,309.516 373.421,308.683 390.5,305C 392.792,303.71 394.792,302.043 396.5,300C 398.81,299.503 401.143,299.337 403.5,299.5 Z"/></g>
<g><path style="opacity:1" fill="#ebeeef" d="M 142.5,311.5 C 143.096,316.551 143.096,321.551 142.5,326.5C 137.72,324.644 134.887,326.311 134,331.5C 132.741,327.777 130.408,326.777 127,328.5C 122.219,325.637 117.052,324.804 111.5,326C 108.966,326.516 106.8,327.683 105,329.5C 104.601,329.272 104.435,328.938 104.5,328.5C 105.203,326.284 106.536,324.451 108.5,323C 111.817,322.502 115.15,322.335 118.5,322.5C 118.414,320.323 117.747,318.323 116.5,316.5C 117.167,316.167 117.833,315.833 118.5,315.5C 121.86,316.519 125.193,317.519 128.5,318.5C 128.334,312.491 128.501,306.491 129,300.5C 130.441,299.13 132.108,298.13 134,297.5C 133.936,293.394 135.103,289.727 137.5,286.5C 138.379,295.011 140.045,303.344 142.5,311.5 Z"/></g>
<g><path style="opacity:1" fill="#dcdfe0" d="M 142.5,311.5 C 143.632,314.628 144.465,317.962 145,321.5C 146.492,331.115 147.325,340.781 147.5,350.5C 144.876,352.568 141.876,353.901 138.5,354.5C 137.873,355.417 137.539,356.417 137.5,357.5C 133.054,338.98 122.054,329.313 104.5,328.5C 104.435,328.938 104.601,329.272 105,329.5C 106.8,327.683 108.966,326.516 111.5,326C 117.052,324.804 122.219,325.637 127,328.5C 130.408,326.777 132.741,327.777 134,331.5C 134.887,326.311 137.72,324.644 142.5,326.5C 143.096,321.551 143.096,316.551 142.5,311.5 Z"/></g>
<g><path style="opacity:1" fill="#2f4950" d="M 171.5,319.5 C 172.167,320.167 172.833,320.833 173.5,321.5C 173.796,323.403 174.463,325.07 175.5,326.5C 177.305,334.435 176.639,342.101 173.5,349.5C 171.527,352.139 169.194,354.473 166.5,356.5C 166.062,356.565 165.728,356.399 165.5,356C 167.02,353.404 167.853,350.571 168,347.5C 168.761,338.841 169.428,330.174 170,321.5C 170.278,320.584 170.778,319.918 171.5,319.5 Z"/></g>
<g><path style="opacity:0.981" fill="#f9f9f9" d="M 408.5,302.5 C 409.201,305.563 409.868,308.73 410.5,312C 432.617,320.146 452.117,332.313 469,348.5C 488.802,371.324 489.469,394.658 471,418.5C 453.406,436.056 432.906,449.222 409.5,458C 364.913,473.987 318.913,482.654 271.5,484C 216.453,486.36 162.453,480.027 109.5,465C 86.2848,457.717 64.6182,447.384 44.5,434C 3.95112,399.896 4.61779,366.563 46.5,334C 52.7784,329.695 59.4451,326.195 66.5,323.5C 65.6044,328.545 64.6044,333.545 63.5,338.5C 50.3029,342.202 42.4696,350.869 40,364.5C 39.5012,368.486 39.3345,372.486 39.5,376.5C 34.8977,387.167 35.731,397.5 42,407.5C 49.7943,417.622 59.6277,425.122 71.5,430C 104.484,441.272 137.484,441.272 170.5,430C 185.824,423.831 197.49,413.664 205.5,399.5C 205.261,401.467 205.594,403.301 206.5,405C 214.077,405.14 221.744,405.14 229.5,405C 230.464,400.934 230.797,396.767 230.5,392.5C 232.794,399.182 235.961,405.515 240,411.5C 253.856,425.842 270.356,435.675 289.5,441C 326.486,450.48 363.153,449.314 399.5,437.5C 414.182,432.164 426.849,423.83 437.5,412.5C 447.419,401.256 450.752,388.256 447.5,373.5C 451.838,372.498 456.171,371.332 460.5,370C 463.595,369.065 465.929,367.231 467.5,364.5C 468.117,364.611 468.617,364.944 469,365.5C 469.837,361.705 469.504,358.039 468,354.5C 456.135,345.757 443.135,343.091 429,346.5C 421.823,342.65 414.657,338.817 407.5,335C 406.177,334.184 405.511,333.017 405.5,331.5C 408.02,322.011 409.02,312.344 408.5,302.5 Z"/></g>
<g><path style="opacity:1" fill="#2c464e" d="M 63.5,338.5 C 63.756,342.269 63.4227,345.936 62.5,349.5C 57.4427,358.464 59.1094,366.131 67.5,372.5C 69.2726,373.892 71.2726,375.059 73.5,376C 84.6856,377.627 95.3522,380.794 105.5,385.5C 103.833,386.167 102.167,386.833 100.5,387.5C 106.876,390.542 111.542,395.209 114.5,401.5C 117.462,408.924 118.129,416.591 116.5,424.5C 106.254,415.248 94.2541,409.748 80.5,408C 82.7049,409.706 85.0383,411.206 87.5,412.5C 66.8855,414.597 53.7188,405.597 48,385.5C 47,386.833 46,388.167 45,389.5C 42.4128,385.483 40.5795,381.15 39.5,376.5C 39.3345,372.486 39.5012,368.486 40,364.5C 42.4696,350.869 50.3029,342.202 63.5,338.5 Z"/></g>
<g><path style="opacity:1" fill="#ebeced" d="M 405.5,331.5 C 405.511,333.017 406.177,334.184 407.5,335C 414.657,338.817 421.823,342.65 429,346.5C 443.135,343.091 456.135,345.757 468,354.5C 469.504,358.039 469.837,361.705 469,365.5C 468.617,364.944 468.117,364.611 467.5,364.5C 468.412,363.262 468.579,361.928 468,360.5C 467.5,361 467,361.5 466.5,362C 463.183,362.498 459.85,362.665 456.5,362.5C 447.317,361.287 438.317,359.287 429.5,356.5C 419.923,359.635 410.59,359.135 401.5,355C 400.751,353.266 400.251,351.433 400,349.5C 399.329,350.252 398.496,350.586 397.5,350.5C 397.082,349.778 396.416,349.278 395.5,349C 399.507,343.479 402.84,337.646 405.5,331.5 Z"/></g>
<g><path style="opacity:1" fill="#2a454f" d="M 293.5,402.5 C 282.152,406.377 270.485,407.877 258.5,407C 253.081,405.477 249.081,402.31 246.5,397.5C 246.369,396.624 246.702,395.957 247.5,395.5C 256.863,401.23 265.863,400.73 274.5,394C 288.983,374.855 303.816,356.022 319,337.5C 319.667,335.833 319.667,334.167 319,332.5C 313.067,324.434 310.733,315.434 312,305.5C 315.245,317.327 321.078,327.66 329.5,336.5C 324.198,346.428 318.365,356.095 312,365.5C 305.767,377.967 299.6,390.3 293.5,402.5 Z"/></g>
<g><path style="opacity:0.999" fill="#dfe0e0" d="M 173.5,349.5 C 179.605,353.059 185.605,356.893 191.5,361C 204.198,370.929 208.865,383.762 205.5,399.5C 197.49,413.664 185.824,423.831 170.5,430C 137.484,441.272 104.484,441.272 71.5,430C 59.6277,425.122 49.7943,417.622 42,407.5C 35.731,397.5 34.8977,387.167 39.5,376.5C 40.5795,381.15 42.4128,385.483 45,389.5C 46,388.167 47,386.833 48,385.5C 53.7188,405.597 66.8855,414.597 87.5,412.5C 85.0383,411.206 82.7049,409.706 80.5,408C 94.2541,409.748 106.254,415.248 116.5,424.5C 118.129,416.591 117.462,408.924 114.5,401.5C 119.397,403.071 124.397,403.571 129.5,403C 133.656,402.196 137.323,400.363 140.5,397.5C 141.991,393.627 140.991,390.461 137.5,388C 130.116,386.995 122.783,385.662 115.5,384C 121.547,382.32 126.547,379.153 130.5,374.5C 135.701,376.567 141.035,378.234 146.5,379.5C 147.878,380.234 149.378,380.901 151,381.5C 153.507,390 156.674,398.166 160.5,406C 164.823,408.458 169.49,409.125 174.5,408C 180.402,406.701 182.902,403.201 182,397.5C 171.275,392.206 166.442,383.706 167.5,372C 165.372,366.997 165.039,361.831 166.5,356.5C 169.194,354.473 171.527,352.139 173.5,349.5 Z"/></g>
<g><path style="opacity:1" fill="#2c464f" d="M 147.5,350.5 C 147.038,359.284 147.705,367.951 149.5,376.5C 148.738,376.911 147.738,377.077 146.5,377C 148.842,378.392 148.842,379.225 146.5,379.5C 141.035,378.234 135.701,376.567 130.5,374.5C 130.062,374.565 129.728,374.399 129.5,374C 130.624,373.751 131.624,373.251 132.5,372.5C 134.793,367.688 136.46,362.688 137.5,357.5C 137.539,356.417 137.873,355.417 138.5,354.5C 141.876,353.901 144.876,352.568 147.5,350.5 Z"/></g>
<g><path style="opacity:1" fill="#22353b" d="M 456.5,362.5 C 459.641,363.321 462.975,363.821 466.5,364C 460.612,365.576 454.612,365.909 448.5,365C 442.003,362.543 435.337,360.709 428.5,359.5C 418.953,362.57 409.619,362.07 400.5,358C 399.953,357.075 399.287,356.242 398.5,355.5C 397.164,357.171 395.831,358.838 394.5,360.5C 392.139,360.674 389.806,361.007 387.5,361.5C 387.062,361.565 386.728,361.399 386.5,361C 388.667,358.167 390.833,355.333 393,352.5C 394.11,350.963 395.61,350.297 397.5,350.5C 398.496,350.586 399.329,350.252 400,349.5C 400.251,351.433 400.751,353.266 401.5,355C 410.59,359.135 419.923,359.635 429.5,356.5C 438.317,359.287 447.317,361.287 456.5,362.5 Z"/></g>
<g><path style="opacity:1" fill="#d4dddf" d="M 62.5,349.5 C 62.8074,357.345 64.474,365.011 67.5,372.5C 59.1094,366.131 57.4427,358.464 62.5,349.5 Z"/></g>
<g><path style="opacity:1" fill="#3a5a63" d="M 456.5,362.5 C 459.85,362.665 463.183,362.498 466.5,362C 467,361.5 467.5,361 468,360.5C 468.579,361.928 468.412,363.262 467.5,364.5C 465.929,367.231 463.595,369.065 460.5,370C 456.171,371.332 451.838,372.498 447.5,373.5C 434.181,378.326 421.514,384.493 409.5,392C 408.207,392.49 406.873,392.657 405.5,392.5C 407.428,390.526 409.761,389.026 412.5,388C 412.956,384.206 414.956,381.539 418.5,380C 413.733,379.741 409.066,380.075 404.5,381C 401.112,378.214 398.446,374.881 396.5,371C 394.323,369.798 391.989,369.298 389.5,369.5C 391.86,367.135 393.86,364.468 395.5,361.5C 395.376,360.893 395.043,360.56 394.5,360.5C 395.831,358.838 397.164,357.171 398.5,355.5C 399.287,356.242 399.953,357.075 400.5,358C 409.619,362.07 418.953,362.57 428.5,359.5C 435.337,360.709 442.003,362.543 448.5,365C 454.612,365.909 460.612,365.576 466.5,364C 462.975,363.821 459.641,363.321 456.5,362.5 Z"/></g>
<g><path style="opacity:1" fill="#dadcde" d="M 394.5,360.5 C 395.043,360.56 395.376,360.893 395.5,361.5C 393.86,364.468 391.86,367.135 389.5,369.5C 387.167,370.833 384.833,372.167 382.5,373.5C 380.669,374.052 379.003,374.052 377.5,373.5C 380.539,369.139 383.873,365.139 387.5,361.5C 389.806,361.007 392.139,360.674 394.5,360.5 Z"/></g>
<g><path style="opacity:1" fill="#f8aaaa" d="M 389.5,369.5 C 391.989,369.298 394.323,369.798 396.5,371C 398.446,374.881 401.112,378.214 404.5,381C 409.066,380.075 413.733,379.741 418.5,380C 414.956,381.539 412.956,384.206 412.5,388C 409.761,389.026 407.428,390.526 405.5,392.5C 401.801,394.019 398.468,396.186 395.5,399C 393.866,399.494 392.199,399.66 390.5,399.5C 390.725,394.752 390.225,390.085 389,385.5C 387.063,381.286 384.896,377.286 382.5,373.5C 384.833,372.167 387.167,370.833 389.5,369.5 Z"/></g>
<g><path style="opacity:1" fill="#e0e0e1" d="M 260.5,335.5 C 261.234,336.878 261.901,338.378 262.5,340C 263.448,340.483 264.448,340.649 265.5,340.5C 260.762,346.965 256.262,353.632 252,360.5C 244.921,370.816 242.254,382.149 244,394.5C 244.377,395.942 245.21,396.942 246.5,397.5C 249.081,402.31 253.081,405.477 258.5,407C 270.485,407.877 282.152,406.377 293.5,402.5C 294.327,407.985 294.827,413.652 295,419.5C 296,421.5 297,423.5 298,425.5C 309.165,435.889 321.998,438.389 336.5,433C 353.439,425.534 369.439,416.534 384.5,406C 387.294,404.465 389.294,402.298 390.5,399.5C 392.199,399.66 393.866,399.494 395.5,399C 398.468,396.186 401.801,394.019 405.5,392.5C 406.873,392.657 408.207,392.49 409.5,392C 421.514,384.493 434.181,378.326 447.5,373.5C 450.752,388.256 447.419,401.256 437.5,412.5C 426.849,423.83 414.182,432.164 399.5,437.5C 363.153,449.314 326.486,450.48 289.5,441C 270.356,435.675 253.856,425.842 240,411.5C 235.961,405.515 232.794,399.182 230.5,392.5C 228.085,375.484 233.419,361.317 246.5,350C 250.91,346.379 255.41,342.879 260,339.5C 260.49,338.207 260.657,336.873 260.5,335.5 Z"/></g>
</svg>
