<?xml version="1.0" encoding="UTF-8"?>
<!DOCTYPE svg PUBLIC "-//W3C//DTD SVG 1.1//EN" "http://www.w3.org/Graphics/SVG/1.1/DTD/svg11.dtd">
<svg xmlns="http://www.w3.org/2000/svg" version="1.1" width="500px" height="500px" style="shape-rendering:geometricPrecision; text-rendering:geometricPrecision; image-rendering:optimizeQuality; fill-rule:evenodd; clip-rule:evenodd" xmlns:xlink="http://www.w3.org/1999/xlink">
<g><path style="opacity:0.991" fill="#eeeeee" d="M 139.5,154.5 C 139.369,153.624 139.702,152.957 140.5,152.5C 145.357,151.808 148.523,149.141 150,144.5C 150.833,102.829 150.667,61.1627 149.5,19.5C 106.482,44.3796 63.3151,69.3796 20,94.5C 19.5,136.832 19.3333,179.165 19.5,221.5C 20.8333,221.5 22.1667,221.5 23.5,221.5C 21.6885,223.983 19.8552,223.983 18,221.5C 17.6767,215.317 17.1767,209.15 16.5,203C 17.597,167.506 17.4304,132.006 16,96.5C 12.3134,92.8993 12.8134,90.066 17.5,88C 61.1601,63.5053 104.493,38.5053 147.5,13C 149.695,11.627 152.029,11.2937 154.5,12C 155.059,12.7247 155.392,13.5581 155.5,14.5C 153.845,19.2752 153.012,24.2752 153,29.5C 152.667,68.1667 152.333,106.833 152,145.5C 149.175,150.332 145.008,153.332 139.5,154.5 Z"/></g>
<g><path style="opacity:1" fill="#f9f9f9" d="M 139.5,154.5 C 112.892,170.811 85.8918,186.645 58.5,202C 59.056,202.383 59.3893,202.883 59.5,203.5C 58.8333,203.5 58.1667,203.5 57.5,203.5C 56.0536,202.387 54.3869,202.22 52.5,203C 50.2342,204.426 48.5676,206.26 47.5,208.5C 39.7923,213.354 31.7923,217.688 23.5,221.5C 22.1667,221.5 20.8333,221.5 19.5,221.5C 19.3333,179.165 19.5,136.832 20,94.5C 63.3151,69.3796 106.482,44.3796 149.5,19.5C 150.667,61.1627 150.833,102.829 150,144.5C 148.523,149.141 145.357,151.808 140.5,152.5C 139.702,152.957 139.369,153.624 139.5,154.5 Z"/></g>
<g><path style="opacity:0.947" fill="#eeeeee" d="M 458.5,23.5 C 472.7,26.5314 481.533,35.198 485,49.5C 488.665,60.8596 485.165,69.0263 474.5,74C 465.38,74.6907 458.213,71.1907 453,63.5C 445.922,54.5254 443.588,44.5254 446,33.5C 449.191,28.8366 453.358,25.5032 458.5,23.5 Z M 454.5,32.5 C 456.911,32.1367 458.411,33.1367 459,35.5C 459.484,37.9129 459.15,40.2462 458,42.5C 456.103,40.9837 453.936,40.317 451.5,40.5C 450.829,37.014 451.829,34.3473 454.5,32.5 Z M 451.5,43.5 C 455.654,47.7921 458.82,52.7921 461,58.5C 462,59.1667 463,59.8333 464,60.5C 464.709,56.1321 464.542,51.7988 463.5,47.5C 463.719,46.062 464.219,44.7287 465,43.5C 473.408,47.9852 476.741,54.9852 475,64.5C 473.206,68.6578 470.373,69.8244 466.5,68C 459.411,63.5801 454.577,57.4135 452,49.5C 451.505,47.5273 451.338,45.5273 451.5,43.5 Z"/></g>
<g><path style="opacity:1" fill="#f6f6f6" d="M 202.5,24.5 C 203.117,24.6107 203.617,24.944 204,25.5C 204.223,38.5187 204.723,51.5187 205.5,64.5C 205.48,65.7261 205.147,66.7261 204.5,67.5C 204.5,66.5 204.5,65.5 204.5,64.5C 201.984,64.7553 199.65,65.5886 197.5,67C 188.481,73.1766 179.148,78.8432 169.5,84C 166.691,85.7411 163.691,86.9078 160.5,87.5C 160.333,74.8289 160.5,62.1623 161,49.5C 174.814,41.0151 188.647,32.6818 202.5,24.5 Z"/></g>
<g><path style="opacity:0.47" fill="#fbfbfb" d="M 451.5,31.5 C 454.978,31.1842 458.312,31.6842 461.5,33C 474.51,42.5606 478.844,55.0606 474.5,70.5C 470.755,71.4399 467.088,70.9399 463.5,69C 451.182,58.9273 447.182,46.4273 451.5,31.5 Z M 454.5,32.5 C 451.829,34.3473 450.829,37.014 451.5,40.5C 453.936,40.317 456.103,40.9837 458,42.5C 459.15,40.2462 459.484,37.9129 459,35.5C 458.411,33.1367 456.911,32.1367 454.5,32.5 Z M 451.5,43.5 C 451.338,45.5273 451.505,47.5273 452,49.5C 454.577,57.4135 459.411,63.5801 466.5,68C 470.373,69.8244 473.206,68.6578 475,64.5C 476.741,54.9852 473.408,47.9852 465,43.5C 464.219,44.7287 463.719,46.062 463.5,47.5C 464.542,51.7988 464.709,56.1321 464,60.5C 463,59.8333 462,59.1667 461,58.5C 458.82,52.7921 455.654,47.7921 451.5,43.5 Z"/></g>
<g><path style="opacity:0.939" fill="#eeeeee" d="M 420.5,94.5 C 420.699,100.126 420.699,105.626 420.5,111C 416.328,113.394 412.661,112.894 409.5,109.5C 410.485,107.902 410.651,106.235 410,104.5C 407.032,106.991 403.865,107.157 400.5,105C 399.483,103.951 399.316,102.784 400,101.5C 400.759,103.635 402.259,104.968 404.5,105.5C 406.508,104.314 408.341,102.98 410,101.5C 412.162,104.124 414.995,105.124 418.5,104.5C 419.087,97.2751 418.253,90.2751 416,83.5C 415.333,84.1667 414.667,84.8333 414,85.5C 413.849,82.8807 413.015,80.5473 411.5,78.5C 414.109,75.8557 417.109,73.689 420.5,72C 416.478,72.9064 412.478,72.573 408.5,71C 407.01,70.2545 406.01,69.0879 405.5,67.5C 406.528,65.4401 406.528,63.4401 405.5,61.5C 401.683,63.7426 397.683,64.076 393.5,62.5C 393.5,60.5 393.5,58.5 393.5,56.5C 390.15,56.665 386.817,56.4983 383.5,56C 382.189,53.4514 380.523,51.2848 378.5,49.5C 380.463,45.2521 383.63,44.2521 388,46.5C 392.05,46.9514 393.717,45.2847 393,41.5C 391.527,43.0071 389.693,43.6738 387.5,43.5C 384.664,43.2937 381.998,42.627 379.5,41.5C 379.665,38.4816 379.498,35.4816 379,32.5C 377.59,34.8835 375.59,36.5502 373,37.5C 370.966,36.1379 368.799,35.1379 366.5,34.5C 366.737,33.209 366.404,32.209 365.5,31.5C 365.859,29.629 366.859,28.129 368.5,27C 376.589,24.9141 380.923,28.0807 381.5,36.5C 388.378,33.7467 393.045,35.7467 395.5,42.5C 399.39,40.9461 403.057,41.2794 406.5,43.5C 408.722,40.7754 411.555,39.1087 415,38.5C 417.406,38.7029 419.406,39.7029 421,41.5C 422.983,48.0214 424.316,54.6881 425,61.5C 426.44,63.0456 428.273,63.879 430.5,64C 433.192,66.6324 432.859,68.9658 429.5,71C 424.959,72.7634 420.959,75.2634 417.5,78.5C 420.632,83.5265 421.632,88.8599 420.5,94.5 Z"/></g>
<g><path style="opacity:1" fill="#e2e1e1" d="M 177.5,44.5 C 178.031,46.2258 179.198,47.8925 181,49.5C 194.385,41.0866 198.718,44.7533 194,60.5C 191.847,64.6535 188.514,67.3202 184,68.5C 183.085,67.6721 182.419,66.6721 182,65.5C 181.18,71.5099 177.68,74.0099 171.5,73C 169.73,71.0332 168.73,68.6998 168.5,66C 169.332,60.1802 169.999,54.3469 170.5,48.5C 172.564,48.313 174.564,47.813 176.5,47C 177.252,46.3292 177.586,45.4959 177.5,44.5 Z"/></g>
<g><path style="opacity:1" fill="#e2e2e2" d="M 365.5,31.5 C 366.404,32.209 366.737,33.209 366.5,34.5C 368.799,35.1379 370.966,36.1379 373,37.5C 375.59,36.5502 377.59,34.8835 379,32.5C 379.498,35.4816 379.665,38.4816 379.5,41.5C 381.998,42.627 384.664,43.2937 387.5,43.5C 389.693,43.6738 391.527,43.0071 393,41.5C 393.717,45.2847 392.05,46.9514 388,46.5C 383.63,44.2521 380.463,45.2521 378.5,49.5C 373.771,51.2532 369.437,50.5865 365.5,47.5C 365.239,42.6009 365.239,37.6009 365.5,32.5C 365.5,32.1667 365.5,31.8333 365.5,31.5 Z"/></g>
<g><path style="opacity:1" fill="#ebebeb" d="M 115.5,57.5 C 117.761,58.2516 119.927,59.2516 122,60.5C 123.8,59.6216 125.633,58.955 127.5,58.5C 127.441,62.7361 126.441,66.7361 124.5,70.5C 119.346,74.147 115.513,78.8137 113,84.5C 110.577,96.2141 107.91,107.881 105,119.5C 104.116,126.582 104.449,133.582 106,140.5C 107.667,141.833 109.333,143.167 111,144.5C 111.667,145.5 111.667,146.5 111,147.5C 108.753,149.155 106.42,149.488 104,148.5C 101.73,143.356 100.063,138.022 99,132.5C 98.3333,137.5 98.3333,142.5 99,147.5C 100.464,148.459 101.297,149.792 101.5,151.5C 100.168,153.663 98.3344,155.33 96,156.5C 94.1035,147.303 92.9368,137.97 92.5,128.5C 86.8283,131.058 80.8283,132.225 74.5,132C 72.7174,133.067 72.2174,134.567 73,136.5C 73.4828,135.552 73.6495,134.552 73.5,133.5C 75.1667,133.5 76.8333,133.5 78.5,133.5C 76.8976,140.038 73.7309,145.705 69,150.5C 68.0776,154.701 68.5776,158.701 70.5,162.5C 77.0105,165.796 76.8438,168.463 70,170.5C 69.5,170.167 69,169.833 68.5,169.5C 66.1626,164.743 63.8292,160.076 61.5,155.5C 58.7202,158.764 57.3868,162.597 57.5,167C 58.0674,170.401 58.9007,173.568 60,176.5C 58.4478,177.966 56.6145,178.966 54.5,179.5C 53.8333,171.833 53.1667,164.167 52.5,156.5C 45.72,152.583 45.8866,151.916 53,154.5C 53.8732,154.265 54.7065,153.931 55.5,153.5C 57.2674,150.963 58.7674,148.297 60,145.5C 60.6667,138.5 60.6667,131.5 60,124.5C 54.0471,127.885 49.0471,126.885 45,121.5C 44.0728,117.987 43.2394,114.487 42.5,111C 43.1667,110.333 43.8333,110.333 44.5,111C 48.989,118.159 54.989,119.492 62.5,115C 63.1667,114 63.8333,113 64.5,112C 72.9551,108.273 81.2884,104.273 89.5,100C 93.3405,96.4921 96.8405,92.6588 100,88.5C 102.531,81.239 104.865,73.9057 107,66.5C 109.396,63.0015 112.229,60.0015 115.5,57.5 Z"/></g>
<g><path style="opacity:0.999" fill="#100e0e" d="M 362.5,87.5 C 361.596,88.209 361.263,89.209 361.5,90.5C 360.127,90.3433 358.793,90.51 357.5,91C 356.12,92.9252 354.62,94.7585 353,96.5C 351.175,92.7661 350.175,88.7661 350,84.5C 347.304,83.8102 345.137,82.3102 343.5,80C 338.856,80.2913 334.189,80.2913 329.5,80C 326.57,78.2054 323.57,76.7054 320.5,75.5C 319.006,75.7092 317.839,76.3759 317,77.5C 316.441,81.1864 315.774,84.853 315,88.5C 314.768,87.2625 314.268,86.2625 313.5,85.5C 312.247,82.2198 312.247,78.8865 313.5,75.5C 312.271,73.4378 311.271,71.2711 310.5,69C 310.528,67.9302 310.861,67.0968 311.5,66.5C 313.589,66.1433 315.589,65.4767 317.5,64.5C 317.376,63.8933 317.043,63.56 316.5,63.5C 314.785,60.4582 315.452,58.1249 318.5,56.5C 327.689,60.7638 337.356,62.5971 347.5,62C 352.858,63.24 356.358,66.4067 358,71.5C 360.044,70.228 361.878,70.5614 363.5,72.5C 362.619,73.9705 361.286,74.8038 359.5,75C 360.931,75.4652 362.097,76.2986 363,77.5C 363.659,80.8881 363.492,84.2214 362.5,87.5 Z"/></g>
<g><path style="opacity:0.506" fill="#878b89" d="M 316.5,63.5 C 317.043,63.56 317.376,63.8933 317.5,64.5C 315.589,65.4767 313.589,66.1433 311.5,66.5C 312.913,65.0652 314.58,64.0652 316.5,63.5 Z"/></g>
<g><path style="opacity:1" fill="#dee0e0" d="M 202.5,24.5 C 188.647,32.6818 174.814,41.0151 161,49.5C 160.5,62.1623 160.333,74.8289 160.5,87.5C 163.691,86.9078 166.691,85.7411 169.5,84C 179.148,78.8432 188.481,73.1766 197.5,67C 199.65,65.5886 201.984,64.7553 204.5,64.5C 204.5,65.5 204.5,66.5 204.5,67.5C 204.5,68.8333 204.5,70.1667 204.5,71.5C 202.391,72.3909 200.391,73.5576 198.5,75C 199.833,75.3333 201.167,75.6667 202.5,76C 200.695,78.4029 198.362,80.0695 195.5,81C 196.451,81.7175 196.617,82.5509 196,83.5C 194.887,82.2889 193.72,82.2889 192.5,83.5C 190.615,80.072 187.949,79.9054 184.5,83C 186.403,84.8277 188.236,84.661 190,82.5C 190.167,82.8333 190.333,83.1667 190.5,83.5C 182.332,88.7516 173.999,93.7516 165.5,98.5C 163.73,94.6856 162.064,94.8522 160.5,99C 162.959,101.089 162.959,103.255 160.5,105.5C 159.534,103.604 159.201,101.604 159.5,99.5C 159.333,82.1635 159.5,64.8301 160,47.5C 173.667,39.5 187.333,31.5 201,23.5C 201.383,24.056 201.883,24.3893 202.5,24.5 Z"/></g>
<g><path style="opacity:1" fill="#e8e8e8" d="M 400.5,93.5 C 400.5,93.8333 400.5,94.1667 400.5,94.5C 400.018,97.4511 398.352,99.6178 395.5,101C 386.004,103.452 381.337,99.9516 381.5,90.5C 377.758,91.2743 375.258,89.941 374,86.5C 373.667,86.8333 373.333,87.1667 373,87.5C 370.564,86.6453 368.064,85.9787 365.5,85.5C 365.5,84.8333 365.5,84.1667 365.5,83.5C 367.364,82.1796 369.031,80.5129 370.5,78.5C 369.41,77.3914 369.41,76.3914 370.5,75.5C 372.092,77.6843 373.426,80.0176 374.5,82.5C 375.524,83.8532 376.857,84.5198 378.5,84.5C 378.051,82.0225 378.717,80.0225 380.5,78.5C 381.167,81.1667 381.833,83.8333 382.5,86.5C 383.2,80.6281 384.867,75.1281 387.5,70C 390.051,68.4524 392.718,68.4524 395.5,70C 393.071,70.4512 392.904,71.2845 395,72.5C 395.333,72.1667 395.667,71.8333 396,71.5C 396.245,73.6633 397.245,75.33 399,76.5C 399.173,82.3482 399.673,88.0149 400.5,93.5 Z"/></g>
<g><path style="opacity:1" fill="#8f9798" d="M 258.5,43.5 C 270.189,44.4269 279.689,49.4269 287,58.5C 293.48,70.6792 292.647,82.3458 284.5,93.5C 284.608,94.4419 284.941,95.2753 285.5,96C 288.881,97.7402 292.215,98.7402 295.5,99C 287.954,105.338 279.787,106.171 271,101.5C 253.718,106.406 239.718,101.739 229,87.5C 221.691,68.2708 227.524,54.4375 246.5,46C 250.637,45.1606 254.637,44.3272 258.5,43.5 Z"/></g>
<g><path style="opacity:0.972" fill="#fbfbfc" d="M 255.5,45.5 C 271.826,45.2314 282.993,52.5648 289,67.5C 290.531,77.3831 288.031,86.0497 281.5,93.5C 283.642,97.4096 286.975,99.5763 291.5,100C 288.876,101.978 285.876,102.812 282.5,102.5C 280.5,102.333 278.5,102.167 276.5,102C 273.139,99.0713 269.472,98.7379 265.5,101C 251.111,103.543 239.611,99.0428 231,87.5C 223.419,64.3296 231.586,50.3296 255.5,45.5 Z"/></g>
<g><path style="opacity:1" fill="#c9a9c5" d="M 251.5,53.5 C 256.167,53.5 260.833,53.5 265.5,53.5C 265.5,57.5 265.5,61.5 265.5,65.5C 269.5,65.5 273.5,65.5 277.5,65.5C 277.5,70.5 277.5,75.5 277.5,80.5C 273.5,80.5 269.5,80.5 265.5,80.5C 265.5,84.5 265.5,88.5 265.5,92.5C 260.5,92.5 255.5,92.5 250.5,92.5C 250.5,88.5 250.5,84.5 250.5,80.5C 246.563,80.7935 242.73,80.4601 239,79.5C 238.501,74.8452 238.334,70.1785 238.5,65.5C 242.833,65.5 247.167,65.5 251.5,65.5C 251.5,61.5 251.5,57.5 251.5,53.5 Z"/></g>
<g><path style="opacity:1" fill="#fdf5fc" d="M 252.5,54.5 C 256.5,54.5 260.5,54.5 264.5,54.5C 264.5,58.8333 264.5,63.1667 264.5,67.5C 268.5,67.5 272.5,67.5 276.5,67.5C 276.5,71.1667 276.5,74.8333 276.5,78.5C 272.5,78.5 268.5,78.5 264.5,78.5C 264.5,82.8333 264.5,87.1667 264.5,91.5C 260.5,91.5 256.5,91.5 252.5,91.5C 252.5,87.1667 252.5,82.8333 252.5,78.5C 248.5,78.5 244.5,78.5 240.5,78.5C 240.5,74.8333 240.5,71.1667 240.5,67.5C 244.437,67.7935 248.27,67.4601 252,66.5C 252.499,62.5138 252.666,58.5138 252.5,54.5 Z"/></g>
<g><path style="opacity:1" fill="#d398cf" d="M 254.5,66.5 C 255.5,66.5 256.5,66.5 257.5,66.5C 258.167,71.8333 258.833,71.8333 259.5,66.5C 260.5,66.5 261.5,66.5 262.5,66.5C 262.5,67.5 262.5,68.5 262.5,69.5C 263.5,69.5 264.5,69.5 265.5,69.5C 265.5,70.5 265.5,71.5 265.5,72.5C 264.448,72.3505 263.448,72.5172 262.5,73C 263.406,74.6995 263.739,76.5328 263.5,78.5C 260.167,77.1667 256.833,77.1667 253.5,78.5C 253.896,75.5178 253.229,72.8511 251.5,70.5C 252.325,69.6143 253.325,69.281 254.5,69.5C 254.5,68.5 254.5,67.5 254.5,66.5 Z"/></g>
<g><path style="opacity:1" fill="#cb6dc5" d="M 255.5,71.5 C 258.792,71.1196 261.125,72.4529 262.5,75.5C 259.914,76.48 257.247,76.8134 254.5,76.5C 254.366,74.7085 254.699,73.0418 255.5,71.5 Z"/></g>
<g><path style="opacity:0.901" fill="#f7f7f7" d="M 365.5,32.5 C 365.239,37.6009 365.239,42.6009 365.5,47.5C 369.437,50.5865 373.771,51.2532 378.5,49.5C 380.523,51.2848 382.189,53.4514 383.5,56C 386.817,56.4983 390.15,56.665 393.5,56.5C 393.5,58.5 393.5,60.5 393.5,62.5C 397.683,64.076 401.683,63.7426 405.5,61.5C 406.528,63.4401 406.528,65.4401 405.5,67.5C 406.01,69.0879 407.01,70.2545 408.5,71C 412.478,72.573 416.478,72.9064 420.5,72C 417.109,73.689 414.109,75.8557 411.5,78.5C 413.015,80.5473 413.849,82.8807 414,85.5C 414.667,84.8333 415.333,84.1667 416,83.5C 418.253,90.2751 419.087,97.2751 418.5,104.5C 414.995,105.124 412.162,104.124 410,101.5C 408.341,102.98 406.508,104.314 404.5,105.5C 402.259,104.968 400.759,103.635 400,101.5C 399.316,102.784 399.483,103.951 400.5,105C 403.865,107.157 407.032,106.991 410,104.5C 410.651,106.235 410.485,107.902 409.5,109.5C 412.661,112.894 416.328,113.394 420.5,111C 420.699,105.626 420.699,100.126 420.5,94.5C 421.074,96.7879 422.074,98.9546 423.5,101C 426.698,101.848 429.531,103.348 432,105.5C 432.667,106.833 432.667,108.167 432,109.5C 425.754,113.956 419.088,117.622 412,120.5C 405.962,118.138 400.128,115.305 394.5,112C 384.706,106.115 375.04,100.282 365.5,94.5C 364.833,93.1667 364.167,91.8333 363.5,90.5C 364.117,90.6107 364.617,90.944 365,91.5C 365.495,89.5273 365.662,87.5273 365.5,85.5C 368.064,85.9787 370.564,86.6453 373,87.5C 373.333,87.1667 373.667,86.8333 374,86.5C 375.258,89.941 377.758,91.2743 381.5,90.5C 381.337,99.9516 386.004,103.452 395.5,101C 398.352,99.6178 400.018,97.4511 400.5,94.5C 403.387,95.9682 404.72,94.9682 404.5,91.5C 404.711,88.8762 403.544,87.2095 401,86.5C 400.503,88.8098 400.337,91.1432 400.5,93.5C 399.673,88.0149 399.173,82.3482 399,76.5C 397.245,75.33 396.245,73.6633 396,71.5C 395.667,71.8333 395.333,72.1667 395,72.5C 392.904,71.2845 393.071,70.4512 395.5,70C 392.718,68.4524 390.051,68.4524 387.5,70C 384.867,75.1281 383.2,80.6281 382.5,86.5C 381.833,83.8333 381.167,81.1667 380.5,78.5C 378.717,80.0225 378.051,82.0225 378.5,84.5C 376.857,84.5198 375.524,83.8532 374.5,82.5C 373.426,80.0176 372.092,77.6843 370.5,75.5C 369.41,76.3914 369.41,77.3914 370.5,78.5C 369.031,80.5129 367.364,82.1796 365.5,83.5C 365.301,75.3593 366.634,67.3593 369.5,59.5C 369.333,58.8333 369.167,58.1667 369,57.5C 365.778,54.612 362.278,52.112 358.5,50C 357.065,47.7328 357.398,45.7328 359.5,44C 361.329,43.7265 362.829,42.8932 364,41.5C 364.181,38.3054 364.681,35.3054 365.5,32.5 Z M 400.5,94.5 C 400.5,94.1667 400.5,93.8333 400.5,93.5C 400.337,91.1432 400.503,88.8098 401,86.5C 403.544,87.2095 404.711,88.8762 404.5,91.5C 404.72,94.9682 403.387,95.9682 400.5,94.5 Z M 379.5,63.5 C 382.285,64.0904 384.619,65.4237 386.5,67.5C 384.827,69.0863 382.827,69.7529 380.5,69.5C 380.167,67.5 379.833,65.5 379.5,63.5 Z M 373.5,61.5 C 378.749,62.4766 379.749,65.1433 376.5,69.5C 375.675,70.3857 374.675,70.719 373.5,70.5C 373.5,67.5 373.5,64.5 373.5,61.5 Z"/></g>
<g><path style="opacity:1" fill="#f5f5f5" d="M 445.5,75.5 C 458.89,83.6145 472.39,91.6145 486,99.5C 486.5,111.495 486.667,123.495 486.5,135.5C 483.575,135.54 480.909,134.707 478.5,133C 467.743,125.869 456.576,119.369 445,113.5C 444.654,111.782 444.154,110.115 443.5,108.5C 444.167,97.4703 444.833,86.4703 445.5,75.5 Z"/></g>
<g><path style="opacity:0.58" fill="#fad9d8" d="M 314.5,89.5 C 315.921,97.2987 317.587,105.299 319.5,113.5C 317.689,111.615 316.522,109.281 316,106.5C 315.243,100.851 314.743,95.184 314.5,89.5 Z"/></g>
<g><path style="opacity:1" fill="#211413" d="M 356.5,106.5 C 356.727,108.933 355.727,110.599 353.5,111.5C 352.366,109.034 352.199,106.367 353,103.5C 354.145,104.636 355.312,105.636 356.5,106.5 Z"/></g>
<g><path style="opacity:0.756" fill="#f1f2f2" d="M 204.5,71.5 C 204.666,79.5069 204.5,87.5069 204,95.5C 202.99,99.8429 200.49,103.01 196.5,105C 185.195,111.901 173.695,118.401 162,124.5C 161.228,124.355 160.561,124.022 160,123.5C 158.549,115.358 158.383,107.358 159.5,99.5C 159.201,101.604 159.534,103.604 160.5,105.5C 162.959,103.255 162.959,101.089 160.5,99C 162.064,94.8522 163.73,94.6856 165.5,98.5C 173.999,93.7516 182.332,88.7516 190.5,83.5C 190.333,83.1667 190.167,82.8333 190,82.5C 188.236,84.661 186.403,84.8277 184.5,83C 187.949,79.9054 190.615,80.072 192.5,83.5C 193.72,82.2889 194.887,82.2889 196,83.5C 196.617,82.5509 196.451,81.7175 195.5,81C 198.362,80.0695 200.695,78.4029 202.5,76C 201.167,75.6667 199.833,75.3333 198.5,75C 200.391,73.5576 202.391,72.3909 204.5,71.5 Z"/></g>
<g><path style="opacity:1" fill="#faa8a7" d="M 362.5,87.5 C 362.263,88.791 362.596,89.791 363.5,90.5C 364.167,91.8333 364.833,93.1667 365.5,94.5C 365.399,100.711 362.399,104.711 356.5,106.5C 355.312,105.636 354.145,104.636 353,103.5C 352.199,106.367 352.366,109.034 353.5,111.5C 353.5,112.167 353.167,112.5 352.5,112.5C 351.578,118.06 350.578,123.727 349.5,129.5C 349.5,130.167 349.167,130.5 348.5,130.5C 348.565,130.062 348.399,129.728 348,129.5C 344.031,133.151 339.364,135.485 334,136.5C 333.055,136.095 332.388,135.428 332,134.5C 331.712,130.596 331.546,126.929 331.5,123.5C 332.369,121.283 332.702,118.95 332.5,116.5C 328.766,116.677 325.099,116.344 321.5,115.5C 320.5,115.167 319.833,114.5 319.5,113.5C 317.587,105.299 315.921,97.2987 314.5,89.5C 313.566,88.4324 313.232,87.099 313.5,85.5C 314.268,86.2625 314.768,87.2625 315,88.5C 315.774,84.853 316.441,81.1864 317,77.5C 317.839,76.3759 319.006,75.7092 320.5,75.5C 323.57,76.7054 326.57,78.2054 329.5,80C 334.189,80.2913 338.856,80.2913 343.5,80C 345.137,82.3102 347.304,83.8102 350,84.5C 350.175,88.7661 351.175,92.7661 353,96.5C 354.62,94.7585 356.12,92.9252 357.5,91C 358.793,90.51 360.127,90.3433 361.5,90.5C 361.263,89.209 361.596,88.209 362.5,87.5 Z"/></g>
<g><path style="opacity:1" fill="#230201" d="M 336.5,90.5 C 337.5,90.5 338.5,90.5 339.5,90.5C 339.5,91.5 339.5,92.5 339.5,93.5C 338.5,93.5 337.5,93.5 336.5,93.5C 336.5,92.5 336.5,91.5 336.5,90.5 Z"/></g>
<g><path style="opacity:1" fill="#260f0d" d="M 320.5,89.5 C 321.5,89.5 322.5,89.5 323.5,89.5C 323.5,90.8333 323.5,92.1667 323.5,93.5C 322.5,93.5 321.5,93.5 320.5,93.5C 320.5,92.1667 320.5,90.8333 320.5,89.5 Z"/></g>
<g><path style="opacity:1" fill="#431615" d="M 318.5,83.5 C 323.343,84.1449 323.509,85.1449 319,86.5C 317.317,85.8235 317.15,84.8235 318.5,83.5 Z"/></g>
<g><path style="opacity:1" fill="#33100d" d="M 338.5,83.5 C 340.973,83.6043 341.639,84.6043 340.5,86.5C 338.129,86.1084 337.462,85.1084 338.5,83.5 Z"/></g>
<g><path style="opacity:0.999" fill="#ededed" d="M 374.5,123.5 C 379.315,124.16 383.149,126.494 386,130.5C 390.387,138.997 394.387,147.664 398,156.5C 420.281,165.257 433.447,181.257 437.5,204.5C 434.866,206.969 432.366,209.636 430,212.5C 429.667,208.167 429.333,203.833 429,199.5C 428.829,204.864 428.329,210.198 427.5,215.5C 425.494,218.013 424.16,220.846 423.5,224C 427.816,234.475 428.482,245.142 425.5,256C 423.878,248.281 422.045,240.114 420,231.5C 419.102,228.931 417.935,226.598 416.5,224.5C 416.667,210.829 416.5,197.163 416,183.5C 414.89,181.963 413.39,181.297 411.5,181.5C 409.203,179.706 407.037,177.706 405,175.5C 404.333,176.5 404.333,177.5 405,178.5C 406.045,179.373 406.878,180.373 407.5,181.5C 406.032,182.779 405.365,184.446 405.5,186.5C 405.167,186.5 404.833,186.5 404.5,186.5C 403.812,196.995 403.812,207.662 404.5,218.5C 404.5,218.833 404.5,219.167 404.5,219.5C 400.19,222.994 395.19,224.328 389.5,223.5C 388.883,223.389 388.383,223.056 388,222.5C 387.49,216.442 386.657,210.442 385.5,204.5C 385.5,203.167 385.5,201.833 385.5,200.5C 385.5,199.167 384.833,198.5 383.5,198.5C 383.046,181.629 378.213,165.962 369,151.5C 368.337,142.102 368.837,132.769 370.5,123.5C 371.833,123.5 373.167,123.5 374.5,123.5 Z M 411.5,181.5 C 410.295,182.686 408.961,182.686 407.5,181.5C 406.878,180.373 406.045,179.373 405,178.5C 404.333,177.5 404.333,176.5 405,175.5C 407.037,177.706 409.203,179.706 411.5,181.5 Z"/></g>
<g><path style="opacity:1" fill="#60767c" d="M 268.5,143.5 C 267.178,143.67 266.011,143.337 265,142.5C 263.73,138.638 261.73,135.304 259,132.5C 258.51,131.207 258.343,129.873 258.5,128.5C 257.5,128.5 256.5,128.5 255.5,128.5C 255.813,131.247 255.48,133.914 254.5,136.5C 253.893,136.376 253.56,136.043 253.5,135.5C 254.319,132.695 254.819,129.695 255,126.5C 255.837,124.993 257.004,124.493 258.5,125C 262.748,130.662 266.081,136.829 268.5,143.5 Z"/></g>
<g><path style="opacity:1" fill="#415d68" d="M 253.5,135.5 C 253.56,136.043 253.893,136.376 254.5,136.5C 255.48,133.914 255.813,131.247 255.5,128.5C 256.5,128.5 257.5,128.5 258.5,128.5C 258.343,129.873 258.51,131.207 259,132.5C 261.73,135.304 263.73,138.638 265,142.5C 266.011,143.337 267.178,143.67 268.5,143.5C 269.833,144.167 270.833,145.167 271.5,146.5C 270.892,149.327 269.892,151.993 268.5,154.5C 258.924,144.873 247.591,138.04 234.5,134C 233.663,132.989 233.33,131.822 233.5,130.5C 232.986,128.634 232.32,126.8 231.5,125C 231.734,123.268 232.734,122.434 234.5,122.5C 240.575,127.248 246.909,131.581 253.5,135.5 Z"/></g>
<g><path style="opacity:0.998" fill="#efeeef" d="M 321.5,115.5 C 325.099,116.344 328.766,116.677 332.5,116.5C 332.702,118.95 332.369,121.283 331.5,123.5C 330.026,124.436 329.026,125.77 328.5,127.5C 325.949,129.578 324.116,132.244 323,135.5C 320.941,143.242 319.107,150.909 317.5,158.5C 317.664,155.813 317.497,153.146 317,150.5C 316.586,150.957 316.086,151.291 315.5,151.5C 314.767,155.204 314.1,158.871 313.5,162.5C 313.167,162.5 312.833,162.5 312.5,162.5C 312.917,153.329 314.417,144.329 317,135.5C 318.537,131.463 320.704,127.796 323.5,124.5C 323.167,124.167 322.833,123.833 322.5,123.5C 318.613,126.95 316.113,131.283 315,136.5C 312.246,144.611 310.746,152.944 310.5,161.5C 305.725,162.91 304.392,165.91 306.5,170.5C 306.133,175.003 305.133,179.336 303.5,183.5C 299.023,188.141 294.023,188.641 288.5,185C 285.98,183.303 283.647,181.47 281.5,179.5C 280.772,172.357 278.606,165.691 275,159.5C 271.947,158.9 269.781,157.234 268.5,154.5C 269.892,151.993 270.892,149.327 271.5,146.5C 277.978,150.576 284.311,154.91 290.5,159.5C 297.504,148.83 304.004,137.83 310,126.5C 313.883,122.95 318.049,119.783 322.5,117C 321.944,116.617 321.611,116.117 321.5,115.5 Z"/></g>
<g><path style="opacity:1" fill="#af76ac" d="M 328.5,127.5 C 326.952,131.598 325.119,135.598 323,139.5C 322.298,145.231 321.298,150.898 320,156.5C 319.5,176.831 319.333,197.164 319.5,217.5C 318.833,234.167 318.167,250.833 317.5,267.5C 317.5,231.167 317.5,194.833 317.5,158.5C 319.107,150.909 320.941,143.242 323,135.5C 324.116,132.244 325.949,129.578 328.5,127.5 Z"/></g>
<g><path style="opacity:1" fill="#a954a3" d="M 331.5,123.5 C 331.546,126.929 331.712,130.596 332,134.5C 332.388,135.428 333.055,136.095 334,136.5C 339.364,135.485 344.031,133.151 348,129.5C 348.399,129.728 348.565,130.062 348.5,130.5C 345.746,149.03 344.746,167.697 345.5,186.5C 345.5,186.833 345.5,187.167 345.5,187.5C 345.5,196.833 345.5,206.167 345.5,215.5C 344.539,217.265 344.205,219.265 344.5,221.5C 335.989,221.871 327.655,220.871 319.5,218.5C 319.5,218.167 319.5,217.833 319.5,217.5C 319.333,197.164 319.5,176.831 320,156.5C 321.298,150.898 322.298,145.231 323,139.5C 325.119,135.598 326.952,131.598 328.5,127.5C 329.026,125.77 330.026,124.436 331.5,123.5 Z"/></g>
<g><path style="opacity:1" fill="#c498c1" d="M 312.5,162.5 C 311.833,162.167 311.167,161.833 310.5,161.5C 310.746,152.944 312.246,144.611 315,136.5C 316.113,131.283 318.613,126.95 322.5,123.5C 322.833,123.833 323.167,124.167 323.5,124.5C 320.704,127.796 318.537,131.463 317,135.5C 314.417,144.329 312.917,153.329 312.5,162.5 Z"/></g>
<g><path style="opacity:1" fill="#f5f5f5" d="M 445.5,127.5 C 458.862,135.603 472.362,143.603 486,151.5C 486.5,163.495 486.667,175.495 486.5,187.5C 483.68,187.752 481.014,187.252 478.5,186C 467.836,178.666 456.836,171.832 445.5,165.5C 444.168,152.804 444.168,140.137 445.5,127.5 Z"/></g>
<g><path style="opacity:1" fill="#cb98c8" d="M 351.5,167.5 C 350.833,167.167 350.167,166.833 349.5,166.5C 349.337,164.143 349.503,161.81 350,159.5C 352.084,155.664 354.417,151.997 357,148.5C 357.499,143.511 357.666,138.511 357.5,133.5C 357.369,132.624 357.702,131.957 358.5,131.5C 359.331,138.142 359.831,144.809 360,151.5C 364.247,156.061 365.914,161.395 365,167.5C 364.667,167.833 364.333,168.167 364,168.5C 364.714,162.025 362.714,156.691 358,152.5C 352.597,155.983 350.43,160.983 351.5,167.5 Z"/></g>
<g><path style="opacity:1" fill="#394055" d="M 220.5,151.5 C 222.833,151.5 225.167,151.5 227.5,151.5C 225.601,155.381 224.601,159.548 224.5,164C 225.3,169.158 225.467,174.325 225,179.5C 224.292,180.381 223.458,181.047 222.5,181.5C 219.891,180.557 217.891,178.89 216.5,176.5C 218.672,176.837 220.505,177.837 222,179.5C 223.947,178.956 224.78,177.623 224.5,175.5C 223.039,169.939 222.206,164.272 222,158.5C 220.195,155.961 217.695,154.961 214.5,155.5C 216.118,153.684 218.118,152.351 220.5,151.5 Z"/></g>
<g><path style="opacity:1" fill="#f0e5f2" d="M 357.5,133.5 C 357.666,138.511 357.499,143.511 357,148.5C 354.417,151.997 352.084,155.664 350,159.5C 349.503,161.81 349.337,164.143 349.5,166.5C 349.5,166.833 349.5,167.167 349.5,167.5C 348.883,167.389 348.383,167.056 348,166.5C 347.667,164.167 347.333,161.833 347,159.5C 346.83,168.676 346.33,177.676 345.5,186.5C 344.746,167.697 345.746,149.03 348.5,130.5C 349.167,130.5 349.5,130.167 349.5,129.5C 350.482,128.859 351.482,128.193 352.5,127.5C 353.724,129.898 353.558,132.231 352,134.5C 351.586,134.043 351.086,133.709 350.5,133.5C 349.519,141.623 348.686,149.623 348,157.5C 348.112,154.553 349.612,153.22 352.5,153.5C 352.606,150.892 353.772,148.892 356,147.5C 356.174,142.649 356.674,137.982 357.5,133.5 Z"/></g>
<g><path style="opacity:0.939" fill="#f8f8f8" d="M 352.5,112.5 C 353.716,114.451 355.382,115.951 357.5,117C 363.16,119.493 368.826,121.659 374.5,123.5C 373.167,123.5 371.833,123.5 370.5,123.5C 368.837,132.769 368.337,142.102 369,151.5C 378.213,165.962 383.046,181.629 383.5,198.5C 381.396,198.201 379.396,198.534 377.5,199.5C 370.991,203.679 364.324,207.679 357.5,211.5C 355.976,215.283 354.976,219.283 354.5,223.5C 353.682,220.893 353.182,218.226 353,215.5C 352.333,214.167 351.667,214.167 351,215.5C 350.163,212.635 349.33,209.802 348.5,207C 349.807,201.221 349.807,195.388 348.5,189.5C 347.669,196.811 347.169,204.144 347,211.5C 346.829,203.323 346.329,195.323 345.5,187.5C 345.5,187.167 345.5,186.833 345.5,186.5C 346.33,177.676 346.83,168.676 347,159.5C 347.333,161.833 347.667,164.167 348,166.5C 348.383,167.056 348.883,167.389 349.5,167.5C 350.169,172.178 351.002,176.844 352,181.5C 352.465,182.931 353.299,184.097 354.5,185C 353.207,185.49 351.873,185.657 350.5,185.5C 350.281,186.675 350.614,187.675 351.5,188.5C 353.618,187.054 355.951,186.387 358.5,186.5C 356.193,185.023 354.36,183.023 353,180.5C 351.925,176.23 351.425,171.897 351.5,167.5C 350.43,160.983 352.597,155.983 358,152.5C 362.714,156.691 364.714,162.025 364,168.5C 364.333,168.167 364.667,167.833 365,167.5C 365.914,161.395 364.247,156.061 360,151.5C 359.831,144.809 359.331,138.142 358.5,131.5C 357.702,131.957 357.369,132.624 357.5,133.5C 356.674,137.982 356.174,142.649 356,147.5C 353.772,148.892 352.606,150.892 352.5,153.5C 349.612,153.22 348.112,154.553 348,157.5C 348.686,149.623 349.519,141.623 350.5,133.5C 351.086,133.709 351.586,134.043 352,134.5C 353.558,132.231 353.724,129.898 352.5,127.5C 351.482,128.193 350.482,128.859 349.5,129.5C 350.578,123.727 351.578,118.06 352.5,112.5 Z"/></g>
<g><path style="opacity:1" fill="#425961" d="M 310.5,161.5 C 311.167,161.833 311.833,162.167 312.5,162.5C 312.833,162.5 313.167,162.5 313.5,162.5C 316.683,169.659 314.35,172.326 306.5,170.5C 304.392,165.91 305.725,162.91 310.5,161.5 Z"/></g>
<g><path style="opacity:1" fill="#f3daf0" d="M 233.5,130.5 C 233.33,131.822 233.663,132.989 234.5,134C 247.591,138.04 258.924,144.873 268.5,154.5C 269.781,157.234 271.947,158.9 275,159.5C 278.606,165.691 280.772,172.357 281.5,179.5C 279.62,183.96 276.953,188.126 273.5,192C 267.174,195.081 260.507,196.915 253.5,197.5C 253.586,196.504 253.252,195.671 252.5,195C 248.867,194.851 245.534,194.018 242.5,192.5C 242.5,190.833 242.5,189.167 242.5,187.5C 246.996,187.447 251.663,187.281 256.5,187C 257.044,186.283 257.711,185.783 258.5,185.5C 266.583,191.896 268.916,190.229 265.5,180.5C 265.682,178.325 266.349,176.325 267.5,174.5C 267.457,173.584 267.124,172.917 266.5,172.5C 266.981,168.651 265.314,166.651 261.5,166.5C 260.737,165.732 259.737,165.232 258.5,165C 257.748,164.329 257.414,163.496 257.5,162.5C 257.795,161.103 258.129,159.603 258.5,158C 255.833,154.333 253.167,150.667 250.5,147C 245.628,145.612 240.628,145.112 235.5,145.5C 232.722,146.968 229.722,147.801 226.5,148C 224.273,148.941 222.273,150.108 220.5,151.5C 218.118,152.351 216.118,153.684 214.5,155.5C 211.006,157.5 208.84,160.5 208,164.5C 207.387,166.495 207.887,168.162 209.5,169.5C 207.598,172.337 206.931,175.671 207.5,179.5C 206.5,179.5 205.5,179.5 204.5,179.5C 204.953,178.542 205.619,177.708 206.5,177C 203.855,166.777 201.855,156.444 200.5,146C 202.068,139.432 206.068,135.098 212.5,133C 216.202,132.324 219.869,131.491 223.5,130.5C 226.783,130.688 230.116,130.688 233.5,130.5 Z"/></g>
<g><path style="opacity:1" fill="#2e434e" d="M 214.5,155.5 C 217.695,154.961 220.195,155.961 222,158.5C 222.206,164.272 223.039,169.939 224.5,175.5C 224.78,177.623 223.947,178.956 222,179.5C 220.505,177.837 218.672,176.837 216.5,176.5C 213.806,174.473 211.473,172.139 209.5,169.5C 207.887,168.162 207.387,166.495 208,164.5C 208.84,160.5 211.006,157.5 214.5,155.5 Z"/></g>
<g><path style="opacity:1" fill="#404459" d="M 235.5,145.5 C 240.628,145.112 245.628,145.612 250.5,147C 253.167,150.667 255.833,154.333 258.5,158C 258.129,159.603 257.795,161.103 257.5,162.5C 255.175,161.345 254.008,159.345 254,156.5C 251.172,152.825 247.672,150.158 243.5,148.5C 240.913,147.251 238.246,146.251 235.5,145.5 Z"/></g>
<g><path style="opacity:1" fill="#b973b8" d="M 235.5,145.5 C 238.246,146.251 240.913,147.251 243.5,148.5C 238.167,148.5 232.833,148.5 227.5,148.5C 227.5,149.5 227.5,150.5 227.5,151.5C 225.167,151.5 222.833,151.5 220.5,151.5C 222.273,150.108 224.273,148.941 226.5,148C 229.722,147.801 232.722,146.968 235.5,145.5 Z"/></g>
<g><path style="opacity:1" fill="#222d39" d="M 261.5,166.5 C 265.314,166.651 266.981,168.651 266.5,172.5C 266.167,172.5 265.833,172.5 265.5,172.5C 263.323,175.061 261.156,175.061 259,172.5C 259.058,170.565 259.891,168.898 261.5,167.5C 261.5,167.167 261.5,166.833 261.5,166.5 Z"/></g>
<g><path style="opacity:1" fill="#cf69c9" d="M 243.5,148.5 C 247.672,150.158 251.172,152.825 254,156.5C 254.008,159.345 255.175,161.345 257.5,162.5C 257.414,163.496 257.748,164.329 258.5,165C 259.737,165.232 260.737,165.732 261.5,166.5C 261.5,166.833 261.5,167.167 261.5,167.5C 258.045,168.128 256.878,170.128 258,173.5C 259.808,175.396 261.975,175.896 264.5,175C 265.252,174.329 265.586,173.496 265.5,172.5C 265.833,172.5 266.167,172.5 266.5,172.5C 267.124,172.917 267.457,173.584 267.5,174.5C 266.349,176.325 265.682,178.325 265.5,180.5C 263.224,182.351 260.891,184.018 258.5,185.5C 257.711,185.783 257.044,186.283 256.5,187C 251.663,187.281 246.996,187.447 242.5,187.5C 239.687,187.025 237.687,188.025 236.5,190.5C 231.117,188.483 226.45,185.483 222.5,181.5C 223.458,181.047 224.292,180.381 225,179.5C 225.467,174.325 225.3,169.158 224.5,164C 224.601,159.548 225.601,155.381 227.5,151.5C 227.5,150.5 227.5,149.5 227.5,148.5C 232.833,148.5 238.167,148.5 243.5,148.5 Z"/></g>
<g><path style="opacity:1" fill="#3b224f" d="M 240.5,166.5 C 241.833,166.5 243.167,166.5 244.5,166.5C 244.5,167.833 244.5,169.167 244.5,170.5C 241.5,170.833 240.167,169.5 240.5,166.5 Z"/></g>
<g><path style="opacity:1" fill="#4d315e" d="M 261.5,167.5 C 259.891,168.898 259.058,170.565 259,172.5C 261.156,175.061 263.323,175.061 265.5,172.5C 265.586,173.496 265.252,174.329 264.5,175C 261.975,175.896 259.808,175.396 258,173.5C 256.878,170.128 258.045,168.128 261.5,167.5 Z"/></g>
<g><path style="opacity:1" fill="#7c888b" d="M 362.5,169.5 C 363.775,173.22 363.275,176.887 361,180.5C 361.003,176.804 361.503,173.137 362.5,169.5 Z"/></g>
<g><path style="opacity:1" fill="#ad6ca7" d="M 151.5,191.5 C 150.423,188.911 150.423,185.577 151.5,181.5C 145.783,181.7 145.45,180.033 150.5,176.5C 151.689,175.571 153.022,175.238 154.5,175.5C 154.756,173.208 154.423,171.041 153.5,169C 150.843,168.825 148.176,168.992 145.5,169.5C 149.396,165.903 153.396,165.736 157.5,169C 156.833,169.667 156.167,170.333 155.5,171C 156.554,172.388 156.72,173.888 156,175.5C 154.229,176.304 152.729,177.471 151.5,179C 152.624,179.839 153.291,181.006 153.5,182.5C 152.828,185.512 152.161,188.512 151.5,191.5 Z"/></g>
<g><path style="opacity:1" fill="#677376" d="M 349.5,166.5 C 350.167,166.833 350.833,167.167 351.5,167.5C 351.425,171.897 351.925,176.23 353,180.5C 354.36,183.023 356.193,185.023 358.5,186.5C 355.951,186.387 353.618,187.054 351.5,188.5C 350.614,187.675 350.281,186.675 350.5,185.5C 351.873,185.657 353.207,185.49 354.5,185C 353.299,184.097 352.465,182.931 352,181.5C 351.002,176.844 350.169,172.178 349.5,167.5C 349.5,167.167 349.5,166.833 349.5,166.5 Z"/></g>
<g><path style="opacity:1" fill="#ecb2e7" d="M 209.5,169.5 C 211.473,172.139 213.806,174.473 216.5,176.5C 217.891,178.89 219.891,180.557 222.5,181.5C 226.45,185.483 231.117,188.483 236.5,190.5C 238.297,191.73 240.297,192.396 242.5,192.5C 245.534,194.018 248.867,194.851 252.5,195C 253.252,195.671 253.586,196.504 253.5,197.5C 251.586,198.185 249.586,198.685 247.5,199C 246.058,199.377 245.058,200.21 244.5,201.5C 230.534,203.227 219.034,198.56 210,187.5C 208.293,185.091 207.46,182.425 207.5,179.5C 206.931,175.671 207.598,172.337 209.5,169.5 Z"/></g>
<g><path style="opacity:1" fill="#d068ca" d="M 240.5,216.5 C 238.899,218.855 237.232,221.355 235.5,224C 233.092,225.115 231.092,226.782 229.5,229C 227.744,229.202 226.078,229.702 224.5,230.5C 220.387,237.094 218.72,244.094 219.5,251.5C 219.334,255.514 219.501,259.514 220,263.5C 221.406,266.409 223.572,268.409 226.5,269.5C 226.833,270.5 227.5,271.167 228.5,271.5C 228.572,276.096 226.238,278.429 221.5,278.5C 217.509,276.85 213.509,275.184 209.5,273.5C 209.167,272.5 208.5,271.833 207.5,271.5C 206.941,267.147 206.275,262.814 205.5,258.5C 205.134,256.095 204.467,253.762 203.5,251.5C 204.236,247.865 204.069,244.198 203,240.5C 202.411,242.863 200.911,243.863 198.5,243.5C 198.825,248.599 198.325,253.599 197,258.5C 194.571,259.029 192.738,260.363 191.5,262.5C 189.604,263.466 187.604,263.799 185.5,263.5C 181.303,264.25 177.97,262.917 175.5,259.5C 169.406,258.886 164.739,256.052 161.5,251C 160.207,250.51 158.873,250.343 157.5,250.5C 157.662,248.473 157.495,246.473 157,244.5C 155.889,241.401 154.056,238.901 151.5,237C 151.833,236 152.167,235 152.5,234C 151.042,229.957 150.375,225.791 150.5,221.5C 154.301,218.903 156.301,215.236 156.5,210.5C 159.512,208.548 162.512,206.882 165.5,205.5C 165.392,203.486 166.058,201.82 167.5,200.5C 170.33,200.037 172.997,199.371 175.5,198.5C 176.601,197.152 177.601,195.652 178.5,194C 182.019,193.148 185.353,191.981 188.5,190.5C 194.836,187.988 200.836,184.988 206.5,181.5C 206.682,183.591 206.348,185.591 205.5,187.5C 209.57,190.201 213.236,193.368 216.5,197C 220.079,198.262 223.412,199.929 226.5,202C 231.833,202.333 237.167,202.667 242.5,203C 243.973,203.71 244.64,204.876 244.5,206.5C 242.669,205.948 241.003,205.948 239.5,206.5C 240.417,209.758 240.751,213.091 240.5,216.5 Z"/></g>
<g><path style="opacity:1" fill="#f6a7b4" d="M 265.5,180.5 C 268.916,190.229 266.583,191.896 258.5,185.5C 260.891,184.018 263.224,182.351 265.5,180.5 Z"/></g>
<g><path style="opacity:1" fill="#363d41" d="M 358.5,186.5 C 360.23,185.024 361.563,185.358 362.5,187.5C 360.76,188.809 359.427,188.476 358.5,186.5 Z"/></g>
<g><path style="opacity:1" fill="#cc73c5" d="M 204.5,179.5 C 205.5,179.5 206.5,179.5 207.5,179.5C 207.46,182.425 208.293,185.091 210,187.5C 219.034,198.56 230.534,203.227 244.5,201.5C 246.043,202.736 247.043,204.402 247.5,206.5C 245.637,207.689 243.97,209.022 242.5,210.5C 242.829,213.228 242.163,215.562 240.5,217.5C 240.5,217.167 240.5,216.833 240.5,216.5C 240.751,213.091 240.417,209.758 239.5,206.5C 241.003,205.948 242.669,205.948 244.5,206.5C 244.64,204.876 243.973,203.71 242.5,203C 237.167,202.667 231.833,202.333 226.5,202C 223.412,199.929 220.079,198.262 216.5,197C 213.236,193.368 209.57,190.201 205.5,187.5C 206.348,185.591 206.682,183.591 206.5,181.5C 200.836,184.988 194.836,187.988 188.5,190.5C 189.864,186.236 192.864,184.403 197.5,185C 198.851,181.805 201.185,179.972 204.5,179.5 Z"/></g>
<g><path style="opacity:1" fill="#f9e8f9" d="M 407.5,181.5 C 408.961,182.686 410.295,182.686 411.5,181.5C 413.39,181.297 414.89,181.963 416,183.5C 416.5,197.163 416.667,210.829 416.5,224.5C 416.664,227.187 416.497,229.854 416,232.5C 414.415,233.376 413.415,234.709 413,236.5C 410.876,237.227 408.709,237.894 406.5,238.5C 405.893,238.376 405.56,238.043 405.5,237.5C 407.5,236.167 409.5,234.833 411.5,233.5C 412.167,233.5 412.5,233.167 412.5,232.5C 413.167,232.5 413.5,232.167 413.5,231.5C 414.496,215.675 414.83,199.675 414.5,183.5C 410.997,183.129 407.997,184.129 405.5,186.5C 405.365,184.446 406.032,182.779 407.5,181.5 Z"/></g>
<g><path style="opacity:1" fill="#63587a" d="M 242.5,187.5 C 242.5,189.167 242.5,190.833 242.5,192.5C 240.297,192.396 238.297,191.73 236.5,190.5C 237.687,188.025 239.687,187.025 242.5,187.5 Z"/></g>
<g><path style="opacity:1" fill="#d267ca" d="M 412.5,232.5 C 412.5,233.167 412.167,233.5 411.5,233.5C 409.833,233.5 408.167,233.5 406.5,233.5C 406.5,218.833 406.5,204.167 406.5,189.5C 408.484,189.617 410.15,188.95 411.5,187.5C 412.499,202.485 412.833,217.485 412.5,232.5 Z"/></g>
<g><path style="opacity:0.972" fill="#f5f5f5" d="M 450.5,252.5 C 444.247,261.681 435.413,266.014 424,265.5C 413.539,265.852 405.373,261.852 399.5,253.5C 401.7,250.465 403.7,247.299 405.5,244C 405.011,242.862 404.678,241.695 404.5,240.5C 404.5,239.5 404.5,238.5 404.5,237.5C 404.833,237.5 405.167,237.5 405.5,237.5C 405.56,238.043 405.893,238.376 406.5,238.5C 408.709,237.894 410.876,237.227 413,236.5C 413.415,234.709 414.415,233.376 416,232.5C 416.497,229.854 416.664,227.187 416.5,224.5C 417.935,226.598 419.102,228.931 420,231.5C 422.045,240.114 423.878,248.281 425.5,256C 428.482,245.142 427.816,234.475 423.5,224C 424.16,220.846 425.494,218.013 427.5,215.5C 428.329,210.198 428.829,204.864 429,199.5C 429.333,203.833 429.667,208.167 430,212.5C 432.366,209.636 434.866,206.969 437.5,204.5C 448.881,196.595 461.547,192.261 475.5,191.5C 475.649,192.552 475.483,193.552 475,194.5C 469.043,203.42 462.377,211.753 455,219.5C 453.373,227.13 448.873,232.296 441.5,235C 446.527,239.842 449.527,245.675 450.5,252.5 Z"/></g>
<g><path style="opacity:1" fill="#425d68" d="M 175.5,198.5 C 172.997,199.371 170.33,200.037 167.5,200.5C 166.153,201.171 164.986,201.171 164,200.5C 163.505,198.527 163.338,196.527 163.5,194.5C 160.721,194.721 158.054,194.388 155.5,193.5C 155.5,192.833 155.5,192.167 155.5,191.5C 157.119,189.762 159.119,189.262 161.5,190C 166.397,192.608 171.063,195.441 175.5,198.5 Z"/></g>
<g><path style="opacity:1" fill="#a753a2" d="M 151.5,191.5 C 152.833,191.5 154.167,191.5 155.5,191.5C 155.5,192.167 155.5,192.833 155.5,193.5C 155.414,194.496 155.748,195.329 156.5,196C 158.101,196.273 159.601,196.773 161,197.5C 161.498,200.482 161.665,203.482 161.5,206.5C 162.959,206.567 164.292,206.234 165.5,205.5C 162.512,206.882 159.512,208.548 156.5,210.5C 156.301,215.236 154.301,218.903 150.5,221.5C 150.167,221.5 149.833,221.5 149.5,221.5C 147.281,217.62 143.948,215.287 139.5,214.5C 137.428,210.97 135.095,207.637 132.5,204.5C 132.804,203.85 133.137,203.183 133.5,202.5C 132.112,200.891 131.112,199.058 130.5,197C 130.988,195.416 131.988,194.249 133.5,193.5C 132.407,189.892 132.24,186.225 133,182.5C 135.485,179.544 137.485,176.21 139,172.5C 140.509,170.081 142.675,169.081 145.5,169.5C 148.176,168.992 150.843,168.825 153.5,169C 154.423,171.041 154.756,173.208 154.5,175.5C 153.022,175.238 151.689,175.571 150.5,176.5C 145.45,180.033 145.783,181.7 151.5,181.5C 150.423,185.577 150.423,188.911 151.5,191.5 Z"/></g>
<g><path style="opacity:1" fill="#4e5273" d="M 155.5,193.5 C 158.054,194.388 160.721,194.721 163.5,194.5C 163.338,196.527 163.505,198.527 164,200.5C 164.986,201.171 166.153,201.171 167.5,200.5C 166.058,201.82 165.392,203.486 165.5,205.5C 164.292,206.234 162.959,206.567 161.5,206.5C 161.665,203.482 161.498,200.482 161,197.5C 159.601,196.773 158.101,196.273 156.5,196C 155.748,195.329 155.414,194.496 155.5,193.5 Z"/></g>
<g><path style="opacity:1" fill="#dfa2d9" d="M 385.5,200.5 C 385.5,201.833 385.5,203.167 385.5,204.5C 384.842,203.602 384.176,202.602 383.5,201.5C 374.755,205.285 366.422,209.619 358.5,214.5C 358.5,218.833 358.5,223.167 358.5,227.5C 358.167,227.5 357.833,227.5 357.5,227.5C 357.197,222.57 357.531,217.737 358.5,213C 366.004,208.413 373.671,204.08 381.5,200C 382.928,199.421 384.262,199.588 385.5,200.5 Z"/></g>
<g><path style="opacity:1" fill="#c88ec5" d="M 413.5,231.5 C 413.5,216.167 413.5,200.833 413.5,185.5C 410.525,185.307 408.025,186.307 406,188.5C 405.501,192.152 405.335,195.818 405.5,199.5C 404.515,195.366 404.182,191.032 404.5,186.5C 404.833,186.5 405.167,186.5 405.5,186.5C 407.997,184.129 410.997,183.129 414.5,183.5C 414.83,199.675 414.496,215.675 413.5,231.5 Z"/></g>
<g><path style="opacity:1" fill="#d069c9" d="M 385.5,204.5 C 386.657,210.442 387.49,216.442 388,222.5C 388.383,223.056 388.883,223.389 389.5,223.5C 387.957,225.928 386.957,228.594 386.5,231.5C 384.62,233.755 383.62,236.422 383.5,239.5C 384.833,239.5 386.167,239.5 387.5,239.5C 388.754,241.357 388.754,243.357 387.5,245.5C 383.073,248.153 379.073,251.153 375.5,254.5C 371.313,257.172 366.98,259.672 362.5,262C 360.934,262.765 359.601,262.598 358.5,261.5C 357.802,255.443 358.802,249.776 361.5,244.5C 362.386,245.325 362.719,246.325 362.5,247.5C 363.5,247.5 364.5,247.5 365.5,247.5C 365.831,239.14 365.498,230.807 364.5,222.5C 362.976,224.483 361.976,226.816 361.5,229.5C 360.735,228.388 359.735,227.721 358.5,227.5C 358.5,223.167 358.5,218.833 358.5,214.5C 366.422,209.619 374.755,205.285 383.5,201.5C 384.176,202.602 384.842,203.602 385.5,204.5 Z"/></g>
<g><path style="opacity:0.992" fill="#f5f5f6" d="M 317.5,158.5 C 317.5,194.833 317.5,231.167 317.5,267.5C 315.5,267.5 313.5,267.5 311.5,267.5C 311.5,270.5 311.5,273.5 311.5,276.5C 287.003,262.753 262.67,248.753 238.5,234.5C 239.466,228.888 240.132,223.221 240.5,217.5C 242.163,215.562 242.829,213.228 242.5,210.5C 243.404,211.209 243.737,212.209 243.5,213.5C 245.262,213.643 246.929,213.309 248.5,212.5C 267.128,214.194 285.794,215.36 304.5,216C 305.156,210.579 305.489,205.079 305.5,199.5C 305.495,193.789 304.828,188.456 303.5,183.5C 305.133,179.336 306.133,175.003 306.5,170.5C 314.35,172.326 316.683,169.659 313.5,162.5C 314.1,158.871 314.767,155.204 315.5,151.5C 316.086,151.291 316.586,150.957 317,150.5C 317.497,153.146 317.664,155.813 317.5,158.5 Z"/></g>
<g><path style="opacity:1" fill="#f8daf8" d="M 404.5,186.5 C 404.182,191.032 404.515,195.366 405.5,199.5C 405.823,206.022 405.49,212.355 404.5,218.5C 403.812,207.662 403.812,196.995 404.5,186.5 Z"/></g>
<g><path style="opacity:1" fill="#845e92" d="M 139.5,214.5 C 143.948,215.287 147.281,217.62 149.5,221.5C 149.5,227.5 149.5,233.5 149.5,239.5C 148.549,238.081 148.216,236.415 148.5,234.5C 148.666,230.154 148.499,225.821 148,221.5C 145.004,219.267 142.171,216.934 139.5,214.5 Z"/></g>
<g><path style="opacity:1" fill="#92468e" d="M 319.5,218.5 C 327.655,220.871 335.989,221.871 344.5,221.5C 345.222,236.496 345.389,251.496 345,266.5C 344.055,262.886 343.388,259.219 343,255.5C 341.731,256.905 341.231,258.571 341.5,260.5C 340.378,268.351 339.378,276.351 338.5,284.5C 337.778,284.082 337.278,283.416 337,282.5C 336.667,284.5 336.333,286.5 336,288.5C 328.506,284.173 321.006,280.007 313.5,276C 312.565,273.619 312.232,271.119 312.5,268.5C 314.584,269.248 316.584,269.248 318.5,268.5C 319.499,251.847 319.833,235.18 319.5,218.5 Z"/></g>
<g><path style="opacity:1" fill="#fbf3fa" d="M 345.5,187.5 C 346.329,195.323 346.829,203.323 347,211.5C 347.169,204.144 347.669,196.811 348.5,189.5C 349.807,195.388 349.807,201.221 348.5,207C 349.33,209.802 350.163,212.635 351,215.5C 351.667,214.167 352.333,214.167 353,215.5C 353.182,218.226 353.682,220.893 354.5,223.5C 354.976,219.283 355.976,215.283 357.5,211.5C 364.324,207.679 370.991,203.679 377.5,199.5C 379.396,198.534 381.396,198.201 383.5,198.5C 384.833,198.5 385.5,199.167 385.5,200.5C 384.262,199.588 382.928,199.421 381.5,200C 373.671,204.08 366.004,208.413 358.5,213C 357.531,217.737 357.197,222.57 357.5,227.5C 357.466,230.199 358.133,232.699 359.5,235C 359,235.5 358.5,236 358,236.5C 357.177,245.01 357.343,253.344 358.5,261.5C 359.601,262.598 360.934,262.765 362.5,262C 366.98,259.672 371.313,257.172 375.5,254.5C 378.122,252.356 381.122,251.023 384.5,250.5C 384.833,250.5 385.167,250.5 385.5,250.5C 385.5,250.833 385.5,251.167 385.5,251.5C 381.599,252.755 377.932,254.422 374.5,256.5C 374.719,257.675 374.386,258.675 373.5,259.5C 370.339,260.662 367.673,262.495 365.5,265C 362.773,265.818 360.106,265.652 357.5,264.5C 356.079,260.972 355.412,257.306 355.5,253.5C 354.5,253.5 353.5,253.5 352.5,253.5C 353.449,256.208 353.449,258.874 352.5,261.5C 351.833,259.5 351.167,257.5 350.5,255.5C 350.167,256.167 349.833,256.833 349.5,257.5C 350.269,260.115 350.603,262.781 350.5,265.5C 352.167,265.5 353.833,265.5 355.5,265.5C 355.33,266.822 355.663,267.989 356.5,269C 354.866,269.494 353.199,269.66 351.5,269.5C 351.5,270.833 351.5,272.167 351.5,273.5C 353.857,273.663 356.19,273.497 358.5,273C 358.848,271.147 360.182,269.647 362.5,268.5C 364.552,272.086 367.052,272.419 370,269.5C 371.654,269.206 373.154,269.873 374.5,271.5C 366.058,274.139 357.392,275.473 348.5,275.5C 347.296,255.509 346.296,235.509 345.5,215.5C 345.5,206.167 345.5,196.833 345.5,187.5 Z"/></g>
<g><path style="opacity:1" fill="#be71bd" d="M 413.5,231.5 C 413.5,232.167 413.167,232.5 412.5,232.5C 412.833,217.485 412.499,202.485 411.5,187.5C 410.15,188.95 408.484,189.617 406.5,189.5C 406.5,204.167 406.5,218.833 406.5,233.5C 408.167,233.5 409.833,233.5 411.5,233.5C 409.5,234.833 407.5,236.167 405.5,237.5C 405.167,237.5 404.833,237.5 404.5,237.5C 404.5,231.5 404.5,225.5 404.5,219.5C 404.5,219.167 404.5,218.833 404.5,218.5C 405.49,212.355 405.823,206.022 405.5,199.5C 405.335,195.818 405.501,192.152 406,188.5C 408.025,186.307 410.525,185.307 413.5,185.5C 413.5,200.833 413.5,216.167 413.5,231.5 Z"/></g>
<g><path style="opacity:1" fill="#efd1ec" d="M 57.5,203.5 C 58.1667,203.5 58.8333,203.5 59.5,203.5C 65.3376,205.837 70.1709,209.504 74,214.5C 74.49,215.793 74.6567,217.127 74.5,218.5C 79.0921,217.916 81.9254,219.916 83,224.5C 83.4974,227.146 83.6641,229.813 83.5,232.5C 82.4863,233.674 81.153,234.34 79.5,234.5C 80.129,232.535 80.7957,230.535 81.5,228.5C 80.8246,225.822 80.158,223.156 79.5,220.5C 77.7376,220.357 76.0709,220.691 74.5,221.5C 74.0211,215.909 71.0211,212.409 65.5,211C 64.7785,208.259 63.1118,207.259 60.5,208C 62.5928,212.106 64.5928,216.273 66.5,220.5C 65.8333,221.167 65.1667,221.833 64.5,222.5C 65.5,223.333 66.5,224.167 67.5,225C 65.6404,229.299 66.9737,231.299 71.5,231C 72.652,228.851 74.152,227.018 76,225.5C 76.8699,226.108 77.3699,226.941 77.5,228C 73.1744,232.312 69.8411,237.312 67.5,243C 68.9192,248.882 68.7526,254.715 67,260.5C 66.6667,254.5 66.3333,248.5 66,242.5C 65.044,241.421 64.2106,240.255 63.5,239C 59.5016,236.804 55.5016,234.804 51.5,233C 53.3553,232.578 55.1886,232.078 57,231.5C 63.7739,237.394 65.7739,236.061 63,227.5C 62,226.833 61,226.167 60,225.5C 60.1218,220.979 58.7885,216.979 56,213.5C 55.2937,211.029 55.627,208.695 57,206.5C 57.8928,207.711 58.7261,207.711 59.5,206.5C 58.8075,205.482 58.1408,204.482 57.5,203.5 Z"/></g>
<g><path style="opacity:1" fill="#f3caf0" d="M 358.5,261.5 C 357.343,253.344 357.177,245.01 358,236.5C 358.5,236 359,235.5 359.5,235C 358.133,232.699 357.466,230.199 357.5,227.5C 357.833,227.5 358.167,227.5 358.5,227.5C 359.735,227.721 360.735,228.388 361.5,229.5C 361.976,226.816 362.976,224.483 364.5,222.5C 365.498,230.807 365.831,239.14 365.5,247.5C 364.5,247.5 363.5,247.5 362.5,247.5C 362.719,246.325 362.386,245.325 361.5,244.5C 358.802,249.776 357.802,255.443 358.5,261.5 Z"/></g>
<g><path style="opacity:1" fill="#eec6ea" d="M 57.5,203.5 C 58.1408,204.482 58.8075,205.482 59.5,206.5C 58.7261,207.711 57.8928,207.711 57,206.5C 55.627,208.695 55.2937,211.029 56,213.5C 58.7885,216.979 60.1218,220.979 60,225.5C 61,226.167 62,226.833 63,227.5C 65.7739,236.061 63.7739,237.394 57,231.5C 55.1886,232.078 53.3553,232.578 51.5,233C 55.5016,234.804 59.5016,236.804 63.5,239C 64.2106,240.255 65.044,241.421 66,242.5C 66.3333,248.5 66.6667,254.5 67,260.5C 68.7526,254.715 68.9192,248.882 67.5,243C 69.8411,237.312 73.1744,232.312 77.5,228C 77.3699,226.941 76.8699,226.108 76,225.5C 74.152,227.018 72.652,228.851 71.5,231C 66.9737,231.299 65.6404,229.299 67.5,225C 66.5,224.167 65.5,223.333 64.5,222.5C 65.1667,221.833 65.8333,221.167 66.5,220.5C 64.5928,216.273 62.5928,212.106 60.5,208C 63.1118,207.259 64.7785,208.259 65.5,211C 71.0211,212.409 74.0211,215.909 74.5,221.5C 76.0709,220.691 77.7376,220.357 79.5,220.5C 80.158,223.156 80.8246,225.822 81.5,228.5C 80.7957,230.535 80.129,232.535 79.5,234.5C 75.9468,236.04 74.7801,238.707 76,242.5C 78.3143,243.733 80.4809,245.067 82.5,246.5C 81.5489,247.919 81.2155,249.585 81.5,251.5C 81.8278,262.346 81.4944,273.013 80.5,283.5C 80.6657,279.154 80.499,274.821 80,270.5C 76.7386,273.578 74.5719,277.244 73.5,281.5C 71.5891,281.574 70.4224,282.574 70,284.5C 68.7748,289.085 68.2748,293.752 68.5,298.5C 68.6641,301.187 68.4974,303.854 68,306.5C 67.2904,307.973 66.1238,308.64 64.5,308.5C 64.5,305.167 64.5,301.833 64.5,298.5C 64.5,296.167 64.5,293.833 64.5,291.5C 65.3255,295.982 65.8255,300.649 66,305.5C 66.3333,305.167 66.6667,304.833 67,304.5C 67.8082,294.787 68.1415,285.12 68,275.5C 68.3826,276.056 68.8826,276.389 69.5,276.5C 69.5,276.833 69.5,277.167 69.5,277.5C 69.811,278.478 70.4777,279.145 71.5,279.5C 74.173,275.666 77.0063,272 80,268.5C 80.6667,263.167 80.6667,257.833 80,252.5C 77.1312,255.704 73.9646,258.537 70.5,261C 67.5,261.667 64.5,261.667 61.5,261C 59.3475,258.835 56.6808,258.002 53.5,258.5C 53.3227,262.234 53.6561,265.901 54.5,269.5C 51.7912,267.881 48.7912,266.881 45.5,266.5C 42.4701,267.342 39.4701,267.842 36.5,268C 39.8344,265.925 43.5011,265.091 47.5,265.5C 46.1183,262.279 43.7849,259.779 40.5,258C 40.8333,257.667 41.1667,257.333 41.5,257C 40.2899,255.961 39.2899,254.794 38.5,253.5C 36.1843,252.84 33.851,252.173 31.5,251.5C 29.9707,251.529 28.804,252.196 28,253.5C 26.2817,251.103 25.1151,248.436 24.5,245.5C 23.3391,249.795 23.1725,254.129 24,258.5C 25.7685,260.54 27.9352,262.04 30.5,263C 29.6886,265.105 28.6886,267.105 27.5,269C 28.8561,270.567 29.5228,272.4 29.5,274.5C 33.0419,274.187 36.3752,274.521 39.5,275.5C 36.5,275.5 33.5,275.5 30.5,275.5C 27.1123,274.44 25.1123,272.107 24.5,268.5C 25.4839,266.52 26.8173,264.853 28.5,263.5C 25.8336,262.961 23.6669,261.628 22,259.5C 21.4207,254.473 21.0874,249.473 21,244.5C 29.8855,240.569 38.7189,240.569 47.5,244.5C 48.737,244.444 49.737,243.944 50.5,243C 43.526,239.551 41.026,234.051 43,226.5C 44.9162,225.072 47.0829,224.072 49.5,223.5C 44.5071,219.322 44.1737,214.655 48.5,209.5C 48.3764,208.893 48.0431,208.56 47.5,208.5C 48.5676,206.26 50.2342,204.426 52.5,203C 54.3869,202.22 56.0536,202.387 57.5,203.5 Z"/></g>
<g><path style="opacity:1" fill="#a552a1" d="M 240.5,216.5 C 240.5,216.833 240.5,217.167 240.5,217.5C 240.132,223.221 239.466,228.888 238.5,234.5C 238.167,234.5 237.833,234.5 237.5,234.5C 236.104,241.564 236.437,248.564 238.5,255.5C 239.734,258.407 241.734,260.741 244.5,262.5C 246.091,265.82 245.091,267.986 241.5,269C 238.445,269.634 235.445,269.468 232.5,268.5C 230.425,266.281 228.091,264.281 225.5,262.5C 224.555,258.552 223.888,254.552 223.5,250.5C 222.041,250.433 220.708,250.766 219.5,251.5C 218.72,244.094 220.387,237.094 224.5,230.5C 226.078,229.702 227.744,229.202 229.5,229C 231.092,226.782 233.092,225.115 235.5,224C 237.232,221.355 238.899,218.855 240.5,216.5 Z"/></g>
<g><path style="opacity:1" fill="#3c5965" d="M 404.5,219.5 C 404.5,225.5 404.5,231.5 404.5,237.5C 404.5,238.5 404.5,239.5 404.5,240.5C 402.742,246.243 398.742,249.409 392.5,250C 390.19,250.497 387.857,250.663 385.5,250.5C 386.878,249.766 388.378,249.099 390,248.5C 390.499,244.179 390.666,239.846 390.5,235.5C 389.167,235.5 387.833,235.5 386.5,235.5C 386.5,234.167 386.5,232.833 386.5,231.5C 386.957,228.594 387.957,225.928 389.5,223.5C 395.19,224.328 400.19,222.994 404.5,219.5 Z"/></g>
<g><path style="opacity:1" fill="#535575" d="M 386.5,231.5 C 386.5,232.833 386.5,234.167 386.5,235.5C 387.833,235.5 389.167,235.5 390.5,235.5C 390.666,239.846 390.499,244.179 390,248.5C 388.378,249.099 386.878,249.766 385.5,250.5C 385.167,250.5 384.833,250.5 384.5,250.5C 385.787,248.743 387.287,247.076 389,245.5C 389.667,242.833 389.667,240.167 389,237.5C 388.283,238.044 387.783,238.711 387.5,239.5C 386.167,239.5 384.833,239.5 383.5,239.5C 383.62,236.422 384.62,233.755 386.5,231.5 Z"/></g>
<g><path style="opacity:1" fill="#ba7aba" d="M 384.5,250.5 C 381.122,251.023 378.122,252.356 375.5,254.5C 379.073,251.153 383.073,248.153 387.5,245.5C 388.754,243.357 388.754,241.357 387.5,239.5C 387.783,238.711 388.283,238.044 389,237.5C 389.667,240.167 389.667,242.833 389,245.5C 387.287,247.076 385.787,248.743 384.5,250.5 Z"/></g>
<g><path style="opacity:1" fill="#eab5e6" d="M 38.5,253.5 C 36.2597,251.034 33.593,249.034 30.5,247.5C 29.5713,246.311 29.238,244.978 29.5,243.5C 35.8452,242.484 41.5118,243.817 46.5,247.5C 46.9932,250.478 48.4932,252.811 51,254.5C 52.8442,265.82 51.0109,266.487 45.5,256.5C 44.914,256.709 44.414,257.043 44,257.5C 42.549,255.536 40.7157,254.203 38.5,253.5 Z"/></g>
<g><path style="opacity:0.992" fill="#f5f5f5" d="M 385.5,251.5 C 389.588,253.18 393.921,253.847 398.5,253.5C 397.953,263.69 398.953,273.69 401.5,283.5C 395.247,289.692 394.914,296.192 400.5,303C 412.619,310.923 425.619,312.59 439.5,308C 447.055,306.119 451.388,301.452 452.5,294C 451.084,289.842 449.417,285.842 447.5,282C 447.898,276.579 448.898,271.412 450.5,266.5C 450.777,269.448 450.444,272.281 449.5,275C 502.797,326.302 502.797,377.636 449.5,429C 408.82,460.244 362.82,479.244 311.5,486C 244.194,496.225 178.527,489.891 114.5,467C 83.0085,455.18 55.8419,437.013 33,412.5C -0.121923,368.07 2.04474,325.403 39.5,284.5C 40.1667,284.5 40.8333,284.5 41.5,284.5C 47.3465,285.167 53.3465,285.833 59.5,286.5C 51.6617,287.997 45.1617,291.664 40,297.5C 37.4483,303.557 35.9483,309.891 35.5,316.5C 36.6836,324.698 38.3503,332.698 40.5,340.5C 38.0164,348.88 40.683,355.047 48.5,359C 59.0184,363.278 69.6851,363.612 80.5,360C 81.756,359.583 82.4226,358.75 82.5,357.5C 83.3382,357.842 83.6716,358.508 83.5,359.5C 80.8648,361.826 78.1982,364.159 75.5,366.5C 78.3041,368.138 80.9708,369.971 83.5,372C 139.561,403.535 195.227,435.868 250.5,469C 253.747,470.459 257.08,471.626 260.5,472.5C 285.936,459.282 310.936,445.282 335.5,430.5C 349.124,429.609 362.458,427.109 375.5,423C 380.833,419.667 386.167,416.333 391.5,413C 407.319,396.44 405.986,381.44 387.5,368C 384.606,366.207 381.606,364.707 378.5,363.5C 378.41,332.622 377.076,301.956 374.5,271.5C 373.154,269.873 371.654,269.206 370,269.5C 367.052,272.419 364.552,272.086 362.5,268.5C 360.182,269.647 358.848,271.147 358.5,273C 356.19,273.497 353.857,273.663 351.5,273.5C 351.5,272.167 351.5,270.833 351.5,269.5C 353.199,269.66 354.866,269.494 356.5,269C 355.663,267.989 355.33,266.822 355.5,265.5C 353.833,265.5 352.167,265.5 350.5,265.5C 350.603,262.781 350.269,260.115 349.5,257.5C 349.833,256.833 350.167,256.167 350.5,255.5C 351.167,257.5 351.833,259.5 352.5,261.5C 353.449,258.874 353.449,256.208 352.5,253.5C 353.5,253.5 354.5,253.5 355.5,253.5C 355.412,257.306 356.079,260.972 357.5,264.5C 360.106,265.652 362.773,265.818 365.5,265C 367.673,262.495 370.339,260.662 373.5,259.5C 374.386,258.675 374.719,257.675 374.5,256.5C 377.932,254.422 381.599,252.755 385.5,251.5 Z"/></g>
<g><path style="opacity:1" fill="#eaeaea" d="M 404.5,240.5 C 404.678,241.695 405.011,242.862 405.5,244C 403.7,247.299 401.7,250.465 399.5,253.5C 405.373,261.852 413.539,265.852 424,265.5C 435.413,266.014 444.247,261.681 450.5,252.5C 451.744,257.035 451.744,261.702 450.5,266.5C 448.898,271.412 447.898,276.579 447.5,282C 449.417,285.842 451.084,289.842 452.5,294C 451.388,301.452 447.055,306.119 439.5,308C 425.619,312.59 412.619,310.923 400.5,303C 394.914,296.192 395.247,289.692 401.5,283.5C 398.953,273.69 397.953,263.69 398.5,253.5C 393.921,253.847 389.588,253.18 385.5,251.5C 385.5,251.167 385.5,250.833 385.5,250.5C 387.857,250.663 390.19,250.497 392.5,250C 398.742,249.409 402.742,246.243 404.5,240.5 Z"/></g>
<g><path style="opacity:1" fill="#b86db9" d="M 149.5,221.5 C 149.833,221.5 150.167,221.5 150.5,221.5C 150.375,225.791 151.042,229.957 152.5,234C 152.167,235 151.833,236 151.5,237C 154.056,238.901 155.889,241.401 157,244.5C 157.495,246.473 157.662,248.473 157.5,250.5C 158.873,250.343 160.207,250.51 161.5,251C 164.739,256.052 169.406,258.886 175.5,259.5C 177.97,262.917 181.303,264.25 185.5,263.5C 186.551,264.222 187.218,265.222 187.5,266.5C 182.79,265.566 178.457,263.899 174.5,261.5C 174.389,260.883 174.056,260.383 173.5,260C 170.833,259.667 168.167,259.333 165.5,259C 163.833,256.667 162.167,254.333 160.5,252C 158.899,251.727 157.399,251.227 156,250.5C 154.908,247.956 154.241,245.289 154,242.5C 152.385,241.614 150.885,240.614 149.5,239.5C 149.5,233.5 149.5,227.5 149.5,221.5 Z"/></g>
<g><path style="opacity:1" fill="#385963" d="M 132.5,204.5 C 135.095,207.637 137.428,210.97 139.5,214.5C 142.171,216.934 145.004,219.267 148,221.5C 148.499,225.821 148.666,230.154 148.5,234.5C 147.566,235.568 147.232,236.901 147.5,238.5C 146.127,238.343 144.793,238.51 143.5,239C 139.482,241.346 135.816,244.18 132.5,247.5C 130.778,252.944 132.278,257.278 137,260.5C 148.672,265.754 160.506,270.587 172.5,275C 182.383,276.942 192.383,277.942 202.5,278C 219.372,287.078 237.038,288.745 255.5,283C 268.488,275.906 269.821,267.072 259.5,256.5C 252.957,252.397 245.957,249.064 238.5,246.5C 237.57,242.6 237.237,238.6 237.5,234.5C 237.833,234.5 238.167,234.5 238.5,234.5C 262.67,248.753 287.003,262.753 311.5,276.5C 319.609,281.392 327.943,286.059 336.5,290.5C 337.183,290.137 337.85,289.804 338.5,289.5C 338.626,292.595 340.293,294.428 343.5,295C 344.252,295.671 344.586,296.504 344.5,297.5C 316.904,313.46 289.238,329.126 261.5,344.5C 260.504,344.414 259.671,344.748 259,345.5C 248.184,339.179 237.351,333.012 226.5,327C 219.037,322.525 211.871,317.692 205,312.5C 202.582,311.79 200.082,311.79 197.5,312.5C 196.29,312.068 195.29,311.401 194.5,310.5C 195.873,310.657 197.207,310.49 198.5,310C 168.129,292.484 137.796,274.984 107.5,257.5C 106.478,257.855 105.811,258.522 105.5,259.5C 97.9955,254.913 90.3288,250.58 82.5,246.5C 80.4809,245.067 78.3143,243.733 76,242.5C 74.7801,238.707 75.9468,236.04 79.5,234.5C 81.153,234.34 82.4863,233.674 83.5,232.5C 99.6705,222.914 116.004,213.58 132.5,204.5 Z"/></g>
<g><path style="opacity:1" fill="#2f4b56" d="M 148.5,234.5 C 148.216,236.415 148.549,238.081 149.5,239.5C 150.885,240.614 152.385,241.614 154,242.5C 154.241,245.289 154.908,247.956 156,250.5C 157.399,251.227 158.899,251.727 160.5,252C 162.167,254.333 163.833,256.667 165.5,259C 168.167,259.333 170.833,259.667 173.5,260C 174.056,260.383 174.389,260.883 174.5,261.5C 174.5,262.5 174.5,263.5 174.5,264.5C 171.203,264.329 170.869,264.995 173.5,266.5C 167.118,268.67 167.118,269.503 173.5,269C 175.17,267.025 177.336,266.191 180,266.5C 184.983,268.577 190.15,269.91 195.5,270.5C 198.675,270.546 201.342,269.546 203.5,267.5C 203.669,269.117 204.003,270.784 204.5,272.5C 205.251,271.624 205.751,270.624 206,269.5C 206.278,270.416 206.778,271.082 207.5,271.5C 208.5,271.833 209.167,272.5 209.5,273.5C 213.981,278.729 219.648,280.562 226.5,279C 229.408,276.93 230.074,274.43 228.5,271.5C 227.5,271.167 226.833,270.5 226.5,269.5C 225.859,268.518 225.193,267.518 224.5,266.5C 225,266.167 225.5,265.833 226,265.5C 227.875,267.178 230.042,268.178 232.5,268.5C 235.445,269.468 238.445,269.634 241.5,269C 245.091,267.986 246.091,265.82 244.5,262.5C 241.734,260.741 239.734,258.407 238.5,255.5C 238.5,252.5 238.5,249.5 238.5,246.5C 245.957,249.064 252.957,252.397 259.5,256.5C 269.821,267.072 268.488,275.906 255.5,283C 237.038,288.745 219.372,287.078 202.5,278C 192.383,277.942 182.383,276.942 172.5,275C 160.506,270.587 148.672,265.754 137,260.5C 132.278,257.278 130.778,252.944 132.5,247.5C 135.816,244.18 139.482,241.346 143.5,239C 144.793,238.51 146.127,238.343 147.5,238.5C 147.232,236.901 147.566,235.568 148.5,234.5 Z"/></g>
<g><path style="opacity:1" fill="#584a70" d="M 237.5,234.5 C 237.237,238.6 237.57,242.6 238.5,246.5C 238.5,249.5 238.5,252.5 238.5,255.5C 236.437,248.564 236.104,241.564 237.5,234.5 Z"/></g>
<g><path style="opacity:1" fill="#9b4e9a" d="M 205.5,258.5 C 203.299,257.434 200.965,256.767 198.5,256.5C 198.34,258.199 198.506,259.866 199,261.5C 202.348,264.154 202.182,266.654 198.5,269C 194.304,270.051 190.637,269.217 187.5,266.5C 187.218,265.222 186.551,264.222 185.5,263.5C 187.604,263.799 189.604,263.466 191.5,262.5C 192.738,260.363 194.571,259.029 197,258.5C 198.325,253.599 198.825,248.599 198.5,243.5C 200.911,243.863 202.411,242.863 203,240.5C 204.069,244.198 204.236,247.865 203.5,251.5C 204.467,253.762 205.134,256.095 205.5,258.5 Z"/></g>
<g><path style="opacity:1" fill="#404560" d="M 232.5,268.5 C 230.042,268.178 227.875,267.178 226,265.5C 225.5,265.833 225,266.167 224.5,266.5C 225.193,267.518 225.859,268.518 226.5,269.5C 223.572,268.409 221.406,266.409 220,263.5C 219.501,259.514 219.334,255.514 219.5,251.5C 220.708,250.766 222.041,250.433 223.5,250.5C 223.888,254.552 224.555,258.552 225.5,262.5C 228.091,264.281 230.425,266.281 232.5,268.5 Z"/></g>
<g><path style="opacity:1" fill="#e6ade1" d="M 69.5,277.5 C 70.4959,277.586 71.3292,277.252 72,276.5C 73.7723,273.289 75.2723,269.955 76.5,266.5C 77.325,265.614 78.325,265.281 79.5,265.5C 79.8174,262.428 79.4841,259.428 78.5,256.5C 77.5,257.833 76.5,259.167 75.5,260.5C 73.1889,261.214 71.0223,262.214 69,263.5C 68.5845,267.848 68.7512,272.181 69.5,276.5C 68.8826,276.389 68.3826,276.056 68,275.5C 68.1415,285.12 67.8082,294.787 67,304.5C 66.6667,304.833 66.3333,305.167 66,305.5C 65.8255,300.649 65.3255,295.982 64.5,291.5C 63.6765,289.545 63.5099,287.545 64,285.5C 64.3333,285.833 64.6667,286.167 65,286.5C 65.6667,283.833 65.6667,281.167 65,278.5C 64,279.5 63,280.5 62,281.5C 60.7383,276.626 58.2383,272.626 54.5,269.5C 53.6561,265.901 53.3227,262.234 53.5,258.5C 56.6808,258.002 59.3475,258.835 61.5,261C 64.5,261.667 67.5,261.667 70.5,261C 73.9646,258.537 77.1312,255.704 80,252.5C 80.6667,257.833 80.6667,263.167 80,268.5C 77.0063,272 74.173,275.666 71.5,279.5C 70.4777,279.145 69.811,278.478 69.5,277.5 Z"/></g>
<g><path style="opacity:1" fill="#e296dd" d="M 69.5,277.5 C 69.5,277.167 69.5,276.833 69.5,276.5C 68.7512,272.181 68.5845,267.848 69,263.5C 71.0223,262.214 73.1889,261.214 75.5,260.5C 76.5,259.167 77.5,257.833 78.5,256.5C 79.4841,259.428 79.8174,262.428 79.5,265.5C 78.325,265.281 77.325,265.614 76.5,266.5C 75.2723,269.955 73.7723,273.289 72,276.5C 71.3292,277.252 70.4959,277.586 69.5,277.5 Z"/></g>
<g><path style="opacity:1" fill="#344a51" d="M 194.5,310.5 C 176.85,300.528 159.184,290.528 141.5,280.5C 139.365,278.929 137.032,277.596 134.5,276.5C 125.033,270.596 115.367,264.929 105.5,259.5C 105.811,258.522 106.478,257.855 107.5,257.5C 137.796,274.984 168.129,292.484 198.5,310C 197.207,310.49 195.873,310.657 194.5,310.5 Z"/></g>
<g><path style="opacity:1" fill="#e8c8e8" d="M 341.5,260.5 C 342.449,264.657 343.116,268.99 343.5,273.5C 342.778,273.082 342.278,272.416 342,271.5C 340.991,276.993 339.825,282.326 338.5,287.5C 338.5,286.5 338.5,285.5 338.5,284.5C 339.378,276.351 340.378,268.351 341.5,260.5 Z"/></g>
<g><path style="opacity:1" fill="#40475f" d="M 205.5,258.5 C 206.275,262.814 206.941,267.147 207.5,271.5C 206.778,271.082 206.278,270.416 206,269.5C 205.751,270.624 205.251,271.624 204.5,272.5C 204.003,270.784 203.669,269.117 203.5,267.5C 201.342,269.546 198.675,270.546 195.5,270.5C 190.15,269.91 184.983,268.577 180,266.5C 177.336,266.191 175.17,267.025 173.5,269C 167.118,269.503 167.118,268.67 173.5,266.5C 170.869,264.995 171.203,264.329 174.5,264.5C 174.5,263.5 174.5,262.5 174.5,261.5C 178.457,263.899 182.79,265.566 187.5,266.5C 190.637,269.217 194.304,270.051 198.5,269C 202.182,266.654 202.348,264.154 199,261.5C 198.506,259.866 198.34,258.199 198.5,256.5C 200.965,256.767 203.299,257.434 205.5,258.5 Z"/></g>
<g><path style="opacity:1" fill="#eab6e6" d="M 38.5,253.5 C 39.2899,254.794 40.2899,255.961 41.5,257C 41.1667,257.333 40.8333,257.667 40.5,258C 43.7849,259.779 46.1183,262.279 47.5,265.5C 43.5011,265.091 39.8344,265.925 36.5,268C 39.4701,267.842 42.4701,267.342 45.5,266.5C 48.7912,266.881 51.7912,267.881 54.5,269.5C 56.4433,273.133 58.4433,276.799 60.5,280.5C 59.9747,281.192 59.3081,281.692 58.5,282C 52.5851,283.527 46.5851,283.861 40.5,283C 39.565,280.619 39.2317,278.119 39.5,275.5C 36.3752,274.521 33.0419,274.187 29.5,274.5C 29.5228,272.4 28.8561,270.567 27.5,269C 28.6886,267.105 29.6886,265.105 30.5,263C 27.9352,262.04 25.7685,260.54 24,258.5C 23.1725,254.129 23.3391,249.795 24.5,245.5C 25.1151,248.436 26.2817,251.103 28,253.5C 28.804,252.196 29.9707,251.529 31.5,251.5C 33.851,252.173 36.1843,252.84 38.5,253.5 Z"/></g>
<g><path style="opacity:1" fill="#f9f9f9" d="M 82.5,246.5 C 90.3288,250.58 97.9955,254.913 105.5,259.5C 115.367,264.929 125.033,270.596 134.5,276.5C 134.5,313.167 134.5,349.833 134.5,386.5C 131.562,385.372 128.562,384.205 125.5,383C 115.313,377.409 105.313,371.576 95.5,365.5C 94.0351,364.263 92.3684,363.263 90.5,362.5C 88.5718,360.706 86.2384,359.706 83.5,359.5C 83.6716,358.508 83.3382,357.842 82.5,357.5C 81.5489,356.081 81.2155,354.415 81.5,352.5C 82.1174,352.389 82.6174,352.056 83,351.5C 83.24,339.65 83.74,327.817 84.5,316C 84.0507,313.674 83.2174,311.507 82,309.5C 79.9298,309.163 77.9298,309.829 76,311.5C 75.228,311.355 74.5613,311.022 74,310.5C 73.5034,308.19 73.3367,305.857 73.5,303.5C 72.325,303.719 71.325,303.386 70.5,302.5C 73.4338,301.201 75.9338,301.868 78,304.5C 79.425,303.788 80.925,303.621 82.5,304C 82.1667,303.667 81.8333,303.333 81.5,303C 83.689,302.323 84.0224,301.156 82.5,299.5C 83.1667,298.167 83.8333,296.833 84.5,295.5C 82.2143,289.305 81.8809,282.972 83.5,276.5C 82.9962,267.999 82.3296,259.666 81.5,251.5C 81.2155,249.585 81.5489,247.919 82.5,246.5 Z"/></g>
<g><path style="opacity:1" fill="#526166" d="M 97.5,263.5 C 103.178,266.336 108.511,269.669 113.5,273.5C 113.167,273.833 112.833,274.167 112.5,274.5C 108.34,272.588 104.34,270.421 100.5,268C 98.8588,266.871 97.8588,265.371 97.5,263.5 Z"/></g>
<g><path style="opacity:1" fill="#414260" d="M 228.5,271.5 C 230.074,274.43 229.408,276.93 226.5,279C 219.648,280.562 213.981,278.729 209.5,273.5C 213.509,275.184 217.509,276.85 221.5,278.5C 226.238,278.429 228.572,276.096 228.5,271.5 Z"/></g>
<g><path style="opacity:1" fill="#da9ed5" d="M 80.5,283.5 C 77.812,283.834 75.4786,283.168 73.5,281.5C 74.5719,277.244 76.7386,273.578 80,270.5C 80.499,274.821 80.6657,279.154 80.5,283.5 Z"/></g>
<g><path style="opacity:1" fill="#844f86" d="M 319.5,217.5 C 319.5,217.833 319.5,218.167 319.5,218.5C 319.833,235.18 319.499,251.847 318.5,268.5C 316.584,269.248 314.584,269.248 312.5,268.5C 312.232,271.119 312.565,273.619 313.5,276C 321.006,280.007 328.506,284.173 336,288.5C 336.333,286.5 336.667,284.5 337,282.5C 337.278,283.416 337.778,284.082 338.5,284.5C 338.5,285.5 338.5,286.5 338.5,287.5C 338.5,288.167 338.5,288.833 338.5,289.5C 337.85,289.804 337.183,290.137 336.5,290.5C 327.943,286.059 319.609,281.392 311.5,276.5C 311.5,273.5 311.5,270.5 311.5,267.5C 313.5,267.5 315.5,267.5 317.5,267.5C 318.167,250.833 318.833,234.167 319.5,217.5 Z"/></g>
<g><path style="opacity:1" fill="#92478e" d="M 374.5,307.5 C 375.162,311.466 375.495,315.466 375.5,319.5C 375.667,336.17 375.5,352.837 375,369.5C 373.915,370.736 373.082,372.069 372.5,373.5C 372.082,374.222 371.416,374.722 370.5,375C 366.179,375.499 361.846,375.666 357.5,375.5C 355.93,373.149 355.097,370.482 355,367.5C 353.885,355.638 352.385,343.971 350.5,332.5C 348.75,315.503 347.084,298.503 345.5,281.5C 345.335,278.15 345.502,274.817 346,271.5C 347.117,272.949 347.784,274.616 348,276.5C 348.689,277.357 349.522,278.023 350.5,278.5C 357.618,276.371 364.951,275.038 372.5,274.5C 372.333,285.838 372.5,297.172 373,308.5C 373.383,307.944 373.883,307.611 374.5,307.5 Z"/></g>
<g><path style="opacity:1" fill="#f8f9f9" d="M 141.5,280.5 C 159.184,290.528 176.85,300.528 194.5,310.5C 195.29,311.401 196.29,312.068 197.5,312.5C 200.833,314.5 204.167,316.5 207.5,318.5C 207.667,330.838 207.5,343.171 207,355.5C 184.052,342.279 161.219,328.946 138.5,315.5C 137.776,304.332 137.109,293.498 136.5,283C 137.617,281.108 139.284,280.275 141.5,280.5 Z"/></g>
<g><path style="opacity:1" fill="#8e5289" d="M 345.5,215.5 C 346.296,235.509 347.296,255.509 348.5,275.5C 357.392,275.473 366.058,274.139 374.5,271.5C 374.5,283.5 374.5,295.5 374.5,307.5C 373.883,307.611 373.383,307.944 373,308.5C 372.5,297.172 372.333,285.838 372.5,274.5C 364.951,275.038 357.618,276.371 350.5,278.5C 349.522,278.023 348.689,277.357 348,276.5C 347.784,274.616 347.117,272.949 346,271.5C 345.502,274.817 345.335,278.15 345.5,281.5C 344.629,278.997 343.963,276.33 343.5,273.5C 343.116,268.99 342.449,264.657 341.5,260.5C 341.231,258.571 341.731,256.905 343,255.5C 343.388,259.219 344.055,262.886 345,266.5C 345.389,251.496 345.222,236.496 344.5,221.5C 344.205,219.265 344.539,217.265 345.5,215.5 Z"/></g>
<g><path style="opacity:1" fill="#f2d8f0" d="M 54.5,269.5 C 58.2383,272.626 60.7383,276.626 62,281.5C 63,280.5 64,279.5 65,278.5C 65.6667,281.167 65.6667,283.833 65,286.5C 64.6667,286.167 64.3333,285.833 64,285.5C 63.5099,287.545 63.6765,289.545 64.5,291.5C 64.5,293.833 64.5,296.167 64.5,298.5C 61.4816,298.335 58.4816,298.502 55.5,299C 52.5889,300.761 49.5889,302.261 46.5,303.5C 46.4661,300.801 47.1328,298.301 48.5,296C 52.6932,292.729 57.3599,290.895 62.5,290.5C 62.8956,287.518 62.2289,284.851 60.5,282.5C 54.3233,284.313 47.99,284.98 41.5,284.5C 40.8333,284.5 40.1667,284.5 39.5,284.5C 38.8466,283.193 38.1799,281.86 37.5,280.5C 38.2458,279.264 38.5792,277.93 38.5,276.5C 35.6146,276.806 32.9479,276.473 30.5,275.5C 33.5,275.5 36.5,275.5 39.5,275.5C 39.2317,278.119 39.565,280.619 40.5,283C 46.5851,283.861 52.5851,283.527 58.5,282C 59.3081,281.692 59.9747,281.192 60.5,280.5C 58.4433,276.799 56.4433,273.133 54.5,269.5 Z"/></g>
<g><path style="opacity:1" fill="#f7dff3" d="M 73.5,281.5 C 75.4786,283.168 77.812,283.834 80.5,283.5C 77.6558,284.551 74.6558,284.551 71.5,283.5C 71.5,284.833 71.5,286.167 71.5,287.5C 74.1795,287.673 76.5128,288.673 78.5,290.5C 79.487,293.768 79.8204,297.102 79.5,300.5C 75.9155,299.417 72.2488,298.751 68.5,298.5C 68.2748,293.752 68.7748,289.085 70,284.5C 70.4224,282.574 71.5891,281.574 73.5,281.5 Z"/></g>
<g><path style="opacity:1" fill="#fbf4fa" d="M 81.5,251.5 C 82.3296,259.666 82.9962,267.999 83.5,276.5C 81.8809,282.972 82.2143,289.305 84.5,295.5C 83.8333,296.833 83.1667,298.167 82.5,299.5C 84.0224,301.156 83.689,302.323 81.5,303C 81.8333,303.333 82.1667,303.667 82.5,304C 80.925,303.621 79.425,303.788 78,304.5C 75.9338,301.868 73.4338,301.201 70.5,302.5C 71.325,303.386 72.325,303.719 73.5,303.5C 73.3367,305.857 73.5034,308.19 74,310.5C 74.5613,311.022 75.228,311.355 76,311.5C 77.9298,309.829 79.9298,309.163 82,309.5C 83.2174,311.507 84.0507,313.674 84.5,316C 83.74,327.817 83.24,339.65 83,351.5C 82.6174,352.056 82.1174,352.389 81.5,352.5C 80.8333,352.5 80.5,352.167 80.5,351.5C 80.6665,339.162 80.4999,326.829 80,314.5C 79.586,314.043 79.086,313.709 78.5,313.5C 67.5819,317.251 57.0819,316.251 47,310.5C 46.5034,308.19 46.3367,305.857 46.5,303.5C 49.5889,302.261 52.5889,300.761 55.5,299C 58.4816,298.502 61.4816,298.335 64.5,298.5C 64.5,301.833 64.5,305.167 64.5,308.5C 66.1238,308.64 67.2904,307.973 68,306.5C 68.4974,303.854 68.6641,301.187 68.5,298.5C 72.2488,298.751 75.9155,299.417 79.5,300.5C 79.8204,297.102 79.487,293.768 78.5,290.5C 76.5128,288.673 74.1795,287.673 71.5,287.5C 71.5,286.167 71.5,284.833 71.5,283.5C 74.6558,284.551 77.6558,284.551 80.5,283.5C 81.4944,273.013 81.8278,262.346 81.5,251.5 Z"/></g>
<g><path style="opacity:1" fill="#f7e5f6" d="M 46.5,303.5 C 46.3367,305.857 46.5034,308.19 47,310.5C 57.0819,316.251 67.5819,317.251 78.5,313.5C 79.086,313.709 79.586,314.043 80,314.5C 80.4999,326.829 80.6665,339.162 80.5,351.5C 79.4415,352.6 78.6082,353.934 78,355.5C 77.6667,355.167 77.3333,354.833 77,354.5C 73.6792,356.039 70.1792,357.039 66.5,357.5C 63.5941,356.472 60.7607,356.472 58,357.5C 54.6086,355.268 51.1086,353.268 47.5,351.5C 45.6664,349.023 44.333,346.357 43.5,343.5C 46.3152,345.042 48.3152,347.375 49.5,350.5C 51.5405,351.236 53.5405,352.069 55.5,353C 62.9402,353.928 70.2735,353.594 77.5,352C 78,351.5 78.5,351 79,350.5C 79.6667,340.5 79.6667,330.5 79,320.5C 78.6827,318.699 78.016,318.366 77,319.5C 75.3333,316.833 73.6667,316.833 72,319.5C 64.5707,318.025 57.0707,316.525 49.5,315C 44.928,313.009 41.428,309.842 39,305.5C 38.098,315.779 38.9313,325.779 41.5,335.5C 41.7845,337.415 41.4511,339.081 40.5,340.5C 38.3503,332.698 36.6836,324.698 35.5,316.5C 35.9483,309.891 37.4483,303.557 40,297.5C 45.1617,291.664 51.6617,287.997 59.5,286.5C 53.3465,285.833 47.3465,285.167 41.5,284.5C 47.99,284.98 54.3233,284.313 60.5,282.5C 62.2289,284.851 62.8956,287.518 62.5,290.5C 57.3599,290.895 52.6932,292.729 48.5,296C 47.1328,298.301 46.4661,300.801 46.5,303.5 Z"/></g>
<g><path style="opacity:1" fill="#ebebeb" d="M 337.5,304.5 C 337.333,320.17 337.5,335.837 338,351.5C 338.513,352.527 339.013,353.527 339.5,354.5C 337.676,374.475 336.842,394.809 337,415.5C 335.591,416.781 334.091,417.781 332.5,418.5C 330.784,420.025 328.784,421.025 326.5,421.5C 306.673,433.582 286.673,445.415 266.5,457C 264.402,457.678 262.402,457.511 260.5,456.5C 260.484,420.655 260.484,384.988 260.5,349.5C 259.757,348.818 259.091,348.151 258.5,347.5C 258.833,347.5 259.167,347.5 259.5,347.5C 262.425,347.54 265.091,346.707 267.5,345C 290.697,331.236 314.031,317.736 337.5,304.5 Z"/></g>
<g><path style="opacity:1" fill="#556567" d="M 164.5,312.5 C 170.103,314.969 175.436,317.969 180.5,321.5C 180,321.833 179.5,322.167 179,322.5C 173.106,320.397 168.273,317.064 164.5,312.5 Z"/></g>
<g><path style="opacity:1" fill="#f2d2f0" d="M 43.5,343.5 C 43.1977,340.627 42.531,337.961 41.5,335.5C 38.9313,325.779 38.098,315.779 39,305.5C 41.428,309.842 44.928,313.009 49.5,315C 57.0707,316.525 64.5707,318.025 72,319.5C 73.6667,316.833 75.3333,316.833 77,319.5C 78.016,318.366 78.6827,318.699 79,320.5C 79.6667,330.5 79.6667,340.5 79,350.5C 78.5,351 78,351.5 77.5,352C 70.2735,353.594 62.9402,353.928 55.5,353C 53.5405,352.069 51.5405,351.236 49.5,350.5C 48.3152,347.375 46.3152,345.042 43.5,343.5 Z"/></g>
<g><path style="opacity:1" fill="#344b51" d="M 197.5,312.5 C 200.082,311.79 202.582,311.79 205,312.5C 211.871,317.692 219.037,322.525 226.5,327C 237.351,333.012 248.184,339.179 259,345.5C 259.671,344.748 260.504,344.414 261.5,344.5C 260.833,345.5 260.167,346.5 259.5,347.5C 259.167,347.5 258.833,347.5 258.5,347.5C 242.483,338.472 226.483,329.472 210.5,320.5C 209.71,319.599 208.71,318.932 207.5,318.5C 204.167,316.5 200.833,314.5 197.5,312.5 Z"/></g>
<g><path style="opacity:1" fill="#f4f2f4" d="M 343.5,273.5 C 343.963,276.33 344.629,278.997 345.5,281.5C 347.084,298.503 348.75,315.503 350.5,332.5C 350.274,339.876 350.608,347.209 351.5,354.5C 347.5,354.5 343.5,354.5 339.5,354.5C 339.013,353.527 338.513,352.527 338,351.5C 337.5,335.837 337.333,320.17 337.5,304.5C 339.308,303.093 341.308,301.926 343.5,301C 344.337,299.989 344.67,298.822 344.5,297.5C 344.586,296.504 344.252,295.671 343.5,295C 340.293,294.428 338.626,292.595 338.5,289.5C 338.5,288.833 338.5,288.167 338.5,287.5C 339.825,282.326 340.991,276.993 342,271.5C 342.278,272.416 342.778,273.082 343.5,273.5 Z"/></g>
<g><path style="opacity:1" fill="#22353a" d="M 344.5,297.5 C 344.67,298.822 344.337,299.989 343.5,301C 341.308,301.926 339.308,303.093 337.5,304.5C 314.031,317.736 290.697,331.236 267.5,345C 265.091,346.707 262.425,347.54 259.5,347.5C 260.167,346.5 260.833,345.5 261.5,344.5C 289.238,329.126 316.904,313.46 344.5,297.5 Z"/></g>
<g><path style="opacity:1" fill="#f9f9f9" d="M 210.5,320.5 C 226.483,329.472 242.483,338.472 258.5,347.5C 259.091,348.151 259.757,348.818 260.5,349.5C 260.484,384.988 260.484,420.655 260.5,456.5C 260.027,457.906 259.027,458.573 257.5,458.5C 241.701,449.766 226.034,440.766 210.5,431.5C 209.17,394.336 209.17,357.336 210.5,320.5 Z"/></g>
<g><path style="opacity:1" fill="#8a5c89" d="M 375.5,319.5 C 376.8,337.693 376.8,356.027 375.5,374.5C 375.5,375.5 375.5,376.5 375.5,377.5C 374.978,375.781 373.978,374.448 372.5,373.5C 373.082,372.069 373.915,370.736 375,369.5C 375.5,352.837 375.667,336.17 375.5,319.5 Z"/></g>
<g><path style="opacity:1" fill="#f4e1f3" d="M 374.5,271.5 C 377.076,301.956 378.41,332.622 378.5,363.5C 378.665,366.518 378.498,369.518 378,372.5C 377.292,373.381 376.458,374.047 375.5,374.5C 376.8,356.027 376.8,337.693 375.5,319.5C 375.495,315.466 375.162,311.466 374.5,307.5C 374.5,295.5 374.5,283.5 374.5,271.5 Z"/></g>
<g><path style="opacity:1" fill="#546568" d="M 227.5,338.5 C 233.149,341.806 238.816,345.139 244.5,348.5C 243.277,349.614 241.944,349.781 240.5,349C 237.167,347 233.833,345 230.5,343C 228.859,341.871 227.859,340.371 227.5,338.5 Z"/></g>
<g><path style="opacity:1" fill="#e1e1e1" d="M 134.5,276.5 C 137.032,277.596 139.365,278.929 141.5,280.5C 139.284,280.275 137.617,281.108 136.5,283C 137.109,293.498 137.776,304.332 138.5,315.5C 161.219,328.946 184.052,342.279 207,355.5C 207.5,343.171 207.667,330.838 207.5,318.5C 208.71,318.932 209.71,319.599 210.5,320.5C 209.17,357.336 209.17,394.336 210.5,431.5C 226.034,440.766 241.701,449.766 257.5,458.5C 259.027,458.573 260.027,457.906 260.5,456.5C 262.402,457.511 264.402,457.678 266.5,457C 286.673,445.415 306.673,433.582 326.5,421.5C 326.97,422.693 327.97,423.36 329.5,423.5C 333.275,423.324 334.275,421.657 332.5,418.5C 334.091,417.781 335.591,416.781 337,415.5C 336.842,394.809 337.676,374.475 339.5,354.5C 343.5,354.5 347.5,354.5 351.5,354.5C 352.291,360.419 352.791,366.419 353,372.5C 354.307,374.192 355.807,375.525 357.5,376.5C 357.334,384.507 357.5,392.507 358,400.5C 358.798,403.893 359.798,407.226 361,410.5C 362.182,412.357 363.849,413.357 366,413.5C 372.336,412.497 376.003,408.831 377,402.5C 377.785,394.066 377.285,385.733 375.5,377.5C 375.5,376.5 375.5,375.5 375.5,374.5C 376.458,374.047 377.292,373.381 378,372.5C 378.498,369.518 378.665,366.518 378.5,363.5C 381.606,364.707 384.606,366.207 387.5,368C 405.986,381.44 407.319,396.44 391.5,413C 386.167,416.333 380.833,419.667 375.5,423C 362.458,427.109 349.124,429.609 335.5,430.5C 310.936,445.282 285.936,459.282 260.5,472.5C 257.08,471.626 253.747,470.459 250.5,469C 195.227,435.868 139.561,403.535 83.5,372C 80.9708,369.971 78.3041,368.138 75.5,366.5C 78.1982,364.159 80.8648,361.826 83.5,359.5C 86.2384,359.706 88.5718,360.706 90.5,362.5C 89.2089,363.542 89.2089,364.708 90.5,366C 92.3869,366.78 94.0536,366.613 95.5,365.5C 105.313,371.576 115.313,377.409 125.5,383C 128.562,384.205 131.562,385.372 134.5,386.5C 134.5,349.833 134.5,313.167 134.5,276.5 Z"/></g>
<g><path style="opacity:1" fill="#f9f9f9" d="M 167.5,374.5 C 158.498,367.812 148.831,361.812 138.5,356.5C 137.167,343.833 137.167,331.167 138.5,318.5C 161.167,331.5 183.833,344.5 206.5,357.5C 207.833,370.167 207.833,382.833 206.5,395.5C 195.536,389.684 184.869,383.35 174.5,376.5C 172.271,375.423 169.937,374.756 167.5,374.5 Z"/></g>
<g><path style="opacity:1" fill="#56676b" d="M 164.5,340.5 C 170.276,343.558 175.943,346.891 181.5,350.5C 180.635,351.583 179.635,351.749 178.5,351C 175.661,349.08 172.661,347.413 169.5,346C 166.921,344.924 165.254,343.091 164.5,340.5 Z"/></g>
<g><path style="opacity:1" fill="#e3e1e2" d="M 41.5,335.5 C 42.531,337.961 43.1977,340.627 43.5,343.5C 44.333,346.357 45.6664,349.023 47.5,351.5C 51.1086,353.268 54.6086,355.268 58,357.5C 60.7607,356.472 63.5941,356.472 66.5,357.5C 70.1792,357.039 73.6792,356.039 77,354.5C 77.3333,354.833 77.6667,355.167 78,355.5C 78.6082,353.934 79.4415,352.6 80.5,351.5C 80.5,352.167 80.8333,352.5 81.5,352.5C 81.2155,354.415 81.5489,356.081 82.5,357.5C 82.4226,358.75 81.756,359.583 80.5,360C 69.6851,363.612 59.0184,363.278 48.5,359C 40.683,355.047 38.0164,348.88 40.5,340.5C 41.4511,339.081 41.7845,337.415 41.5,335.5 Z"/></g>
<g><path style="opacity:1" fill="#4c5d61" d="M 90.5,362.5 C 92.3684,363.263 94.0351,364.263 95.5,365.5C 94.0536,366.613 92.3869,366.78 90.5,366C 89.2089,364.708 89.2089,363.542 90.5,362.5 Z"/></g>
<g><path style="opacity:1" fill="#e5d1e5" d="M 350.5,332.5 C 352.385,343.971 353.885,355.638 355,367.5C 355.097,370.482 355.93,373.149 357.5,375.5C 357.5,375.833 357.5,376.167 357.5,376.5C 355.807,375.525 354.307,374.192 353,372.5C 352.791,366.419 352.291,360.419 351.5,354.5C 350.608,347.209 350.274,339.876 350.5,332.5 Z"/></g>
<g><path style="opacity:1" fill="#1f2f36" d="M 372.5,373.5 C 373.978,374.448 374.978,375.781 375.5,377.5C 377.285,385.733 377.785,394.066 377,402.5C 376.003,408.831 372.336,412.497 366,413.5C 363.849,413.357 362.182,412.357 361,410.5C 359.798,407.226 358.798,403.893 358,400.5C 357.5,392.507 357.334,384.507 357.5,376.5C 357.5,376.167 357.5,375.833 357.5,375.5C 361.846,375.666 366.179,375.499 370.5,375C 371.416,374.722 372.082,374.222 372.5,373.5 Z"/></g>
<g><path style="opacity:1" fill="#f9f9f9" d="M 167.5,374.5 C 169.559,376.594 171.893,378.428 174.5,380C 185.565,385.864 196.565,391.697 207.5,397.5C 207.667,408.172 207.5,418.839 207,429.5C 184.076,416.623 161.243,403.623 138.5,390.5C 137.167,379.833 137.167,369.167 138.5,358.5C 147.707,364.605 157.374,369.938 167.5,374.5 Z"/></g>
<g><path style="opacity:1" fill="#516263" d="M 164.5,382.5 C 164.56,381.957 164.893,381.624 165.5,381.5C 170.666,384.248 175.666,387.248 180.5,390.5C 179.635,391.583 178.635,391.749 177.5,391C 172.796,388.654 168.463,385.82 164.5,382.5 Z"/></g>
<g><path style="opacity:1" fill="#516164" d="M 332.5,418.5 C 334.275,421.657 333.275,423.324 329.5,423.5C 327.97,423.36 326.97,422.693 326.5,421.5C 328.784,421.025 330.784,420.025 332.5,418.5 Z"/></g>
<g><path style="opacity:1" fill="#485e62" d="M 257.5,458.5 C 259.421,461.106 261.421,461.106 263.5,458.5C 264.214,462.923 262.214,464.423 257.5,463C 256.199,461.384 256.199,459.884 257.5,458.5 Z"/></g>
</svg>
