<?xml version="1.0" encoding="UTF-8"?>
<!DOCTYPE svg PUBLIC "-//W3C//DTD SVG 1.1//EN" "http://www.w3.org/Graphics/SVG/1.1/DTD/svg11.dtd">
<svg xmlns="http://www.w3.org/2000/svg" version="1.1" width="500px" height="500px" style="shape-rendering:geometricPrecision; text-rendering:geometricPrecision; image-rendering:optimizeQuality; fill-rule:evenodd; clip-rule:evenodd" xmlns:xlink="http://www.w3.org/1999/xlink">
<g><path style="opacity:0.995" fill="#ececec" d="M 60.5,29.5 C 62.9892,29.2978 65.3225,29.7978 67.5,31C 68.8889,32.9571 70.3889,34.7904 72,36.5C 74.5272,34.903 77.1939,33.5697 80,32.5C 83.2484,33.5835 85.7484,35.5835 87.5,38.5C 95.5902,33.0397 99.0902,35.0397 98,44.5C 95.117,49.0501 91.2837,52.5501 86.5,55C 71.3365,63.414 56.3365,72.0807 41.5,81C 39.0859,82.8849 36.4192,83.5516 33.5,83C 32.5697,81.8061 31.9031,80.4728 31.5,79C 32.276,76.0053 33.4426,73.172 35,70.5C 41.8742,66.5582 44.5409,60.5582 43,52.5C 44.9426,41.7415 50.776,34.0748 60.5,29.5 Z"/></g>
<g><path style="opacity:0.845" fill="#f6f6f6" d="M 427.5,23.5 C 430.729,26.5703 434.062,29.4036 437.5,32C 436.498,35.9135 434.831,39.4135 432.5,42.5C 429.152,41.4415 425.819,41.2749 422.5,42C 421.856,39.26 420.689,36.76 419,34.5C 418.333,33.1667 418.333,31.8333 419,30.5C 422.582,29.085 425.416,26.7517 427.5,23.5 Z M 426.5,30.5 C 430.269,31.4237 431.269,33.5904 429.5,37C 424.4,36.8873 423.4,34.7206 426.5,30.5 Z"/></g>
<g><path style="opacity:1" fill="#dda7d9" d="M 251.5,25.5 C 253.966,24.3659 256.633,24.1993 259.5,25C 264.833,28 270.167,31 275.5,34C 276.582,35.3297 277.249,36.8297 277.5,38.5C 276.609,37.8902 275.609,37.5569 274.5,37.5C 270.201,34.767 266.201,31.6003 262.5,28C 259.013,26.3783 255.346,25.545 251.5,25.5 Z"/></g>
<g><path style="opacity:0.994" fill="#d6a3d0" d="M 386.5,43.5 C 386.5,42.5 386.5,41.5 386.5,40.5C 373.537,41.4434 360.537,41.7767 347.5,41.5C 358.664,40.6315 369.997,39.9649 381.5,39.5C 384.167,39.8333 386.833,40.1667 389.5,40.5C 388.812,41.8549 387.812,42.8549 386.5,43.5 Z"/></g>
<g><path style="opacity:0.991" fill="#ededed" d="M 124.5,40.5 C 126.963,41.2326 129.297,42.2326 131.5,43.5C 137.527,40.8505 141.527,42.5172 143.5,48.5C 146.501,46.1561 149.835,45.3228 153.5,46C 154.749,48.2096 154.582,50.3763 153,52.5C 139.095,61.3977 124.929,69.8977 110.5,78C 107.439,80.0347 104.105,81.2014 100.5,81.5C 100.298,79.0108 100.798,76.6775 102,74.5C 104.895,72.3925 107.561,70.0591 110,67.5C 108.769,54.8887 113.602,45.8887 124.5,40.5 Z"/></g>
<g><path style="opacity:1" fill="#d193cd" d="M 386.5,43.5 C 383.834,46.9988 380.667,49.9988 377,52.5C 376.827,58.3482 376.327,64.0149 375.5,69.5C 375.5,64.1667 375.5,58.8333 375.5,53.5C 375.383,51.5165 376.05,49.8498 377.5,48.5C 377.167,47.8333 376.833,47.1667 376.5,46.5C 377.651,45.269 378.817,45.269 380,46.5C 381.706,45.6921 382.539,44.3588 382.5,42.5C 360.825,42.4222 339.158,42.7555 317.5,43.5C 314.752,43.4017 314.086,44.4017 315.5,46.5C 313.456,45.9688 311.789,44.8022 310.5,43C 322.806,41.8211 335.139,41.3211 347.5,41.5C 360.537,41.7767 373.537,41.4434 386.5,40.5C 386.5,41.5 386.5,42.5 386.5,43.5 Z"/></g>
<g><path style="opacity:0.985" fill="#e3e3e3" d="M 466.5,39.5 C 467.822,39.33 468.989,39.6634 470,40.5C 470.256,43.557 470.756,46.557 471.5,49.5C 474.293,50.8786 476.626,52.712 478.5,55C 478.355,55.772 478.022,56.4387 477.5,57C 471.825,57.6728 468.992,60.8395 469,66.5C 468.632,67.91 467.799,68.91 466.5,69.5C 464.35,67.8509 462.35,66.0176 460.5,64C 457.167,63.6667 453.833,63.3333 450.5,63C 450.043,62.586 449.709,62.086 449.5,61.5C 451.363,59.1071 452.696,56.4404 453.5,53.5C 447.948,44.276 450.114,41.6093 460,45.5C 462.652,44.0145 464.818,42.0145 466.5,39.5 Z"/></g>
<g><path style="opacity:1" fill="#d980d3" d="M 375.5,53.5 C 356.057,50.2756 336.723,46.9423 317.5,43.5C 339.158,42.7555 360.825,42.4222 382.5,42.5C 382.539,44.3588 381.706,45.6921 380,46.5C 378.817,45.269 377.651,45.269 376.5,46.5C 376.833,47.1667 377.167,47.8333 377.5,48.5C 376.05,49.8498 375.383,51.5165 375.5,53.5 Z"/></g>
<g><path style="opacity:1" fill="#d088cc" d="M 274.5,38.5 C 274.5,38.1667 274.5,37.8333 274.5,37.5C 275.609,37.5569 276.609,37.8902 277.5,38.5C 278.665,79.6646 278.831,120.998 278,162.5C 277.654,164.848 276.487,166.681 274.5,168C 266.611,172.728 258.611,177.228 250.5,181.5C 250.461,180.417 250.127,179.417 249.5,178.5C 254.237,177.444 258.57,175.444 262.5,172.5C 261.726,171.289 260.893,171.289 260,172.5C 259.536,171.906 259.369,171.239 259.5,170.5C 260.899,169.11 262.566,168.11 264.5,167.5C 264.5,168.5 264.5,169.5 264.5,170.5C 266.737,169.551 269.071,168.884 271.5,168.5C 271.5,167.5 271.5,166.5 271.5,165.5C 273.143,165.52 274.476,164.853 275.5,163.5C 276.667,122.171 276.833,80.8374 276,39.5C 275.617,38.944 275.117,38.6107 274.5,38.5 Z"/></g>
<g><path style="opacity:1" fill="#dea0d8" d="M 251.5,25.5 C 251.092,26.6431 250.425,27.6431 249.5,28.5C 243.592,31.5545 237.925,34.8878 232.5,38.5C 229.846,40.572 230.18,42.2387 233.5,43.5C 232.758,44.2868 231.925,44.9535 231,45.5C 229.293,44.5415 227.459,43.8748 225.5,43.5C 222.033,45.6412 218.366,47.3079 214.5,48.5C 214.5,49.8333 214.5,51.1667 214.5,52.5C 210.213,52.9465 206.047,53.9465 202,55.5C 198.992,58.7417 195.992,62.0751 193,65.5C 190.426,62.7406 188.26,63.074 186.5,66.5C 182.893,67.8085 179.226,68.8085 175.5,69.5C 200.498,54.3316 225.832,39.6649 251.5,25.5 Z"/></g>
<g><path style="opacity:1" fill="#ab55a6" d="M 317.5,43.5 C 336.723,46.9423 356.057,50.2756 375.5,53.5C 375.5,58.8333 375.5,64.1667 375.5,69.5C 372.402,68.7837 369.402,67.7837 366.5,66.5C 366.811,65.5222 367.478,64.8555 368.5,64.5C 370.098,65.4847 371.765,65.6514 373.5,65C 372.377,63.9563 371.044,63.2896 369.5,63C 369.833,62.6667 370.167,62.3333 370.5,62C 355.902,57.1852 341.235,52.6852 326.5,48.5C 323.155,46.783 319.489,46.1164 315.5,46.5C 314.086,44.4017 314.752,43.4017 317.5,43.5 Z"/></g>
<g><path style="opacity:1" fill="#e295de" d="M 251.5,25.5 C 255.346,25.545 259.013,26.3783 262.5,28C 266.201,31.6003 270.201,34.767 274.5,37.5C 274.5,37.8333 274.5,38.1667 274.5,38.5C 272.076,39.0305 269.743,39.8638 267.5,41C 210.732,74.7121 153.732,107.879 96.5,140.5C 89.8287,136.831 83.162,133.165 76.5,129.5C 75.9432,131.332 74.9432,132.665 73.5,133.5C 75.5087,126.497 80.1754,122.163 87.5,120.5C 92.0731,119.213 96.4064,117.38 100.5,115C 101.252,114.329 101.586,113.496 101.5,112.5C 106.665,108.414 112.332,105.08 118.5,102.5C 121.801,102.347 124.801,101.347 127.5,99.5C 128.442,99.6082 129.275,99.9415 130,100.5C 130.242,98.8619 131.075,97.3619 132.5,96C 138.347,93.4863 143.68,90.153 148.5,86C 151.657,84.4219 154.991,83.4219 158.5,83C 160.151,81.0565 162.151,79.5565 164.5,78.5C 165.127,77.5832 165.461,76.5832 165.5,75.5C 168.494,73.0002 171.827,71.0002 175.5,69.5C 179.226,68.8085 182.893,67.8085 186.5,66.5C 188.26,63.074 190.426,62.7406 193,65.5C 195.992,62.0751 198.992,58.7417 202,55.5C 206.047,53.9465 210.213,52.9465 214.5,52.5C 214.5,51.1667 214.5,49.8333 214.5,48.5C 218.366,47.3079 222.033,45.6412 225.5,43.5C 227.459,43.8748 229.293,44.5415 231,45.5C 231.925,44.9535 232.758,44.2868 233.5,43.5C 230.18,42.2387 229.846,40.572 232.5,38.5C 237.925,34.8878 243.592,31.5545 249.5,28.5C 250.425,27.6431 251.092,26.6431 251.5,25.5 Z"/></g>
<g><path style="opacity:1" fill="#d58ad0" d="M 315.5,46.5 C 319.489,46.1164 323.155,46.783 326.5,48.5C 323.814,49.9881 324.147,50.6547 327.5,50.5C 327.5,51.8333 327.5,53.1667 327.5,54.5C 333.771,54.1339 338.438,56.6339 341.5,62C 343.076,63.577 344.909,64.7437 347,65.5C 349.476,63.5129 352.31,62.5129 355.5,62.5C 355.5,63.5 355.5,64.5 355.5,65.5C 349.738,65.6981 349.071,67.6981 353.5,71.5C 354.85,72.9501 356.516,73.6168 358.5,73.5C 357.611,75.8586 356.278,76.0253 354.5,74C 341.32,64.9703 328.32,55.8036 315.5,46.5 Z"/></g>
<g><path style="opacity:0.792" fill="#9a9b9d" d="M 387.5,59.5 C 388.708,58.218 390.042,58.218 391.5,59.5C 390.192,60.6256 388.858,60.6256 387.5,59.5 Z"/></g>
<g><path style="opacity:1" fill="#d981d4" d="M 326.5,48.5 C 341.235,52.6852 355.902,57.1852 370.5,62C 370.167,62.3333 369.833,62.6667 369.5,63C 371.044,63.2896 372.377,63.9563 373.5,65C 371.765,65.6514 370.098,65.4847 368.5,64.5C 367.478,64.8555 366.811,65.5222 366.5,66.5C 364.451,69.5497 361.784,71.883 358.5,73.5C 356.516,73.6168 354.85,72.9501 353.5,71.5C 349.071,67.6981 349.738,65.6981 355.5,65.5C 355.5,64.5 355.5,63.5 355.5,62.5C 352.31,62.5129 349.476,63.5129 347,65.5C 344.909,64.7437 343.076,63.577 341.5,62C 338.438,56.6339 333.771,54.1339 327.5,54.5C 327.5,53.1667 327.5,51.8333 327.5,50.5C 324.147,50.6547 323.814,49.9881 326.5,48.5 Z"/></g>
<g><path style="opacity:0.761" fill="#969d9f" d="M 395.5,60.5 C 397.842,60.5041 399.842,61.3375 401.5,63C 398.625,63.9613 396.625,63.128 395.5,60.5 Z"/></g>
<g><path style="opacity:0.945" fill="#909597" d="M 404.5,65.5 C 406.605,64.1811 408.605,64.5144 410.5,66.5C 408.383,67.4693 406.383,67.136 404.5,65.5 Z"/></g>
<g><path style="opacity:0.694" fill="#8f9596" d="M 414.5,68.5 C 421.154,72.7877 420.82,73.2877 413.5,70C 414.056,69.6174 414.389,69.1174 414.5,68.5 Z"/></g>
<g><path style="opacity:0.949" fill="#939898" d="M 422.5,74.5 C 424.912,74.244 426.579,75.244 427.5,77.5C 426.998,78.521 426.332,78.6877 425.5,78C 423.937,77.2411 422.937,76.0744 422.5,74.5 Z"/></g>
<g><path style="opacity:0.935" fill="#a0a4a7" d="M 430.5,80.5 C 432.729,81.0553 434.395,82.3886 435.5,84.5C 432.695,85.0883 431.028,83.755 430.5,80.5 Z"/></g>
<g><path style="opacity:0.698" fill="#929597" d="M 437.5,88.5 C 440.361,89.237 441.361,90.9037 440.5,93.5C 439.048,92.0603 438.048,90.3936 437.5,88.5 Z"/></g>
<g><path style="opacity:1" fill="#dda5d7" d="M 165.5,75.5 C 165.461,76.5832 165.127,77.5832 164.5,78.5C 162.151,79.5565 160.151,81.0565 158.5,83C 154.991,83.4219 151.657,84.4219 148.5,86C 143.68,90.153 138.347,93.4863 132.5,96C 131.075,97.3619 130.242,98.8619 130,100.5C 129.275,99.9415 128.442,99.6082 127.5,99.5C 124.801,101.347 121.801,102.347 118.5,102.5C 133.669,92.7451 149.336,83.7451 165.5,75.5 Z"/></g>
<g><path style="opacity:0.886" fill="#9fa6a8" d="M 443.5,96.5 C 446.393,97.6877 447.393,99.6877 446.5,102.5C 444.585,100.929 443.585,98.9288 443.5,96.5 Z"/></g>
<g><path style="opacity:0.945" fill="#999ea0" d="M 448.5,105.5 C 450.384,106.382 451.717,107.882 452.5,110C 452,110.5 451.5,111 451,111.5C 449.337,109.842 448.504,107.842 448.5,105.5 Z"/></g>
<g><path style="opacity:0.765" fill="#a5a8a9" d="M 452.5,115.5 C 453.497,115.47 454.164,115.97 454.5,117C 455.547,118.578 455.547,120.078 454.5,121.5C 452.914,119.827 452.247,117.827 452.5,115.5 Z"/></g>
<g><path style="opacity:1" fill="#dba8d8" d="M 101.5,112.5 C 101.586,113.496 101.252,114.329 100.5,115C 96.4064,117.38 92.0731,119.213 87.5,120.5C 91.833,117.331 96.4997,114.664 101.5,112.5 Z"/></g>
<g><path style="opacity:0.776" fill="#777e7c" d="M 454.5,125.5 C 455.649,125.791 456.316,126.624 456.5,128C 456.333,128.833 456.167,129.667 456,130.5C 454.731,129.095 454.231,127.429 454.5,125.5 Z"/></g>
<g><path style="opacity:1" fill="#395a64" d="M 379.5,109.5 C 396.186,116.518 403.353,129.185 401,147.5C 399.617,157.478 397.117,167.145 393.5,176.5C 393.167,176.5 392.833,176.5 392.5,176.5C 391.749,175.427 390.749,175.26 389.5,176C 380.007,184.833 372.341,194.999 366.5,206.5C 367.325,207.386 368.325,207.719 369.5,207.5C 369.5,207.833 369.5,208.167 369.5,208.5C 365.362,211.406 361.029,214.073 356.5,216.5C 354.936,221.298 352.603,225.631 349.5,229.5C 343.512,235.377 336.512,238.044 328.5,237.5C 334.747,233.578 338.081,227.911 338.5,220.5C 335.427,219.801 332.427,218.801 329.5,217.5C 328.817,217.863 328.15,218.196 327.5,218.5C 327.631,217.761 327.464,217.094 327,216.5C 325.188,215.023 323.355,213.69 321.5,212.5C 322.239,212.631 322.906,212.464 323.5,212C 317.897,203.283 316.063,193.783 318,183.5C 321.241,159.553 331.741,139.553 349.5,123.5C 353.332,120.75 357.332,118.25 361.5,116C 367.736,113.799 373.736,111.632 379.5,109.5 Z M 363.5,160.5 C 362.582,162.82 361.248,164.987 359.5,167C 358.207,167.49 356.873,167.657 355.5,167.5C 355.737,166.209 355.404,165.209 354.5,164.5C 354.119,156.122 354.119,147.788 354.5,139.5C 357.339,137.58 360.339,135.913 363.5,134.5C 363.802,143.115 363.802,151.781 363.5,160.5 Z"/></g>
<g><path style="opacity:1" fill="#a952a3" d="M 96.5,140.5 C 96.3482,182.294 96.5149,224.294 97,266.5C 102.945,264.462 108.778,262.129 114.5,259.5C 111.402,261.892 108.069,264.058 104.5,266C 100.782,268.298 96.7824,268.965 92.5,268C 89.0901,265.628 85.4234,263.795 81.5,262.5C 80.8333,261.833 80.1667,261.167 79.5,260.5C 78.9688,258.456 77.8022,256.789 76,255.5C 75.6667,215.5 75.3333,175.5 75,135.5C 74.6174,134.944 74.1174,134.611 73.5,134.5C 73.5,134.167 73.5,133.833 73.5,133.5C 74.9432,132.665 75.9432,131.332 76.5,129.5C 83.162,133.165 89.8287,136.831 96.5,140.5 Z"/></g>
<g><path style="opacity:1" fill="#b57db0" d="M 73.5,134.5 C 74.1174,134.611 74.6174,134.944 75,135.5C 75.3333,175.5 75.6667,215.5 76,255.5C 77.8022,256.789 78.9688,258.456 79.5,260.5C 76.5392,259.607 74.7059,257.607 74,254.5C 73.5,214.501 73.3333,174.501 73.5,134.5 Z"/></g>
<g><path style="opacity:1" fill="#2d464f" d="M 379.5,109.5 C 373.736,111.632 367.736,113.799 361.5,116C 357.332,118.25 353.332,120.75 349.5,123.5C 331.741,139.553 321.241,159.553 318,183.5C 316.063,193.783 317.897,203.283 323.5,212C 322.906,212.464 322.239,212.631 321.5,212.5C 314.167,209.208 309.667,203.542 308,195.5C 305.466,164.726 315.632,138.892 338.5,118C 348.172,109.221 359.505,105.221 372.5,106C 375.174,106.67 377.507,107.837 379.5,109.5 Z"/></g>
<g><path style="opacity:1" fill="#d168cb" d="M 274.5,38.5 C 275.117,38.6107 275.617,38.944 276,39.5C 276.833,80.8374 276.667,122.171 275.5,163.5C 274.476,164.853 273.143,165.52 271.5,165.5C 271.5,166.5 271.5,167.5 271.5,168.5C 269.071,168.884 266.737,169.551 264.5,170.5C 264.5,169.5 264.5,168.5 264.5,167.5C 265.66,166.735 266.66,165.735 267.5,164.5C 264.224,159.721 260.391,155.388 256,151.5C 255.833,150.5 255.667,149.5 255.5,148.5C 257.58,142.681 259.913,137.014 262.5,131.5C 263.117,131.389 263.617,131.056 264,130.5C 266.357,118.939 267.024,107.272 266,95.5C 265.116,92.0651 263.949,88.7318 262.5,85.5C 261.069,83.0623 259.069,81.3956 256.5,80.5C 254.421,80.0293 252.421,79.3627 250.5,78.5C 245.522,74.1657 239.855,73.3323 233.5,76C 232.058,76.3768 231.058,77.2101 230.5,78.5C 226.332,80.4232 222.665,83.0899 219.5,86.5C 218.791,85.596 217.791,85.2627 216.5,85.5C 217.244,88.9496 215.91,90.6162 212.5,90.5C 212.66,92.1992 212.494,93.8659 212,95.5C 209.419,100.331 206.585,104.998 203.5,109.5C 204.348,111.409 204.682,113.409 204.5,115.5C 203.49,119.614 202.49,123.614 201.5,127.5C 200.508,135.316 200.174,143.316 200.5,151.5C 199.5,151.5 198.5,151.5 197.5,151.5C 197.5,150.833 197.5,150.167 197.5,149.5C 196.965,145.181 196.465,140.848 196,136.5C 195.667,136.833 195.333,137.167 195,137.5C 193.049,129.204 190.549,121.038 187.5,113C 187.164,111.97 186.497,111.47 185.5,111.5C 183.266,110.553 180.932,109.886 178.5,109.5C 177.274,109.52 176.274,109.853 175.5,110.5C 173.856,110.714 172.356,110.38 171,109.5C 169.663,111.004 167.996,112.004 166,112.5C 164.464,117.82 162.797,123.154 161,128.5C 158.861,127.231 156.695,127.231 154.5,128.5C 155.645,129.891 155.645,131.224 154.5,132.5C 152.679,131.272 151.679,129.606 151.5,127.5C 147.215,128.295 142.881,128.628 138.5,128.5C 138.5,129.5 138.5,130.5 138.5,131.5C 137.5,131.833 136.833,132.5 136.5,133.5C 135.29,133.932 134.29,134.599 133.5,135.5C 131.313,136.758 128.98,137.758 126.5,138.5C 120.474,139.43 115.307,142.097 111,146.5C 110.517,147.448 110.351,148.448 110.5,149.5C 109.883,149.611 109.383,149.944 109,150.5C 108.333,177.833 108.333,205.167 109,232.5C 109.683,235.962 111.849,237.295 115.5,236.5C 118.611,236.988 120.944,235.988 122.5,233.5C 123.514,232.326 124.847,231.66 126.5,231.5C 128.411,231.426 129.578,230.426 130,228.5C 130.211,217.454 130.711,206.454 131.5,195.5C 133.322,193.99 135.322,192.657 137.5,191.5C 137.833,191.5 138.167,191.5 138.5,191.5C 141.643,190.963 144.643,189.963 147.5,188.5C 147.833,189 148.167,189.5 148.5,190C 146.55,195.679 145.55,201.513 145.5,207.5C 144.828,214.842 147.828,217.175 154.5,214.5C 158.479,213.261 161.646,210.928 164,207.5C 165.655,201.4 167.155,195.4 168.5,189.5C 170.308,189.509 171.975,189.009 173.5,188C 176.834,186.28 179.834,184.114 182.5,181.5C 184.653,184.54 186.32,187.873 187.5,191.5C 193.404,191.296 199.404,191.296 205.5,191.5C 205.517,189.435 205.85,187.435 206.5,185.5C 207.649,185.209 208.316,184.376 208.5,183C 206.109,175.934 204.109,168.768 202.5,161.5C 202.65,158.971 203.65,158.305 205.5,159.5C 207.937,163.269 211.271,165.936 215.5,167.5C 217.958,170.307 221.125,171.641 225,171.5C 229.787,171.07 234.287,169.737 238.5,167.5C 239.873,167.343 241.207,167.51 242.5,168C 246.232,172.04 250.565,173.54 255.5,172.5C 256.514,171.326 257.847,170.66 259.5,170.5C 259.369,171.239 259.536,171.906 260,172.5C 260.893,171.289 261.726,171.289 262.5,172.5C 258.57,175.444 254.237,177.444 249.5,178.5C 250.127,179.417 250.461,180.417 250.5,181.5C 248.819,183.008 246.819,184.008 244.5,184.5C 241.097,185.363 237.764,186.53 234.5,188C 231.772,190.392 228.772,192.392 225.5,194C 224.748,194.671 224.414,195.504 224.5,196.5C 219.833,197.833 215.167,199.167 210.5,200.5C 209.838,204.466 209.505,208.466 209.5,212.5C 209.037,215.221 208.371,217.888 207.5,220.5C 205.405,223.876 204.071,227.542 203.5,231.5C 201.065,235.799 199.398,240.465 198.5,245.5C 197.596,246.209 197.263,247.209 197.5,248.5C 196.214,253.078 193.214,254.578 188.5,253C 187.944,252.617 187.611,252.117 187.5,251.5C 183.705,243.246 179.372,235.246 174.5,227.5C 173.386,226.224 172.386,226.224 171.5,227.5C 169.804,227.685 168.471,228.519 167.5,230C 165.5,230.333 163.5,230.667 161.5,231C 159.336,232.491 157.336,233.991 155.5,235.5C 153.833,235.5 152.167,235.5 150.5,235.5C 150.5,236.5 150.5,237.5 150.5,238.5C 149.127,238.343 147.793,238.51 146.5,239C 144.572,241.091 142.572,242.924 140.5,244.5C 137.738,246.596 134.738,248.262 131.5,249.5C 128.598,250.578 125.598,251.244 122.5,251.5C 122.5,252.5 122.5,253.5 122.5,254.5C 120.217,254.608 118.217,255.441 116.5,257C 115.748,257.671 115.414,258.504 115.5,259.5C 115.167,259.5 114.833,259.5 114.5,259.5C 108.778,262.129 102.945,264.462 97,266.5C 96.5149,224.294 96.3482,182.294 96.5,140.5C 153.732,107.879 210.732,74.7121 267.5,41C 269.743,39.8638 272.076,39.0305 274.5,38.5 Z"/></g>
<g><path style="opacity:1" fill="#dbbeda" d="M 110.5,149.5 C 110.833,149.5 111.167,149.5 111.5,149.5C 111.5,149.833 111.5,150.167 111.5,150.5C 110.526,177.468 110.193,204.468 110.5,231.5C 109.18,204.294 109.18,176.961 110.5,149.5 Z"/></g>
<g><path style="opacity:1" fill="#c27bbf" d="M 110.5,149.5 C 109.18,176.961 109.18,204.294 110.5,231.5C 110.33,232.822 110.663,233.989 111.5,235C 115.433,235.884 119.099,235.384 122.5,233.5C 120.944,235.988 118.611,236.988 115.5,236.5C 111.849,237.295 109.683,235.962 109,232.5C 108.333,205.167 108.333,177.833 109,150.5C 109.383,149.944 109.883,149.611 110.5,149.5 Z"/></g>
<g><path style="opacity:1" fill="#d068cb" d="M 151.5,181.5 C 151.5,182.5 151.5,183.5 151.5,184.5C 150.85,184.804 150.183,185.137 149.5,185.5C 148.671,180.198 148.171,174.864 148,169.5C 146.483,167.76 144.983,166.094 143.5,164.5C 141.978,161.971 140.311,159.471 138.5,157C 142.012,155.459 145.345,153.626 148.5,151.5C 149.731,157.129 151.398,162.629 153.5,168C 152.561,172.469 151.894,176.969 151.5,181.5 Z"/></g>
<g><path style="opacity:1" fill="#f9f8f9" d="M 147.5,132.5 C 148.151,133.091 148.818,133.757 149.5,134.5C 150.489,138.107 150.823,141.774 150.5,145.5C 150.092,146.643 149.425,147.643 148.5,148.5C 144.015,150.653 139.682,152.986 135.5,155.5C 132.381,156.317 129.381,157.317 126.5,158.5C 126.5,163.833 126.5,169.167 126.5,174.5C 132.391,173.798 138.058,172.632 143.5,171C 144.025,171.692 144.692,172.192 145.5,172.5C 146.491,176.445 146.824,180.445 146.5,184.5C 145.448,184.351 144.448,184.517 143.5,185C 141.146,186.972 139.146,189.139 137.5,191.5C 135.322,192.657 133.322,193.99 131.5,195.5C 130.504,195.414 129.671,195.748 129,196.5C 128.667,206.833 128.333,217.167 128,227.5C 127.59,228.901 127.09,230.234 126.5,231.5C 124.847,231.66 123.514,232.326 122.5,233.5C 119.099,235.384 115.433,235.884 111.5,235C 110.663,233.989 110.33,232.822 110.5,231.5C 111.374,233.69 113.041,234.69 115.5,234.5C 115.333,208.165 115.5,181.831 116,155.5C 117.714,151.29 120.547,148.29 124.5,146.5C 125.71,146.068 126.71,145.401 127.5,144.5C 134.838,141.503 141.505,137.503 147.5,132.5 Z"/></g>
<g><path style="opacity:1" fill="#cccbcc" d="M 124.5,146.5 C 120.547,148.29 117.714,151.29 116,155.5C 115.5,181.831 115.333,208.165 115.5,234.5C 113.041,234.69 111.374,233.69 110.5,231.5C 110.193,204.468 110.526,177.468 111.5,150.5C 115.306,150.498 117.973,148.831 119.5,145.5C 120.333,145.167 121.167,144.833 122,144.5C 123.376,144.684 124.209,145.351 124.5,146.5 Z"/></g>
<g><path style="opacity:1" fill="#fceafc" d="M 192.5,137.5 C 194.167,141.5 195.833,145.5 197.5,149.5C 197.5,150.167 197.5,150.833 197.5,151.5C 200.818,162.774 203.818,174.107 206.5,185.5C 206.167,185.5 205.833,185.5 205.5,185.5C 203.486,176.971 200.486,168.805 196.5,161C 196.833,160 197.167,159 197.5,158C 195.87,151.478 193.87,145.145 191.5,139C 192.056,138.617 192.389,138.117 192.5,137.5 Z"/></g>
<g><path style="opacity:1" fill="#ca71c5" d="M 201.5,127.5 C 201.179,133.026 201.512,138.36 202.5,143.5C 202.31,149.096 203.31,154.429 205.5,159.5C 203.65,158.305 202.65,158.971 202.5,161.5C 204.109,168.768 206.109,175.934 208.5,183C 208.316,184.376 207.649,185.209 206.5,185.5C 203.818,174.107 200.818,162.774 197.5,151.5C 198.5,151.5 199.5,151.5 200.5,151.5C 200.174,143.316 200.508,135.316 201.5,127.5 Z"/></g>
<g><path style="opacity:1" fill="#e9d9e9" d="M 133.5,135.5 C 132.989,137.195 132.322,138.861 131.5,140.5C 128.758,138.97 126.758,139.636 125.5,142.5C 125.747,143.713 126.414,144.38 127.5,144.5C 126.71,145.401 125.71,146.068 124.5,146.5C 124.209,145.351 123.376,144.684 122,144.5C 121.167,144.833 120.333,145.167 119.5,145.5C 117.973,148.831 115.306,150.498 111.5,150.5C 111.5,150.167 111.5,149.833 111.5,149.5C 112.29,148.206 113.29,147.039 114.5,146C 118.732,143.725 122.732,141.225 126.5,138.5C 128.98,137.758 131.313,136.758 133.5,135.5 Z"/></g>
<g><path style="opacity:1" fill="#f9f8f9" d="M 247.5,78.5 C 248.5,78.5 249.5,78.5 250.5,78.5C 252.421,79.3627 254.421,80.0293 256.5,80.5C 264.334,91.1762 267.167,103.176 265,116.5C 263.84,121.453 263.007,126.453 262.5,131.5C 259.913,137.014 257.58,142.681 255.5,148.5C 255.667,149.5 255.833,150.5 256,151.5C 260.391,155.388 264.224,159.721 267.5,164.5C 266.66,165.735 265.66,166.735 264.5,167.5C 262.566,168.11 260.899,169.11 259.5,170.5C 257.847,170.66 256.514,171.326 255.5,172.5C 252.353,172.263 249.353,171.43 246.5,170C 244.946,168.108 243.112,166.608 241,165.5C 239.699,165.639 238.866,166.305 238.5,167.5C 234.287,169.737 229.787,171.07 225,171.5C 221.125,171.641 217.958,170.307 215.5,167.5C 209.749,159.549 207.416,150.549 208.5,140.5C 208.281,129.385 210.281,118.718 214.5,108.5C 219.715,95.4407 228.715,85.6074 241.5,79C 243.473,78.5045 245.473,78.3379 247.5,78.5 Z"/></g>
<g><path style="opacity:1" fill="#cccacd" d="M 244.5,143.5 C 240.555,151.64 234.221,154.64 225.5,152.5C 225.167,151.833 224.833,151.167 224.5,150.5C 226.857,150.663 229.19,150.497 231.5,150C 234.375,146.956 237.375,144.123 240.5,141.5C 241.622,142.63 242.956,143.297 244.5,143.5 Z"/></g>
<g><path style="opacity:1" fill="#c579c1" d="M 126.5,138.5 C 122.732,141.225 118.732,143.725 114.5,146C 113.29,147.039 112.29,148.206 111.5,149.5C 111.167,149.5 110.833,149.5 110.5,149.5C 110.351,148.448 110.517,147.448 111,146.5C 115.307,142.097 120.474,139.43 126.5,138.5 Z"/></g>
<g><path style="opacity:1" fill="#fcf0fc" d="M 227.5,106.5 C 225.607,109.618 224.274,112.951 223.5,116.5C 221.948,121.401 221.281,126.568 221.5,132C 221.501,136.015 221.835,139.849 222.5,143.5C 222.517,145.565 222.85,147.565 223.5,149.5C 223.5,150.167 223.833,150.5 224.5,150.5C 224.833,151.167 225.167,151.833 225.5,152.5C 223.574,151.758 221.741,150.758 220,149.5C 219.667,145.167 219.333,140.833 219,136.5C 218.08,136.07 217.247,135.736 216.5,135.5C 219.593,129.268 221.26,122.601 221.5,115.5C 222.205,113.328 223.205,111.328 224.5,109.5C 223.538,107.117 224.538,106.117 227.5,106.5 Z"/></g>
<g><path style="opacity:1" fill="#d2bed2" d="M 245.5,127.5 C 245.66,129.199 245.494,130.866 245,132.5C 243.779,133.774 242.946,135.274 242.5,137C 243.609,139.047 244.276,141.213 244.5,143.5C 242.956,143.297 241.622,142.63 240.5,141.5C 237.375,144.123 234.375,146.956 231.5,150C 229.19,150.497 226.857,150.663 224.5,150.5C 223.833,150.5 223.5,150.167 223.5,149.5C 226.271,149.579 228.937,149.079 231.5,148C 234.873,144.708 237.873,141.208 240.5,137.5C 241.234,136.292 241.567,134.959 241.5,133.5C 242.545,131.23 243.879,129.23 245.5,127.5 Z"/></g>
<g><path style="opacity:1" fill="#c374bd" d="M 240.5,137.5 C 237.873,141.208 234.873,144.708 231.5,148C 228.937,149.079 226.271,149.579 223.5,149.5C 222.85,147.565 222.517,145.565 222.5,143.5C 224.176,144.183 224.843,145.517 224.5,147.5C 229.941,148.074 233.608,145.741 235.5,140.5C 237.121,139.305 238.787,138.305 240.5,137.5 Z"/></g>
<g><path style="opacity:1" fill="#cca4c9" d="M 206.5,111.5 C 203.694,121.952 202.36,132.618 202.5,143.5C 201.512,138.36 201.179,133.026 201.5,127.5C 202.49,123.614 203.49,119.614 204.5,115.5C 205.167,114.167 205.833,112.833 206.5,111.5 Z"/></g>
<g><path style="opacity:1" fill="#d7b3d4" d="M 167.5,117.5 C 166.528,123.594 165.362,129.594 164,135.5C 163.392,137.066 162.558,138.4 161.5,139.5C 162.772,132.867 163.939,126.201 165,119.5C 165.708,118.619 166.542,117.953 167.5,117.5 Z"/></g>
<g><path style="opacity:1" fill="#e1e0e0" d="M 147.5,132.5 C 141.505,137.503 134.838,141.503 127.5,144.5C 126.414,144.38 125.747,143.713 125.5,142.5C 126.758,139.636 128.758,138.97 131.5,140.5C 132.322,138.861 132.989,137.195 133.5,135.5C 134.29,134.599 135.29,133.932 136.5,133.5C 140.105,131.705 143.772,131.372 147.5,132.5 Z"/></g>
<g><path style="opacity:1" fill="#eaceea" d="M 150.5,145.5 C 150.823,141.774 150.489,138.107 149.5,134.5C 148.818,133.757 148.151,133.091 147.5,132.5C 143.772,131.372 140.105,131.705 136.5,133.5C 136.833,132.5 137.5,131.833 138.5,131.5C 140.307,130.385 142.307,129.719 144.5,129.5C 146.841,130.182 149.174,130.849 151.5,131.5C 151.819,136.363 151.486,141.03 150.5,145.5 Z"/></g>
<g><path style="opacity:1" fill="#c97cc3" d="M 223.5,116.5 C 222.782,125.482 222.448,134.482 222.5,143.5C 221.835,139.849 221.501,136.015 221.5,132C 221.281,126.568 221.948,121.401 223.5,116.5 Z"/></g>
<g><path style="opacity:1" fill="#ce6dc7" d="M 175.5,110.5 C 173.727,111.892 171.727,113.059 169.5,114C 168.177,114.816 167.511,115.983 167.5,117.5C 166.542,117.953 165.708,118.619 165,119.5C 163.939,126.201 162.772,132.867 161.5,139.5C 158.461,153.654 155.127,167.654 151.5,181.5C 151.894,176.969 152.561,172.469 153.5,168C 151.398,162.629 149.731,157.129 148.5,151.5C 145.345,153.626 142.012,155.459 138.5,157C 140.311,159.471 141.978,161.971 143.5,164.5C 140.286,166.267 137.286,168.267 134.5,170.5C 132.947,172.385 130.947,173.385 128.5,173.5C 128.173,168.786 128.507,164.12 129.5,159.5C 131.711,158.34 133.711,157.007 135.5,155.5C 139.682,152.986 144.015,150.653 148.5,148.5C 149.425,147.643 150.092,146.643 150.5,145.5C 151.486,141.03 151.819,136.363 151.5,131.5C 149.174,130.849 146.841,130.182 144.5,129.5C 142.307,129.719 140.307,130.385 138.5,131.5C 138.5,130.5 138.5,129.5 138.5,128.5C 142.881,128.628 147.215,128.295 151.5,127.5C 151.679,129.606 152.679,131.272 154.5,132.5C 155.645,131.224 155.645,129.891 154.5,128.5C 156.695,127.231 158.861,127.231 161,128.5C 162.797,123.154 164.464,117.82 166,112.5C 167.996,112.004 169.663,111.004 171,109.5C 172.356,110.38 173.856,110.714 175.5,110.5 Z"/></g>
<g><path style="opacity:1" fill="#cdc9ce" d="M 211.5,103.5 C 212.241,105.354 213.241,107.021 214.5,108.5C 210.281,118.718 208.281,129.385 208.5,140.5C 207.416,150.549 209.749,159.549 215.5,167.5C 211.271,165.936 207.937,163.269 205.5,159.5C 203.31,154.429 202.31,149.096 202.5,143.5C 202.36,132.618 203.694,121.952 206.5,111.5C 207.015,109.249 208.015,107.249 209.5,105.5C 210.167,104.833 210.833,104.167 211.5,103.5 Z"/></g>
<g><path style="opacity:1" fill="#cb74c3" d="M 243.5,96.5 C 245.357,106.03 246.024,115.697 245.5,125.5C 245.5,126.167 245.5,126.833 245.5,127.5C 243.879,129.23 242.545,131.23 241.5,133.5C 241.334,128.489 241.501,123.489 242,118.5C 243.016,117.366 243.683,117.699 244,119.5C 244.689,113.118 244.355,106.785 243,100.5C 242.692,99.6919 242.192,99.0253 241.5,98.5C 239.556,99.1892 237.556,99.6892 235.5,100C 233.297,102.372 230.963,104.539 228.5,106.5C 231.37,99.9628 236.37,96.6295 243.5,96.5 Z"/></g>
<g><path style="opacity:1" fill="#cccbcb" d="M 246.5,97.5 C 248.173,98.343 249.34,99.6763 250,101.5C 253.134,111.794 253.134,122.127 250,132.5C 248.812,136.613 246.979,140.28 244.5,143.5C 244.276,141.213 243.609,139.047 242.5,137C 242.946,135.274 243.779,133.774 245,132.5C 245.494,130.866 245.66,129.199 245.5,127.5C 245.5,126.833 245.5,126.167 245.5,125.5C 247.046,120.767 247.713,115.767 247.5,110.5C 247.438,106.118 247.105,101.784 246.5,97.5 Z"/></g>
<g><path style="opacity:1" fill="#c978c3" d="M 185.5,111.5 C 186.497,111.47 187.164,111.97 187.5,113C 190.549,121.038 193.049,129.204 195,137.5C 195.333,137.167 195.667,136.833 196,136.5C 196.465,140.848 196.965,145.181 197.5,149.5C 195.833,145.5 194.167,141.5 192.5,137.5C 190.569,128.709 188.236,120.043 185.5,111.5 Z"/></g>
<g><path style="opacity:1" fill="#d168cb" d="M 241.5,133.5 C 241.567,134.959 241.234,136.292 240.5,137.5C 238.787,138.305 237.121,139.305 235.5,140.5C 233.608,145.741 229.941,148.074 224.5,147.5C 224.843,145.517 224.176,144.183 222.5,143.5C 222.448,134.482 222.782,125.482 223.5,116.5C 224.274,112.951 225.607,109.618 227.5,106.5C 227.833,106.5 228.167,106.5 228.5,106.5C 230.963,104.539 233.297,102.372 235.5,100C 237.556,99.6892 239.556,99.1892 241.5,98.5C 242.192,99.0253 242.692,99.6919 243,100.5C 244.355,106.785 244.689,113.118 244,119.5C 243.683,117.699 243.016,117.366 242,118.5C 241.501,123.489 241.334,128.489 241.5,133.5 Z"/></g>
<g><path style="opacity:1" fill="#d1bad1" d="M 243.5,96.5 C 244.791,96.2627 245.791,96.596 246.5,97.5C 247.105,101.784 247.438,106.118 247.5,110.5C 247.713,115.767 247.046,120.767 245.5,125.5C 246.024,115.697 245.357,106.03 243.5,96.5 Z"/></g>
<g><path style="opacity:1" fill="#c877c3" d="M 219.5,86.5 C 216.212,90.52 213.379,94.8533 211,99.5C 209.872,101.345 209.372,103.345 209.5,105.5C 208.015,107.249 207.015,109.249 206.5,111.5C 205.833,112.833 205.167,114.167 204.5,115.5C 204.682,113.409 204.348,111.409 203.5,109.5C 206.585,104.998 209.419,100.331 212,95.5C 212.494,93.8659 212.66,92.1992 212.5,90.5C 215.91,90.6162 217.244,88.9496 216.5,85.5C 217.791,85.2627 218.791,85.596 219.5,86.5 Z"/></g>
<g><path style="opacity:1" fill="#ebd1ea" d="M 230.5,78.5 C 226.562,81.9352 222.729,85.6019 219,89.5C 218.367,92.7977 216.867,95.6311 214.5,98C 214.645,98.772 214.978,99.4387 215.5,100C 213.676,100.66 212.343,101.827 211.5,103.5C 210.833,104.167 210.167,104.833 209.5,105.5C 209.372,103.345 209.872,101.345 211,99.5C 213.379,94.8533 216.212,90.52 219.5,86.5C 222.665,83.0899 226.332,80.4232 230.5,78.5 Z"/></g>
<g><path style="opacity:1" fill="#c777c0" d="M 256.5,80.5 C 259.069,81.3956 261.069,83.0623 262.5,85.5C 263.949,88.7318 265.116,92.0651 266,95.5C 267.024,107.272 266.357,118.939 264,130.5C 263.617,131.056 263.117,131.389 262.5,131.5C 263.007,126.453 263.84,121.453 265,116.5C 267.167,103.176 264.334,91.1762 256.5,80.5 Z"/></g>
<g><path style="opacity:1" fill="#e1e1e0" d="M 247.5,78.5 C 245.473,78.3379 243.473,78.5045 241.5,79C 228.715,85.6074 219.715,95.4407 214.5,108.5C 213.241,107.021 212.241,105.354 211.5,103.5C 212.343,101.827 213.676,100.66 215.5,100C 214.978,99.4387 214.645,98.772 214.5,98C 216.867,95.6311 218.367,92.7977 219,89.5C 222.729,85.6019 226.562,81.9352 230.5,78.5C 236.304,75.9521 241.97,75.9521 247.5,78.5 Z"/></g>
<g><path style="opacity:1" fill="#edccec" d="M 250.5,78.5 C 249.5,78.5 248.5,78.5 247.5,78.5C 241.97,75.9521 236.304,75.9521 230.5,78.5C 231.058,77.2101 232.058,76.3768 233.5,76C 239.855,73.3323 245.522,74.1657 250.5,78.5 Z"/></g>
<g><path style="opacity:0.99" fill="#e2e0e2" d="M 440.5,172.5 C 430.11,170.346 420.444,172.179 411.5,178C 390.934,193.606 377.767,214.106 372,239.5C 369.949,252.278 372.449,263.945 379.5,274.5C 369.086,270.063 363.253,262.063 362,250.5C 361.501,243.486 361.668,236.486 362.5,229.5C 364.237,222.29 366.57,215.29 369.5,208.5C 370.833,208.167 370.833,207.833 369.5,207.5C 376.186,196.818 383.853,186.818 392.5,177.5C 393.167,177.5 393.5,177.167 393.5,176.5C 399.702,172.231 406.369,168.731 413.5,166C 418.5,165.333 423.5,165.333 428.5,166C 432.722,167.941 436.722,170.108 440.5,172.5 Z"/></g>
<g><path style="opacity:1" fill="#f5e0f4" d="M 135.5,155.5 C 133.711,157.007 131.711,158.34 129.5,159.5C 128.507,164.12 128.173,168.786 128.5,173.5C 130.947,173.385 132.947,172.385 134.5,170.5C 138.973,167.498 143.139,167.831 147,171.5C 147.667,176.167 147.667,180.833 147,185.5C 144.012,187.399 141.179,189.399 138.5,191.5C 138.167,191.5 137.833,191.5 137.5,191.5C 139.146,189.139 141.146,186.972 143.5,185C 144.448,184.517 145.448,184.351 146.5,184.5C 146.824,180.445 146.491,176.445 145.5,172.5C 144.692,172.192 144.025,171.692 143.5,171C 138.058,172.632 132.391,173.798 126.5,174.5C 126.5,169.167 126.5,163.833 126.5,158.5C 129.381,157.317 132.381,156.317 135.5,155.5 Z"/></g>
<g><path style="opacity:1" fill="#f9f8f9" d="M 175.5,110.5 C 176.274,109.853 177.274,109.52 178.5,109.5C 180.932,109.886 183.266,110.553 185.5,111.5C 188.236,120.043 190.569,128.709 192.5,137.5C 192.389,138.117 192.056,138.617 191.5,139C 193.87,145.145 195.87,151.478 197.5,158C 197.167,159 196.833,160 196.5,161C 200.486,168.805 203.486,176.971 205.5,185.5C 202.699,186.735 200.032,188.235 197.5,190C 195.934,190.765 194.601,190.598 193.5,189.5C 192.305,184.716 190.805,180.05 189,175.5C 186.689,176.397 184.856,177.73 183.5,179.5C 177.34,181.366 172.34,184.699 168.5,189.5C 167.155,195.4 165.655,201.4 164,207.5C 161.646,210.928 158.479,213.261 154.5,214.5C 153.833,214.5 153.167,214.5 152.5,214.5C 158.446,183.673 164.946,152.673 172,121.5C 174.871,117.969 178.371,115.136 182.5,113C 180.52,111.175 178.187,110.341 175.5,110.5 Z"/></g>
<g><path style="opacity:1" fill="#c57dc0" d="M 176.5,147.5 C 179.48,151.567 180.48,156.067 179.5,161C 177.833,161.833 176.167,162.667 174.5,163.5C 173.893,163.376 173.56,163.043 173.5,162.5C 174.178,157.429 175.178,152.429 176.5,147.5 Z"/></g>
<g><path style="opacity:1" fill="#d5d2d5" d="M 173.5,162.5 C 173.56,163.043 173.893,163.376 174.5,163.5C 176.167,162.667 177.833,161.833 179.5,161C 180.48,156.067 179.48,151.567 176.5,147.5C 177.438,142.873 178.271,138.206 179,133.5C 181.975,143.734 184.475,154.067 186.5,164.5C 181.976,166.329 177.642,168.662 173.5,171.5C 172.197,168.355 172.197,165.355 173.5,162.5 Z"/></g>
<g><path style="opacity:0.945" fill="#dfe9ec" d="M 363.5,160.5 C 363.67,164.645 363.003,168.645 361.5,172.5C 359.338,174.02 357.005,175.02 354.5,175.5C 354.5,171.833 354.5,168.167 354.5,164.5C 355.404,165.209 355.737,166.209 355.5,167.5C 356.873,167.657 358.207,167.49 359.5,167C 361.248,164.987 362.582,162.82 363.5,160.5 Z"/></g>
<g><path style="opacity:1" fill="#c077bd" d="M 255.5,172.5 C 250.565,173.54 246.232,172.04 242.5,168C 241.207,167.51 239.873,167.343 238.5,167.5C 238.866,166.305 239.699,165.639 241,165.5C 243.112,166.608 244.946,168.108 246.5,170C 249.353,171.43 252.353,172.263 255.5,172.5 Z"/></g>
<g><path style="opacity:1" fill="#304950" d="M 392.5,176.5 C 392.5,176.833 392.5,177.167 392.5,177.5C 383.853,186.818 376.186,196.818 369.5,207.5C 368.325,207.719 367.325,207.386 366.5,206.5C 372.341,194.999 380.007,184.833 389.5,176C 390.749,175.26 391.749,175.427 392.5,176.5 Z"/></g>
<g><path style="opacity:1" fill="#cfc7ce" d="M 193.5,189.5 C 192.078,189.291 190.745,188.791 189.5,188C 187.156,185.198 185.156,182.364 183.5,179.5C 184.856,177.73 186.689,176.397 189,175.5C 190.805,180.05 192.305,184.716 193.5,189.5 Z"/></g>
<g><path style="opacity:1" fill="#c775c2" d="M 143.5,164.5 C 144.983,166.094 146.483,167.76 148,169.5C 148.171,174.864 148.671,180.198 149.5,185.5C 150.183,185.137 150.85,184.804 151.5,184.5C 150.781,186.764 150.448,189.097 150.5,191.5C 148.833,196.833 147.167,202.167 145.5,207.5C 145.55,201.513 146.55,195.679 148.5,190C 148.167,189.5 147.833,189 147.5,188.5C 144.643,189.963 141.643,190.963 138.5,191.5C 141.179,189.399 144.012,187.399 147,185.5C 147.667,180.833 147.667,176.167 147,171.5C 143.139,167.831 138.973,167.498 134.5,170.5C 137.286,168.267 140.286,166.267 143.5,164.5 Z"/></g>
<g><path style="opacity:1" fill="#cdc9cd" d="M 175.5,110.5 C 178.187,110.341 180.52,111.175 182.5,113C 178.371,115.136 174.871,117.969 172,121.5C 164.946,152.673 158.446,183.673 152.5,214.5C 149.739,215.085 148.073,214.085 147.5,211.5C 148.637,204.768 149.637,198.101 150.5,191.5C 150.448,189.097 150.781,186.764 151.5,184.5C 151.5,183.5 151.5,182.5 151.5,181.5C 155.127,167.654 158.461,153.654 161.5,139.5C 162.558,138.4 163.392,137.066 164,135.5C 165.362,129.594 166.528,123.594 167.5,117.5C 167.511,115.983 168.177,114.816 169.5,114C 171.727,113.059 173.727,111.892 175.5,110.5 Z"/></g>
<g><path style="opacity:1" fill="#cd71c5" d="M 183.5,179.5 C 185.156,182.364 187.156,185.198 189.5,188C 190.745,188.791 192.078,189.291 193.5,189.5C 194.601,190.598 195.934,190.765 197.5,190C 200.032,188.235 202.699,186.735 205.5,185.5C 205.833,185.5 206.167,185.5 206.5,185.5C 205.85,187.435 205.517,189.435 205.5,191.5C 199.404,191.296 193.404,191.296 187.5,191.5C 186.32,187.873 184.653,184.54 182.5,181.5C 179.834,184.114 176.834,186.28 173.5,188C 171.975,189.009 170.308,189.509 168.5,189.5C 172.34,184.699 177.34,181.366 183.5,179.5 Z"/></g>
<g><path style="opacity:1" fill="#cb80c3" d="M 244.5,184.5 C 238.201,188.988 231.534,192.988 224.5,196.5C 224.414,195.504 224.748,194.671 225.5,194C 228.772,192.392 231.772,190.392 234.5,188C 237.764,186.53 241.097,185.363 244.5,184.5 Z"/></g>
<g><path style="opacity:1" fill="#f0f6f8" d="M 359.5,178.5 C 361.144,178.286 362.644,178.62 364,179.5C 365.503,185.322 364.003,190.155 359.5,194C 357.833,194.667 356.167,194.667 354.5,194C 353.39,191.263 353.223,188.429 354,185.5C 355.666,183.004 357.5,180.671 359.5,178.5 Z"/></g>
<g><path style="opacity:1" fill="#c979c4" d="M 224.5,196.5 C 220.647,198.682 216.814,201.016 213,203.5C 212.1,206.718 210.933,209.718 209.5,212.5C 209.505,208.466 209.838,204.466 210.5,200.5C 215.167,199.167 219.833,197.833 224.5,196.5 Z"/></g>
<g><path style="opacity:1" fill="#d8b7d6" d="M 150.5,191.5 C 149.637,198.101 148.637,204.768 147.5,211.5C 148.073,214.085 149.739,215.085 152.5,214.5C 153.167,214.5 153.833,214.5 154.5,214.5C 147.828,217.175 144.828,214.842 145.5,207.5C 147.167,202.167 148.833,196.833 150.5,191.5 Z"/></g>
<g><path style="opacity:0.991" fill="#f9f9f9" d="M 324.5,225.5 C 322.854,227.812 320.854,229.812 318.5,231.5C 321.53,234.014 324.863,236.014 328.5,237.5C 336.512,238.044 343.512,235.377 349.5,229.5C 353.004,230.13 356.504,230.797 360,231.5C 360.708,230.619 361.542,229.953 362.5,229.5C 361.668,236.486 361.501,243.486 362,250.5C 363.253,262.063 369.086,270.063 379.5,274.5C 388.87,281.417 398.87,282.25 409.5,277C 413.627,275.401 417.294,273.067 420.5,270C 423.433,269.704 426.266,270.204 429,271.5C 431.822,270.725 434.656,270.058 437.5,269.5C 443.14,274.805 448.807,280.139 454.5,285.5C 430.889,300.887 406.555,315.387 381.5,329C 370.097,335.972 364.597,346.138 365,359.5C 367.189,364.047 370.689,366.547 375.5,367C 372.275,358.991 373.275,351.491 378.5,344.5C 387.688,335.222 398.354,327.888 410.5,322.5C 411.386,321.675 411.719,320.675 411.5,319.5C 416.485,318.509 421.151,316.676 425.5,314C 438.669,306.163 451.836,298.33 465,290.5C 466.44,289.852 467.94,289.519 469.5,289.5C 469.5,288.5 469.5,287.5 469.5,286.5C 475.586,288.423 478.919,292.59 479.5,299C 478.779,304.163 477.446,309.163 475.5,314C 490.282,347.105 486.448,377.938 464,406.5C 459.2,412.302 454.033,417.802 448.5,423C 441.7,427.38 435.366,432.213 429.5,437.5C 430.537,429.74 427.87,423.573 421.5,419C 396.757,405.962 371.757,393.462 346.5,381.5C 343.207,378.402 339.207,377.069 334.5,377.5C 334.167,377.5 333.833,377.5 333.5,377.5C 333.5,377.167 333.5,376.833 333.5,376.5C 336.228,371.183 339.061,365.849 342,360.5C 346.747,344.19 343.914,329.523 333.5,316.5C 334.042,302.606 329.375,290.939 319.5,281.5C 315.74,279.576 312.74,276.743 310.5,273C 303.716,268.611 296.716,264.778 289.5,261.5C 289.489,259.983 288.823,258.816 287.5,258C 284.542,257.771 282.042,256.604 280,254.5C 279.667,254.833 279.333,255.167 279,255.5C 276.931,254.736 274.764,254.236 272.5,254C 268.627,252.058 264.627,250.225 260.5,248.5C 259.061,249.063 257.561,249.397 256,249.5C 245.825,247.88 235.658,246.213 225.5,244.5C 217.138,245.062 209.138,246.062 201.5,247.5C 201.159,245.51 200.826,243.51 200.5,241.5C 202.98,238.639 203.98,235.306 203.5,231.5C 204.071,227.542 205.405,223.876 207.5,220.5C 237.777,216.681 268.11,216.514 298.5,220C 307.247,221.521 315.914,223.354 324.5,225.5 Z"/></g>
<g><path style="opacity:1" fill="#1d2f36" d="M 328.5,237.5 C 324.863,236.014 321.53,234.014 318.5,231.5C 320.854,229.812 322.854,227.812 324.5,225.5C 325.773,223.287 326.773,220.954 327.5,218.5C 328.15,218.196 328.817,217.863 329.5,217.5C 332.427,218.801 335.427,219.801 338.5,220.5C 338.081,227.911 334.747,233.578 328.5,237.5 Z"/></g>
<g><path style="opacity:1" fill="#c599c0" d="M 440.5,172.5 C 447.562,175.597 452.062,180.93 454,188.5C 456.918,203.665 455.251,218.332 449,232.5C 445.063,240.907 440.563,248.907 435.5,256.5C 436.7,260.435 439.367,262.435 443.5,262.5C 443.649,263.552 443.483,264.552 443,265.5C 441.008,266.665 439.175,267.998 437.5,269.5C 434.656,270.058 431.822,270.725 429,271.5C 426.266,270.204 423.433,269.704 420.5,270C 417.294,273.067 413.627,275.401 409.5,277C 398.87,282.25 388.87,281.417 379.5,274.5C 372.449,263.945 369.949,252.278 372,239.5C 377.767,214.106 390.934,193.606 411.5,178C 420.444,172.179 430.11,170.346 440.5,172.5 Z"/></g>
<g><path style="opacity:1" fill="#f9f9f9" d="M 451.5,215.5 C 448.682,230.803 442.348,244.47 432.5,256.5C 433.423,258.924 434.923,260.924 437,262.5C 437.798,264.259 437.631,265.926 436.5,267.5C 434.068,268.4 431.568,269.066 429,269.5C 426.399,267.847 423.565,267.347 420.5,268C 413.117,274.52 404.451,278.02 394.5,278.5C 382.642,277.144 375.809,270.477 374,258.5C 372.671,245.657 374.504,233.323 379.5,221.5C 380.5,221.5 381.5,221.5 382.5,221.5C 386.076,211.948 390.909,202.948 397,194.5C 397.915,195.328 398.581,196.328 399,197.5C 400.4,192.909 402.9,192.243 406.5,195.5C 407.999,192.667 410.333,191.001 413.5,190.5C 412.833,190.167 412.167,189.833 411.5,189.5C 409.833,190.167 408.167,190.833 406.5,191.5C 405.833,191.167 405.167,190.833 404.5,190.5C 405.325,189.614 406.325,189.281 407.5,189.5C 407.077,186.757 408.244,185.424 411,185.5C 412.607,185.769 413.774,186.603 414.5,188C 419.04,188.947 423.374,188.447 427.5,186.5C 426.359,185.575 426.359,184.741 427.5,184C 426.833,183.833 426.167,183.667 425.5,183.5C 423.481,184.14 421.647,184.14 420,183.5C 416.651,186.403 414.484,185.736 413.5,181.5C 416.914,181.294 419.581,179.794 421.5,177C 434.955,171.895 444.622,175.895 450.5,189C 449.198,190.923 449.365,192.757 451,194.5C 451.763,191.937 452.263,191.937 452.5,194.5C 451.031,198.526 450.031,202.692 449.5,207C 451.321,209.456 451.988,212.289 451.5,215.5 Z"/></g>
<g><path style="opacity:1" fill="#3b5b64" d="M 417.5,195.5 C 427.753,193.967 431.586,198.301 429,208.5C 425.5,216.834 422,225.167 418.5,233.5C 416.004,234.58 413.67,235.914 411.5,237.5C 411.167,236.5 410.833,235.5 410.5,234.5C 411.906,228.354 414.406,222.687 418,217.5C 419.149,214.607 419.649,211.607 419.5,208.5C 412.229,208.585 407.229,212.085 404.5,219C 402.5,219.667 400.5,219.667 398.5,219C 397.978,218.439 397.645,217.772 397.5,217C 401.958,207.711 408.625,200.544 417.5,195.5 Z"/></g>
<g><path style="opacity:1" fill="#fcf3fc" d="M 451.5,215.5 C 451.988,212.289 451.321,209.456 449.5,207C 450.031,202.692 451.031,198.526 452.5,194.5C 452.263,191.937 451.763,191.937 451,194.5C 449.365,192.757 449.198,190.923 450.5,189C 444.622,175.895 434.955,171.895 421.5,177C 419.581,179.794 416.914,181.294 413.5,181.5C 414.484,185.736 416.651,186.403 420,183.5C 421.647,184.14 423.481,184.14 425.5,183.5C 426.167,183.667 426.833,183.833 427.5,184C 426.359,184.741 426.359,185.575 427.5,186.5C 423.374,188.447 419.04,188.947 414.5,188C 413.774,186.603 412.607,185.769 411,185.5C 408.244,185.424 407.077,186.757 407.5,189.5C 406.325,189.281 405.325,189.614 404.5,190.5C 405.167,190.833 405.833,191.167 406.5,191.5C 408.167,190.833 409.833,190.167 411.5,189.5C 412.167,189.833 412.833,190.167 413.5,190.5C 410.333,191.001 407.999,192.667 406.5,195.5C 402.9,192.243 400.4,192.909 399,197.5C 398.581,196.328 397.915,195.328 397,194.5C 390.909,202.948 386.076,211.948 382.5,221.5C 381.5,221.5 380.5,221.5 379.5,221.5C 387.405,199.428 402.071,183.594 423.5,174C 438.393,170.575 448.226,176.075 453,190.5C 453.667,197.5 453.667,204.5 453,211.5C 452.79,213.058 452.29,214.391 451.5,215.5 Z"/></g>
<g><path style="opacity:1" fill="#c474be" d="M 131.5,195.5 C 130.711,206.454 130.211,217.454 130,228.5C 129.578,230.426 128.411,231.426 126.5,231.5C 127.09,230.234 127.59,228.901 128,227.5C 128.333,217.167 128.667,206.833 129,196.5C 129.671,195.748 130.504,195.414 131.5,195.5 Z"/></g>
<g><path style="opacity:1" fill="#ca78c1" d="M 155.5,235.5 C 150.787,238.858 145.787,241.858 140.5,244.5C 142.572,242.924 144.572,241.091 146.5,239C 147.793,238.51 149.127,238.343 150.5,238.5C 150.5,237.5 150.5,236.5 150.5,235.5C 152.167,235.5 153.833,235.5 155.5,235.5 Z"/></g>
<g><path style="opacity:1" fill="#a75ca3" d="M 171.5,227.5 C 172.234,228.708 172.567,230.041 172.5,231.5C 171.5,231.5 170.5,231.5 169.5,231.5C 169.286,233.144 169.62,234.644 170.5,236C 173.481,237.487 176.481,238.821 179.5,240C 177.561,240.908 176.561,242.408 176.5,244.5C 177.833,244.5 179.167,244.5 180.5,244.5C 180.5,245.5 180.5,246.5 180.5,247.5C 177.657,246.828 175.157,245.495 173,243.5C 171.091,238.937 168.424,234.937 165,231.5C 163.541,231.808 162.374,232.475 161.5,233.5C 159.579,234.363 157.579,235.029 155.5,235.5C 157.336,233.991 159.336,232.491 161.5,231C 163.5,230.667 165.5,230.333 167.5,230C 168.471,228.519 169.804,227.685 171.5,227.5 Z"/></g>
<g><path style="opacity:1" fill="#e197dd" d="M 38.5,223.5 C 37.4265,224.251 37.2599,225.251 38,226.5C 40.3333,229.167 42.6667,231.833 45,234.5C 47.383,239.534 49.2163,244.701 50.5,250C 50.604,252.145 49.9373,253.979 48.5,255.5C 45.4197,253.941 42.753,251.941 40.5,249.5C 36.5058,245.521 33.5058,240.855 31.5,235.5C 30.1708,231.073 30.3374,226.739 32,222.5C 34.4009,221.398 36.9009,221.231 39.5,222C 38.944,222.383 38.6107,222.883 38.5,223.5 Z"/></g>
<g><path style="opacity:1" fill="#ac53a7" d="M 187.5,251.5 C 187.167,251.5 186.833,251.5 186.5,251.5C 185.833,251.167 185.167,250.833 184.5,250.5C 182.77,249.974 181.436,248.974 180.5,247.5C 180.5,246.5 180.5,245.5 180.5,244.5C 179.167,244.5 177.833,244.5 176.5,244.5C 176.561,242.408 177.561,240.908 179.5,240C 176.481,238.821 173.481,237.487 170.5,236C 169.62,234.644 169.286,233.144 169.5,231.5C 170.5,231.5 171.5,231.5 172.5,231.5C 172.567,230.041 172.234,228.708 171.5,227.5C 172.386,226.224 173.386,226.224 174.5,227.5C 179.372,235.246 183.705,243.246 187.5,251.5 Z"/></g>
<g><path style="opacity:1" fill="#fdf2fc" d="M 203.5,231.5 C 203.98,235.306 202.98,238.639 200.5,241.5C 200.826,243.51 201.159,245.51 201.5,247.5C 209.138,246.062 217.138,245.062 225.5,244.5C 235.658,246.213 245.825,247.88 256,249.5C 257.561,249.397 259.061,249.063 260.5,248.5C 264.627,250.225 268.627,252.058 272.5,254C 274.764,254.236 276.931,254.736 279,255.5C 279.333,255.167 279.667,254.833 280,254.5C 282.042,256.604 284.542,257.771 287.5,258C 288.823,258.816 289.489,259.983 289.5,261.5C 285.947,260.483 282.614,258.983 279.5,257C 276.832,256.433 274.166,255.933 271.5,255.5C 261.246,252.04 250.579,249.874 239.5,249C 225.837,248.5 212.171,248.333 198.5,248.5C 198.5,247.5 198.5,246.5 198.5,245.5C 199.398,240.465 201.065,235.799 203.5,231.5 Z"/></g>
<g><path style="opacity:1" fill="#f1d4ed" d="M 43.5,256.5 C 43.5,257.5 43.5,258.5 43.5,259.5C 42.448,259.649 41.448,259.483 40.5,259C 38.3333,255.5 35.5,252.667 32,250.5C 31.5065,252.134 31.3398,253.801 31.5,255.5C 32.8333,255.5 34.1667,255.5 35.5,255.5C 37.3747,259.241 38.5413,263.241 39,267.5C 40.9333,271.847 43.4333,275.18 46.5,277.5C 45.1471,280.245 45.3137,282.912 47,285.5C 47.3052,283.443 47.3052,281.443 47,279.5C 48.9314,279.821 51.0981,280.488 53.5,281.5C 55.0377,281.547 56.0377,280.88 56.5,279.5C 57.7302,272.879 57.3968,266.212 55.5,259.5C 55.8333,259.5 56.1667,259.5 56.5,259.5C 56.8333,259.5 57.1667,259.5 57.5,259.5C 57.5141,265.934 58.5141,271.934 60.5,277.5C 55.5382,282.46 50.3715,287.126 45,291.5C 44.6247,287.332 43.6247,283.332 42,279.5C 42.9727,284.754 43.3061,290.087 43,295.5C 39.1656,301.454 35.3323,307.454 31.5,313.5C 30.675,314.386 29.675,314.719 28.5,314.5C 25.1554,313.32 22.9887,310.987 22,307.5C 21.6097,301.089 21.943,294.755 23,288.5C 21.292,286.457 19.292,284.79 17,283.5C 15.8877,281.61 15.0544,279.61 14.5,277.5C 17.295,272.207 20.295,267.041 23.5,262C 20.4118,257.999 18.9118,253.499 19,248.5C 23.1821,244.738 27.6821,244.571 32.5,248C 35.5214,251.877 39.188,254.711 43.5,256.5 Z"/></g>
<g><path style="opacity:1" fill="#fceefb" d="M 180.5,247.5 C 181.436,248.974 182.77,249.974 184.5,250.5C 177.448,253.251 170.114,255.585 162.5,257.5C 165.42,255.937 167.587,253.604 169,250.5C 172.455,251.791 175.955,251.791 179.5,250.5C 176.397,248.345 173.397,246.011 170.5,243.5C 168.612,240.421 166.945,237.254 165.5,234C 164.207,233.51 162.873,233.343 161.5,233.5C 162.374,232.475 163.541,231.808 165,231.5C 168.424,234.937 171.091,238.937 173,243.5C 175.157,245.495 177.657,246.828 180.5,247.5 Z"/></g>
<g><path style="opacity:1" fill="#df99dc" d="M 59.5,238.5 C 62.6693,243.975 64.3359,249.975 64.5,256.5C 64.6659,261.511 64.4993,266.511 64,271.5C 63.586,271.957 63.086,272.291 62.5,272.5C 60.6684,268.124 59.0018,263.791 57.5,259.5C 57.4533,256.432 56.9533,253.432 56,250.5C 53.3263,243.416 50.8263,236.416 48.5,229.5C 52.7192,230.548 55.5525,233.215 57,237.5C 57.6708,238.252 58.5041,238.586 59.5,238.5 Z"/></g>
<g><path style="opacity:1" fill="#3d5b64" d="M 414.5,240.5 C 418.923,239.425 420.923,241.092 420.5,245.5C 420.033,250.767 417.367,254.434 412.5,256.5C 411.558,256.392 410.725,256.059 410,255.5C 408.379,249.475 409.879,244.475 414.5,240.5 Z"/></g>
<g><path style="opacity:1" fill="#e6bde2" d="M 198.5,245.5 C 198.5,246.5 198.5,247.5 198.5,248.5C 212.171,248.333 225.837,248.5 239.5,249C 250.579,249.874 261.246,252.04 271.5,255.5C 263.037,254.317 254.703,252.817 246.5,251C 230.356,250.708 214.356,250.541 198.5,250.5C 198.167,249.833 197.833,249.167 197.5,248.5C 197.263,247.209 197.596,246.209 198.5,245.5 Z"/></g>
<g><path style="opacity:1" fill="#dfa2da" d="M 59.5,238.5 C 58.5041,238.586 57.6708,238.252 57,237.5C 55.5525,233.215 52.7192,230.548 48.5,229.5C 50.8263,236.416 53.3263,243.416 56,250.5C 56.9533,253.432 57.4533,256.432 57.5,259.5C 57.1667,259.5 56.8333,259.5 56.5,259.5C 56.1667,256.833 55.8333,256.833 55.5,259.5C 57.3968,266.212 57.7302,272.879 56.5,279.5C 55.828,278.733 54.9947,278.066 54,277.5C 53.6667,272.167 53.3333,266.833 53,261.5C 49.7346,259.587 46.5679,257.587 43.5,255.5C 41.9752,253.784 40.9752,251.784 40.5,249.5C 42.753,251.941 45.4197,253.941 48.5,255.5C 49.9373,253.979 50.604,252.145 50.5,250C 49.2163,244.701 47.383,239.534 45,234.5C 42.6667,231.833 40.3333,229.167 38,226.5C 37.2599,225.251 37.4265,224.251 38.5,223.5C 38.6107,222.883 38.944,222.383 39.5,222C 36.9009,221.231 34.4009,221.398 32,222.5C 30.3374,226.739 30.1708,231.073 31.5,235.5C 27.6453,230.343 27.6453,225.176 31.5,220C 37.7058,217.65 43.3724,218.65 48.5,223C 53.7834,227.084 57.4501,232.251 59.5,238.5 Z M 38.5,223.5 C 39.8333,223.5 40.5,224.167 40.5,225.5C 39.5,225.167 38.8333,224.5 38.5,223.5 Z"/></g>
<g><path style="opacity:1" fill="#c678c0" d="M 131.5,249.5 C 126.539,253.32 121.206,256.653 115.5,259.5C 115.414,258.504 115.748,257.671 116.5,257C 118.217,255.441 120.217,254.608 122.5,254.5C 122.5,253.5 122.5,252.5 122.5,251.5C 125.598,251.244 128.598,250.578 131.5,249.5 Z"/></g>
<g><path style="opacity:1" fill="#ebb7e5" d="M 184.5,250.5 C 185.167,250.833 185.833,251.167 186.5,251.5C 186.384,254.91 188.05,256.244 191.5,255.5C 191.5,256.5 191.5,257.5 191.5,258.5C 189.473,258.338 187.473,258.505 185.5,259C 176.629,262.57 167.629,265.403 158.5,267.5C 157.887,265.957 156.221,264.957 153.5,264.5C 150.811,264.545 149.477,265.879 149.5,268.5C 155.974,269.619 155.974,270.785 149.5,272C 146.537,273.961 143.871,276.294 141.5,279C 138.175,278.775 135.842,280.108 134.5,283C 131.083,285.41 128.25,284.91 126,281.5C 116.68,287.384 114.18,295.217 118.5,305C 117.211,309.509 117.211,314.009 118.5,318.5C 115.951,318.559 113.951,317.559 112.5,315.5C 110.889,316.32 110.222,317.654 110.5,319.5C 110.167,319.5 109.833,319.5 109.5,319.5C 109.5,315.833 109.5,312.167 109.5,308.5C 111.242,296.519 116.575,286.352 125.5,278C 136.762,269.239 149.095,262.406 162.5,257.5C 170.114,255.585 177.448,253.251 184.5,250.5 Z"/></g>
<g><path style="opacity:1" fill="#e196dd" d="M 237.5,259.5 C 239.834,261.382 242.334,263.048 245,264.5C 245.667,261.833 246.333,261.833 247,264.5C 247.308,263.692 247.808,263.025 248.5,262.5C 257.182,265.026 266.182,267.526 275.5,270C 276.167,270.333 276.833,270.667 277.5,271C 274.475,271.133 271.808,272.133 269.5,274C 270.5,274.5 271.5,275 272.5,275.5C 274.747,274.626 277.08,274.292 279.5,274.5C 279.5,275.5 279.5,276.5 279.5,277.5C 277.658,277.723 275.825,278.057 274,278.5C 264.993,276.005 255.993,273.672 247,271.5C 231.942,271.413 216.775,271.58 201.5,272C 191.372,272.493 181.539,274.326 172,277.5C 171.667,277.167 171.333,276.833 171,276.5C 166.199,278.6 161.366,280.6 156.5,282.5C 167.01,273 179.01,266 192.5,261.5C 194.086,260.852 195.753,260.352 197.5,260C 210.829,259.5 224.163,259.333 237.5,259.5 Z"/></g>
<g><path style="opacity:1" fill="#f1cbee" d="M 24.5,248.5 C 26.8398,249.572 27.1731,251.239 25.5,253.5C 27.4228,255.121 29.0895,256.954 30.5,259C 30.1667,259.333 29.8333,259.667 29.5,260C 32.9219,263.016 34.5886,266.849 34.5,271.5C 35.8333,271.5 37.1667,271.5 38.5,271.5C 38.8333,273.5 39.1667,275.5 39.5,277.5C 36.7486,277.472 34.4153,276.472 32.5,274.5C 28.7036,276.164 25.2036,275.83 22,273.5C 19.6902,275.918 19.0236,275.252 20,271.5C 23.2845,269.564 24.7845,266.73 24.5,263C 23.8068,258.423 22.8068,253.923 21.5,249.5C 22.791,249.737 23.791,249.404 24.5,248.5 Z"/></g>
<g><path style="opacity:1" fill="#dca5d7" d="M 64.5,256.5 C 65.4889,261.975 65.8222,267.642 65.5,273.5C 63.8089,274.864 62.1423,276.197 60.5,277.5C 58.5141,271.934 57.5141,265.934 57.5,259.5C 59.0018,263.791 60.6684,268.124 62.5,272.5C 63.086,272.291 63.586,271.957 64,271.5C 64.4993,266.511 64.6659,261.511 64.5,256.5 Z"/></g>
<g><path style="opacity:1" fill="#e099db" d="M 237.5,259.5 C 254.858,261.22 271.525,265.387 287.5,272C 292.72,275.393 298.053,278.56 303.5,281.5C 309.842,286.352 315.009,292.352 319,299.5C 321.227,305.328 321.893,311.328 321,317.5C 319.726,314.609 318.226,311.942 316.5,309.5C 315.611,307.264 314.278,305.264 312.5,303.5C 296.153,288.994 277.153,279.827 255.5,276C 221.649,269.525 188.649,272.358 156.5,284.5C 156.5,283.833 156.5,283.167 156.5,282.5C 161.366,280.6 166.199,278.6 171,276.5C 171.333,276.833 171.667,277.167 172,277.5C 181.539,274.326 191.372,272.493 201.5,272C 216.775,271.58 231.942,271.413 247,271.5C 255.993,273.672 264.993,276.005 274,278.5C 275.825,278.057 277.658,277.723 279.5,277.5C 279.5,276.5 279.5,275.5 279.5,274.5C 277.08,274.292 274.747,274.626 272.5,275.5C 271.5,275 270.5,274.5 269.5,274C 271.808,272.133 274.475,271.133 277.5,271C 276.833,270.667 276.167,270.333 275.5,270C 266.182,267.526 257.182,265.026 248.5,262.5C 247.808,263.025 247.308,263.692 247,264.5C 246.333,261.833 245.667,261.833 245,264.5C 242.334,263.048 239.834,261.382 237.5,259.5 Z"/></g>
<g><path style="opacity:1" fill="#f3caef" d="M 43.5,256.5 C 43.5,256.167 43.5,255.833 43.5,255.5C 46.5679,257.587 49.7346,259.587 53,261.5C 53.3333,266.833 53.6667,272.167 54,277.5C 54.9947,278.066 55.828,278.733 56.5,279.5C 56.0377,280.88 55.0377,281.547 53.5,281.5C 51.0981,280.488 48.9314,279.821 47,279.5C 47.3052,281.443 47.3052,283.443 47,285.5C 45.3137,282.912 45.1471,280.245 46.5,277.5C 43.4333,275.18 40.9333,271.847 39,267.5C 38.5413,263.241 37.3747,259.241 35.5,255.5C 34.1667,255.5 32.8333,255.5 31.5,255.5C 31.3398,253.801 31.5065,252.134 32,250.5C 35.5,252.667 38.3333,255.5 40.5,259C 41.448,259.483 42.448,259.649 43.5,259.5C 43.5,258.5 43.5,257.5 43.5,256.5 Z"/></g>
<g><path style="opacity:1" fill="#d67dd1" d="M 192.5,261.5 C 179.01,266 167.01,273 156.5,282.5C 156.5,283.167 156.5,283.833 156.5,284.5C 154.539,285.46 152.873,286.793 151.5,288.5C 137.215,294.285 127.049,304.285 121,318.5C 119.334,305.997 123.168,295.497 132.5,287C 149.987,272.776 169.987,264.276 192.5,261.5 Z"/></g>
<g><path style="opacity:1" fill="#edc0eb" d="M 316.5,309.5 C 316.34,311.199 316.506,312.866 317,314.5C 319.018,316.374 320.184,318.707 320.5,321.5C 319.383,324.07 318.55,326.737 318,329.5C 314.734,333.034 312.234,337.034 310.5,341.5C 308.321,342.757 306.321,344.257 304.5,346C 302.866,346.494 301.199,346.66 299.5,346.5C 305.682,341.969 311.182,336.636 316,330.5C 316.667,328.5 316.667,326.5 316,324.5C 306.074,313.118 293.907,305.118 279.5,300.5C 278.833,299.833 278.167,299.167 277.5,298.5C 277.047,297.542 276.381,296.708 275.5,296C 271.363,294.546 267.363,292.879 263.5,291C 256.035,290.422 248.701,289.256 241.5,287.5C 228.426,288.766 215.593,288.766 203,287.5C 202.5,288 202,288.5 201.5,289C 195.473,289.427 189.473,290.093 183.5,291C 180.599,291.875 177.932,293.042 175.5,294.5C 170.157,296.839 164.823,299.172 159.5,301.5C 155.627,302.434 151.961,303.934 148.5,306C 145.55,308.788 142.217,310.955 138.5,312.5C 134.488,315.515 130.822,318.848 127.5,322.5C 128.523,320.154 129.523,317.821 130.5,315.5C 131.552,315.649 132.552,315.483 133.5,315C 139.094,310.67 144.761,306.337 150.5,302C 148.98,300.115 147.98,297.949 147.5,295.5C 148.861,293.15 150.194,290.816 151.5,288.5C 152.873,286.793 154.539,285.46 156.5,284.5C 188.649,272.358 221.649,269.525 255.5,276C 277.153,279.827 296.153,288.994 312.5,303.5C 314.278,305.264 315.611,307.264 316.5,309.5 Z"/></g>
<g><path style="opacity:1" fill="#f3caee" d="M 20.5,277.5 C 24.3797,279.129 28.713,280.796 33.5,282.5C 34.8544,280.816 36.5211,280.316 38.5,281C 39.0706,283.611 39.9039,286.111 41,288.5C 41.6667,290.833 41.6667,293.167 41,295.5C 36.7399,300.902 32.9065,306.569 29.5,312.5C 27.8793,310.376 26.046,308.376 24,306.5C 23.3983,300.913 23.8983,295.413 25.5,290C 25.3333,288.833 25.1667,287.667 25,286.5C 21.4219,284.265 19.9219,281.265 20.5,277.5 Z"/></g>
<g><path style="opacity:1" fill="#e9c6e6" d="M 277.5,298.5 C 243.842,287.969 209.842,286.636 175.5,294.5C 177.932,293.042 180.599,291.875 183.5,291C 189.473,290.093 195.473,289.427 201.5,289C 202,288.5 202.5,288 203,287.5C 215.593,288.766 228.426,288.766 241.5,287.5C 248.701,289.256 256.035,290.422 263.5,291C 267.363,292.879 271.363,294.546 275.5,296C 276.381,296.708 277.047,297.542 277.5,298.5 Z"/></g>
<g><path style="opacity:1" fill="#f5eaf5" d="M 277.5,298.5 C 278.167,299.167 278.833,299.833 279.5,300.5C 270.897,299.1 262.564,296.933 254.5,294C 232.849,290.728 211.182,290.728 189.5,294C 179.369,295.988 169.369,298.488 159.5,301.5C 164.823,299.172 170.157,296.839 175.5,294.5C 209.842,286.636 243.842,287.969 277.5,298.5 Z"/></g>
<g><path style="opacity:0.999" fill="#f0f0f0" d="M 279.5,300.5 C 293.907,305.118 306.074,313.118 316,324.5C 316.667,326.5 316.667,328.5 316,330.5C 311.182,336.636 305.682,341.969 299.5,346.5C 295.474,348.217 291.474,349.883 287.5,351.5C 287.719,352.675 287.386,353.675 286.5,354.5C 283.338,355.365 280.338,356.365 277.5,357.5C 270.26,359.681 262.927,361.347 255.5,362.5C 244.356,363.455 233.189,364.122 222,364.5C 211.833,364.104 201.666,363.771 191.5,363.5C 190.833,363.5 190.167,363.5 189.5,363.5C 179.297,359.61 168.964,355.776 158.5,352C 156.527,351.505 154.527,351.338 152.5,351.5C 151.833,351.5 151.5,351.167 151.5,350.5C 151.489,348.983 150.823,347.816 149.5,347C 143.171,344.175 137.504,340.342 132.5,335.5C 130.806,332.815 129.139,330.149 127.5,327.5C 130.588,324.737 132.921,321.404 134.5,317.5C 140.492,313.332 146.825,309.832 153.5,307C 155.837,305.366 157.837,303.533 159.5,301.5C 169.369,298.488 179.369,295.988 189.5,294C 211.182,290.728 232.849,290.728 254.5,294C 262.564,296.933 270.897,299.1 279.5,300.5 Z M 145.5,331.5 C 173.978,343.356 203.645,347.856 234.5,345C 252.302,344.033 269.635,340.7 286.5,335C 293.343,331.578 300.01,328.245 306.5,325C 298.493,335.513 288.16,342.846 275.5,347C 245.308,357.294 214.642,358.96 183.5,352C 174.159,349.163 165.159,345.496 156.5,341C 152.005,338.663 148.338,335.497 145.5,331.5 Z"/></g>
<g><path style="opacity:0.993" fill="#f9f9f9" d="M 161.5,233.5 C 162.873,233.343 164.207,233.51 165.5,234C 166.945,237.254 168.612,240.421 170.5,243.5C 173.397,246.011 176.397,248.345 179.5,250.5C 175.955,251.791 172.455,251.791 169,250.5C 167.587,253.604 165.42,255.937 162.5,257.5C 149.095,262.406 136.762,269.239 125.5,278C 116.575,286.352 111.242,296.519 109.5,308.5C 108.596,309.209 108.263,310.209 108.5,311.5C 95.0887,324.862 90.922,340.862 96,359.5C 103.519,376.676 115.685,389.509 132.5,398C 173.263,417.262 215.929,422.595 260.5,414C 276.649,410.343 291.983,404.843 306.5,397.5C 311.123,399.479 315.456,401.979 319.5,405C 340.693,420.669 362.36,435.835 384.5,450.5C 387.212,452.885 389.878,455.218 392.5,457.5C 357.46,472.545 320.794,481.045 282.5,483C 205.987,489.937 134.987,473.77 69.5,434.5C 83.4883,437.495 97.4883,440.495 111.5,443.5C 112.167,443.5 112.833,443.5 113.5,443.5C 118.725,444.953 124.059,446.453 129.5,448C 131.5,448.667 133.5,448.667 135.5,448C 133.333,444.667 130.666,441.834 127.5,439.5C 126.557,436.891 124.89,434.891 122.5,433.5C 116.508,426.175 110.175,419.175 103.5,412.5C 100.56,408.222 97.2265,404.222 93.5,400.5C 89.4812,404.544 86.4812,409.211 84.5,414.5C 84.5,417.167 84.5,419.833 84.5,422.5C 81.5301,421.788 78.6968,420.788 76,419.5C 71.4187,420.876 67.2521,422.876 63.5,425.5C 62.1667,425.5 60.8333,425.5 59.5,425.5C 40.6636,408.511 28.497,387.511 23,362.5C 20.8021,346.523 22.9687,331.19 29.5,316.5C 29.1373,315.817 28.8039,315.15 28.5,314.5C 29.675,314.719 30.675,314.386 31.5,313.5C 35.3323,307.454 39.1656,301.454 43,295.5C 43.3061,290.087 42.9727,284.754 42,279.5C 43.6247,283.332 44.6247,287.332 45,291.5C 50.3715,287.126 55.5382,282.46 60.5,277.5C 62.1423,276.197 63.8089,274.864 65.5,273.5C 70.5568,269.315 75.8901,265.648 81.5,262.5C 85.4234,263.795 89.0901,265.628 92.5,268C 96.7824,268.965 100.782,268.298 104.5,266C 108.069,264.058 111.402,261.892 114.5,259.5C 114.833,259.5 115.167,259.5 115.5,259.5C 121.206,256.653 126.539,253.32 131.5,249.5C 134.738,248.262 137.738,246.596 140.5,244.5C 145.787,241.858 150.787,238.858 155.5,235.5C 157.579,235.029 159.579,234.363 161.5,233.5 Z"/></g>
<g><path style="opacity:1" fill="#6b7071" d="M 83.5,293.5 C 84.2389,293.369 84.9056,293.536 85.5,294C 84.4214,294.956 83.2547,295.789 82,296.5C 81.7613,295.212 82.2613,294.212 83.5,293.5 Z"/></g>
<g><path style="opacity:1" fill="#767779" d="M 90.5,289.5 C 91.3764,289.369 92.0431,289.702 92.5,290.5C 90.1916,291.873 89.5249,291.54 90.5,289.5 Z"/></g>
<g><path style="opacity:1" fill="#eac1e7" d="M 319.5,281.5 C 329.375,290.939 334.042,302.606 333.5,316.5C 333.667,329.171 333.5,341.838 333,354.5C 331.194,358.918 329.194,363.251 327,367.5C 325.961,368.71 324.794,369.71 323.5,370.5C 323.167,370.5 322.833,370.5 322.5,370.5C 327.08,364.96 330.247,358.627 332,351.5C 332.5,341.172 332.666,330.839 332.5,320.5C 331.778,314.533 330.945,308.533 330,302.5C 329.586,302.043 329.086,301.709 328.5,301.5C 327.833,303.5 327.167,305.5 326.5,307.5C 323.547,304.216 323.88,301.383 327.5,299C 326.873,296.865 326.373,294.698 326,292.5C 322.786,289.399 320.62,285.732 319.5,281.5 Z"/></g>
<g><path style="opacity:1" fill="#64686b" d="M 75.5,299.5 C 77.6569,300.053 77.4903,301.053 75,302.5C 74.5304,301.423 74.6971,300.423 75.5,299.5 Z"/></g>
<g><path style="opacity:1" fill="#8b8e8f" d="M 69.5,305.5 C 71.8852,306.867 71.5518,308.201 68.5,309.5C 68.1667,309.333 67.8333,309.167 67.5,309C 68.8228,308.184 69.4894,307.017 69.5,305.5 Z"/></g>
<g><path style="opacity:1" fill="#e5bbe0" d="M 466.5,301.5 C 468.456,300.199 470.123,300.699 471.5,303C 468.923,306.752 467.923,310.919 468.5,315.5C 465.99,315.054 463.99,315.72 462.5,317.5C 462.5,317.833 462.5,318.167 462.5,318.5C 461.039,319.686 459.705,319.686 458.5,318.5C 459.492,318.672 460.158,318.338 460.5,317.5C 461.165,315.631 461.831,313.631 462.5,311.5C 463.524,312.853 464.857,313.52 466.5,313.5C 466.239,309.658 466.906,305.991 468.5,302.5C 468.043,301.702 467.376,301.369 466.5,301.5 Z"/></g>
<g><path style="opacity:1" fill="#b06eab" d="M 457.5,311.5 C 459.913,312.68 460.913,314.68 460.5,317.5C 460.158,318.338 459.492,318.672 458.5,318.5C 457.532,316.393 457.198,314.059 457.5,311.5 Z"/></g>
<g><path style="opacity:1" fill="#f7e7f6" d="M 159.5,301.5 C 157.837,303.533 155.837,305.366 153.5,307C 146.825,309.832 140.492,313.332 134.5,317.5C 132.921,321.404 130.588,324.737 127.5,327.5C 129.139,330.149 130.806,332.815 132.5,335.5C 137.504,340.342 143.171,344.175 149.5,347C 150.823,347.816 151.489,348.983 151.5,350.5C 147.568,349.2 143.901,347.367 140.5,345C 135.775,341.283 131.275,337.116 127,332.5C 126.15,330.99 125.317,329.49 124.5,328C 125.315,326.357 126.315,324.857 127.5,323.5C 127.5,323.167 127.5,322.833 127.5,322.5C 130.822,318.848 134.488,315.515 138.5,312.5C 142.217,310.955 145.55,308.788 148.5,306C 151.961,303.934 155.627,302.434 159.5,301.5 Z"/></g>
<g><path style="opacity:1" fill="#e7e7e8" d="M 333.5,316.5 C 343.914,329.523 346.747,344.19 342,360.5C 339.061,365.849 336.228,371.183 333.5,376.5C 329.799,374.988 326.466,372.988 323.5,370.5C 324.794,369.71 325.961,368.71 327,367.5C 329.194,363.251 331.194,358.918 333,354.5C 333.5,341.838 333.667,329.171 333.5,316.5 Z"/></g>
<g><path style="opacity:1" fill="#e2e2e1" d="M 469.5,286.5 C 469.5,287.5 469.5,288.5 469.5,289.5C 467.94,289.519 466.44,289.852 465,290.5C 451.836,298.33 438.669,306.163 425.5,314C 421.151,316.676 416.485,318.509 411.5,319.5C 411.719,320.675 411.386,321.675 410.5,322.5C 398.354,327.888 387.688,335.222 378.5,344.5C 373.275,351.491 372.275,358.991 375.5,367C 370.689,366.547 367.189,364.047 365,359.5C 364.597,346.138 370.097,335.972 381.5,329C 406.555,315.387 430.889,300.887 454.5,285.5C 459.688,283.856 464.688,284.19 469.5,286.5 Z"/></g>
<g><path style="opacity:1" fill="#fbf4fb" d="M 462.5,317.5 C 463.99,315.72 465.99,315.054 468.5,315.5C 467.923,310.919 468.923,306.752 471.5,303C 470.123,300.699 468.456,300.199 466.5,301.5C 465.833,300.833 465.167,300.167 464.5,299.5C 463.292,298.766 461.959,298.433 460.5,298.5C 460.477,300.927 459.977,303.26 459,305.5C 455.225,306.956 454.725,308.956 457.5,311.5C 457.198,314.059 457.532,316.393 458.5,318.5C 459.705,319.686 461.039,319.686 462.5,318.5C 462.643,320.262 462.309,321.929 461.5,323.5C 455.916,326.744 450.416,330.078 445,333.5C 439.284,332.6 436.951,329.266 438,323.5C 437.586,323.043 437.086,322.709 436.5,322.5C 435.679,325.447 435.179,328.447 435,331.5C 434.8,333.32 433.966,334.653 432.5,335.5C 432.57,330.716 433.237,326.049 434.5,321.5C 432.219,321.923 430.552,321.256 429.5,319.5C 431.017,319.489 432.184,318.823 433,317.5C 433.71,318.973 434.876,319.64 436.5,319.5C 436.197,316.412 437.53,314.746 440.5,314.5C 440.12,312.302 440.787,310.635 442.5,309.5C 442.606,312.079 441.939,314.412 440.5,316.5C 438.748,316.418 437.748,317.251 437.5,319C 438.856,320.567 439.523,322.4 439.5,324.5C 438.916,327.285 439.916,328.952 442.5,329.5C 444.237,327.12 446.57,325.453 449.5,324.5C 450.318,321.893 450.818,319.226 451,316.5C 453.316,315.478 453.816,313.978 452.5,312C 450.414,311.685 448.414,311.185 446.5,310.5C 445.791,309.596 444.791,309.263 443.5,309.5C 445.323,308.773 447.157,308.439 449,308.5C 450.11,310.037 451.61,310.703 453.5,310.5C 452.923,307.45 454.09,305.45 457,304.5C 456.647,300.448 458.147,297.448 461.5,295.5C 465.484,297.884 469.817,299.384 474.5,300C 475.086,304.032 473.753,307.532 470.5,310.5C 472.007,312.969 471.673,315.135 469.5,317C 467.19,317.497 464.857,317.663 462.5,317.5 Z"/></g>
<g><path style="opacity:1" fill="#c881c1" d="M 442.5,309.5 C 442.833,309.5 443.167,309.5 443.5,309.5C 444.791,309.263 445.791,309.596 446.5,310.5C 445.951,314.499 443.951,317.499 440.5,319.5C 439.438,318.575 439.438,317.575 440.5,316.5C 441.939,314.412 442.606,312.079 442.5,309.5 Z"/></g>
<g><path style="opacity:1" fill="#e8b1e4" d="M 446.5,310.5 C 448.414,311.185 450.414,311.685 452.5,312C 453.816,313.978 453.316,315.478 451,316.5C 450.818,319.226 450.318,321.893 449.5,324.5C 446.57,325.453 444.237,327.12 442.5,329.5C 442.852,326.927 442.352,324.594 441,322.5C 440.722,323.416 440.222,324.082 439.5,324.5C 439.523,322.4 438.856,320.567 437.5,319C 437.748,317.251 438.748,316.418 440.5,316.5C 439.438,317.575 439.438,318.575 440.5,319.5C 443.951,317.499 445.951,314.499 446.5,310.5 Z"/></g>
<g><path style="opacity:1" fill="#ecb1e8" d="M 464.5,299.5 C 465.167,300.167 465.833,300.833 466.5,301.5C 467.376,301.369 468.043,301.702 468.5,302.5C 466.906,305.991 466.239,309.658 466.5,313.5C 464.857,313.52 463.524,312.853 462.5,311.5C 461.831,313.631 461.165,315.631 460.5,317.5C 460.913,314.68 459.913,312.68 457.5,311.5C 458.742,309.75 460.242,308.083 462,306.5C 462.379,303.97 463.213,301.637 464.5,299.5 Z"/></g>
<g><path style="opacity:1" fill="#c781c1" d="M 464.5,299.5 C 463.213,301.637 462.379,303.97 462,306.5C 460.242,308.083 458.742,309.75 457.5,311.5C 454.725,308.956 455.225,306.956 459,305.5C 459.977,303.26 460.477,300.927 460.5,298.5C 461.959,298.433 463.292,298.766 464.5,299.5 Z"/></g>
<g><path style="opacity:1" fill="#616865" d="M 59.5,322.5 C 60.6211,324.089 60.4544,325.756 59,327.5C 58.6155,325.803 58.7822,324.137 59.5,322.5 Z"/></g>
<g><path style="opacity:1" fill="#c480bc" d="M 428.5,319.5 C 427.941,321.679 427.274,323.846 426.5,326C 424.649,327.683 422.983,329.516 421.5,331.5C 419.775,331.157 419.275,330.157 420,328.5C 422.941,326.739 424.608,324.072 425,320.5C 426.011,319.663 427.178,319.33 428.5,319.5 Z"/></g>
<g><path style="opacity:1" fill="#ebb2e4" d="M 428.5,319.5 C 428.833,319.5 429.167,319.5 429.5,319.5C 430.552,321.256 432.219,321.923 434.5,321.5C 433.237,326.049 432.57,330.716 432.5,335.5C 430.801,335.34 429.134,335.506 427.5,336C 426.837,337.518 425.837,338.685 424.5,339.5C 424.852,336.927 424.352,334.594 423,332.5C 422.768,333.737 422.268,334.737 421.5,335.5C 421.5,334.167 421.5,332.833 421.5,331.5C 422.983,329.516 424.649,327.683 426.5,326C 427.274,323.846 427.941,321.679 428.5,319.5 Z"/></g>
<g><path style="opacity:1" fill="#ad70a6" d="M 442.5,329.5 C 439.916,328.952 438.916,327.285 439.5,324.5C 440.222,324.082 440.722,323.416 441,322.5C 442.352,324.594 442.852,326.927 442.5,329.5 Z"/></g>
<g><path style="opacity:1" fill="#d776cf" d="M 109.5,319.5 C 109.833,319.5 110.167,319.5 110.5,319.5C 113.251,330.908 118.918,340.575 127.5,348.5C 131.866,361.901 139.533,373.235 150.5,382.5C 156.655,384.745 161.989,388.245 166.5,393C 176.016,396.846 175.683,398.679 165.5,398.5C 158.328,394.87 150.995,391.37 143.5,388C 140.755,384.89 137.421,383.057 133.5,382.5C 133.703,380.61 133.037,379.11 131.5,378C 129.372,377.345 127.372,376.511 125.5,375.5C 124.244,371.742 121.744,369.075 118,367.5C 118.242,363.696 116.742,361.03 113.5,359.5C 112.08,357.114 111.08,354.447 110.5,351.5C 109.501,340.854 109.168,330.187 109.5,319.5 Z"/></g>
<g><path style="opacity:1" fill="#7d8583" d="M 55.5,332.5 C 56.4972,332.47 57.1639,332.97 57.5,334C 55.9061,338.314 55.2394,337.814 55.5,332.5 Z"/></g>
<g><path style="opacity:1" fill="#ecb4e7" d="M 198.5,250.5 C 214.356,250.541 230.356,250.708 246.5,251C 254.703,252.817 263.037,254.317 271.5,255.5C 274.166,255.933 276.832,256.433 279.5,257C 282.614,258.983 285.947,260.483 289.5,261.5C 296.716,264.778 303.716,268.611 310.5,273C 312.74,276.743 315.74,279.576 319.5,281.5C 320.62,285.732 322.786,289.399 326,292.5C 326.373,294.698 326.873,296.865 327.5,299C 323.88,301.383 323.547,304.216 326.5,307.5C 327.167,305.5 327.833,303.5 328.5,301.5C 329.086,301.709 329.586,302.043 330,302.5C 330.945,308.533 331.778,314.533 332.5,320.5C 328.294,333.044 320.96,343.544 310.5,352C 298.017,360.773 284.35,366.94 269.5,370.5C 262.851,371.331 256.185,371.998 249.5,372.5C 251.954,371.379 254.621,370.546 257.5,370C 254.911,368.803 252.244,367.803 249.5,367C 253.381,365.81 257.381,365.143 261.5,365C 261.998,363.842 262.831,363.009 264,362.5C 268.987,361.74 273.487,360.073 277.5,357.5C 280.338,356.365 283.338,355.365 286.5,354.5C 287.386,353.675 287.719,352.675 287.5,351.5C 291.474,349.883 295.474,348.217 299.5,346.5C 301.199,346.66 302.866,346.494 304.5,346C 306.321,344.257 308.321,342.757 310.5,341.5C 312.234,337.034 314.734,333.034 318,329.5C 318.55,326.737 319.383,324.07 320.5,321.5C 320.184,318.707 319.018,316.374 317,314.5C 316.506,312.866 316.34,311.199 316.5,309.5C 318.226,311.942 319.726,314.609 321,317.5C 321.893,311.328 321.227,305.328 319,299.5C 315.009,292.352 309.842,286.352 303.5,281.5C 303.516,279.371 302.849,277.538 301.5,276C 299.874,276.195 298.207,276.195 296.5,276C 295.167,274.667 293.833,273.333 292.5,272C 284.183,269.204 276.016,266.038 268,262.5C 266.657,263.214 265.324,262.88 264,261.5C 263.667,261.833 263.333,262.167 263,262.5C 258.789,260.79 254.456,259.457 250,258.5C 248.984,259.634 248.317,259.301 248,257.5C 233.635,256.475 218.468,256.475 202.5,257.5C 202.178,255.278 202.845,253.444 204.5,252C 202.292,251.809 200.292,251.309 198.5,250.5 Z"/></g>
<g><path style="opacity:1" fill="#af6ca7" d="M 424.5,339.5 C 423.5,339.5 422.5,339.5 421.5,339.5C 421.5,338.167 421.5,336.833 421.5,335.5C 422.268,334.737 422.768,333.737 423,332.5C 424.352,334.594 424.852,336.927 424.5,339.5 Z"/></g>
<g><path style="opacity:1" fill="#c77fc1" d="M 410.5,330.5 C 409.889,335.051 407.722,338.718 404,341.5C 403.283,340.956 402.783,340.289 402.5,339.5C 404.929,336.979 406.596,333.979 407.5,330.5C 408.425,329.438 409.425,329.438 410.5,330.5 Z"/></g>
<g><path style="opacity:1" fill="#edb1e8" d="M 197.5,248.5 C 197.833,249.167 198.167,249.833 198.5,250.5C 200.292,251.309 202.292,251.809 204.5,252C 202.845,253.444 202.178,255.278 202.5,257.5C 218.468,256.475 233.635,256.475 248,257.5C 248.317,259.301 248.984,259.634 250,258.5C 254.456,259.457 258.789,260.79 263,262.5C 263.333,262.167 263.667,261.833 264,261.5C 265.324,262.88 266.657,263.214 268,262.5C 276.016,266.038 284.183,269.204 292.5,272C 293.833,273.333 295.167,274.667 296.5,276C 298.207,276.195 299.874,276.195 301.5,276C 302.849,277.538 303.516,279.371 303.5,281.5C 298.053,278.56 292.72,275.393 287.5,272C 271.525,265.387 254.858,261.22 237.5,259.5C 224.163,259.333 210.829,259.5 197.5,260C 195.753,260.352 194.086,260.852 192.5,261.5C 169.987,264.276 149.987,272.776 132.5,287C 123.168,295.497 119.334,305.997 121,318.5C 127.049,304.285 137.215,294.285 151.5,288.5C 150.194,290.816 148.861,293.15 147.5,295.5C 147.98,297.949 148.98,300.115 150.5,302C 144.761,306.337 139.094,310.67 133.5,315C 132.552,315.483 131.552,315.649 130.5,315.5C 129.523,317.821 128.523,320.154 127.5,322.5C 127.5,322.833 127.5,323.167 127.5,323.5C 125.387,324.256 123.387,324.423 121.5,324C 121.758,327.344 121.758,330.511 121.5,333.5C 125.161,333.35 126.161,334.85 124.5,338C 131.151,337.457 135.151,340.624 136.5,347.5C 135.5,347.5 134.5,347.5 133.5,347.5C 133.167,350.5 134.5,351.833 137.5,351.5C 137.281,352.675 137.614,353.675 138.5,354.5C 141.757,356.879 145.424,357.879 149.5,357.5C 150.292,359.885 151.626,361.885 153.5,363.5C 143.912,360.041 135.246,355.041 127.5,348.5C 118.918,340.575 113.251,330.908 110.5,319.5C 110.222,317.654 110.889,316.32 112.5,315.5C 113.951,317.559 115.951,318.559 118.5,318.5C 117.211,314.009 117.211,309.509 118.5,305C 114.18,295.217 116.68,287.384 126,281.5C 128.25,284.91 131.083,285.41 134.5,283C 135.842,280.108 138.175,278.775 141.5,279C 143.871,276.294 146.537,273.961 149.5,272C 155.974,270.785 155.974,269.619 149.5,268.5C 149.477,265.879 150.811,264.545 153.5,264.5C 156.221,264.957 157.887,265.957 158.5,267.5C 167.629,265.403 176.629,262.57 185.5,259C 187.473,258.505 189.473,258.338 191.5,258.5C 191.5,257.5 191.5,256.5 191.5,255.5C 188.05,256.244 186.384,254.91 186.5,251.5C 186.833,251.5 187.167,251.5 187.5,251.5C 187.611,252.117 187.944,252.617 188.5,253C 193.214,254.578 196.214,253.078 197.5,248.5 Z"/></g>
<g><path style="opacity:1" fill="#e1abdd" d="M 410.5,330.5 C 413.244,330.928 415.577,332.095 417.5,334C 415.688,337.904 415.022,342.071 415.5,346.5C 411.37,345.704 408.203,347.038 406,350.5C 405.5,350.333 405,350.167 404.5,350C 404.001,346.651 403.001,343.484 401.5,340.5C 401.624,339.893 401.957,339.56 402.5,339.5C 402.783,340.289 403.283,340.956 404,341.5C 407.722,338.718 409.889,335.051 410.5,330.5 Z"/></g>
<g><path style="opacity:1" fill="#8d9192" d="M 53.5,342.5 C 54.6491,342.791 55.3158,343.624 55.5,345C 55.1667,345.833 54.8333,346.667 54.5,347.5C 53.5481,345.955 53.2148,344.288 53.5,342.5 Z"/></g>
<g><path style="opacity:1" fill="#c37fbd" d="M 389.5,340.5 C 390.649,340.791 391.316,341.624 391.5,343C 391.333,343.833 391.167,344.667 391,345.5C 388.919,347.585 386.752,349.585 384.5,351.5C 383.957,351.44 383.624,351.107 383.5,350.5C 386.762,347.939 388.762,344.606 389.5,340.5 Z"/></g>
<g><path style="opacity:1" fill="#e8b2e4" d="M 389.5,340.5 C 391.093,339.133 392.426,339.466 393.5,341.5C 395.396,342.466 397.396,342.799 399.5,342.5C 397.888,346.994 397.222,351.661 397.5,356.5C 395.801,356.34 394.134,356.506 392.5,357C 391.295,358.376 389.962,359.542 388.5,360.5C 388.808,358.076 388.474,355.743 387.5,353.5C 386.534,355.396 386.201,357.396 386.5,359.5C 385.745,356.947 385.078,354.28 384.5,351.5C 386.752,349.585 388.919,347.585 391,345.5C 391.167,344.667 391.333,343.833 391.5,343C 391.316,341.624 390.649,340.791 389.5,340.5 Z"/></g>
<g><path style="opacity:1" fill="#a76aa3" d="M 388.5,360.5 C 387.508,360.672 386.842,360.338 386.5,359.5C 386.201,357.396 386.534,355.396 387.5,353.5C 388.474,355.743 388.808,358.076 388.5,360.5 Z"/></g>
<g><path style="opacity:1" fill="#dc86d6" d="M 332.5,320.5 C 332.666,330.839 332.5,341.172 332,351.5C 330.247,358.627 327.08,364.96 322.5,370.5C 317.968,367.484 313.135,365.15 308,363.5C 303.084,364.581 299.917,367.581 298.5,372.5C 297.662,372.842 297.328,373.508 297.5,374.5C 296.014,377.955 296.347,381.288 298.5,384.5C 293.093,387.535 287.427,390.035 281.5,392C 246.76,401.406 211.76,402.906 176.5,396.5C 175.571,397.689 175.238,399.022 175.5,400.5C 179.059,400.284 182.559,400.618 186,401.5C 187.333,400.833 188.667,400.167 190,399.5C 190.112,400.971 191.279,402.138 193.5,403C 198.406,404.476 203.406,405.476 208.5,406C 218.828,406.5 229.161,406.666 239.5,406.5C 239.5,406.833 239.5,407.167 239.5,407.5C 228.833,407.5 218.167,407.5 207.5,407.5C 199.637,406.381 191.637,405.214 183.5,404C 177.185,402.761 171.185,400.928 165.5,398.5C 175.683,398.679 176.016,396.846 166.5,393C 161.989,388.245 156.655,384.745 150.5,382.5C 139.533,373.235 131.866,361.901 127.5,348.5C 135.246,355.041 143.912,360.041 153.5,363.5C 156.6,366.21 160.267,367.543 164.5,367.5C 169.366,370.23 174.7,372.063 180.5,373C 210.5,379.463 240.167,378.63 269.5,370.5C 284.35,366.94 298.017,360.773 310.5,352C 320.96,343.544 328.294,333.044 332.5,320.5 Z"/></g>
<g><path style="opacity:1" fill="#eed2ec" d="M 109.5,308.5 C 109.5,312.167 109.5,315.833 109.5,319.5C 109.168,330.187 109.501,340.854 110.5,351.5C 111.08,354.447 112.08,357.114 113.5,359.5C 114.242,361.98 115.242,364.313 116.5,366.5C 115.357,366.092 114.357,365.425 113.5,364.5C 111.567,360.949 110.067,357.282 109,353.5C 108.5,339.504 108.333,325.504 108.5,311.5C 108.263,310.209 108.596,309.209 109.5,308.5 Z"/></g>
<g><path style="opacity:1" fill="#f8e7f6" d="M 152.5,351.5 C 154.527,351.338 156.527,351.505 158.5,352C 168.964,355.776 179.297,359.61 189.5,363.5C 176.358,361.711 164.025,357.711 152.5,351.5 Z"/></g>
<g><path style="opacity:1" fill="#d28acb" d="M 113.5,359.5 C 116.742,361.03 118.242,363.696 118,367.5C 121.744,369.075 124.244,371.742 125.5,375.5C 123.5,373.833 121.5,372.167 119.5,370.5C 117.738,369.738 116.738,368.404 116.5,366.5C 115.242,364.313 114.242,361.98 113.5,359.5 Z"/></g>
<g><path style="opacity:1" fill="#eab6e5" d="M 127.5,323.5 C 126.315,324.857 125.315,326.357 124.5,328C 125.317,329.49 126.15,330.99 127,332.5C 131.275,337.116 135.775,341.283 140.5,345C 143.901,347.367 147.568,349.2 151.5,350.5C 151.5,351.167 151.833,351.5 152.5,351.5C 164.025,357.711 176.358,361.711 189.5,363.5C 190.167,363.5 190.833,363.5 191.5,363.5C 212.882,367.61 234.216,367.276 255.5,362.5C 262.927,361.347 270.26,359.681 277.5,357.5C 273.487,360.073 268.987,361.74 264,362.5C 262.831,363.009 261.998,363.842 261.5,365C 257.381,365.143 253.381,365.81 249.5,367C 252.244,367.803 254.911,368.803 257.5,370C 254.621,370.546 251.954,371.379 249.5,372.5C 238.252,374.163 226.919,375.163 215.5,375.5C 210.844,375.598 206.344,374.931 202,373.5C 201.667,373.833 201.333,374.167 201,374.5C 191.417,371.522 181.584,369.689 171.5,369C 169.763,366.713 167.43,366.213 164.5,367.5C 160.267,367.543 156.6,366.21 153.5,363.5C 151.626,361.885 150.292,359.885 149.5,357.5C 145.424,357.879 141.757,356.879 138.5,354.5C 137.614,353.675 137.281,352.675 137.5,351.5C 134.5,351.833 133.167,350.5 133.5,347.5C 134.5,347.5 135.5,347.5 136.5,347.5C 135.151,340.624 131.151,337.457 124.5,338C 126.161,334.85 125.161,333.35 121.5,333.5C 121.758,330.511 121.758,327.344 121.5,324C 123.387,324.423 125.387,324.256 127.5,323.5 Z"/></g>
<g><path style="opacity:1" fill="#f7e8f6" d="M 255.5,362.5 C 234.216,367.276 212.882,367.61 191.5,363.5C 201.666,363.771 211.833,364.104 222,364.5C 233.189,364.122 244.356,363.455 255.5,362.5 Z"/></g>
<g><path style="opacity:1" fill="#efafea" d="M 249.5,372.5 C 256.185,371.998 262.851,371.331 269.5,370.5C 240.167,378.63 210.5,379.463 180.5,373C 174.7,372.063 169.366,370.23 164.5,367.5C 167.43,366.213 169.763,366.713 171.5,369C 181.584,369.689 191.417,371.522 201,374.5C 201.333,374.167 201.667,373.833 202,373.5C 206.344,374.931 210.844,375.598 215.5,375.5C 226.919,375.163 238.252,374.163 249.5,372.5 Z"/></g>
<g><path style="opacity:1" fill="#8a8e8f" d="M 55.5,373.5 C 57.1852,374.184 58.1852,375.517 58.5,377.5C 58.1667,377.833 57.8333,378.167 57.5,378.5C 56.438,376.978 55.7713,375.312 55.5,373.5 Z"/></g>
<g><path style="opacity:1" fill="#1e2f37" d="M 323.5,386.5 C 322.841,389.455 322.508,392.455 322.5,395.5C 316.5,392.5 310.5,389.5 304.5,386.5C 302.492,384.732 300.326,383.066 298,381.5C 297.503,379.19 297.337,376.857 297.5,374.5C 297.328,373.508 297.662,372.842 298.5,372.5C 306.625,376.749 314.958,381.416 323.5,386.5 Z"/></g>
<g><path style="opacity:1" fill="#ce83c8" d="M 125.5,375.5 C 127.372,376.511 129.372,377.345 131.5,378C 133.037,379.11 133.703,380.61 133.5,382.5C 137.421,383.057 140.755,384.89 143.5,388C 150.995,391.37 158.328,394.87 165.5,398.5C 149.702,394.94 136.369,387.273 125.5,375.5 Z"/></g>
<g><path style="opacity:1" fill="#b874b5" d="M 334.5,377.5 C 339.207,377.069 343.207,378.402 346.5,381.5C 345.167,381.5 343.833,381.5 342.5,381.5C 341.833,381.5 341.167,381.5 340.5,381.5C 340.116,379.707 338.95,378.707 337,378.5C 334.012,380.006 331.179,381.673 328.5,383.5C 330.194,381.139 332.194,379.139 334.5,377.5 Z"/></g>
<g><path style="opacity:1" fill="#2e434e" d="M 322.5,370.5 C 322.833,370.5 323.167,370.5 323.5,370.5C 326.466,372.988 329.799,374.988 333.5,376.5C 333.5,376.833 333.5,377.167 333.5,377.5C 329.398,379.266 326.731,382.266 325.5,386.5C 324.833,386.5 324.167,386.5 323.5,386.5C 314.958,381.416 306.625,376.749 298.5,372.5C 299.917,367.581 303.084,364.581 308,363.5C 313.135,365.15 317.968,367.484 322.5,370.5 Z"/></g>
<g><path style="opacity:1" fill="#e7e6e7" d="M 108.5,311.5 C 108.333,325.504 108.5,339.504 109,353.5C 110.067,357.282 111.567,360.949 113.5,364.5C 114.357,365.425 115.357,366.092 116.5,366.5C 116.738,368.404 117.738,369.738 119.5,370.5C 122.09,374.595 125.256,378.262 129,381.5C 129.167,382.167 129.333,382.833 129.5,383.5C 127.624,385.048 126.624,387.048 126.5,389.5C 130.116,388.457 133.783,387.957 137.5,388C 142.912,390.792 147.912,394.126 152.5,398C 163.197,400.729 173.863,403.396 184.5,406C 192.153,406.777 199.819,407.277 207.5,407.5C 218.167,407.5 228.833,407.5 239.5,407.5C 247.537,407.09 255.537,406.257 263.5,405C 265.066,404.392 266.4,403.558 267.5,402.5C 275.053,399.739 282.72,396.906 290.5,394C 293.752,392.434 296.752,390.601 299.5,388.5C 301.284,388.107 302.95,387.441 304.5,386.5C 310.5,389.5 316.5,392.5 322.5,395.5C 322.5,396.167 322.833,396.5 323.5,396.5C 323.908,400.917 326.241,403.917 330.5,405.5C 331.5,406.167 332.5,406.833 333.5,407.5C 357.015,422.838 380.682,438.004 404.5,453C 416.827,455.788 424.827,451.288 428.5,439.5C 428.833,439.5 429.167,439.5 429.5,439.5C 429.414,440.496 429.748,441.329 430.5,442C 440.101,445.756 441.434,451.089 434.5,458C 428.056,462.638 420.889,465.471 413,466.5C 405.354,465.258 398.521,462.258 392.5,457.5C 389.878,455.218 387.212,452.885 384.5,450.5C 362.36,435.835 340.693,420.669 319.5,405C 315.456,401.979 311.123,399.479 306.5,397.5C 291.983,404.843 276.649,410.343 260.5,414C 215.929,422.595 173.263,417.262 132.5,398C 115.685,389.509 103.519,376.676 96,359.5C 90.922,340.862 95.0887,324.862 108.5,311.5 Z"/></g>
<g><path style="opacity:1" fill="#503e65" d="M 333.5,377.5 C 333.833,377.5 334.167,377.5 334.5,377.5C 332.194,379.139 330.194,381.139 328.5,383.5C 327.272,384.306 326.272,385.306 325.5,386.5C 326.731,382.266 329.398,379.266 333.5,377.5 Z"/></g>
<g><path style="opacity:1" fill="#b57ab7" d="M 297.5,374.5 C 297.337,376.857 297.503,379.19 298,381.5C 300.326,383.066 302.492,384.732 304.5,386.5C 302.95,387.441 301.284,388.107 299.5,388.5C 299.768,386.901 299.434,385.568 298.5,384.5C 296.347,381.288 296.014,377.955 297.5,374.5 Z"/></g>
<g><path style="opacity:1" fill="#6f7276" d="M 58.5,384.5 C 58.56,383.957 58.8933,383.624 59.5,383.5C 61.1376,384.705 61.4709,386.038 60.5,387.5C 59.8243,386.398 59.1577,385.398 58.5,384.5 Z"/></g>
<g><path style="opacity:1" fill="#cb6bc8" d="M 340.5,381.5 C 336.762,384.235 333.762,387.568 331.5,391.5C 327.87,394.354 325.87,393.354 325.5,388.5C 325.5,387.833 325.5,387.167 325.5,386.5C 326.272,385.306 327.272,384.306 328.5,383.5C 331.179,381.673 334.012,380.006 337,378.5C 338.95,378.707 340.116,379.707 340.5,381.5 Z"/></g>
<g><path style="opacity:1" fill="#385a64" d="M 342.5,381.5 C 343.833,381.5 345.167,381.5 346.5,381.5C 371.757,393.462 396.757,405.962 421.5,419C 427.87,423.573 430.537,429.74 429.5,437.5C 429.5,438.167 429.5,438.833 429.5,439.5C 429.167,439.5 428.833,439.5 428.5,439.5C 425.662,442.49 422.162,443.823 418,443.5C 412.359,442.621 406.859,441.121 401.5,439C 378.565,424.859 355.565,410.692 332.5,396.5C 333.515,391.792 336.182,388.125 340.5,385.5C 341.18,384.14 341.847,382.807 342.5,381.5 Z"/></g>
<g><path style="opacity:1" fill="#382a4d" d="M 323.5,386.5 C 324.167,386.5 324.833,386.5 325.5,386.5C 325.5,387.167 325.5,387.833 325.5,388.5C 323.96,390.838 323.294,393.505 323.5,396.5C 322.833,396.5 322.5,396.167 322.5,395.5C 322.508,392.455 322.841,389.455 323.5,386.5 Z"/></g>
<g><path style="opacity:1" fill="#707577" d="M 62.5,393.5 C 63.0768,392.227 63.7435,392.227 64.5,393.5C 65.3256,394.451 65.4922,395.451 65,396.5C 64.1482,395.429 63.3149,394.429 62.5,393.5 Z"/></g>
<g><path style="opacity:1" fill="#eedbed" d="M 119.5,370.5 C 121.5,372.167 123.5,373.833 125.5,375.5C 136.369,387.273 149.702,394.94 165.5,398.5C 171.185,400.928 177.185,402.761 183.5,404C 191.637,405.214 199.637,406.381 207.5,407.5C 199.819,407.277 192.153,406.777 184.5,406C 173.863,403.396 163.197,400.729 152.5,398C 147.912,394.126 142.912,390.792 137.5,388C 133.783,387.957 130.116,388.457 126.5,389.5C 126.624,387.048 127.624,385.048 129.5,383.5C 129.333,382.833 129.167,382.167 129,381.5C 125.256,378.262 122.09,374.595 119.5,370.5 Z"/></g>
<g><path style="opacity:1" fill="#a457a0" d="M 325.5,388.5 C 325.87,393.354 327.87,394.354 331.5,391.5C 330.686,396.119 330.353,400.786 330.5,405.5C 326.241,403.917 323.908,400.917 323.5,396.5C 323.294,393.505 323.96,390.838 325.5,388.5 Z"/></g>
<g><path style="opacity:1" fill="#d577ce" d="M 298.5,384.5 C 299.434,385.568 299.768,386.901 299.5,388.5C 296.752,390.601 293.752,392.434 290.5,394C 282.72,396.906 275.053,399.739 267.5,402.5C 258.167,403.833 248.833,405.167 239.5,406.5C 229.161,406.666 218.828,406.5 208.5,406C 203.406,405.476 198.406,404.476 193.5,403C 191.279,402.138 190.112,400.971 190,399.5C 188.667,400.167 187.333,400.833 186,401.5C 182.559,400.618 179.059,400.284 175.5,400.5C 175.238,399.022 175.571,397.689 176.5,396.5C 211.76,402.906 246.76,401.406 281.5,392C 287.427,390.035 293.093,387.535 298.5,384.5 Z"/></g>
<g><path style="opacity:1" fill="#404761" d="M 340.5,381.5 C 341.167,381.5 341.833,381.5 342.5,381.5C 341.847,382.807 341.18,384.14 340.5,385.5C 336.182,388.125 333.515,391.792 332.5,396.5C 332.724,400.179 333.058,403.846 333.5,407.5C 332.5,406.833 331.5,406.167 330.5,405.5C 330.353,400.786 330.686,396.119 331.5,391.5C 333.762,387.568 336.762,384.235 340.5,381.5 Z"/></g>
<g><path style="opacity:1" fill="#7f8382" d="M 67.5,402.5 C 67.8966,401.475 68.5632,401.308 69.5,402C 71.5472,404.054 71.5472,405.054 69.5,405C 68.9341,404.005 68.2674,403.172 67.5,402.5 Z"/></g>
<g><path style="opacity:1" fill="#f1d2f0" d="M 267.5,402.5 C 266.4,403.558 265.066,404.392 263.5,405C 255.537,406.257 247.537,407.09 239.5,407.5C 239.5,407.167 239.5,406.833 239.5,406.5C 248.833,405.167 258.167,403.833 267.5,402.5 Z"/></g>
<g><path style="opacity:1" fill="#d881d2" d="M 103.5,412.5 C 104.511,414.372 105.345,416.372 106,418.5C 109.81,422.4 113.81,426.066 118,429.5C 118.432,432.072 119.932,433.406 122.5,433.5C 124.89,434.891 126.557,436.891 127.5,439.5C 127.733,441.062 128.4,442.395 129.5,443.5C 114.249,434.254 99.2488,424.587 84.5,414.5C 86.4812,409.211 89.4812,404.544 93.5,400.5C 97.2265,404.222 100.56,408.222 103.5,412.5 Z"/></g>
<g><path style="opacity:1" fill="#d290ce" d="M 103.5,412.5 C 110.175,419.175 116.508,426.175 122.5,433.5C 119.932,433.406 118.432,432.072 118,429.5C 113.81,426.066 109.81,422.4 106,418.5C 105.345,416.372 104.511,414.372 103.5,412.5 Z"/></g>
<g><path style="opacity:1" fill="#d0a0cb" d="M 59.5,425.5 C 60.8333,425.5 62.1667,425.5 63.5,425.5C 62.3778,426.947 60.8778,427.947 59,428.5C 58.5172,429.448 58.3505,430.448 58.5,431.5C 56.6883,431.229 55.0217,430.562 53.5,429.5C 55.7106,428.34 57.7106,427.007 59.5,425.5 Z"/></g>
<g><path style="opacity:1" fill="#ac54a7" d="M 84.5,414.5 C 99.2488,424.587 114.249,434.254 129.5,443.5C 132.178,446.523 131.512,447.19 127.5,445.5C 113.039,438.103 98.706,430.436 84.5,422.5C 84.5,419.833 84.5,417.167 84.5,414.5 Z"/></g>
<g><path style="opacity:1" fill="#d981d4" d="M 84.5,422.5 C 98.706,430.436 113.039,438.103 127.5,445.5C 122.85,444.74 118.183,444.074 113.5,443.5C 112.833,443.5 112.167,443.5 111.5,443.5C 111.5,442.5 111.5,441.5 111.5,440.5C 107.878,441.076 104.878,440.076 102.5,437.5C 95.5043,439.847 90.171,438.514 86.5,433.5C 80.5579,434.045 74.5579,434.045 68.5,433.5C 65.0968,433.149 61.7635,432.482 58.5,431.5C 58.3505,430.448 58.5172,429.448 59,428.5C 60.8778,427.947 62.3778,426.947 63.5,425.5C 67.2521,422.876 71.4187,420.876 76,419.5C 78.6968,420.788 81.5301,421.788 84.5,422.5 Z"/></g>
<g><path style="opacity:1" fill="#d48dcf" d="M 68.5,433.5 C 74.5579,434.045 80.5579,434.045 86.5,433.5C 90.171,438.514 95.5043,439.847 102.5,437.5C 104.878,440.076 107.878,441.076 111.5,440.5C 111.5,441.5 111.5,442.5 111.5,443.5C 97.4883,440.495 83.4883,437.495 69.5,434.5C 68.8333,434.5 68.5,434.167 68.5,433.5 Z"/></g>
<g><path style="opacity:1" fill="#2d464e" d="M 332.5,396.5 C 355.565,410.692 378.565,424.859 401.5,439C 406.859,441.121 412.359,442.621 418,443.5C 422.162,443.823 425.662,442.49 428.5,439.5C 424.827,451.288 416.827,455.788 404.5,453C 380.682,438.004 357.015,422.838 333.5,407.5C 333.058,403.846 332.724,400.179 332.5,396.5 Z"/></g>
<g><path style="opacity:1" fill="#cf94ca" d="M 127.5,439.5 C 130.666,441.834 133.333,444.667 135.5,448C 133.5,448.667 131.5,448.667 129.5,448C 124.059,446.453 118.725,444.953 113.5,443.5C 118.183,444.074 122.85,444.74 127.5,445.5C 131.512,447.19 132.178,446.523 129.5,443.5C 128.4,442.395 127.733,441.062 127.5,439.5 Z"/></g>
</svg>
