<?xml version="1.0" encoding="UTF-8"?>
<!DOCTYPE svg PUBLIC "-//W3C//DTD SVG 1.1//EN" "http://www.w3.org/Graphics/SVG/1.1/DTD/svg11.dtd">
<svg xmlns="http://www.w3.org/2000/svg" version="1.1" width="386px" height="74px" style="shape-rendering:geometricPrecision; text-rendering:geometricPrecision; image-rendering:optimizeQuality; fill-rule:evenodd; clip-rule:evenodd" xmlns:xlink="http://www.w3.org/1999/xlink">
<g><path style="opacity:0.071" fill="#fff1ff" d="M 17.5,11.5 C 16.8333,11.8333 16.1667,12.1667 15.5,12.5C 14.8333,12.5 14.5,12.8333 14.5,13.5C 13.2264,12.8106 13.2264,11.9772 14.5,11C 15.7494,10.2599 16.7494,10.4265 17.5,11.5 Z"/></g>
<g><path style="opacity:1" fill="#b438d9" d="M 169.5,22.5 C 168.011,20.8839 167.011,18.8839 166.5,16.5C 165.15,15.0499 163.484,14.3832 161.5,14.5C 161.167,16.5 160.833,18.5 160.5,20.5C 159.5,20.5 158.5,20.5 157.5,20.5C 157.657,19.1266 157.49,17.7932 157,16.5C 156.667,18.8333 156.333,21.1667 156,23.5C 153.959,24.4231 151.792,24.7564 149.5,24.5C 150.641,23.661 151.974,22.9943 153.5,22.5C 153.906,12.2174 158.739,9.21737 168,13.5C 169.289,16.3508 169.789,19.3508 169.5,22.5 Z"/></g>
<g><path style="opacity:1" fill="#b518e2" d="M 286.5,13.5 C 291.167,14.8333 294.167,17.8333 295.5,22.5C 295.5,25.5 295.5,28.5 295.5,31.5C 294.325,31.281 293.325,31.6143 292.5,32.5C 293.374,34.7466 293.708,37.0799 293.5,39.5C 290.729,43.8872 286.729,46.2205 281.5,46.5C 278.5,46.5 275.5,46.5 272.5,46.5C 273.277,53.641 270.611,55.3076 264.5,51.5C 264.5,52.8333 264.5,54.1667 264.5,55.5C 265.833,55.5 267.167,55.5 268.5,55.5C 268.5,56.5 268.5,57.5 268.5,58.5C 265.305,59.0393 262.805,58.0393 261,55.5C 260.333,41.5 260.333,27.5 261,13.5C 269.45,12.273 277.95,12.273 286.5,13.5 Z M 278.5,24.5 C 281.518,25.855 282.851,28.1884 282.5,31.5C 274.76,36.8376 271.927,34.8376 274,25.5C 275.356,24.6198 276.856,24.2865 278.5,24.5 Z"/></g>
<g><path style="opacity:0.827" fill="#daa3e7" d="M 351.5,13.5 C 351.573,15.0269 350.906,16.0269 349.5,16.5C 349.427,14.9731 350.094,13.9731 351.5,13.5 Z"/></g>
<g><path style="opacity:1" fill="#b418e0" d="M 361.5,13.5 C 362.906,13.9731 363.573,14.9731 363.5,16.5C 363.5,18.8333 363.5,21.1667 363.5,23.5C 364.833,23.5 366.167,23.5 367.5,23.5C 367.833,23.5 368.167,23.5 368.5,23.5C 369.3,25.6073 369.967,27.7739 370.5,30C 370.116,32.5208 369.116,34.6875 367.5,36.5C 366.791,37.404 365.791,37.7373 364.5,37.5C 363.833,42.5 363.167,47.5 362.5,52.5C 362.334,47.1563 362.501,41.8229 363,36.5C 364.825,34.5204 365.659,32.1871 365.5,29.5C 362.988,29.5772 360.988,28.5772 359.5,26.5C 356.134,25.7597 352.8,25.093 349.5,24.5C 350.702,20.4311 352.702,16.7644 355.5,13.5C 357.46,12.4808 359.46,12.4808 361.5,13.5 Z"/></g>
<g><path style="opacity:0.414" fill="#e2b0f4" d="M 363.5,16.5 C 364.461,18.2646 364.795,20.2646 364.5,22.5C 365.791,22.2627 366.791,22.596 367.5,23.5C 366.167,23.5 364.833,23.5 363.5,23.5C 363.5,21.1667 363.5,18.8333 363.5,16.5 Z"/></g>
<g><path style="opacity:1" fill="#78e1e8" d="M 197.5,20.5 C 197.5,20.8333 197.5,21.1667 197.5,21.5C 195.283,22.3686 192.95,22.702 190.5,22.5C 187.813,21.9394 187.813,22.6061 190.5,24.5C 188.185,25.4918 186.518,27.1585 185.5,29.5C 184.5,30.1667 183.5,30.8333 182.5,31.5C 180.95,30.5592 179.284,29.8925 177.5,29.5C 176.752,27.6675 175.752,26.0009 174.5,24.5C 176.363,17.9048 180.363,16.2382 186.5,19.5C 186.833,20.8333 187.167,20.8333 187.5,19.5C 186.64,14.9047 188.307,11.9047 192.5,10.5C 194.107,10.637 195.441,11.3036 196.5,12.5C 197.393,15.0841 197.726,17.7508 197.5,20.5 Z"/></g>
<g><path style="opacity:0.035" fill="#f0eeff" d="M 199.5,20.5 C 201.8,22.2018 204.467,22.8685 207.5,22.5C 207.167,23.1667 206.833,23.8333 206.5,24.5C 201.787,23.291 197.121,23.291 192.5,24.5C 191.833,23.8333 191.167,23.1667 190.5,22.5C 192.95,22.702 195.283,22.3686 197.5,21.5C 198.492,21.6716 199.158,21.3382 199.5,20.5 Z"/></g>
<g><path style="opacity:1" fill="#c872d8" d="M 250.5,25.5 C 245.87,24.7705 241.203,24.4372 236.5,24.5C 241.31,21.9217 245.977,22.255 250.5,25.5 Z"/></g>
<g><path style="opacity:1" fill="#b13cd2" d="M 260.5,11.5 C 268.507,11.3336 276.507,11.5003 284.5,12C 285.416,12.2784 286.082,12.7784 286.5,13.5C 277.95,12.273 269.45,12.273 261,13.5C 260.333,27.5 260.333,41.5 261,55.5C 262.805,58.0393 265.305,59.0393 268.5,58.5C 268.5,57.5 268.5,56.5 268.5,55.5C 267.167,55.5 265.833,55.5 264.5,55.5C 264.5,54.1667 264.5,52.8333 264.5,51.5C 270.611,55.3076 273.277,53.641 272.5,46.5C 275.5,46.5 278.5,46.5 281.5,46.5C 279.052,47.4731 276.385,47.8064 273.5,47.5C 275.168,56.6558 271.501,60.8225 262.5,60C 261.29,58.9609 260.29,57.7942 259.5,56.5C 259.184,41.4219 259.517,26.4219 260.5,11.5 Z"/></g>
<g><path style="opacity:1" fill="#b51fe2" d="M 169.5,22.5 C 171.153,22.6596 172.486,23.3263 173.5,24.5C 174.379,26.228 175.046,28.0614 175.5,30C 175.057,31.825 174.723,33.6583 174.5,35.5C 173.22,36.9313 171.553,37.5979 169.5,37.5C 169.823,43.69 169.49,49.69 168.5,55.5C 168.5,52.1667 168.5,48.8333 168.5,45.5C 166.738,45.3573 165.071,45.6906 163.5,46.5C 162.538,44.1167 163.538,43.1167 166.5,43.5C 166.5,41.5 166.5,39.5 166.5,37.5C 165.022,37.762 163.689,37.4287 162.5,36.5C 165.106,34.7254 167.772,34.0587 170.5,34.5C 168.955,33.5481 167.288,33.2148 165.5,33.5C 164.833,24.1667 164.167,24.1667 163.5,33.5C 161.362,33.703 159.695,34.703 158.5,36.5C 156.775,34.9084 155.775,35.2417 155.5,37.5C 153.958,36.6993 152.292,36.366 150.5,36.5C 149.833,36.5 149.5,36.1667 149.5,35.5C 148.272,31.8162 148.272,28.1495 149.5,24.5C 151.792,24.7564 153.959,24.4231 156,23.5C 156.333,21.1667 156.667,18.8333 157,16.5C 157.49,17.7932 157.657,19.1266 157.5,20.5C 158.5,20.5 159.5,20.5 160.5,20.5C 160.833,18.5 161.167,16.5 161.5,14.5C 163.484,14.3832 165.15,15.0499 166.5,16.5C 167.011,18.8839 168.011,20.8839 169.5,22.5 Z"/></g>
<g><path style="opacity:0.575" fill="#d077e5" d="M 278.5,24.5 C 276.856,24.2865 275.356,24.6198 274,25.5C 271.927,34.8376 274.76,36.8376 282.5,31.5C 282.67,32.8221 282.337,33.9887 281.5,35C 278.571,35.7772 275.737,35.6105 273,34.5C 272.333,31.1667 272.333,27.8333 273,24.5C 274.943,23.193 276.777,23.193 278.5,24.5 Z"/></g>
<g><path style="opacity:1" fill="#b613e5" d="M 349.5,24.5 C 352.8,25.093 356.134,25.7597 359.5,26.5C 360.988,28.5772 362.988,29.5772 365.5,29.5C 365.659,32.1871 364.825,34.5204 363,36.5C 362.501,41.8229 362.334,47.1563 362.5,52.5C 361.833,54.5 361.167,56.5 360.5,58.5C 357.833,58.5 355.167,58.5 352.5,58.5C 351.105,51.4554 350.105,44.4554 349.5,37.5C 347.597,35.3721 345.931,33.0387 344.5,30.5C 346.362,29.0518 347.028,27.3852 346.5,25.5C 347.325,24.6143 348.325,24.281 349.5,24.5 Z"/></g>
<g><path style="opacity:0.471" fill="#dea4f0" d="M 108.5,24.5 C 107.833,25.8333 106.833,26.8333 105.5,27.5C 105.5,25.5 106.5,24.5 108.5,24.5 Z"/></g>
<g><path style="opacity:0.741" fill="#da9ee6" d="M 310.5,25.5 C 309.833,26.5 309.167,27.5 308.5,28.5C 307.833,28.5 307.167,28.5 306.5,28.5C 307.262,26.7376 308.596,25.7376 310.5,25.5 Z"/></g>
<g><path style="opacity:1" fill="#b51ae3" d="M 89.5,25.5 C 95.8363,28.8174 99.1697,34.1507 99.5,41.5C 99.4324,44.4381 98.7658,47.1048 97.5,49.5C 96.8333,49.5 96.1667,49.5 95.5,49.5C 93.9826,49.5106 92.8159,50.1772 92,51.5C 90.887,50.2396 90.7203,49.073 91.5,48C 90.062,47.7811 88.7287,47.2811 87.5,46.5C 89.5756,45.9003 91.5756,45.567 93.5,45.5C 92.6533,44.1552 91.4866,43.1552 90,42.5C 89.8485,39.8807 89.0152,37.5473 87.5,35.5C 83.6238,35.878 79.9571,36.878 76.5,38.5C 75.914,38.2907 75.414,37.9574 75,37.5C 74.7638,39.764 74.2638,41.9307 73.5,44C 74.6034,45.6804 74.2701,47.1804 72.5,48.5C 74.766,49.4324 76.766,50.7658 78.5,52.5C 74.838,52.5216 71.1713,52.8549 67.5,53.5C 59.9609,40.1099 63.2942,30.7766 77.5,25.5C 81.4793,24.4949 85.4793,24.4949 89.5,25.5 Z M 79.5,37.5 C 84.2453,38.6958 85.2453,41.1958 82.5,45C 77.9167,45.9337 76.4167,44.1004 78,39.5C 78.7172,38.9558 79.2172,38.2891 79.5,37.5 Z"/></g>
<g><path style="opacity:0.941" fill="#84e3e9" d="M 215.5,32.5 C 213.105,29.1385 210.105,26.4719 206.5,24.5C 208.424,24.2893 208.757,23.6226 207.5,22.5C 204.467,22.8685 201.8,22.2018 199.5,20.5C 199.631,19.7611 199.464,19.0944 199,18.5C 198.722,19.4158 198.222,20.0825 197.5,20.5C 197.726,17.7508 197.393,15.0841 196.5,12.5C 195.441,11.3036 194.107,10.637 192.5,10.5C 188.307,11.9047 186.64,14.9047 187.5,19.5C 187.167,19.5 186.833,19.5 186.5,19.5C 185.004,10.8224 188.338,7.65572 196.5,10C 197.717,11.6477 198.55,13.481 199,15.5C 200.307,10.5158 203.474,8.34909 208.5,9C 210.656,10.6034 211.99,12.77 212.5,15.5C 211.572,16.7678 211.405,18.1011 212,19.5C 219.973,16.1644 223.306,18.831 222,27.5C 220.035,29.5503 217.868,31.217 215.5,32.5 Z"/></g>
<g><path style="opacity:1" fill="#b829e2" d="M 117.5,25.5 C 118.128,32.1989 118.795,38.8656 119.5,45.5C 114.396,47.2287 114.396,49.062 119.5,51C 117.519,51.6054 117.185,52.6054 118.5,54C 118,54.5 117.5,55 117,55.5C 116.009,54.0611 114.676,53.0611 113,52.5C 112.517,53.448 112.351,54.448 112.5,55.5C 111.167,55.1667 109.833,54.8333 108.5,54.5C 106.862,52.1043 105.696,49.4376 105,46.5C 104.18,39.9863 104.347,33.6529 105.5,27.5C 106.833,26.8333 107.833,25.8333 108.5,24.5C 111.786,21.7327 114.786,22.0661 117.5,25.5 Z"/></g>
<g><path style="opacity:1" fill="#b458ce" d="M 173.5,24.5 C 173.833,24.5 174.167,24.5 174.5,24.5C 175.752,26.0009 176.752,27.6675 177.5,29.5C 177.539,32.089 176.539,34.089 174.5,35.5C 174.723,33.6583 175.057,31.825 175.5,30C 175.046,28.0614 174.379,26.228 173.5,24.5 Z"/></g>
<g><path style="opacity:1" fill="#c46fd6" d="M 149.5,24.5 C 148.272,28.1495 148.272,31.8162 149.5,35.5C 145.65,31.8745 145.65,28.2078 149.5,24.5 Z"/></g>
<g><path style="opacity:1" fill="#b515e3" d="M 112.5,55.5 C 112.351,54.448 112.517,53.448 113,52.5C 114.676,53.0611 116.009,54.0611 117,55.5C 117.5,55 118,54.5 118.5,54C 117.185,52.6054 117.519,51.6054 119.5,51C 114.396,49.062 114.396,47.2287 119.5,45.5C 121.653,46.5729 123.653,46.5729 125.5,45.5C 125.932,44.2905 126.599,43.2905 127.5,42.5C 128.107,37.5723 128.94,32.5723 130,27.5C 133.506,26.7043 136.84,27.3709 140,29.5C 140.5,39.1609 140.666,48.8276 140.5,58.5C 137.245,58.9864 134.578,57.9864 132.5,55.5C 125.617,59.4523 118.951,59.4523 112.5,55.5 Z"/></g>
<g><path style="opacity:1" fill="#b414e4" d="M 211.5,53.5 C 209.058,53.1192 208.391,53.7859 209.5,55.5C 207.604,56.4656 205.604,56.7989 203.5,56.5C 203.5,57.5 203.5,58.5 203.5,59.5C 197.145,60.5224 191.645,58.8558 187,54.5C 186.517,53.552 186.351,52.552 186.5,51.5C 185.5,51.5 184.5,51.5 183.5,51.5C 183.715,49.8212 183.048,48.8212 181.5,48.5C 181.335,45.4816 181.502,42.4816 182,39.5C 183.459,36.2301 184.626,32.8968 185.5,29.5C 187.068,28.5269 188.735,28.3603 190.5,29C 190.043,29.414 189.709,29.914 189.5,30.5C 190.689,31.4287 192.022,31.762 193.5,31.5C 193.325,35.5406 193.158,39.5406 193,43.5C 193.667,44.8333 194.333,46.1667 195,47.5C 195.333,47.1667 195.667,46.8333 196,46.5C 197.098,47.9675 198.598,48.8008 200.5,49C 198.754,49.4709 197.087,50.1376 195.5,51C 199.534,52.2186 203.534,52.3853 207.5,51.5C 209.333,51.5854 210.666,52.2521 211.5,53.5 Z"/></g>
<g><path style="opacity:1" fill="#ba59d5" d="M 306.5,28.5 C 307.167,28.5 307.833,28.5 308.5,28.5C 307.125,31.451 305.292,34.1177 303,36.5C 302.333,40.1667 302.333,43.8333 303,47.5C 304.663,49.1579 305.496,51.1579 305.5,53.5C 298.722,44.9218 299.055,36.5885 306.5,28.5 Z"/></g>
<g><path style="opacity:1" fill="#bc4edd" d="M 295.5,22.5 C 297.963,26.9531 298.13,31.6197 296,36.5C 295.623,37.9423 294.79,38.9423 293.5,39.5C 293.708,37.0799 293.374,34.7466 292.5,32.5C 293.325,31.6143 294.325,31.281 295.5,31.5C 295.5,28.5 295.5,25.5 295.5,22.5 Z"/></g>
<g><path style="opacity:1" fill="#b522e1" d="M 317.5,47.5 C 313.926,45.8782 310.259,44.5449 306.5,43.5C 307.833,46.8333 307.833,50.1667 306.5,53.5C 306.167,53.5 305.833,53.5 305.5,53.5C 305.496,51.1579 304.663,49.1579 303,47.5C 302.333,43.8333 302.333,40.1667 303,36.5C 305.292,34.1177 307.125,31.451 308.5,28.5C 309.167,27.5 309.833,26.5 310.5,25.5C 319.475,21.0577 327.642,22.391 335,29.5C 338.77,34.4669 339.27,39.6336 336.5,45C 329.754,44.8689 323.421,45.7023 317.5,47.5 Z"/></g>
<g><path style="opacity:1" fill="#b541d7" d="M 361.5,13.5 C 359.46,12.4808 357.46,12.4808 355.5,13.5C 352.702,16.7644 350.702,20.4311 349.5,24.5C 348.325,24.281 347.325,24.6143 346.5,25.5C 347.028,27.3852 346.362,29.0518 344.5,30.5C 345.931,33.0387 347.597,35.3721 349.5,37.5C 341.979,36.4664 339.812,32.4664 343,25.5C 344.734,23.5494 346.901,22.5494 349.5,22.5C 349.5,20.5 349.5,18.5 349.5,16.5C 350.906,16.0269 351.573,15.0269 351.5,13.5C 351.611,12.8826 351.944,12.3826 352.5,12C 355.167,11.3333 357.833,11.3333 360.5,12C 361.056,12.3826 361.389,12.8826 361.5,13.5 Z"/></g>
<g><path style="opacity:0.669" fill="#ce86e3" d="M 15.5,12.5 C 15.5,26.8333 15.5,41.1667 15.5,55.5C 14.8251,42.098 14.1584,28.598 13.5,15C 14.056,14.6174 14.3893,14.1174 14.5,13.5C 14.5,12.8333 14.8333,12.5 15.5,12.5 Z"/></g>
<g><path style="opacity:0.996" fill="#bc65d1" d="M 368.5,23.5 C 372.317,26.4737 373.151,30.1404 371,34.5C 370.184,35.8228 369.017,36.4894 367.5,36.5C 369.116,34.6875 370.116,32.5208 370.5,30C 369.967,27.7739 369.3,25.6073 368.5,23.5 Z"/></g>
<g><path style="opacity:0.047" fill="#fdc8ff" d="M 317.5,35.5 C 319.167,36.8333 320.833,36.8333 322.5,35.5C 323.043,35.56 323.376,35.8933 323.5,36.5C 321.167,37.8333 318.833,37.8333 316.5,36.5C 316.624,35.8933 316.957,35.56 317.5,35.5 Z"/></g>
<g><path style="opacity:1" fill="#b254d1" d="M 185.5,29.5 C 184.626,32.8968 183.459,36.2301 182,39.5C 181.502,42.4816 181.335,45.4816 181.5,48.5C 178.976,42.8227 179.309,37.156 182.5,31.5C 183.5,30.8333 184.5,30.1667 185.5,29.5 Z"/></g>
<g><path style="opacity:1" fill="#b21ee1" d="M 206.5,24.5 C 210.105,26.4719 213.105,29.1385 215.5,32.5C 215.5,32.8333 215.5,33.1667 215.5,33.5C 215.749,36.0021 216.083,38.5021 216.5,41C 215.035,44.2809 214.368,47.7809 214.5,51.5C 214.672,52.4916 214.338,53.1583 213.5,53.5C 212.833,53.5 212.167,53.5 211.5,53.5C 210.666,52.2521 209.333,51.5854 207.5,51.5C 203.534,52.3853 199.534,52.2186 195.5,51C 197.087,50.1376 198.754,49.4709 200.5,49C 198.598,48.8008 197.098,47.9675 196,46.5C 195.667,46.8333 195.333,47.1667 195,47.5C 194.333,46.1667 193.667,44.8333 193,43.5C 193.158,39.5406 193.325,35.5406 193.5,31.5C 192.022,31.762 190.689,31.4287 189.5,30.5C 189.709,29.914 190.043,29.414 190.5,29C 188.735,28.3603 187.068,28.5269 185.5,29.5C 186.518,27.1585 188.185,25.4918 190.5,24.5C 191.167,24.5 191.833,24.5 192.5,24.5C 197.121,23.291 201.787,23.291 206.5,24.5 Z M 201.5,44.5 C 198.803,46.0454 196.803,45.3787 195.5,42.5C 198.311,40.9107 200.311,41.5774 201.5,44.5 Z"/></g>
<g><path style="opacity:0.625" fill="#cf89e2" d="M 260.5,11.5 C 259.517,26.4219 259.184,41.4219 259.5,56.5C 258.817,42.6279 258.151,28.6279 257.5,14.5C 257.879,12.7869 258.879,11.7869 260.5,11.5 Z"/></g>
<g><path style="opacity:0.851" fill="#c77ad9" d="M 150.5,36.5 C 152.292,36.366 153.958,36.6993 155.5,37.5C 155.5,43.8333 155.5,50.1667 155.5,56.5C 154.672,50.6807 154.172,44.6807 154,38.5C 152.698,37.9152 151.531,37.2485 150.5,36.5 Z"/></g>
<g><path style="opacity:1" fill="#b514e4" d="M 168.5,55.5 C 166.448,56.7102 164.282,57.7102 162,58.5C 160.188,58.5066 158.688,57.84 157.5,56.5C 156.869,50.0364 156.203,43.7031 155.5,37.5C 155.775,35.2417 156.775,34.9084 158.5,36.5C 159.695,34.703 161.362,33.703 163.5,33.5C 164.167,24.1667 164.833,24.1667 165.5,33.5C 167.288,33.2148 168.955,33.5481 170.5,34.5C 167.772,34.0587 165.106,34.7254 162.5,36.5C 163.689,37.4287 165.022,37.762 166.5,37.5C 166.5,39.5 166.5,41.5 166.5,43.5C 163.538,43.1167 162.538,44.1167 163.5,46.5C 165.071,45.6906 166.738,45.3573 168.5,45.5C 168.5,48.8333 168.5,52.1667 168.5,55.5 Z"/></g>
<g><path style="opacity:0.212" fill="#8ed3ef" d="M 201.5,44.5 C 200.311,41.5774 198.311,40.9107 195.5,42.5C 194.83,39.4096 195.997,37.743 199,37.5C 200.326,37.7549 201.326,38.4216 202,39.5C 202.78,41.3869 202.613,43.0536 201.5,44.5 Z"/></g>
<g><path style="opacity:1" fill="#b94bd8" d="M 17.5,11.5 C 24.175,11.3337 30.8417,11.5004 37.5,12C 41.7764,12.8047 45.443,14.6381 48.5,17.5C 54.8155,21.9657 57.8155,28.1324 57.5,36C 57.5042,44.9941 53.8375,51.9941 46.5,57C 44.0427,58.5621 41.376,59.5621 38.5,60C 31.8333,60.6667 25.1667,60.6667 18.5,60C 16.8588,58.871 15.8588,57.371 15.5,55.5C 15.5,41.1667 15.5,26.8333 15.5,12.5C 16.1667,12.1667 16.8333,11.8333 17.5,11.5 Z M 32.5,25.5 C 32.8333,25.5 33.1667,25.5 33.5,25.5C 36.4336,26.639 39.1003,28.3057 41.5,30.5C 43.5903,37.2996 41.5903,42.2996 35.5,45.5C 33.5328,45.7394 31.6995,45.4061 30,44.5C 29.5006,39.1771 29.334,33.8437 29.5,28.5C 30.5,27.5 31.5,26.5 32.5,25.5 Z"/></g>
<g><path style="opacity:1" fill="#b418e2" d="M 43.5,16.5 C 45.1172,17.038 46.7839,17.3713 48.5,17.5C 48.5,18.8333 48.5,20.1667 48.5,21.5C 50.5901,21.4501 51.9234,22.4501 52.5,24.5C 51.675,25.3857 50.675,25.719 49.5,25.5C 48.9066,30.719 49.9066,31.3856 52.5,27.5C 54.9546,30.0986 56.2879,33.2653 56.5,37C 56.0907,39.2964 54.9241,41.1298 53,42.5C 52.8078,44.5767 52.3078,46.5767 51.5,48.5C 50.8933,48.3764 50.56,48.0431 50.5,47.5C 50.6567,46.1266 50.49,44.7932 50,43.5C 47.1614,44.3362 44.9947,43.3362 43.5,40.5C 44.5691,37.592 44.7358,34.592 44,31.5C 43.3292,30.7476 42.4959,30.4142 41.5,30.5C 41.6107,29.8826 41.944,29.3826 42.5,29C 40.3246,25.9554 37.3246,24.7887 33.5,25.5C 33.1667,25.5 32.8333,25.5 32.5,25.5C 31.5,25.5 30.5,25.5 29.5,25.5C 29.5,26.5 29.5,27.5 29.5,28.5C 29.334,33.8437 29.5006,39.1771 30,44.5C 31.6995,45.4061 33.5328,45.7394 35.5,45.5C 36.8333,45.5 38.1667,45.5 39.5,45.5C 39.2284,47.8953 39.2284,50.2286 39.5,52.5C 39,52.8333 38.5,53.1667 38,53.5C 35.8649,52.8729 33.6982,52.3729 31.5,52C 32.9423,51.6232 33.9423,50.7899 34.5,49.5C 30.3515,48.8757 26.0182,48.8757 21.5,49.5C 21.731,46.0998 23.5643,44.0998 27,43.5C 27.499,40.4818 27.3323,37.4818 26.5,34.5C 26.7896,32.9559 27.4563,31.6226 28.5,30.5C 26.6377,28.3518 25.471,26.0184 25,23.5C 28.8426,24.7923 33.0092,24.7923 37.5,23.5C 37.3573,21.7376 37.6906,20.0709 38.5,18.5C 40.4027,18.9349 42.0693,18.2682 43.5,16.5 Z M 32.5,25.5 C 32.8333,25.5 33.1667,25.5 33.5,25.5C 36.4336,26.639 39.1003,28.3057 41.5,30.5C 43.5903,37.2996 41.5903,42.2996 35.5,45.5C 33.5328,45.7394 31.6995,45.4061 30,44.5C 29.5006,39.1771 29.334,33.8437 29.5,28.5C 30.5,27.5 31.5,26.5 32.5,25.5 Z"/></g>
<g><path style="opacity:1" fill="#b548d3" d="M 41.5,30.5 C 42.4959,30.4142 43.3292,30.7476 44,31.5C 44.7358,34.592 44.5691,37.592 43.5,40.5C 42.197,42.1423 40.8637,43.8089 39.5,45.5C 38.1667,45.5 36.8333,45.5 35.5,45.5C 41.5903,42.2996 43.5903,37.2996 41.5,30.5 Z"/></g>
<g><path style="opacity:1" fill="#bd56db" d="M 33.5,25.5 C 37.3246,24.7887 40.3246,25.9554 42.5,29C 41.944,29.3826 41.6107,29.8826 41.5,30.5C 39.1003,28.3057 36.4336,26.639 33.5,25.5 Z"/></g>
<g><path style="opacity:0.004" fill="#fffbff" d="M 32.5,25.5 C 31.5,26.5 30.5,27.5 29.5,28.5C 29.5,27.5 29.5,26.5 29.5,25.5C 30.5,25.5 31.5,25.5 32.5,25.5 Z"/></g>
<g><path style="opacity:1" fill="#b513e5" d="M 43.5,16.5 C 42.0693,18.2682 40.4027,18.9349 38.5,18.5C 37.6906,20.0709 37.3573,21.7376 37.5,23.5C 33.0092,24.7923 28.8426,24.7923 25,23.5C 25.471,26.0184 26.6377,28.3518 28.5,30.5C 27.4563,31.6226 26.7896,32.9559 26.5,34.5C 27.3323,37.4818 27.499,40.4818 27,43.5C 23.5643,44.0998 21.731,46.0998 21.5,49.5C 26.0182,48.8757 30.3515,48.8757 34.5,49.5C 30.9429,50.6012 27.4429,51.9345 24,53.5C 22.6418,51.8113 20.9751,50.478 19,49.5C 19,48.1667 19,46.8333 19,45.5C 18.3292,44.7476 17.4959,44.4142 16.5,44.5C 16.5,34.1667 16.5,23.8333 16.5,13.5C 24.1739,13.3336 31.8406,13.5003 39.5,14C 41.0664,14.6082 42.3998,15.4415 43.5,16.5 Z"/></g>
<g><path style="opacity:1" fill="#b629e0" d="M 95.5,49.5 C 94.2955,51.5397 92.6288,53.2064 90.5,54.5C 89.5713,55.6888 89.238,57.0222 89.5,58.5C 83.9348,60.9209 78.2682,61.0876 72.5,59C 71.0577,58.6232 70.0577,57.7899 69.5,56.5C 69.2178,55.2223 68.5511,54.2223 67.5,53.5C 71.1713,52.8549 74.838,52.5216 78.5,52.5C 76.766,50.7658 74.766,49.4324 72.5,48.5C 74.2701,47.1804 74.6034,45.6804 73.5,44C 74.2638,41.9307 74.7638,39.764 75,37.5C 75.414,37.9574 75.914,38.2907 76.5,38.5C 79.9571,36.878 83.6238,35.878 87.5,35.5C 89.0152,37.5473 89.8485,39.8807 90,42.5C 91.4866,43.1552 92.6533,44.1552 93.5,45.5C 91.5756,45.567 89.5756,45.9003 87.5,46.5C 88.7287,47.2811 90.062,47.7811 91.5,48C 90.7203,49.073 90.887,50.2396 92,51.5C 92.8159,50.1772 93.9826,49.5106 95.5,49.5 Z M 79.5,37.5 C 79.2172,38.2891 78.7172,38.9558 78,39.5C 76.4167,44.1004 77.9167,45.9337 82.5,45C 85.2453,41.1958 84.2453,38.6958 79.5,37.5 Z"/></g>
<g><path style="opacity:1" fill="#b84dd4" d="M 117.5,25.5 C 118.117,25.6107 118.617,25.944 119,26.5C 119.333,31.5 119.667,36.5 120,41.5C 120.875,44.2146 122.708,45.5479 125.5,45.5C 123.653,46.5729 121.653,46.5729 119.5,45.5C 118.795,38.8656 118.128,32.1989 117.5,25.5 Z"/></g>
<g><path style="opacity:1" fill="#b149cf" d="M 224.5,24.5 C 224.334,34.8387 224.5,45.172 225,55.5C 225.662,56.9839 226.496,58.3172 227.5,59.5C 225.589,59.4257 224.422,58.4257 224,56.5C 223.175,45.6586 223.341,34.992 224.5,24.5 Z"/></g>
<g><path style="opacity:1" fill="#bd59d5" d="M 89.5,25.5 C 85.4793,24.4949 81.4793,24.4949 77.5,25.5C 63.2942,30.7766 59.9609,40.1099 67.5,53.5C 68.5511,54.2223 69.2178,55.2223 69.5,56.5C 67.9826,56.4894 66.8159,55.8228 66,54.5C 59.1994,44.0401 60.3661,34.5401 69.5,26C 76.2345,21.7838 82.9012,21.6171 89.5,25.5 Z"/></g>
<g><path style="opacity:1" fill="#c15ad9" d="M 215.5,33.5 C 216.952,35.8476 217.618,38.5143 217.5,41.5C 217.677,45.2936 216.677,48.6269 214.5,51.5C 214.368,47.7809 215.035,44.2809 216.5,41C 216.083,38.5021 215.749,36.0021 215.5,33.5 Z"/></g>
<g><path style="opacity:0.894" fill="#b658d0" d="M 331.5,49.5 C 327.847,48.1719 324.18,48.1719 320.5,49.5C 318.97,49.3601 317.97,48.6935 317.5,47.5C 320.357,48.4054 323.19,48.0721 326,46.5C 328.296,46.8588 330.129,47.8588 331.5,49.5 Z"/></g>
<g><path style="opacity:1" fill="#ab39ce" d="M 155.5,37.5 C 156.203,43.7031 156.869,50.0364 157.5,56.5C 158.688,57.84 160.188,58.5066 162,58.5C 164.282,57.7102 166.448,56.7102 168.5,55.5C 166.79,60.183 163.457,61.683 158.5,60C 157.29,58.9609 156.29,57.7942 155.5,56.5C 155.5,50.1667 155.5,43.8333 155.5,37.5 Z"/></g>
<g><path style="opacity:1" fill="#b41ae1" d="M 236.5,24.5 C 241.203,24.4372 245.87,24.7705 250.5,25.5C 250.956,29.1106 250.289,32.4439 248.5,35.5C 244.893,36.4892 241.226,36.8226 237.5,36.5C 237.666,42.1764 237.499,47.8431 237,53.5C 236.092,55.4386 234.592,56.4386 232.5,56.5C 232.5,57.5 232.5,58.5 232.5,59.5C 230.833,59.5 229.167,59.5 227.5,59.5C 226.496,58.3172 225.662,56.9839 225,55.5C 224.5,45.172 224.334,34.8387 224.5,24.5C 224.962,23.1201 225.962,22.4534 227.5,22.5C 229.774,22.9702 231.774,23.9702 233.5,25.5C 234.417,24.8728 235.417,24.5394 236.5,24.5 Z"/></g>
<g><path style="opacity:1" fill="#b514e4" d="M 43.5,40.5 C 44.9947,43.3362 47.1614,44.3362 50,43.5C 50.49,44.7932 50.6567,46.1266 50.5,47.5C 49.9035,48.9354 49.9035,50.602 50.5,52.5C 49.0695,52.5792 47.7362,52.2458 46.5,51.5C 45.3961,52.6313 45.7295,53.4646 47.5,54C 44.3165,54.3386 41.6498,55.6719 39.5,58C 33.1667,58.6667 26.8333,58.6667 20.5,58C 19.6921,56.2942 18.3588,55.4609 16.5,55.5C 16.5,51.8333 16.5,48.1667 16.5,44.5C 17.4959,44.4142 18.3292,44.7476 19,45.5C 19,46.8333 19,48.1667 19,49.5C 20.9751,50.478 22.6418,51.8113 24,53.5C 27.4429,51.9345 30.9429,50.6012 34.5,49.5C 33.9423,50.7899 32.9423,51.6232 31.5,52C 33.6982,52.3729 35.8649,52.8729 38,53.5C 38.5,53.1667 39,52.8333 39.5,52.5C 39.2284,50.2286 39.2284,47.8953 39.5,45.5C 40.8637,43.8089 42.197,42.1423 43.5,40.5 Z"/></g>
<g><path style="opacity:1" fill="#bf62d9" d="M 181.5,48.5 C 183.048,48.8212 183.715,49.8212 183.5,51.5C 184.5,51.5 185.5,51.5 186.5,51.5C 186.351,52.552 186.517,53.552 187,54.5C 191.645,58.8558 197.145,60.5224 203.5,59.5C 193.122,62.1565 185.789,58.4899 181.5,48.5 Z"/></g>
<g><path style="opacity:1" fill="#b514e4" d="M 317.5,47.5 C 317.97,48.6935 318.97,49.3601 320.5,49.5C 324.18,48.1719 327.847,48.1719 331.5,49.5C 331.5,51.8333 331.5,54.1667 331.5,56.5C 325.388,58.4755 319.055,58.9755 312.5,58C 310.623,56.2832 308.623,54.7832 306.5,53.5C 307.833,50.1667 307.833,46.8333 306.5,43.5C 310.259,44.5449 313.926,45.8782 317.5,47.5 Z"/></g>
<g><path style="opacity:1" fill="#ba6bca" d="M 331.5,49.5 C 332.249,50.531 332.915,51.6976 333.5,53C 332.915,54.3024 332.249,55.469 331.5,56.5C 331.5,54.1667 331.5,51.8333 331.5,49.5 Z"/></g>
<g><path style="opacity:1" fill="#be5fd7" d="M 95.5,49.5 C 96.1667,49.5 96.8333,49.5 97.5,49.5C 96.2549,53.7461 93.5882,56.7461 89.5,58.5C 89.238,57.0222 89.5713,55.6888 90.5,54.5C 92.6288,53.2064 94.2955,51.5397 95.5,49.5 Z"/></g>
<g><path style="opacity:1" fill="#bc5ed7" d="M 349.5,37.5 C 350.105,44.4554 351.105,51.4554 352.5,58.5C 355.167,58.5 357.833,58.5 360.5,58.5C 361.167,56.5 361.833,54.5 362.5,52.5C 363.167,47.5 363.833,42.5 364.5,37.5C 364.666,43.5092 364.499,49.5092 364,55.5C 360.987,60.5352 356.82,61.7019 351.5,59C 350.874,58.2496 350.374,57.4162 350,56.5C 349.5,50.1754 349.334,43.8421 349.5,37.5 Z"/></g>
<g><path style="opacity:1" fill="#be59db" d="M 211.5,53.5 C 212.167,53.5 212.833,53.5 213.5,53.5C 211.127,57.0231 207.793,59.0231 203.5,59.5C 203.5,58.5 203.5,57.5 203.5,56.5C 205.604,56.7989 207.604,56.4656 209.5,55.5C 208.391,53.7859 209.058,53.1192 211.5,53.5 Z"/></g>
<g><path style="opacity:1" fill="#bf5dd7" d="M 250.5,25.5 C 254.461,32.1975 252.628,36.5308 245,38.5C 243.144,37.2643 241.311,37.2643 239.5,38.5C 238.92,44.9132 238.087,51.2465 237,57.5C 234.239,60.5328 231.073,61.1995 227.5,59.5C 229.167,59.5 230.833,59.5 232.5,59.5C 232.5,58.5 232.5,57.5 232.5,56.5C 234.592,56.4386 236.092,55.4386 237,53.5C 237.499,47.8431 237.666,42.1764 237.5,36.5C 241.226,36.8226 244.893,36.4892 248.5,35.5C 250.289,32.4439 250.956,29.1106 250.5,25.5 Z"/></g>
<g><path style="opacity:1" fill="#b74cd5" d="M 108.5,54.5 C 109.833,54.8333 111.167,55.1667 112.5,55.5C 118.951,59.4523 125.617,59.4523 132.5,55.5C 134.578,57.9864 137.245,58.9864 140.5,58.5C 140.666,48.8276 140.5,39.1609 140,29.5C 136.84,27.3709 133.506,26.7043 130,27.5C 128.94,32.5723 128.107,37.5723 127.5,42.5C 127.096,36.7104 127.596,31.0438 129,25.5C 133,21.5 137,21.5 141,25.5C 142.123,31.228 142.623,37.0613 142.5,43C 142.333,48.1667 142.167,53.3333 142,58.5C 138.587,61.256 135.42,60.9227 132.5,57.5C 127.477,60.2363 122.144,61.0696 116.5,60C 113.279,58.896 110.612,57.0626 108.5,54.5 Z"/></g>
<g><path style="opacity:1" fill="#b751d5" d="M 305.5,53.5 C 305.833,53.5 306.167,53.5 306.5,53.5C 308.623,54.7832 310.623,56.2832 312.5,58C 319.055,58.9755 325.388,58.4755 331.5,56.5C 330.025,58.4095 328.025,59.5762 325.5,60C 317.293,62.0971 310.626,59.9304 305.5,53.5 Z"/></g>
</svg>
