<?xml version="1.0" encoding="UTF-8"?>
<!DOCTYPE svg PUBLIC "-//W3C//DTD SVG 1.1//EN" "http://www.w3.org/Graphics/SVG/1.1/DTD/svg11.dtd">
<svg xmlns="http://www.w3.org/2000/svg" version="1.1" width="500px" height="500px" style="shape-rendering:geometricPrecision; text-rendering:geometricPrecision; image-rendering:optimizeQuality; fill-rule:evenodd; clip-rule:evenodd" xmlns:xlink="http://www.w3.org/1999/xlink">
<g><path style="opacity:1" fill="#f1f1f1" d="M 287.5,35.5 C 292.894,34.398 295.894,36.5647 296.5,42C 296.561,43.7106 295.894,45.044 294.5,46C 284.918,46.9487 282.584,43.4487 287.5,35.5 Z"/></g>
<g><path style="opacity:1" fill="#f3f3f3" d="M 302.5,41.5 C 315.959,40.4528 321.459,46.4528 319,59.5C 314.675,65.9408 308.842,67.7741 301.5,65C 299.714,64.2155 298.214,63.0488 297,61.5C 295.445,56.6178 295.112,51.6178 296,46.5C 297.965,44.4497 300.132,42.783 302.5,41.5 Z"/></g>
<g><path style="opacity:1" fill="#fbf5fa" d="M 92.5,38.5 C 100.685,39.175 104.185,43.5084 103,51.5C 100.367,56.7315 96.2008,58.5649 90.5,57C 84.5333,53.6076 83.0333,48.7742 86,42.5C 88.0129,40.7518 90.1795,39.4185 92.5,38.5 Z"/></g>
<g><path style="opacity:1" fill="#fbf1fa" d="M 421.5,38.5 C 434.077,38.7455 440.743,45.0788 441.5,57.5C 440.528,68.4722 434.528,74.4722 423.5,75.5C 409.632,73.4489 403.799,65.4489 406,51.5C 408.643,44.014 413.809,39.6807 421.5,38.5 Z"/></g>
<g><path style="opacity:1" fill="#f4f4f4" d="M 162.5,57.5 C 176.652,56.1515 182.819,62.4848 181,76.5C 176.017,85.4922 168.85,87.6589 159.5,83C 150.958,73.4148 151.958,64.9148 162.5,57.5 Z"/></g>
<g><path style="opacity:1" fill="#faf0f9" d="M 51.5,58.5 C 69.6483,57.1477 77.815,65.481 76,83.5C 71.2254,94.8869 62.7254,99.0535 50.5,96C 39.7617,90.6859 35.9284,82.1859 39,70.5C 41.6323,64.7907 45.799,60.7907 51.5,58.5 Z"/></g>
<g><path style="opacity:1" fill="#f3f3f3" d="M 445.5,78.5 C 453.658,77.8229 457.158,81.4895 456,89.5C 453.565,94.2238 449.731,95.7238 444.5,94C 439.034,88.434 439.368,83.2673 445.5,78.5 Z"/></g>
<g><path style="opacity:1" fill="#faf5fa" d="M 366.5,79.5 C 375.969,78.8011 380.135,83.1345 379,92.5C 376.185,98.1691 371.685,100.002 365.5,98C 361.426,96.1845 359.426,93.0178 359.5,88.5C 360.008,84.0013 362.341,81.0013 366.5,79.5 Z"/></g>
<g><path style="opacity:0.998" fill="#f3f3f3" d="M 142.5,94.5 C 151.841,93.5409 154.508,97.2075 150.5,105.5C 140.022,107.364 137.356,103.697 142.5,94.5 Z"/></g>
<g><path style="opacity:1" fill="#faeff8" d="M 241.5,96.5 C 257.448,95.2821 264.281,102.615 262,118.5C 256.158,128.223 247.991,130.723 237.5,126C 233.896,123.292 231.396,119.792 230,115.5C 227.31,113.818 224.477,112.318 221.5,111C 217.667,103.836 219.667,99.3359 227.5,97.5C 230.07,98.2142 232.57,99.2142 235,100.5C 237.085,98.8911 239.251,97.5577 241.5,96.5 Z"/></g>
<g><path style="opacity:1" fill="#1b2d35" d="M 399.5,154.5 C 398.577,155.303 397.577,155.47 396.5,155C 393.582,150.932 391.582,146.432 390.5,141.5C 391.025,140.808 391.692,140.308 392.5,140C 388.61,136.231 384.943,132.231 381.5,128C 377.408,126.297 373.741,124.131 370.5,121.5C 370.918,120.778 371.584,120.278 372.5,120C 379.385,118.902 386.051,119.569 392.5,122C 396.531,126.564 400.198,131.397 403.5,136.5C 402.286,138.069 400.619,138.902 398.5,139C 402.4,143.429 402.4,147.762 398.5,152C 398.743,152.902 399.077,153.735 399.5,154.5 Z"/></g>
<g><path style="opacity:1" fill="#2b444e" d="M 70.5,131.5 C 66.3094,133.486 61.9761,135.319 57.5,137C 44.7975,144.138 32.2975,151.638 20,159.5C 19.8227,155.644 19.3227,151.977 18.5,148.5C 18.8477,145.981 20.1811,144.147 22.5,143C 38.0813,134.293 53.5813,125.46 69,116.5C 70.4415,121.309 70.9415,126.309 70.5,131.5 Z"/></g>
<g><path style="opacity:1" fill="#1b2d35" d="M 344.5,125.5 C 345.942,126.82 346.608,128.486 346.5,130.5C 345.178,130.33 344.011,130.663 343,131.5C 341.918,142.771 339.918,153.771 337,164.5C 335.556,166.155 333.722,166.822 331.5,166.5C 331.5,169.167 331.5,171.833 331.5,174.5C 328.212,174.984 325.545,173.984 323.5,171.5C 323.446,169.368 322.446,168.035 320.5,167.5C 320.611,166.883 320.944,166.383 321.5,166C 319.273,165.879 317.44,165.046 316,163.5C 314.465,159.529 314.131,155.529 315,151.5C 313.927,152.28 312.76,152.113 311.5,151C 314.418,135.583 323.418,125.75 338.5,121.5C 341.286,121.877 343.286,123.211 344.5,125.5 Z"/></g>
<g><path style="opacity:1" fill="#385963" d="M 451.5,137.5 C 448.589,136.017 445.922,136.35 443.5,138.5C 443.565,138.062 443.399,137.728 443,137.5C 438.023,139.752 432.857,140.919 427.5,141C 426.643,140.311 425.977,139.478 425.5,138.5C 430.383,135.087 433.55,130.421 435,124.5C 442.027,120.678 449.194,120.511 456.5,124C 460.01,125.907 461.176,128.74 460,132.5C 457.602,135.108 454.769,136.775 451.5,137.5 Z"/></g>
<g><path style="opacity:1" fill="#385a64" d="M 70.5,131.5 C 70.4944,160.838 70.8278,190.171 71.5,219.5C 69.1229,222.384 66.4562,225.217 63.5,228C 60.1069,230.076 56.4402,231.242 52.5,231.5C 48.4862,231.334 44.4862,231.501 40.5,232C 37.8333,234 37.8333,236 40.5,238C 47.7459,239.762 55.0792,240.595 62.5,240.5C 63.2989,243.589 64.7989,246.256 67,248.5C 68.3256,259.79 68.8256,271.123 68.5,282.5C 67.4726,284.194 66.1392,285.527 64.5,286.5C 52.7876,289.663 41.121,289.996 29.5,287.5C 27.8333,287.5 26.1667,287.5 24.5,287.5C 24.5,286.833 24.1667,286.5 23.5,286.5C 23.0269,285.094 22.0269,284.427 20.5,284.5C 19.1554,282.303 17.9888,279.97 17,277.5C 17.4542,234.297 17.9542,191.297 18.5,148.5C 19.3227,151.977 19.8227,155.644 20,159.5C 32.2975,151.638 44.7975,144.138 57.5,137C 61.9761,135.319 66.3094,133.486 70.5,131.5 Z"/></g>
<g><path style="opacity:1" fill="#2a444d" d="M 451.5,137.5 C 451.5,139.167 451.5,140.833 451.5,142.5C 451.467,145.101 451.467,147.767 451.5,150.5C 449.211,152.592 446.711,152.926 444,151.5C 444.353,149.21 443.853,146.877 442.5,144.5C 441.272,146.176 439.939,146.509 438.5,145.5C 439.78,144.069 441.447,143.402 443.5,143.5C 443.5,141.833 443.5,140.167 443.5,138.5C 445.922,136.35 448.589,136.017 451.5,137.5 Z"/></g>
<g><path style="opacity:1" fill="#f89c80" d="M 177.5,168.5 C 177.878,170.921 178.545,173.254 179.5,175.5C 178.5,175.5 177.5,175.5 176.5,175.5C 176.799,173.396 176.466,171.396 175.5,169.5C 174.265,170.34 173.265,171.34 172.5,172.5C 171.09,173.828 169.924,173.495 169,171.5C 168.667,172.167 168.333,172.833 168,173.5C 166.902,172.033 165.402,171.199 163.5,171C 162.192,168.645 161.192,166.145 160.5,163.5C 159.476,164.853 158.143,165.52 156.5,165.5C 156.664,162.813 156.497,160.146 156,157.5C 155.586,157.957 155.086,158.291 154.5,158.5C 152.815,162.655 152.149,166.988 152.5,171.5C 151.127,171.343 149.793,171.51 148.5,172C 149.337,173.011 149.67,174.178 149.5,175.5C 153.36,177.682 157.36,179.682 161.5,181.5C 153.971,179.907 146.304,179.074 138.5,179C 136.91,177.954 135.41,176.787 134,175.5C 133.28,165.379 136.113,156.379 142.5,148.5C 140.805,147.708 139.138,148.042 137.5,149.5C 132.988,153.88 129.488,158.88 127,164.5C 124.963,166.706 122.797,168.706 120.5,170.5C 117.962,168.158 115.295,167.992 112.5,170C 114.382,170.198 116.048,170.698 117.5,171.5C 117.586,172.496 117.252,173.329 116.5,174C 113.961,174.796 111.628,174.629 109.5,173.5C 110.925,169.622 111.925,165.622 112.5,161.5C 115.166,161.067 117.832,160.567 120.5,160C 121.973,159.29 122.64,158.124 122.5,156.5C 119.941,156.802 117.607,156.468 115.5,155.5C 117.68,153.152 119.68,150.652 121.5,148C 120.888,141.767 119.888,135.601 118.5,129.5C 118.342,127.681 119.009,126.348 120.5,125.5C 124.947,126.89 128.947,129.056 132.5,132C 135.396,135.64 137.896,139.473 140,143.5C 145.063,144.175 150.063,145.175 155,146.5C 159.153,138.847 165.32,133.514 173.5,130.5C 175.353,131.189 176.519,132.522 177,134.5C 179.045,142.045 179.712,149.711 179,157.5C 178.252,159.909 177.085,162.075 175.5,164C 176.044,165.585 176.711,167.085 177.5,168.5 Z"/></g>
<g><path style="opacity:1" fill="#fdb69b" d="M 121.5,129.5 C 128.871,132.151 132.538,137.151 132.5,144.5C 129.943,145.407 127.443,146.407 125,147.5C 123.994,141.431 122.827,135.431 121.5,129.5 Z"/></g>
<g><path style="opacity:1" fill="#395963" d="M 370.5,121.5 C 373.741,124.131 377.408,126.297 381.5,128C 384.943,132.231 388.61,136.231 392.5,140C 391.692,140.308 391.025,140.808 390.5,141.5C 391.582,146.432 393.582,150.932 396.5,155C 397.577,155.47 398.577,155.303 399.5,154.5C 401.242,157.607 402.575,160.941 403.5,164.5C 402.325,164.281 401.325,164.614 400.5,165.5C 402.259,168.505 401.592,170.505 398.5,171.5C 397.26,168.976 396.093,166.309 395,163.5C 386.5,156.333 378.667,148.5 371.5,140C 370.207,139.51 368.873,139.343 367.5,139.5C 367.666,144.844 367.499,150.177 367,155.5C 363.05,158.774 359.05,162.107 355,165.5C 352.179,176.746 356.012,184.58 366.5,189C 371.351,189.174 376.018,189.674 380.5,190.5C 381.09,194.603 382.09,198.603 383.5,202.5C 386.139,208.175 387.805,214.175 388.5,220.5C 388.572,226.545 388.072,232.545 387,238.5C 384.198,247.906 381.198,257.239 378,266.5C 377.503,268.81 377.337,271.143 377.5,273.5C 376.676,277.312 376.176,281.312 376,285.5C 375.5,286 375,286.5 374.5,287C 370.58,284.36 366.08,282.86 361,282.5C 355.555,282.723 351.221,285.057 348,289.5C 346.833,287 345,285.167 342.5,284C 338.216,282.337 333.883,282.004 329.5,283C 326.821,278.161 322.821,274.994 317.5,273.5C 316.55,269.534 315.217,265.701 313.5,262C 307.983,262.212 302.65,263.378 297.5,265.5C 297.991,258.654 297.324,251.988 295.5,245.5C 296.404,244.791 296.737,243.791 296.5,242.5C 306.863,241.999 317.197,241.165 327.5,240C 328.333,238.5 329.5,237.333 331,236.5C 331.667,232.167 331.667,227.833 331,223.5C 329.202,218.322 328.202,212.989 328,207.5C 326.308,204.356 325.142,201.023 324.5,197.5C 323.205,199.328 322.205,201.328 321.5,203.5C 319.985,201.453 319.151,199.119 319,196.5C 318.71,192.137 318.21,187.804 317.5,183.5C 318.637,179.503 319.637,175.503 320.5,171.5C 321.5,171.5 322.5,171.5 323.5,171.5C 325.545,173.984 328.212,174.984 331.5,174.5C 331.5,171.833 331.5,169.167 331.5,166.5C 333.722,166.822 335.556,166.155 337,164.5C 339.918,153.771 341.918,142.771 343,131.5C 344.011,130.663 345.178,130.33 346.5,130.5C 346.608,128.486 345.942,126.82 344.5,125.5C 353.018,123.176 361.685,121.843 370.5,121.5 Z"/></g>
<g><path style="opacity:1" fill="#03070a" d="M 357.5,153.5 C 358.885,152.698 358.718,152.031 357,151.5C 355.97,151.836 355.47,152.503 355.5,153.5C 354.183,148.655 356.183,146.822 361.5,148C 364.666,153.519 362.999,155.852 356.5,155C 357.056,154.617 357.389,154.117 357.5,153.5 Z"/></g>
<g><path style="opacity:1" fill="#0b0f11" d="M 385.5,144.5 C 390.895,143.555 392.561,145.555 390.5,150.5C 388.333,151.954 386.333,151.788 384.5,150C 388.378,149.051 388.378,147.885 384.5,146.5C 384.863,145.817 385.196,145.15 385.5,144.5 Z"/></g>
<g><path style="opacity:1" fill="#dedad9" d="M 357.5,153.5 C 356.833,153.5 356.167,153.5 355.5,153.5C 355.47,152.503 355.97,151.836 357,151.5C 358.718,152.031 358.885,152.698 357.5,153.5 Z"/></g>
<g><path style="opacity:1" fill="#395862" d="M 451.5,142.5 C 459.416,145.322 462.416,150.988 460.5,159.5C 460.167,159.5 459.833,159.5 459.5,159.5C 459.663,157.143 459.497,154.81 459,152.5C 450.766,159.403 442.933,159.07 435.5,151.5C 435.025,148.687 436.025,146.687 438.5,145.5C 439.939,146.509 441.272,146.176 442.5,144.5C 443.853,146.877 444.353,149.21 444,151.5C 446.711,152.926 449.211,152.592 451.5,150.5C 451.467,147.767 451.467,145.101 451.5,142.5 Z"/></g>
<g><path style="opacity:1" fill="#fdbba2" d="M 172.5,172.5 C 170.815,171.816 169.815,170.483 169.5,168.5C 167.257,167.526 164.924,167.192 162.5,167.5C 162.5,165.5 162.5,163.5 162.5,161.5C 160.833,161.5 159.167,161.5 157.5,161.5C 156.928,151.187 160.928,142.687 169.5,136C 170.793,135.51 172.127,135.343 173.5,135.5C 176.885,145.371 175.885,154.704 170.5,163.5C 171.932,166.327 172.599,169.327 172.5,172.5 Z"/></g>
<g><path style="opacity:1" fill="#fceee9" d="M 115.5,155.5 C 117.607,156.468 119.941,156.802 122.5,156.5C 122.64,158.124 121.973,159.29 120.5,160C 117.832,160.567 115.166,161.067 112.5,161.5C 112.992,159.181 113.992,157.181 115.5,155.5 Z"/></g>
<g><path style="opacity:1" fill="#2d454e" d="M 435.5,151.5 C 442.933,159.07 450.766,159.403 459,152.5C 459.497,154.81 459.663,157.143 459.5,159.5C 460.569,170.418 455.569,174.752 444.5,172.5C 437.562,171.903 434.229,168.237 434.5,161.5C 435.324,158.236 435.658,154.902 435.5,151.5 Z"/></g>
<g><path style="opacity:1" fill="#c573c0" d="M 292.5,165.5 C 283.066,165.27 273.733,164.437 264.5,163C 245.823,162.33 227.156,162.497 208.5,163.5C 236.597,159.422 264.597,160.089 292.5,165.5 Z"/></g>
<g><path style="opacity:1" fill="#ffede7" d="M 142.5,160.5 C 148.411,160.407 151.078,163.073 150.5,168.5C 148.664,167.081 146.664,165.914 144.5,165C 142.963,163.89 142.297,162.39 142.5,160.5 Z"/></g>
<g><path style="opacity:1" fill="#d069ca" d="M 292.5,165.5 C 301.587,166.688 310.587,168.355 319.5,170.5C 318.61,173.948 316.943,176.948 314.5,179.5C 302.801,177.76 291.134,175.76 279.5,173.5C 279.5,172.5 279.5,171.5 279.5,170.5C 256.167,170.53 233,170.53 210,170.5C 201.4,172.307 192.9,174.307 184.5,176.5C 181.013,175.114 179.347,172.448 179.5,168.5C 188.848,165.7 198.514,164.034 208.5,163.5C 227.156,162.497 245.823,162.33 264.5,163C 273.733,164.437 283.066,165.27 292.5,165.5 Z"/></g>
<g><path style="opacity:1" fill="#f7e2f5" d="M 434.5,161.5 C 434.229,168.237 437.562,171.903 444.5,172.5C 447.977,173.323 451.644,173.823 455.5,174C 461.764,179.022 465.597,185.522 467,193.5C 467.19,199.416 467.69,205.249 468.5,211C 471.838,212.206 473.671,211.04 474,207.5C 476.398,207.042 478.064,205.708 479,203.5C 479.993,200.592 480.493,197.592 480.5,194.5C 480.071,190.169 479.738,185.835 479.5,181.5C 480.302,182.952 480.802,184.618 481,186.5C 481.499,192.157 481.666,197.824 481.5,203.5C 480.911,206.734 478.911,208.067 475.5,207.5C 475.657,208.873 475.49,210.207 475,211.5C 472.37,211.859 470.203,212.859 468.5,214.5C 454.467,218.56 440.467,218.394 426.5,214C 423.568,212.7 421.234,210.7 419.5,208C 418.552,207.517 417.552,207.351 416.5,207.5C 416.614,204.784 415.614,202.784 413.5,201.5C 411.502,186.948 415.835,174.782 426.5,165C 428.818,163.007 431.484,161.841 434.5,161.5 Z"/></g>
<g><path style="opacity:1" fill="#40251b" d="M 120.5,170.5 C 120.5,171.167 120.5,171.833 120.5,172.5C 119.391,172.443 118.391,172.11 117.5,171.5C 116.048,170.698 114.382,170.198 112.5,170C 115.295,167.992 117.962,168.158 120.5,170.5 Z"/></g>
<g><path style="opacity:1" fill="#cc79c6" d="M 177.5,168.5 C 178.167,168.5 178.833,168.5 179.5,168.5C 179.347,172.448 181.013,175.114 184.5,176.5C 192.9,174.307 201.4,172.307 210,170.5C 233,170.53 256.167,170.53 279.5,170.5C 279.5,171.5 279.5,172.5 279.5,173.5C 247.193,169.729 215.193,171.062 183.5,177.5C 181.938,177.267 180.605,176.6 179.5,175.5C 178.545,173.254 177.878,170.921 177.5,168.5 Z"/></g>
<g><path style="opacity:1" fill="#463026" d="M 138.5,171.5 C 141.983,170.916 144.983,171.749 147.5,174C 144.11,174.246 140.777,174.746 137.5,175.5C 137.167,175.167 136.833,174.833 136.5,174.5C 137.193,173.482 137.859,172.482 138.5,171.5 Z"/></g>
<g><path style="opacity:1" fill="#efcaeb" d="M 459.5,159.5 C 459.833,159.5 460.167,159.5 460.5,159.5C 469.728,164.39 476.061,171.723 479.5,181.5C 479.738,185.835 480.071,190.169 480.5,194.5C 480.493,197.592 479.993,200.592 479,203.5C 478.064,205.708 476.398,207.042 474,207.5C 473.671,211.04 471.838,212.206 468.5,211C 467.69,205.249 467.19,199.416 467,193.5C 465.597,185.522 461.764,179.022 455.5,174C 451.644,173.823 447.977,173.323 444.5,172.5C 455.569,174.752 460.569,170.418 459.5,159.5 Z"/></g>
<g><path style="opacity:1" fill="#f3f4f5" d="M 398.5,171.5 C 396.803,176.558 394.303,181.225 391,185.5C 387.934,188.117 384.434,189.783 380.5,190.5C 376.018,189.674 371.351,189.174 366.5,189C 356.012,184.58 352.179,176.746 355,165.5C 359.05,162.107 363.05,158.774 367,155.5C 367.499,150.177 367.666,144.844 367.5,139.5C 368.873,139.343 370.207,139.51 371.5,140C 378.667,148.5 386.5,156.333 395,163.5C 396.093,166.309 397.26,168.976 398.5,171.5 Z"/></g>
<g><path style="opacity:1" fill="#080808" d="M 387.5,171.5 C 386.5,170.167 385.5,170.167 384.5,171.5C 383.15,170.517 382.15,169.184 381.5,167.5C 378.934,170.011 377.268,169.345 376.5,165.5C 377.678,161.174 380.511,159.508 385,160.5C 387.094,160.536 389.094,160.869 391,161.5C 391.167,162.333 391.333,163.167 391.5,164C 390.509,166.823 389.175,169.323 387.5,171.5 Z"/></g>
<g><path style="opacity:1" fill="#edf6f6" d="M 52.5,177.5 C 53.4959,177.414 54.3292,177.748 55,178.5C 55.6667,182.167 55.6667,185.833 55,189.5C 53.6667,190.833 52.3333,190.833 51,189.5C 49.994,185.198 50.494,181.198 52.5,177.5 Z"/></g>
<g><path style="opacity:0.998" fill="#e4e3e4" d="M 117.5,171.5 C 118.391,172.11 119.391,172.443 120.5,172.5C 118.312,175.181 115.646,177.348 112.5,179C 113.094,179.464 113.761,179.631 114.5,179.5C 113.185,180.667 112.519,182.167 112.5,184C 113.583,187.42 115.25,190.42 117.5,193C 116.685,194.98 115.352,196.48 113.5,197.5C 111.833,197.5 110.167,197.5 108.5,197.5C 101.543,193.136 99.7096,187.136 103,179.5C 105.037,177.294 107.203,175.294 109.5,173.5C 111.628,174.629 113.961,174.796 116.5,174C 117.252,173.329 117.586,172.496 117.5,171.5 Z"/></g>
<g><path style="opacity:1" fill="#f9ebf6" d="M 205.5,213.5 C 202.882,212.055 200.382,210.389 198,208.5C 198.71,203.174 196.21,200.007 190.5,199C 189.167,198.333 189.167,197.667 190.5,197C 187.379,193.98 184.046,191.313 180.5,189C 182.443,187.166 182.776,185.166 181.5,183C 182.793,182.51 184.127,182.343 185.5,182.5C 185.461,183.583 185.127,184.583 184.5,185.5C 185,185.833 185.5,186.167 186,186.5C 190.127,185.761 194.294,185.261 198.5,185C 202.193,182.372 206.193,181.872 210.5,183.5C 214.452,176.62 220.118,174.787 227.5,178C 225.875,178.853 225.542,179.853 226.5,181C 220.368,185.132 215.201,190.299 211,196.5C 209.287,201.994 207.453,207.661 205.5,213.5 Z"/></g>
<g><path style="opacity:1" fill="#e4edf0" d="M 66.5,178.5 C 67.7479,179.334 68.4146,180.667 68.5,182.5C 68.508,186.147 67.1747,189.147 64.5,191.5C 63.0542,190.829 62.3875,189.662 62.5,188C 63.3582,184.58 64.6916,181.413 66.5,178.5 Z"/></g>
<g><path style="opacity:1" fill="#353c3f" d="M 387.5,171.5 C 387.151,174.99 388.651,177.323 392,178.5C 392.627,180.586 392.127,180.919 390.5,179.5C 384.765,181.063 379.099,182.729 373.5,184.5C 370.972,184.237 368.639,183.404 366.5,182C 364.671,180.887 363.837,179.387 364,177.5C 371.186,184.198 378.186,183.864 385,176.5C 385.64,174.735 385.473,173.068 384.5,171.5C 385.5,170.167 386.5,170.167 387.5,171.5 Z"/></g>
<g><path style="opacity:1" fill="#e4ebee" d="M 60.5,173.5 C 61.5,173.5 62.5,173.5 63.5,173.5C 63.6646,176.518 63.498,179.518 63,182.5C 60.3286,189.268 58.4953,189.101 57.5,182C 57.6224,178.796 58.6224,175.963 60.5,173.5 Z"/></g>
<g><path style="opacity:1" fill="#243035" d="M 114.5,179.5 C 118.79,178.987 122.623,179.987 126,182.5C 126.667,184.5 126.667,186.5 126,188.5C 124.286,189.925 122.953,189.592 122,187.5C 121.585,189.291 120.585,190.624 119,191.5C 118.289,193.367 118.789,194.867 120.5,196C 125.828,201.265 131.494,201.765 137.5,197.5C 135.928,200.634 133.262,202.3 129.5,202.5C 126.809,202.321 124.475,201.321 122.5,199.5C 119.313,200.863 116.313,200.529 113.5,198.5C 113.5,198.167 113.5,197.833 113.5,197.5C 115.352,196.48 116.685,194.98 117.5,193C 115.25,190.42 113.583,187.42 112.5,184C 112.519,182.167 113.185,180.667 114.5,179.5 Z"/></g>
<g><path style="opacity:1" fill="#fc9b7c" d="M 172.5,172.5 C 173.265,171.34 174.265,170.34 175.5,169.5C 176.466,171.396 176.799,173.396 176.5,175.5C 177.5,175.5 178.5,175.5 179.5,175.5C 180.605,176.6 181.938,177.267 183.5,177.5C 184.167,179.167 184.833,180.833 185.5,182.5C 184.127,182.343 182.793,182.51 181.5,183C 182.776,185.166 182.443,187.166 180.5,189C 184.046,191.313 187.379,193.98 190.5,197C 189.167,197.667 189.167,198.333 190.5,199C 196.21,200.007 198.71,203.174 198,208.5C 200.382,210.389 202.882,212.055 205.5,213.5C 207.336,215.588 209.669,216.921 212.5,217.5C 216.912,221.554 221.579,225.387 226.5,229C 228.217,230.559 230.217,231.392 232.5,231.5C 233.779,234.652 236.112,236.652 239.5,237.5C 241.461,239.963 243.628,242.297 246,244.5C 247.286,242.374 248.119,240.041 248.5,237.5C 246.734,234.066 247.4,231.233 250.5,229C 259.567,226.183 267.9,227.683 275.5,233.5C 275.833,233.333 276.167,233.167 276.5,233C 274.963,231.89 274.297,230.39 274.5,228.5C 276.167,228.5 277.833,228.5 279.5,228.5C 281.713,229.773 284.046,230.773 286.5,231.5C 290.508,235.516 293.508,240.182 295.5,245.5C 297.324,251.988 297.991,258.654 297.5,265.5C 297.5,267.167 297.5,268.833 297.5,270.5C 295.619,273.938 293.952,277.605 292.5,281.5C 290.628,282.511 288.628,283.345 286.5,284C 285.782,285.987 284.782,287.821 283.5,289.5C 280.741,288.121 278.075,286.787 275.5,285.5C 279.954,281.804 281.621,277.137 280.5,271.5C 278.775,270.985 277.108,270.318 275.5,269.5C 277.707,262.203 276.374,255.703 271.5,250C 266.53,248.186 261.53,246.353 256.5,244.5C 251.173,246.468 250.173,249.801 253.5,254.5C 254.573,259.1 256.406,263.433 259,267.5C 260.25,272.42 260.75,277.42 260.5,282.5C 258.167,282.5 255.833,282.5 253.5,282.5C 253.88,280.302 253.213,278.635 251.5,277.5C 247.112,273.601 242.112,272.601 236.5,274.5C 237.37,269.383 235.37,266.049 230.5,264.5C 227.695,263.681 224.695,263.181 221.5,263C 220.686,259.925 218.686,258.258 215.5,258C 211.5,257.333 207.5,257.333 203.5,258C 201.676,258.66 200.343,259.827 199.5,261.5C 198.393,262.992 196.893,263.992 195,264.5C 189.27,262.338 184.604,263.672 181,268.5C 173.171,265.354 168.004,267.688 165.5,275.5C 160.622,271.832 155.456,271.498 150,274.5C 149.098,274.257 148.265,273.923 147.5,273.5C 146.46,269.22 146.294,264.887 147,260.5C 148.743,257.043 149.743,253.377 150,249.5C 155.459,248.481 156.959,245.314 154.5,240C 158.686,236.092 158.353,232.592 153.5,229.5C 151.659,224.381 152.659,219.881 156.5,216C 157.793,215.51 159.127,215.343 160.5,215.5C 160.884,213.071 161.551,210.737 162.5,208.5C 165.808,209.026 167.974,207.693 169,204.5C 168.918,200.758 169.085,197.091 169.5,193.5C 170.629,191.372 170.796,189.039 170,186.5C 166.989,184.919 164.156,183.253 161.5,181.5C 157.36,179.682 153.36,177.682 149.5,175.5C 149.67,174.178 149.337,173.011 148.5,172C 149.793,171.51 151.127,171.343 152.5,171.5C 152.149,166.988 152.815,162.655 154.5,158.5C 155.086,158.291 155.586,157.957 156,157.5C 156.497,160.146 156.664,162.813 156.5,165.5C 158.143,165.52 159.476,164.853 160.5,163.5C 161.192,166.145 162.192,168.645 163.5,171C 165.402,171.199 166.902,172.033 168,173.5C 168.333,172.833 168.667,172.167 169,171.5C 169.924,173.495 171.09,173.828 172.5,172.5 Z"/></g>
<g><path style="opacity:1" fill="#f7f7f8" d="M 279.5,173.5 C 291.134,175.76 302.801,177.76 314.5,179.5C 307.047,190.526 297.047,197.526 284.5,200.5C 280.933,192.598 275.267,186.598 267.5,182.5C 267.167,182.667 266.833,182.833 266.5,183C 268.349,184.093 270.016,185.426 271.5,187C 268.167,187.333 264.833,187.667 261.5,188C 267.933,194.377 272.1,201.877 274,210.5C 271.9,207.533 269.066,205.7 265.5,205C 257.486,203.742 249.486,203.075 241.5,203C 243.208,205.043 245.208,206.71 247.5,208C 238.416,208.535 229.416,208.202 220.5,207C 218.156,207.837 216.156,209.171 214.5,211C 215.833,211.333 217.167,211.667 218.5,212C 216.004,213.331 214.004,215.164 212.5,217.5C 209.669,216.921 207.336,215.588 205.5,213.5C 207.453,207.661 209.287,201.994 211,196.5C 215.201,190.299 220.368,185.132 226.5,181C 225.542,179.853 225.875,178.853 227.5,178C 220.118,174.787 214.452,176.62 210.5,183.5C 206.193,181.872 202.193,182.372 198.5,185C 194.294,185.261 190.127,185.761 186,186.5C 185.5,186.167 185,185.833 184.5,185.5C 185.127,184.583 185.461,183.583 185.5,182.5C 184.833,180.833 184.167,179.167 183.5,177.5C 215.193,171.062 247.193,169.729 279.5,173.5 Z"/></g>
<g><path style="opacity:1" fill="#2b454e" d="M 320.5,167.5 C 322.446,168.035 323.446,169.368 323.5,171.5C 322.5,171.5 321.5,171.5 320.5,171.5C 319.637,175.503 318.637,179.503 317.5,183.5C 318.21,187.804 318.71,192.137 319,196.5C 319.151,199.119 319.985,201.453 321.5,203.5C 322.205,201.328 323.205,199.328 324.5,197.5C 325.142,201.023 326.308,204.356 328,207.5C 328.202,212.989 329.202,218.322 331,223.5C 331.667,227.833 331.667,232.167 331,236.5C 329.5,237.333 328.333,238.5 327.5,240C 317.197,241.165 306.863,241.999 296.5,242.5C 296.737,243.791 296.404,244.791 295.5,245.5C 293.508,240.182 290.508,235.516 286.5,231.5C 284.913,225.323 284.079,218.989 284,212.5C 282.948,207.987 280.782,204.153 277.5,201C 280.469,201.658 283.135,203.158 285.5,205.5C 285.833,205 286.167,204.5 286.5,204C 285.571,202.923 284.904,201.756 284.5,200.5C 297.047,197.526 307.047,190.526 314.5,179.5C 316.943,176.948 318.61,173.948 319.5,170.5C 320.11,169.609 320.443,168.609 320.5,167.5 Z"/></g>
<g><path style="opacity:1" fill="#eef8fa" d="M 46.5,189.5 C 51.132,192.623 51.632,196.29 48,200.5C 47.228,200.355 46.5613,200.022 46,199.5C 45.2534,196.076 45.42,192.743 46.5,189.5 Z"/></g>
<g><path style="opacity:1" fill="#f2f6f7" d="M 55.5,191.5 C 56.8734,191.343 58.2068,191.51 59.5,192C 67.0126,197.664 67.3459,203.997 60.5,211C 51.0859,218.533 47.2526,216.366 49,204.5C 51.7206,200.392 53.8872,196.059 55.5,191.5 Z"/></g>
<g><path style="opacity:1" fill="#c874c3" d="M 108.5,197.5 C 110.167,197.5 111.833,197.5 113.5,197.5C 113.5,197.833 113.5,198.167 113.5,198.5C 114.229,200.993 115.063,203.326 116,205.5C 109.706,209.627 104.206,214.627 99.5,220.5C 98.5,221.167 97.5,221.833 96.5,222.5C 97.4132,220.914 97.4132,219.414 96.5,218C 97.7932,217.51 99.1266,217.343 100.5,217.5C 100.67,216.178 100.337,215.011 99.5,214C 100.854,212.706 102.188,212.54 103.5,213.5C 104.281,212.271 104.781,210.938 105,209.5C 106.011,210.337 107.178,210.67 108.5,210.5C 108.343,209.127 108.51,207.793 109,206.5C 110.183,207.731 111.349,207.731 112.5,206.5C 111.675,205.614 110.675,205.281 109.5,205.5C 109.5,204.167 109.5,202.833 109.5,201.5C 106.447,201.572 103.781,202.572 101.5,204.5C 103.64,201.939 105.973,199.605 108.5,197.5 Z"/></g>
<g><path style="opacity:1" fill="#1e2f36" d="M 284.5,200.5 C 284.904,201.756 285.571,202.923 286.5,204C 286.167,204.5 285.833,205 285.5,205.5C 283.135,203.158 280.469,201.658 277.5,201C 280.782,204.153 282.948,207.987 284,212.5C 284.079,218.989 284.913,225.323 286.5,231.5C 284.046,230.773 281.713,229.773 279.5,228.5C 276.322,227.295 272.988,227.295 269.5,228.5C 265.009,226.088 260.675,223.421 256.5,220.5C 256.167,221 255.833,221.5 255.5,222C 256.707,223.3 257.374,224.8 257.5,226.5C 253.963,226.689 250.63,226.023 247.5,224.5C 240.891,223.584 235.891,225.917 232.5,231.5C 230.217,231.392 228.217,230.559 226.5,229C 221.579,225.387 216.912,221.554 212.5,217.5C 214.004,215.164 216.004,213.331 218.5,212C 217.167,211.667 215.833,211.333 214.5,211C 216.156,209.171 218.156,207.837 220.5,207C 229.416,208.202 238.416,208.535 247.5,208C 245.208,206.71 243.208,205.043 241.5,203C 249.486,203.075 257.486,203.742 265.5,205C 269.066,205.7 271.9,207.533 274,210.5C 272.1,201.877 267.933,194.377 261.5,188C 264.833,187.667 268.167,187.333 271.5,187C 270.016,185.426 268.349,184.093 266.5,183C 266.833,182.833 267.167,182.667 267.5,182.5C 275.267,186.598 280.933,192.598 284.5,200.5 Z"/></g>
<g><path style="opacity:1" fill="#e2e0e2" d="M 481.5,203.5 C 481.5,219.5 481.5,235.5 481.5,251.5C 476.602,253.764 472.269,256.764 468.5,260.5C 468.325,258.379 468.659,256.379 469.5,254.5C 469.5,254.167 469.5,253.833 469.5,253.5C 470.492,253.672 471.158,253.338 471.5,252.5C 474.283,249.259 473.949,246.259 470.5,243.5C 470.5,242.833 470.5,242.167 470.5,241.5C 472.353,237.895 471.353,235.562 467.5,234.5C 467.918,233.778 468.584,233.278 469.5,233C 468.524,226.924 468.19,220.758 468.5,214.5C 470.203,212.859 472.37,211.859 475,211.5C 475.49,210.207 475.657,208.873 475.5,207.5C 478.911,208.067 480.911,206.734 481.5,203.5 Z"/></g>
<g><path style="opacity:1" fill="#f3a991" d="M 169.5,193.5 C 169.085,197.091 168.918,200.758 169,204.5C 167.974,207.693 165.808,209.026 162.5,208.5C 161.551,210.737 160.884,213.071 160.5,215.5C 159.127,215.343 157.793,215.51 156.5,216C 152.659,219.881 151.659,224.381 153.5,229.5C 149.787,222.456 151.454,216.789 158.5,212.5C 159.983,207.822 163.149,204.822 168,203.5C 168.915,200.657 168.081,198.49 165.5,197C 166.645,195.598 167.978,194.431 169.5,193.5 Z"/></g>
<g><path style="opacity:1" fill="#be73bb" d="M 383.5,202.5 C 386.603,204.423 389.603,206.59 392.5,209C 395.118,211.106 397.118,213.606 398.5,216.5C 396.37,214.873 394.37,213.04 392.5,211C 391.552,210.517 390.552,210.351 389.5,210.5C 389.081,214.773 389.748,218.773 391.5,222.5C 390.5,221.833 389.5,221.167 388.5,220.5C 387.805,214.175 386.139,208.175 383.5,202.5 Z"/></g>
<g><path style="opacity:1" fill="#f9f7f7" d="M 161.5,181.5 C 164.156,183.253 166.989,184.919 170,186.5C 170.796,189.039 170.629,191.372 169.5,193.5C 167.978,194.431 166.645,195.598 165.5,197C 168.081,198.49 168.915,200.657 168,203.5C 163.149,204.822 159.983,207.822 158.5,212.5C 151.454,216.789 149.787,222.456 153.5,229.5C 158.353,232.592 158.686,236.092 154.5,240C 156.959,245.314 155.459,248.481 150,249.5C 149.743,253.377 148.743,257.043 147,260.5C 146.294,264.887 146.46,269.22 147.5,273.5C 147.785,275.288 147.452,276.955 146.5,278.5C 142.92,276.875 139.254,275.541 135.5,274.5C 130.281,271.954 125.948,268.287 122.5,263.5C 121.374,264.808 121.374,266.142 122.5,267.5C 122.5,268.167 122.5,268.833 122.5,269.5C 120.538,264.977 117.704,260.977 114,257.5C 115.261,253.283 114.094,249.783 110.5,247C 109.75,244.242 108.083,241.575 105.5,239C 106.493,236.206 106.993,233.373 107,230.5C 102.869,230.69 99.3687,229.024 96.5,225.5C 98.297,224.305 99.297,222.638 99.5,220.5C 104.206,214.627 109.706,209.627 116,205.5C 115.063,203.326 114.229,200.993 113.5,198.5C 116.313,200.529 119.313,200.863 122.5,199.5C 124.475,201.321 126.809,202.321 129.5,202.5C 133.262,202.3 135.928,200.634 137.5,197.5C 131.494,201.765 125.828,201.265 120.5,196C 118.789,194.867 118.289,193.367 119,191.5C 120.585,190.624 121.585,189.291 122,187.5C 122.953,189.592 124.286,189.925 126,188.5C 126.667,186.5 126.667,184.5 126,182.5C 122.623,179.987 118.79,178.987 114.5,179.5C 113.761,179.631 113.094,179.464 112.5,179C 115.646,177.348 118.312,175.181 120.5,172.5C 120.5,171.833 120.5,171.167 120.5,170.5C 122.797,168.706 124.963,166.706 127,164.5C 129.488,158.88 132.988,153.88 137.5,149.5C 139.138,148.042 140.805,147.708 142.5,148.5C 136.113,156.379 133.28,165.379 134,175.5C 135.41,176.787 136.91,177.954 138.5,179C 146.304,179.074 153.971,179.907 161.5,181.5 Z"/></g>
<g><path style="opacity:1" fill="#e2e2e2" d="M 149.5,200.5 C 154.21,198.891 155.543,200.557 153.5,205.5C 152.675,206.386 151.675,206.719 150.5,206.5C 150.5,207.833 150.5,209.167 150.5,210.5C 148.473,210.338 146.473,210.505 144.5,211C 140.45,215.946 135.617,216.78 130,213.5C 128.699,213.96 127.366,214.294 126,214.5C 123.973,212.98 121.806,211.647 119.5,210.5C 116.871,212.348 114.204,213.848 111.5,215C 112.333,212.833 113.833,211.333 116,210.5C 116.511,208.122 117.178,205.788 118,203.5C 122.758,204.418 127.424,205.751 132,207.5C 134.956,207.053 137.789,206.22 140.5,205C 143.817,204.502 147.15,204.335 150.5,204.5C 150.768,202.901 150.434,201.568 149.5,200.5 Z"/></g>
<g><path style="opacity:1" fill="#6f7071" d="M 137.5,197.5 C 137.461,196.244 137.961,195.244 139,194.5C 139.585,195.998 139.085,196.998 137.5,197.5 Z"/></g>
<g><path style="opacity:1" fill="#d267cb" d="M 96.5,222.5 C 95.5,223.833 94.5,225.167 93.5,226.5C 92.5,226.5 91.5,226.5 90.5,226.5C 90.6495,227.552 90.4828,228.552 90,229.5C 88.4933,230.505 87.3267,231.838 86.5,233.5C 86.1475,230.903 85.4808,228.07 84.5,225C 84.8333,224.5 85.1667,224 85.5,223.5C 87.5505,226.215 89.2172,226.048 90.5,223C 89.552,222.517 88.552,222.351 87.5,222.5C 87.4914,220.692 87.9914,219.025 89,217.5C 93.3978,213.271 97.5644,208.938 101.5,204.5C 103.781,202.572 106.447,201.572 109.5,201.5C 109.5,202.833 109.5,204.167 109.5,205.5C 110.675,205.281 111.675,205.614 112.5,206.5C 111.349,207.731 110.183,207.731 109,206.5C 108.51,207.793 108.343,209.127 108.5,210.5C 107.178,210.67 106.011,210.337 105,209.5C 104.781,210.938 104.281,212.271 103.5,213.5C 102.188,212.54 100.854,212.706 99.5,214C 100.337,215.011 100.67,216.178 100.5,217.5C 99.1266,217.343 97.7932,217.51 96.5,218C 97.4132,219.414 97.4132,220.914 96.5,222.5 Z"/></g>
<g><path style="opacity:1" fill="#faf9fa" d="M 413.5,201.5 C 415.614,202.784 416.614,204.784 416.5,207.5C 417.552,207.351 418.552,207.517 419.5,208C 421.234,210.7 423.568,212.7 426.5,214C 440.467,218.394 454.467,218.56 468.5,214.5C 468.19,220.758 468.524,226.924 469.5,233C 468.584,233.278 467.918,233.778 467.5,234.5C 467.167,234.5 466.833,234.5 466.5,234.5C 465.883,234.611 465.383,234.944 465,235.5C 464.722,234.584 464.222,233.918 463.5,233.5C 462.121,231.403 460.455,231.07 458.5,232.5C 457.833,233.833 457.167,235.167 456.5,236.5C 449.68,235.564 448.68,237.898 453.5,243.5C 451.856,243.714 450.356,243.38 449,242.5C 448.333,244.5 448.333,246.5 449,248.5C 449.383,249.056 449.883,249.389 450.5,249.5C 452.042,250.301 453.708,250.634 455.5,250.5C 456.132,253.362 457.132,256.196 458.5,259C 461.23,259.728 463.897,259.562 466.5,258.5C 467.386,259.325 467.719,260.325 467.5,261.5C 452.552,265.977 437.885,265.144 423.5,259C 421.699,256.936 419.699,255.102 417.5,253.5C 415.852,247.585 414.186,241.585 412.5,235.5C 413.259,224.183 413.593,212.85 413.5,201.5 Z"/></g>
<g><path style="opacity:1" fill="#d068cb" d="M 398.5,216.5 C 399.167,216.5 399.5,216.833 399.5,217.5C 400.48,220.116 401.98,222.449 404,224.5C 405.436,227.143 405.602,229.81 404.5,232.5C 403.094,231.332 401.928,231.665 401,233.5C 398.451,231.069 396.951,228.069 396.5,224.5C 395.167,224.5 393.833,224.5 392.5,224.5C 392.167,223.833 391.833,223.167 391.5,222.5C 389.748,218.773 389.081,214.773 389.5,210.5C 390.552,210.351 391.552,210.517 392.5,211C 394.37,213.04 396.37,214.873 398.5,216.5 Z"/></g>
<g><path style="opacity:1" fill="#3d4346" d="M 279.5,228.5 C 277.833,228.5 276.167,228.5 274.5,228.5C 274.297,230.39 274.963,231.89 276.5,233C 276.167,233.167 275.833,233.333 275.5,233.5C 267.9,227.683 259.567,226.183 250.5,229C 247.4,231.233 246.734,234.066 248.5,237.5C 248.119,240.041 247.286,242.374 246,244.5C 243.628,242.297 241.461,239.963 239.5,237.5C 242.429,233.306 245.095,228.973 247.5,224.5C 250.63,226.023 253.963,226.689 257.5,226.5C 257.374,224.8 256.707,223.3 255.5,222C 255.833,221.5 256.167,221 256.5,220.5C 260.675,223.421 265.009,226.088 269.5,228.5C 272.988,227.295 276.322,227.295 279.5,228.5 Z"/></g>
<g><path style="opacity:1" fill="#f3e9f0" d="M 247.5,224.5 C 245.095,228.973 242.429,233.306 239.5,237.5C 236.112,236.652 233.779,234.652 232.5,231.5C 235.891,225.917 240.891,223.584 247.5,224.5 Z"/></g>
<g><path style="opacity:1" fill="#d099d4" d="M 71.5,219.5 C 71.5,221.5 71.5,223.5 71.5,225.5C 63.451,234.796 53.2843,238.463 41,236.5C 40.3162,235.216 40.4829,234.049 41.5,233C 45.3563,232.823 49.023,232.323 52.5,231.5C 56.4402,231.242 60.1069,230.076 63.5,228C 66.4562,225.217 69.1229,222.384 71.5,219.5 Z"/></g>
<g><path style="opacity:1" fill="#ce76c5" d="M 399.5,217.5 C 404.323,223.147 408.657,229.147 412.5,235.5C 414.186,241.585 415.852,247.585 417.5,253.5C 417.5,258.167 417.5,262.833 417.5,267.5C 417.167,267.5 416.833,267.5 416.5,267.5C 415.833,260.167 415.167,252.833 414.5,245.5C 413.5,245.5 412.5,245.5 411.5,245.5C 411.813,242.753 411.48,240.086 410.5,237.5C 409.205,236.902 407.872,236.402 406.5,236C 407.833,235.333 407.833,234.667 406.5,234C 405.552,233.517 404.552,233.351 403.5,233.5C 403.579,234.93 403.246,236.264 402.5,237.5C 404.98,240.361 405.98,243.694 405.5,247.5C 402.502,239.18 398.168,231.513 392.5,224.5C 393.833,224.5 395.167,224.5 396.5,224.5C 396.951,228.069 398.451,231.069 401,233.5C 401.928,231.665 403.094,231.332 404.5,232.5C 405.602,229.81 405.436,227.143 404,224.5C 401.98,222.449 400.48,220.116 399.5,217.5 Z"/></g>
<g><path style="opacity:1" fill="#415768" d="M 71.5,225.5 C 71.5,232.833 71.5,240.167 71.5,247.5C 71.5,250.167 71.5,252.833 71.5,255.5C 70.507,263.984 70.1736,272.651 70.5,281.5C 69.8333,281.5 69.5,281.833 69.5,282.5C 69.1667,282.5 68.8333,282.5 68.5,282.5C 68.8256,271.123 68.3256,259.79 67,248.5C 64.7989,246.256 63.2989,243.589 62.5,240.5C 55.0792,240.595 47.7459,239.762 40.5,238C 37.8333,236 37.8333,234 40.5,232C 44.4862,231.501 48.4862,231.334 52.5,231.5C 49.023,232.323 45.3563,232.823 41.5,233C 40.4829,234.049 40.3162,235.216 41,236.5C 53.2843,238.463 63.451,234.796 71.5,225.5 Z"/></g>
<g><path style="opacity:1" fill="#ca71c4" d="M 463.5,233.5 C 463.5,235.5 463.5,237.5 463.5,239.5C 459.197,239.265 457.53,236.931 458.5,232.5C 460.455,231.07 462.121,231.403 463.5,233.5 Z"/></g>
<g><path style="opacity:1" fill="#cd7dc7" d="M 456.5,236.5 C 457.219,238.764 457.552,241.097 457.5,243.5C 456.167,243.5 454.833,243.5 453.5,243.5C 448.68,237.898 449.68,235.564 456.5,236.5 Z"/></g>
<g><path style="opacity:1" fill="#bf72b9" d="M 466.5,234.5 C 466.833,234.5 467.167,234.5 467.5,234.5C 471.353,235.562 472.353,237.895 470.5,241.5C 465.549,241.47 464.216,239.137 466.5,234.5 Z"/></g>
<g><path style="opacity:1" fill="#fceefa" d="M 99.5,220.5 C 99.297,222.638 98.297,224.305 96.5,225.5C 99.3687,229.024 102.869,230.69 107,230.5C 106.993,233.373 106.493,236.206 105.5,239C 108.083,241.575 109.75,244.242 110.5,247C 114.094,249.783 115.261,253.283 114,257.5C 117.704,260.977 120.538,264.977 122.5,269.5C 122.421,270.93 122.754,272.264 123.5,273.5C 117.397,273.609 113.73,276.609 112.5,282.5C 111.883,282.611 111.383,282.944 111,283.5C 110.535,282.069 109.701,280.903 108.5,280C 104.833,279.667 101.167,279.333 97.5,279C 93.8748,276.794 92.7081,273.627 94,269.5C 95.023,266.891 96.523,264.557 98.5,262.5C 99.2971,258.158 100.13,253.824 101,249.5C 102.973,247.772 104.806,245.939 106.5,244C 103.984,242.235 101.484,240.402 99,238.5C 98.8142,236.1 98.3142,233.766 97.5,231.5C 96.8165,231.863 96.1499,232.196 95.5,232.5C 95.6567,231.127 95.49,229.793 95,228.5C 85.9804,239.051 82.1471,251.051 83.5,264.5C 83.5,265.167 83.5,265.833 83.5,266.5C 82.8333,266.833 82.1667,267.167 81.5,267.5C 80.0769,252.183 84.0769,238.516 93.5,226.5C 94.5,225.167 95.5,223.833 96.5,222.5C 97.5,221.833 98.5,221.167 99.5,220.5 Z"/></g>
<g><path style="opacity:1" fill="#f3f6f6" d="M 346.5,221.5 C 355.336,225.503 362.503,231.503 368,239.5C 369.466,242.732 370.633,246.065 371.5,249.5C 379.093,243.217 382.259,235.217 381,225.5C 383.512,227.193 385.012,229.526 385.5,232.5C 379.912,250.578 368.579,263.411 351.5,271C 354.292,264.106 355.125,256.939 354,249.5C 352.255,244.265 350.921,238.932 350,233.5C 346.637,237.167 345.637,236.167 347,230.5C 347.772,229.151 348.939,228.318 350.5,228C 349.667,226.5 348.5,225.333 347,224.5C 346.517,223.552 346.351,222.552 346.5,221.5 Z"/></g>
<g><path style="opacity:1" fill="#c573bf" d="M 470.5,243.5 C 473.949,246.259 474.283,249.259 471.5,252.5C 471.756,250.208 471.423,248.041 470.5,246C 467.312,244.684 463.978,244.184 460.5,244.5C 460.421,245.93 460.754,247.264 461.5,248.5C 459.441,249.951 458.441,251.951 458.5,254.5C 462.154,254.058 465.821,253.724 469.5,253.5C 469.5,253.833 469.5,254.167 469.5,254.5C 467.208,255.891 464.708,256.891 462,257.5C 458.929,257.262 457.429,255.596 457.5,252.5C 457.692,249.002 458.692,245.835 460.5,243C 463.8,243.046 467.134,243.212 470.5,243.5 Z"/></g>
<g><path style="opacity:1" fill="#faf9fa" d="M 95.5,232.5 C 93.0147,236.368 93.0147,240.368 95.5,244.5C 93.2908,245.063 91.7908,246.396 91,248.5C 89.3396,251.77 89.0062,255.103 90,258.5C 87.9633,260.706 85.7966,262.706 83.5,264.5C 82.1471,251.051 85.9804,239.051 95,228.5C 95.49,229.793 95.6567,231.127 95.5,232.5 Z"/></g>
<g><path style="opacity:1" fill="#c879c3" d="M 455.5,250.5 C 453.708,250.634 452.042,250.301 450.5,249.5C 449.962,247.883 449.629,246.216 449.5,244.5C 454.738,243.733 456.738,245.733 455.5,250.5 Z"/></g>
<g><path style="opacity:1" fill="#cd66c8" d="M 471.5,252.5 C 471.158,253.338 470.492,253.672 469.5,253.5C 465.821,253.724 462.154,254.058 458.5,254.5C 458.441,251.951 459.441,249.951 461.5,248.5C 460.754,247.264 460.421,245.93 460.5,244.5C 463.978,244.184 467.312,244.684 470.5,246C 471.423,248.041 471.756,250.208 471.5,252.5 Z"/></g>
<g><path style="opacity:1" fill="#efcbeb" d="M 481.5,251.5 C 481.5,262.167 481.5,272.833 481.5,283.5C 481.304,289.953 480.304,296.287 478.5,302.5C 472.683,305.822 466.516,308.488 460,310.5C 452.86,311.369 445.694,311.702 438.5,311.5C 436.708,310.691 434.708,310.191 432.5,310C 431.663,308.989 431.33,307.822 431.5,306.5C 440.722,307.625 449.388,306.125 457.5,302C 460.022,299.644 462.688,297.477 465.5,295.5C 466.79,293.343 467.624,291.01 468,288.5C 468.5,279.173 468.666,269.839 468.5,260.5C 472.269,256.764 476.602,253.764 481.5,251.5 Z"/></g>
<g><path style="opacity:1" fill="#f7e2f5" d="M 458.5,232.5 C 457.53,236.931 459.197,239.265 463.5,239.5C 463.5,237.5 463.5,235.5 463.5,233.5C 464.222,233.918 464.722,234.584 465,235.5C 465.383,234.944 465.883,234.611 466.5,234.5C 464.216,239.137 465.549,241.47 470.5,241.5C 470.5,242.167 470.5,242.833 470.5,243.5C 467.134,243.212 463.8,243.046 460.5,243C 458.692,245.835 457.692,249.002 457.5,252.5C 457.429,255.596 458.929,257.262 462,257.5C 464.708,256.891 467.208,255.891 469.5,254.5C 468.659,256.379 468.325,258.379 468.5,260.5C 468.666,269.839 468.5,279.173 468,288.5C 467.624,291.01 466.79,293.343 465.5,295.5C 462.688,297.477 460.022,299.644 457.5,302C 449.388,306.125 440.722,307.625 431.5,306.5C 431.33,307.822 431.663,308.989 432.5,310C 434.708,310.191 436.708,310.691 438.5,311.5C 433.579,311.558 428.912,310.558 424.5,308.5C 423.548,306.955 423.215,305.288 423.5,303.5C 422.167,303.5 420.833,303.5 419.5,303.5C 418.759,306.634 417.759,309.634 416.5,312.5C 416.663,314.857 416.497,317.19 416,319.5C 415.251,322.503 414.085,325.169 412.5,327.5C 417.05,307.784 418.717,287.784 417.5,267.5C 417.5,262.833 417.5,258.167 417.5,253.5C 419.699,255.102 421.699,256.936 423.5,259C 437.885,265.144 452.552,265.977 467.5,261.5C 467.719,260.325 467.386,259.325 466.5,258.5C 463.897,259.562 461.23,259.728 458.5,259C 457.132,256.196 456.132,253.362 455.5,250.5C 456.738,245.733 454.738,243.733 449.5,244.5C 449.629,246.216 449.962,247.883 450.5,249.5C 449.883,249.389 449.383,249.056 449,248.5C 448.333,246.5 448.333,244.5 449,242.5C 450.356,243.38 451.856,243.714 453.5,243.5C 454.833,243.5 456.167,243.5 457.5,243.5C 457.552,241.097 457.219,238.764 456.5,236.5C 457.167,235.167 457.833,233.833 458.5,232.5 Z"/></g>
<g><path style="opacity:1" fill="#f9eef9" d="M 388.5,220.5 C 389.5,221.167 390.5,221.833 391.5,222.5C 391.833,223.167 392.167,223.833 392.5,224.5C 398.168,231.513 402.502,239.18 405.5,247.5C 405.5,247.833 405.5,248.167 405.5,248.5C 406.08,252.81 406.414,257.143 406.5,261.5C 403.692,261.031 401.358,259.697 399.5,257.5C 401.447,253.364 401.947,249.03 401,244.5C 400.241,242.365 398.741,241.032 396.5,240.5C 396.001,236.803 394.667,233.469 392.5,230.5C 392.374,235.946 390.707,240.78 387.5,245C 393.01,249.52 394.01,255.02 390.5,261.5C 391.267,263.357 392.267,265.024 393.5,266.5C 396.475,272.395 394.809,276.561 388.5,279C 384.841,280.255 381.341,281.755 378,283.5C 377.502,280.183 377.335,276.85 377.5,273.5C 377.337,271.143 377.503,268.81 378,266.5C 381.198,257.239 384.198,247.906 387,238.5C 388.072,232.545 388.572,226.545 388.5,220.5 Z"/></g>
<g><path style="opacity:1" fill="#eec6ea" d="M 405.5,248.5 C 406.991,251.186 407.657,254.186 407.5,257.5C 406.941,263.187 406.274,268.854 405.5,274.5C 403.376,280.081 400.71,285.414 397.5,290.5C 397.5,289.833 397.5,289.167 397.5,288.5C 397.703,286.61 397.037,285.11 395.5,284C 393.212,283.178 390.878,282.511 388.5,282C 390.348,279.821 392.515,277.987 395,276.5C 396.318,273.594 396.652,270.594 396,267.5C 395.329,266.748 394.496,266.414 393.5,266.5C 392.267,265.024 391.267,263.357 390.5,261.5C 394.01,255.02 393.01,249.52 387.5,245C 390.707,240.78 392.374,235.946 392.5,230.5C 394.667,233.469 396.001,236.803 396.5,240.5C 398.741,241.032 400.241,242.365 401,244.5C 401.947,249.03 401.447,253.364 399.5,257.5C 401.358,259.697 403.692,261.031 406.5,261.5C 406.414,257.143 406.08,252.81 405.5,248.5 Z"/></g>
<g><path style="opacity:1" fill="#edccea" d="M 112.5,282.5 C 113.234,283.708 113.567,285.041 113.5,286.5C 113.789,290.106 113.456,293.606 112.5,297C 108.971,297.622 105.471,297.455 102,296.5C 99.6485,296.414 98.1485,297.414 97.5,299.5C 96.8333,299.5 96.5,299.167 96.5,298.5C 96.33,297.178 96.6634,296.011 97.5,295C 101.155,294.359 104.655,294.859 108,296.5C 108.833,296.167 109.667,295.833 110.5,295.5C 109.892,293.316 110.559,291.316 112.5,289.5C 109.795,287.293 107.629,284.626 106,281.5C 100.994,283.336 96.9941,282.003 94,277.5C 93.6396,281.253 92.3063,284.586 90,287.5C 89.2989,284.072 89.6323,280.738 91,277.5C 91.6543,278.696 92.1543,278.696 92.5,277.5C 91.6102,276.289 91.6102,274.955 92.5,273.5C 91.9628,272.259 91.2961,271.092 90.5,270C 92.0268,265.777 94.1934,261.944 97,258.5C 96.8277,253.651 98.3277,249.484 101.5,246C 100.347,244.117 98.6807,243.284 96.5,243.5C 96.8034,246.588 95.4701,248.254 92.5,248.5C 92.3184,250.591 92.6518,252.591 93.5,254.5C 91.8517,257.429 90.3517,260.429 89,263.5C 87.4167,264.971 85.5834,265.971 83.5,266.5C 83.5,265.833 83.5,265.167 83.5,264.5C 85.7966,262.706 87.9633,260.706 90,258.5C 89.0062,255.103 89.3396,251.77 91,248.5C 91.7908,246.396 93.2908,245.063 95.5,244.5C 93.0147,240.368 93.0147,236.368 95.5,232.5C 96.1499,232.196 96.8165,231.863 97.5,231.5C 98.3142,233.766 98.8142,236.1 99,238.5C 101.484,240.402 103.984,242.235 106.5,244C 104.806,245.939 102.973,247.772 101,249.5C 100.13,253.824 99.2971,258.158 98.5,262.5C 96.523,264.557 95.023,266.891 94,269.5C 92.7081,273.627 93.8748,276.794 97.5,279C 101.167,279.333 104.833,279.667 108.5,280C 109.701,280.903 110.535,282.069 111,283.5C 111.383,282.944 111.883,282.611 112.5,282.5 Z"/></g>
<g><path style="opacity:1" fill="#93478f" d="M 71.5,255.5 C 70.2422,269.891 73.4089,283.225 81,295.5C 95.2932,315.419 113.793,330.253 136.5,340C 199.045,365.149 262.711,368.149 327.5,349C 357.106,340.12 382.272,324.286 403,301.5C 410.137,291.265 414.637,279.932 416.5,267.5C 416.833,267.5 417.167,267.5 417.5,267.5C 418.717,287.784 417.05,307.784 412.5,327.5C 411.129,329.936 410.129,332.603 409.5,335.5C 408.5,335.5 407.5,335.5 406.5,335.5C 406.5,336.5 406.5,337.5 406.5,338.5C 401.957,337.659 398.29,338.992 395.5,342.5C 394.215,345.021 393.548,347.687 393.5,350.5C 389.818,350.335 386.152,350.501 382.5,351C 380.826,352.506 379.826,354.339 379.5,356.5C 378.325,356.281 377.325,356.614 376.5,357.5C 375.271,361.903 373.938,366.236 372.5,370.5C 372.167,370.5 371.833,370.5 371.5,370.5C 367.776,370.05 365.609,371.717 365,375.5C 364.502,378.817 364.335,382.15 364.5,385.5C 359.071,385.393 356.738,388.06 357.5,393.5C 355.473,393.338 353.473,393.505 351.5,394C 350.62,395.356 350.286,396.856 350.5,398.5C 347.888,399.277 346.055,400.944 345,403.5C 342.175,401.916 340.008,402.582 338.5,405.5C 335.444,406.196 332.444,407.03 329.5,408C 328.833,409.333 328.167,410.667 327.5,412C 319.48,414.825 311.48,417.325 303.5,419.5C 298.508,420.165 293.508,420.831 288.5,421.5C 285.02,421.418 281.687,420.752 278.5,419.5C 278.872,416.077 277.539,413.577 274.5,412C 271.081,411.752 267.747,411.252 264.5,410.5C 261.292,404.569 256.292,402.403 249.5,404C 245.5,406 242.5,409 240.5,413C 235.637,414.06 232.637,416.894 231.5,421.5C 228.058,420.828 225.391,421.828 223.5,424.5C 202.695,423.272 182.362,419.605 162.5,413.5C 158.5,411.446 155.166,408.612 152.5,405C 153.579,404.044 154.745,403.211 156,402.5C 155.534,399.053 153.368,397.22 149.5,397C 147.959,395.629 146.625,394.129 145.5,392.5C 142.915,391.998 140.582,390.831 138.5,389C 135.167,388.667 131.833,388.333 128.5,388C 126.991,386.076 124.991,384.909 122.5,384.5C 121.17,379.668 119.17,375.168 116.5,371C 112.533,370.997 108.866,370.164 105.5,368.5C 103.815,366.182 101.481,365.182 98.5,365.5C 98.8,355.217 95.1333,346.717 87.5,340C 84.6883,338.451 81.6883,337.618 78.5,337.5C 78.233,335.035 77.5664,332.701 76.5,330.5C 71.8841,314.518 69.8841,298.184 70.5,281.5C 70.1736,272.651 70.507,263.984 71.5,255.5 Z"/></g>
<g><path style="opacity:0.999" fill="#f4f4f4" d="M 486.5,304.5 C 496.194,331.489 493.361,357.155 478,381.5C 467.876,396.624 455.376,409.458 440.5,420C 438.859,421.129 437.859,422.629 437.5,424.5C 436.797,422.371 435.797,420.371 434.5,418.5C 434.068,417.29 433.401,416.29 432.5,415.5C 433.01,409.928 432.177,404.595 430,399.5C 429.667,399.833 429.333,400.167 429,400.5C 428.024,398.113 426.191,396.946 423.5,397C 422.809,395.933 422.309,394.766 422,393.5C 421.261,394.574 420.261,395.241 419,395.5C 416.815,394.242 414.648,394.242 412.5,395.5C 411.167,394.5 409.833,393.5 408.5,392.5C 407.719,393.729 407.219,395.062 407,396.5C 406.333,395.833 405.667,395.167 405,394.5C 403.004,394.996 401.337,395.996 400,397.5C 399.586,397.043 399.086,396.709 398.5,396.5C 397.15,397.95 395.484,398.617 393.5,398.5C 392.842,397.602 392.176,396.602 391.5,395.5C 386.712,392.365 381.712,389.698 376.5,387.5C 371.462,388.017 367.795,390.517 365.5,395C 363.527,395.495 361.527,395.662 359.5,395.5C 359.43,391.07 361.597,388.737 366,388.5C 366.499,384.848 366.665,381.182 366.5,377.5C 367.044,374.3 368.71,371.967 371.5,370.5C 371.833,370.5 372.167,370.5 372.5,370.5C 373.833,370.5 375.167,370.5 376.5,370.5C 375.909,365.436 376.909,360.769 379.5,356.5C 383.706,352.654 388.706,350.987 394.5,351.5C 395.604,344.064 399.937,340.064 407.5,339.5C 408.18,338.14 408.847,336.807 409.5,335.5C 410.129,332.603 411.129,329.936 412.5,327.5C 414.085,325.169 415.251,322.503 416,319.5C 416.497,317.19 416.663,314.857 416.5,312.5C 438.65,323.844 460.317,323.011 481.5,310C 483.402,308.27 485.069,306.437 486.5,304.5 Z"/></g>
<g><path style="opacity:1" fill="#e1e1e1" d="M 68.5,282.5 C 68.8333,282.5 69.1667,282.5 69.5,282.5C 69.2483,291.873 69.5817,301.207 70.5,310.5C 53.5476,319.415 36.5476,319.581 19.5,311C 16.594,308.931 14.2607,306.431 12.5,303.5C 9.5115,294.812 12.1782,288.479 20.5,284.5C 22.0269,284.427 23.0269,285.094 23.5,286.5C 20.9399,294.229 22.6066,300.896 28.5,306.5C 31.0865,307.48 33.7531,307.813 36.5,307.5C 44.5146,308.292 52.1813,307.125 59.5,304C 64.0964,299.516 65.763,294.016 64.5,287.5C 64.5,287.167 64.5,286.833 64.5,286.5C 66.1392,285.527 67.4726,284.194 68.5,282.5 Z"/></g>
<g><path style="opacity:1" fill="#c969c4" d="M 24.5,287.5 C 26.1667,287.5 27.8333,287.5 29.5,287.5C 29.6107,288.117 29.944,288.617 30.5,289C 42.0019,291.322 53.3352,290.822 64.5,287.5C 65.763,294.016 64.0964,299.516 59.5,304C 52.1813,307.125 44.5146,308.292 36.5,307.5C 32.4978,306.071 28.9978,303.738 26,300.5C 24.6326,296.3 24.1326,291.967 24.5,287.5 Z"/></g>
<g><path style="opacity:1" fill="#e9cce7" d="M 23.5,286.5 C 24.1667,286.5 24.5,286.833 24.5,287.5C 24.1326,291.967 24.6326,296.3 26,300.5C 28.9978,303.738 32.4978,306.071 36.5,307.5C 33.7531,307.813 31.0865,307.48 28.5,306.5C 22.6066,300.896 20.9399,294.229 23.5,286.5 Z"/></g>
<g><path style="opacity:1" fill="#4f5270" d="M 64.5,286.5 C 64.5,286.833 64.5,287.167 64.5,287.5C 53.3352,290.822 42.0019,291.322 30.5,289C 29.944,288.617 29.6107,288.117 29.5,287.5C 41.121,289.996 52.7876,289.663 64.5,286.5 Z"/></g>
<g><path style="opacity:1" fill="#e2e0e2" d="M 481.5,283.5 C 488.58,289.245 490.246,296.245 486.5,304.5C 485.069,306.437 483.402,308.27 481.5,310C 460.317,323.011 438.65,323.844 416.5,312.5C 417.759,309.634 418.759,306.634 419.5,303.5C 420.833,303.5 422.167,303.5 423.5,303.5C 423.215,305.288 423.548,306.955 424.5,308.5C 428.912,310.558 433.579,311.558 438.5,311.5C 445.694,311.702 452.86,311.369 460,310.5C 466.516,308.488 472.683,305.822 478.5,302.5C 480.304,296.287 481.304,289.953 481.5,283.5 Z"/></g>
<g><path style="opacity:1" fill="#ecd5ec" d="M 70.5,281.5 C 69.8841,298.184 71.8841,314.518 76.5,330.5C 75.5028,330.53 74.8361,330.03 74.5,329C 72.1026,323.047 70.7693,316.881 70.5,310.5C 69.5817,301.207 69.2483,291.873 69.5,282.5C 69.5,281.833 69.8333,281.5 70.5,281.5 Z"/></g>
<g><path style="opacity:1" fill="#8b5589" d="M 409.5,335.5 C 408.847,336.807 408.18,338.14 407.5,339.5C 399.937,340.064 395.604,344.064 394.5,351.5C 388.706,350.987 383.706,352.654 379.5,356.5C 379.826,354.339 380.826,352.506 382.5,351C 386.152,350.501 389.818,350.335 393.5,350.5C 393.548,347.687 394.215,345.021 395.5,342.5C 398.29,338.992 401.957,337.659 406.5,338.5C 406.5,337.5 406.5,336.5 406.5,335.5C 407.5,335.5 408.5,335.5 409.5,335.5 Z"/></g>
<g><path style="opacity:1" fill="#f4f4f4" d="M 12.5,303.5 C 14.2607,306.431 16.594,308.931 19.5,311C 36.5476,319.581 53.5476,319.415 70.5,310.5C 70.7693,316.881 72.1026,323.047 74.5,329C 74.8361,330.03 75.5028,330.53 76.5,330.5C 77.5664,332.701 78.233,335.035 78.5,337.5C 81.6883,337.618 84.6883,338.451 87.5,340C 95.1333,346.717 98.8,355.217 98.5,365.5C 101.481,365.182 103.815,366.182 105.5,368.5C 105.5,369.5 105.5,370.5 105.5,371.5C 114.5,371.833 119.167,376.5 119.5,385.5C 123.248,385.694 125.915,387.361 127.5,390.5C 128.179,392.814 129.512,393.147 131.5,391.5C 135.724,394.197 140.391,395.197 145.5,394.5C 145.5,395.833 145.5,397.167 145.5,398.5C 144.07,398.579 142.736,398.246 141.5,397.5C 140.059,398.304 138.559,398.971 137,399.5C 134.02,397.753 130.853,397.253 127.5,398C 125.49,400.517 122.823,402.017 119.5,402.5C 118.5,403.833 117.5,405.167 116.5,406.5C 112.456,403.479 108.123,400.979 103.5,399C 96.5,398.333 89.5,398.333 82.5,399C 80.4641,401.935 77.6308,403.435 74,403.5C 68.1634,402.554 62.3301,401.554 56.5,400.5C 53.6564,402.103 50.6564,402.603 47.5,402C 46.5697,400.806 45.9031,399.473 45.5,398C 47.1821,396.105 47.6821,393.938 47,391.5C 41.5407,401.214 44.374,404.881 55.5,402.5C 59.245,404.354 63.0783,404.687 67,403.5C 68.8916,403.777 70.2249,404.777 71,406.5C 74.261,405.87 77.4277,404.87 80.5,403.5C 79.7372,410.843 82.4039,416.343 88.5,420C 89.448,420.483 90.448,420.649 91.5,420.5C 97.3328,422.244 102.333,425.244 106.5,429.5C 106.5,430.5 106.5,431.5 106.5,432.5C 104.5,432.5 102.5,432.5 100.5,432.5C 99.391,432.443 98.391,432.11 97.5,431.5C 92.6281,431.397 88.9614,429.23 86.5,425C 77.4998,420.24 68.1665,419.407 58.5,422.5C 58.1412,420.629 57.1412,419.129 55.5,418C 25.742,397.493 9.4087,369.16 6.5,333C 7.05497,322.827 9.05497,312.994 12.5,303.5 Z"/></g>
<g><path style="opacity:1" fill="#cf6ac9" d="M 101.5,204.5 C 97.5644,208.938 93.3978,213.271 89,217.5C 87.9914,219.025 87.4914,220.692 87.5,222.5C 88.552,222.351 89.552,222.517 90.5,223C 89.2172,226.048 87.5505,226.215 85.5,223.5C 85.1667,224 84.8333,224.5 84.5,225C 85.4808,228.07 86.1475,230.903 86.5,233.5C 87.3267,231.838 88.4933,230.505 90,229.5C 90.4828,228.552 90.6495,227.552 90.5,226.5C 91.5,226.5 92.5,226.5 93.5,226.5C 84.0769,238.516 80.0769,252.183 81.5,267.5C 83.0307,279.56 88.0307,289.894 96.5,298.5C 96.5,299.167 96.8333,299.5 97.5,299.5C 100.833,303.5 104.5,307.167 108.5,310.5C 108.833,311.5 109.5,312.167 110.5,312.5C 110.369,313.239 110.536,313.906 111,314.5C 115.458,317.29 119.292,320.79 122.5,325C 126.849,326.179 131.183,327.346 135.5,328.5C 158.732,338.687 182.732,345.687 207.5,349.5C 210.023,350.384 212.69,351.218 215.5,352C 233.833,352.667 252.167,352.667 270.5,352C 278.976,350.57 287.309,348.737 295.5,346.5C 305.984,343.879 316.65,341.212 327.5,338.5C 334.805,337.182 341.472,334.515 347.5,330.5C 357.652,325.593 367.318,319.927 376.5,313.5C 380.056,311.443 383.723,309.61 387.5,308C 390.21,302.455 393.876,297.622 398.5,293.5C 402.362,287.671 404.695,281.337 405.5,274.5C 406.274,268.854 406.941,263.187 407.5,257.5C 407.657,254.186 406.991,251.186 405.5,248.5C 405.5,248.167 405.5,247.833 405.5,247.5C 405.98,243.694 404.98,240.361 402.5,237.5C 403.246,236.264 403.579,234.93 403.5,233.5C 404.552,233.351 405.552,233.517 406.5,234C 407.833,234.667 407.833,235.333 406.5,236C 407.872,236.402 409.205,236.902 410.5,237.5C 411.48,240.086 411.813,242.753 411.5,245.5C 412.5,245.5 413.5,245.5 414.5,245.5C 415.167,252.833 415.833,260.167 416.5,267.5C 414.637,279.932 410.137,291.265 403,301.5C 382.272,324.286 357.106,340.12 327.5,349C 262.711,368.149 199.045,365.149 136.5,340C 113.793,330.253 95.2932,315.419 81,295.5C 73.4089,283.225 70.2422,269.891 71.5,255.5C 71.5,252.833 71.5,250.167 71.5,247.5C 76.8046,229.891 86.8046,215.557 101.5,204.5 Z"/></g>
<g><path style="opacity:1" fill="#cd88c9" d="M 347.5,330.5 C 341.472,334.515 334.805,337.182 327.5,338.5C 328.167,337.833 328.833,337.167 329.5,336.5C 335.562,334.702 341.562,332.702 347.5,330.5 Z"/></g>
<g><path style="opacity:1" fill="#cc75c3" d="M 110.5,312.5 C 118.361,318.596 126.694,323.929 135.5,328.5C 131.183,327.346 126.849,326.179 122.5,325C 119.292,320.79 115.458,317.29 111,314.5C 110.536,313.906 110.369,313.239 110.5,312.5 Z"/></g>
<g><path style="opacity:1" fill="#fceffb" d="M 377.5,311.5 C 377.167,312.167 376.833,312.833 376.5,313.5C 367.318,319.927 357.652,325.593 347.5,330.5C 341.562,332.702 335.562,334.702 329.5,336.5C 332.899,334.962 336.233,333.129 339.5,331C 337.342,329.688 337.009,328.022 338.5,326C 335.888,325.361 333.554,324.194 331.5,322.5C 334.784,321.343 338.118,321.176 341.5,322C 341.727,323.135 342.06,324.302 342.5,325.5C 345.999,323.423 349.332,323.423 352.5,325.5C 354.332,324.752 355.999,323.752 357.5,322.5C 356.5,321.667 355.5,320.833 354.5,320C 357.181,315.997 360.848,313.497 365.5,312.5C 367.593,312.486 369.426,313.152 371,314.5C 372.87,312.781 375.037,311.781 377.5,311.5 Z"/></g>
<g><path style="opacity:1" fill="#edd3e6" d="M 230.5,264.5 C 235.37,266.049 237.37,269.383 236.5,274.5C 242.112,272.601 247.112,273.601 251.5,277.5C 252.219,279.764 252.552,282.097 252.5,284.5C 255.786,283.793 259.119,283.46 262.5,283.5C 264.649,286.334 265.649,286.001 265.5,282.5C 266.457,285.023 267.79,287.357 269.5,289.5C 271.911,288.639 273.911,287.306 275.5,285.5C 278.075,286.787 280.741,288.121 283.5,289.5C 284.782,287.821 285.782,285.987 286.5,284C 288.628,283.345 290.628,282.511 292.5,281.5C 295.883,281.257 299.049,281.924 302,283.5C 304.028,280.308 306.528,277.641 309.5,275.5C 312.495,275.706 315.162,275.04 317.5,273.5C 322.821,274.994 326.821,278.161 329.5,283C 333.883,282.004 338.216,282.337 342.5,284C 345,285.167 346.833,287 348,289.5C 351.221,285.057 355.555,282.723 361,282.5C 366.08,282.86 370.58,284.36 374.5,287C 375,286.5 375.5,286 376,285.5C 376.176,281.312 376.676,277.312 377.5,273.5C 377.335,276.85 377.502,280.183 378,283.5C 381.341,281.755 384.841,280.255 388.5,279C 394.809,276.561 396.475,272.395 393.5,266.5C 394.496,266.414 395.329,266.748 396,267.5C 396.652,270.594 396.318,273.594 395,276.5C 392.515,277.987 390.348,279.821 388.5,282C 390.878,282.511 393.212,283.178 395.5,284C 397.037,285.11 397.703,286.61 397.5,288.5C 389.068,284.104 381.068,284.77 373.5,290.5C 370.985,288.838 368.318,287.338 365.5,286C 363.19,285.503 360.857,285.337 358.5,285.5C 357.448,285.351 356.448,285.517 355.5,286C 352.887,288.088 350.387,290.254 348,292.5C 345.682,289.752 342.849,287.586 339.5,286C 335.303,285.511 331.303,285.845 327.5,287C 326.647,282.208 323.981,279.041 319.5,277.5C 316.351,277.211 313.351,277.711 310.5,279C 307.336,281.208 304.502,283.708 302,286.5C 297.091,283.552 292.425,283.885 288,287.5C 288.921,292.898 286.754,295.231 281.5,294.5C 281.625,291.107 279.958,289.774 276.5,290.5C 275.167,290.833 273.833,291.167 272.5,291.5C 271.616,293.942 269.949,294.775 267.5,294C 266.726,289.392 264.059,286.559 259.5,285.5C 256.436,287.298 253.103,288.298 249.5,288.5C 249.665,285.482 249.498,282.482 249,279.5C 247.316,277.934 245.316,276.934 243,276.5C 239.895,277.367 236.728,277.701 233.5,277.5C 234.361,267.029 230.028,264.029 220.5,268.5C 220.5,267.5 220.5,266.5 220.5,265.5C 223.786,264.793 227.119,264.46 230.5,264.5 Z"/></g>
<g><path style="opacity:1" fill="#fbf1fa" d="M 116.5,281.5 C 117.605,283.153 117.771,284.82 117,286.5C 118.916,288.209 121.082,289.543 123.5,290.5C 124.773,296.632 128.273,298.632 134,296.5C 136.392,298.779 139.225,300.113 142.5,300.5C 144.823,299.624 147.157,299.124 149.5,299C 144.694,305.74 138.528,307.24 131,303.5C 127.342,308.167 122.842,309.334 117.5,307C 116.299,306.097 115.465,304.931 115,303.5C 114.15,304.424 113.15,304.424 112,303.5C 110.24,304.63 108.407,305.63 106.5,306.5C 107.63,307.622 108.297,308.956 108.5,310.5C 104.5,307.167 100.833,303.5 97.5,299.5C 98.1485,297.414 99.6485,296.414 102,296.5C 105.471,297.455 108.971,297.622 112.5,297C 113.456,293.606 113.789,290.106 113.5,286.5C 114.313,284.739 115.313,283.072 116.5,281.5 Z"/></g>
<g><path style="opacity:1" fill="#ca76c3" d="M 405.5,274.5 C 404.695,281.337 402.362,287.671 398.5,293.5C 393.876,297.622 390.21,302.455 387.5,308C 383.723,309.61 380.056,311.443 376.5,313.5C 376.833,312.833 377.167,312.167 377.5,311.5C 385.544,305.79 392.21,298.79 397.5,290.5C 400.71,285.414 403.376,280.081 405.5,274.5 Z"/></g>
<g><path style="opacity:1" fill="#fbf0fa" d="M 319.5,277.5 C 323.981,279.041 326.647,282.208 327.5,287C 331.303,285.845 335.303,285.511 339.5,286C 342.849,287.586 345.682,289.752 348,292.5C 350.387,290.254 352.887,288.088 355.5,286C 356.448,285.517 357.448,285.351 358.5,285.5C 355.127,288.915 352.794,292.915 351.5,297.5C 347.989,296.411 344.489,296.411 341,297.5C 339.049,296.715 337.215,295.715 335.5,294.5C 333.684,295.815 332.017,297.315 330.5,299C 329.551,299.617 328.718,299.451 328,298.5C 327.332,302.499 325.165,305.332 321.5,307C 315.5,306.333 309.5,306.333 303.5,307C 302.289,306.107 302.289,305.274 303.5,304.5C 308.496,301.832 313.662,299.499 319,297.5C 319.148,292.464 319.981,287.631 321.5,283C 321.605,280.822 320.939,278.988 319.5,277.5 Z"/></g>
<g><path style="opacity:1" fill="#e7a191" d="M 253.5,254.5 C 255.81,257.102 257.643,260.102 259,263.5C 260.397,268.304 261.897,272.97 263.5,277.5C 262.539,279.265 262.205,281.265 262.5,283.5C 259.119,283.46 255.786,283.793 252.5,284.5C 252.552,282.097 252.219,279.764 251.5,277.5C 253.213,278.635 253.88,280.302 253.5,282.5C 255.833,282.5 258.167,282.5 260.5,282.5C 260.75,277.42 260.25,272.42 259,267.5C 256.406,263.433 254.573,259.1 253.5,254.5 Z"/></g>
<g><path style="opacity:1" fill="#f6d4e2" d="M 220.5,265.5 C 215.388,261.982 209.721,260.815 203.5,262C 201.833,264.333 200.167,266.667 198.5,269C 194.953,267.804 191.286,267.137 187.5,267C 184.583,267.662 183.25,269.495 183.5,272.5C 180.678,272.322 178.011,271.655 175.5,270.5C 169.29,270.306 166.79,273.306 168,279.5C 165.536,280.526 163.702,279.692 162.5,277C 155.103,274.575 150.269,277.075 148,284.5C 144.448,285.972 142.782,284.638 143,280.5C 141.915,279.707 140.748,279.04 139.5,278.5C 137.324,280.233 135.157,281.9 133,283.5C 129.662,281.641 126.496,279.641 123.5,277.5C 120.651,278.086 118.318,279.42 116.5,281.5C 115.313,283.072 114.313,284.739 113.5,286.5C 113.567,285.041 113.234,283.708 112.5,282.5C 113.73,276.609 117.397,273.609 123.5,273.5C 122.754,272.264 122.421,270.93 122.5,269.5C 122.5,268.833 122.5,268.167 122.5,267.5C 123.768,269.905 124.435,272.572 124.5,275.5C 127.13,276.428 129.796,277.428 132.5,278.5C 134.915,278.281 135.915,276.948 135.5,274.5C 139.254,275.541 142.92,276.875 146.5,278.5C 147.452,276.955 147.785,275.288 147.5,273.5C 148.265,273.923 149.098,274.257 150,274.5C 155.456,271.498 160.622,271.832 165.5,275.5C 168.004,267.688 173.171,265.354 181,268.5C 184.604,263.672 189.27,262.338 195,264.5C 196.893,263.992 198.393,262.992 199.5,261.5C 205.26,259.481 211.26,258.981 217.5,260C 219.16,261.488 220.16,263.321 220.5,265.5 Z"/></g>
<g><path style="opacity:1" fill="#425b64" d="M 297.5,270.5 C 302.018,271.097 306.018,272.764 309.5,275.5C 306.528,277.641 304.028,280.308 302,283.5C 299.049,281.924 295.883,281.257 292.5,281.5C 293.952,277.605 295.619,273.938 297.5,270.5 Z"/></g>
<g><path style="opacity:1" fill="#f3a18c" d="M 135.5,274.5 C 135.915,276.948 134.915,278.281 132.5,278.5C 129.796,277.428 127.13,276.428 124.5,275.5C 124.435,272.572 123.768,269.905 122.5,267.5C 121.374,266.142 121.374,264.808 122.5,263.5C 125.948,268.287 130.281,271.954 135.5,274.5 Z"/></g>
<g><path style="opacity:1" fill="#eff2f5" d="M 317.5,273.5 C 315.162,275.04 312.495,275.706 309.5,275.5C 306.018,272.764 302.018,271.097 297.5,270.5C 297.5,268.833 297.5,267.167 297.5,265.5C 302.65,263.378 307.983,262.212 313.5,262C 315.217,265.701 316.55,269.534 317.5,273.5 Z"/></g>
<g><path style="opacity:1" fill="#f0c5eb" d="M 96.5,298.5 C 88.0307,289.894 83.0307,279.56 81.5,267.5C 82.1667,267.167 82.8333,266.833 83.5,266.5C 85.5834,265.971 87.4167,264.971 89,263.5C 90.3517,260.429 91.8517,257.429 93.5,254.5C 92.6518,252.591 92.3184,250.591 92.5,248.5C 95.4701,248.254 96.8034,246.588 96.5,243.5C 98.6807,243.284 100.347,244.117 101.5,246C 98.3277,249.484 96.8277,253.651 97,258.5C 94.1934,261.944 92.0268,265.777 90.5,270C 91.2961,271.092 91.9628,272.259 92.5,273.5C 91.6102,274.955 91.6102,276.289 92.5,277.5C 92.1543,278.696 91.6543,278.696 91,277.5C 89.6323,280.738 89.2989,284.072 90,287.5C 92.3063,284.586 93.6396,281.253 94,277.5C 96.9941,282.003 100.994,283.336 106,281.5C 107.629,284.626 109.795,287.293 112.5,289.5C 110.559,291.316 109.892,293.316 110.5,295.5C 109.667,295.833 108.833,296.167 108,296.5C 104.655,294.859 101.155,294.359 97.5,295C 96.6634,296.011 96.33,297.178 96.5,298.5 Z"/></g>
<g><path style="opacity:1" fill="#fefdfe" d="M 220.5,265.5 C 220.5,266.5 220.5,267.5 220.5,268.5C 230.028,264.029 234.361,267.029 233.5,277.5C 236.728,277.701 239.895,277.367 243,276.5C 245.316,276.934 247.316,277.934 249,279.5C 249.498,282.482 249.665,285.482 249.5,288.5C 253.103,288.298 256.436,287.298 259.5,285.5C 264.059,286.559 266.726,289.392 267.5,294C 269.949,294.775 271.616,293.942 272.5,291.5C 273.833,291.167 275.167,290.833 276.5,290.5C 279.958,289.774 281.625,291.107 281.5,294.5C 286.754,295.231 288.921,292.898 288,287.5C 292.425,283.885 297.091,283.552 302,286.5C 304.502,283.708 307.336,281.208 310.5,279C 313.351,277.711 316.351,277.211 319.5,277.5C 320.939,278.988 321.605,280.822 321.5,283C 319.981,287.631 319.148,292.464 319,297.5C 313.662,299.499 308.496,301.832 303.5,304.5C 302.289,305.274 302.289,306.107 303.5,307C 309.5,306.333 315.5,306.333 321.5,307C 325.165,305.332 327.332,302.499 328,298.5C 328.718,299.451 329.551,299.617 330.5,299C 332.017,297.315 333.684,295.815 335.5,294.5C 337.215,295.715 339.049,296.715 341,297.5C 344.489,296.411 347.989,296.411 351.5,297.5C 352.794,292.915 355.127,288.915 358.5,285.5C 360.857,285.337 363.19,285.503 365.5,286C 368.318,287.338 370.985,288.838 373.5,290.5C 381.068,284.77 389.068,284.104 397.5,288.5C 397.5,289.167 397.5,289.833 397.5,290.5C 392.21,298.79 385.544,305.79 377.5,311.5C 375.037,311.781 372.87,312.781 371,314.5C 369.426,313.152 367.593,312.486 365.5,312.5C 360.848,313.497 357.181,315.997 354.5,320C 355.5,320.833 356.5,321.667 357.5,322.5C 355.999,323.752 354.332,324.752 352.5,325.5C 349.332,323.423 345.999,323.423 342.5,325.5C 342.06,324.302 341.727,323.135 341.5,322C 338.118,321.176 334.784,321.343 331.5,322.5C 333.554,324.194 335.888,325.361 338.5,326C 337.009,328.022 337.342,329.688 339.5,331C 336.233,333.129 332.899,334.962 329.5,336.5C 328.833,337.167 328.167,337.833 327.5,338.5C 316.65,341.212 305.984,343.879 295.5,346.5C 266.283,350.498 236.95,351.498 207.5,349.5C 182.732,345.687 158.732,338.687 135.5,328.5C 126.694,323.929 118.361,318.596 110.5,312.5C 109.5,312.167 108.833,311.5 108.5,310.5C 108.297,308.956 107.63,307.622 106.5,306.5C 108.407,305.63 110.24,304.63 112,303.5C 113.15,304.424 114.15,304.424 115,303.5C 115.465,304.931 116.299,306.097 117.5,307C 122.842,309.334 127.342,308.167 131,303.5C 138.528,307.24 144.694,305.74 149.5,299C 147.157,299.124 144.823,299.624 142.5,300.5C 139.225,300.113 136.392,298.779 134,296.5C 128.273,298.632 124.773,296.632 123.5,290.5C 121.082,289.543 118.916,288.209 117,286.5C 117.771,284.82 117.605,283.153 116.5,281.5C 118.318,279.42 120.651,278.086 123.5,277.5C 126.496,279.641 129.662,281.641 133,283.5C 135.157,281.9 137.324,280.233 139.5,278.5C 140.748,279.04 141.915,279.707 143,280.5C 142.782,284.638 144.448,285.972 148,284.5C 150.269,277.075 155.103,274.575 162.5,277C 163.702,279.692 165.536,280.526 168,279.5C 166.79,273.306 169.29,270.306 175.5,270.5C 178.011,271.655 180.678,272.322 183.5,272.5C 183.25,269.495 184.583,267.662 187.5,267C 191.286,267.137 194.953,267.804 198.5,269C 200.167,266.667 201.833,264.333 203.5,262C 209.721,260.815 215.388,261.982 220.5,265.5 Z"/></g>
<g><path style="opacity:1" fill="#fbf2f9" d="M 201.5,316.5 C 206.558,316.698 210.892,318.531 214.5,322C 214,322.5 213.5,323 213,323.5C 206.943,321.682 201.943,323.349 198,328.5C 196.742,334.376 193.242,336.543 187.5,335C 182.371,331.541 177.038,331.041 171.5,333.5C 171.426,327.607 168.759,323.44 163.5,321C 166.021,319.601 168.521,319.101 171,319.5C 173.941,320.935 175.441,323.269 175.5,326.5C 178.203,326.045 180.87,325.378 183.5,324.5C 186.108,324.923 188.442,325.923 190.5,327.5C 193.06,322.699 196.727,319.032 201.5,316.5 Z"/></g>
<g><path style="opacity:1" fill="#faf2f9" d="M 257.5,321.5 C 264.215,321.282 269.715,323.615 274,328.5C 278.031,325.657 282.531,324.324 287.5,324.5C 287.5,326.5 287.5,328.5 287.5,330.5C 281.732,330.607 276.732,332.607 272.5,336.5C 269.19,334.393 266.19,331.893 263.5,329C 258.993,326.998 254.326,325.498 249.5,324.5C 252.184,323.247 254.85,322.247 257.5,321.5 Z"/></g>
<g><path style="opacity:1" fill="#4f5c5d" d="M 263.5,277.5 C 264.441,279.05 265.107,280.716 265.5,282.5C 265.649,286.001 264.649,286.334 262.5,283.5C 262.205,281.265 262.539,279.265 263.5,277.5 Z"/></g>
<g><path style="opacity:1" fill="#f8b9ba" d="M 230.5,264.5 C 227.119,264.46 223.786,264.793 220.5,265.5C 220.16,263.321 219.16,261.488 217.5,260C 211.26,258.981 205.26,259.481 199.5,261.5C 200.343,259.827 201.676,258.66 203.5,258C 207.5,257.333 211.5,257.333 215.5,258C 218.686,258.258 220.686,259.925 221.5,263C 224.695,263.181 227.695,263.681 230.5,264.5 Z"/></g>
<g><path style="opacity:1" fill="#fbf8f6" d="M 275.5,285.5 C 273.911,287.306 271.911,288.639 269.5,289.5C 267.79,287.357 266.457,285.023 265.5,282.5C 265.107,280.716 264.441,279.05 263.5,277.5C 261.897,272.97 260.397,268.304 259,263.5C 257.643,260.102 255.81,257.102 253.5,254.5C 250.173,249.801 251.173,246.468 256.5,244.5C 261.53,246.353 266.53,248.186 271.5,250C 276.374,255.703 277.707,262.203 275.5,269.5C 277.108,270.318 278.775,270.985 280.5,271.5C 281.621,277.137 279.954,281.804 275.5,285.5 Z"/></g>
<g><path style="opacity:1" fill="#cd7fc8" d="M 295.5,346.5 C 287.309,348.737 278.976,350.57 270.5,352C 252.167,352.667 233.833,352.667 215.5,352C 212.69,351.218 210.023,350.384 207.5,349.5C 236.95,351.498 266.283,350.498 295.5,346.5 Z"/></g>
<g><path style="opacity:1" fill="#915d8d" d="M 379.5,356.5 C 376.909,360.769 375.909,365.436 376.5,370.5C 375.167,370.5 373.833,370.5 372.5,370.5C 373.938,366.236 375.271,361.903 376.5,357.5C 377.325,356.614 378.325,356.281 379.5,356.5 Z"/></g>
<g><path style="opacity:1" fill="#8c5186" d="M 371.5,370.5 C 368.71,371.967 367.044,374.3 366.5,377.5C 365.523,380.287 365.19,383.287 365.5,386.5C 360.424,386.673 358.09,389.339 358.5,394.5C 354.693,393.774 352.026,395.107 350.5,398.5C 350.286,396.856 350.62,395.356 351.5,394C 353.473,393.505 355.473,393.338 357.5,393.5C 356.738,388.06 359.071,385.393 364.5,385.5C 364.335,382.15 364.502,378.817 365,375.5C 365.609,371.717 367.776,370.05 371.5,370.5 Z"/></g>
<g><path style="opacity:1" fill="#8c5488" d="M 105.5,368.5 C 108.866,370.164 112.533,370.997 116.5,371C 119.17,375.168 121.17,379.668 122.5,384.5C 124.991,384.909 126.991,386.076 128.5,388C 131.833,388.333 135.167,388.667 138.5,389C 140.582,390.831 142.915,391.998 145.5,392.5C 143.143,392.663 140.81,392.497 138.5,392C 135.395,389.036 132.228,388.87 129,391.5C 128.617,390.944 128.117,390.611 127.5,390.5C 125.915,387.361 123.248,385.694 119.5,385.5C 119.167,376.5 114.5,371.833 105.5,371.5C 105.5,370.5 105.5,369.5 105.5,368.5 Z"/></g>
<g><path style="opacity:1" fill="#dfdfe0" d="M 366.5,377.5 C 366.665,381.182 366.499,384.848 366,388.5C 361.597,388.737 359.43,391.07 359.5,395.5C 361.527,395.662 363.527,395.495 365.5,395C 367.795,390.517 371.462,388.017 376.5,387.5C 381.712,389.698 386.712,392.365 391.5,395.5C 392.176,396.602 392.842,397.602 393.5,398.5C 391.18,399.418 389.013,400.752 387,402.5C 386.586,402.043 386.086,401.709 385.5,401.5C 382.638,404.188 379.472,406.521 376,408.5C 372.841,413.316 371.674,418.649 372.5,424.5C 372.5,425.5 372.5,426.5 372.5,427.5C 372.167,427.5 371.833,427.5 371.5,427.5C 371.5,423.167 371.5,418.833 371.5,414.5C 369.453,414.489 367.453,414.156 365.5,413.5C 360.42,417.359 355.254,417.359 350,413.5C 347.965,414.601 345.798,415.268 343.5,415.5C 338.954,414.015 334.287,413.348 329.5,413.5C 329.286,411.856 329.62,410.356 330.5,409C 335.199,409.279 339.199,407.945 342.5,405C 344.5,404.667 346.5,404.333 348.5,404C 349.337,402.989 349.67,401.822 349.5,400.5C 352.534,398.451 355.534,396.451 358.5,394.5C 358.09,389.339 360.424,386.673 365.5,386.5C 365.19,383.287 365.523,380.287 366.5,377.5 Z"/></g>
<g><path style="opacity:1" fill="#395a64" d="M 432.5,415.5 C 432.167,415.5 431.833,415.5 431.5,415.5C 431.649,414.448 431.483,413.448 431,412.5C 429.95,415.876 428.45,418.876 426.5,421.5C 421.64,422.685 417.64,425.185 414.5,429C 406.605,431.008 398.771,433.175 391,435.5C 386.252,434.806 381.752,433.306 377.5,431C 375.934,428.674 374.268,426.508 372.5,424.5C 371.674,418.649 372.841,413.316 376,408.5C 379.472,406.521 382.638,404.188 385.5,401.5C 386.086,401.709 386.586,402.043 387,402.5C 389.013,400.752 391.18,399.418 393.5,398.5C 395.484,398.617 397.15,397.95 398.5,396.5C 399.086,396.709 399.586,397.043 400,397.5C 401.337,395.996 403.004,394.996 405,394.5C 405.667,395.167 406.333,395.833 407,396.5C 407.219,395.062 407.719,393.729 408.5,392.5C 409.833,393.5 411.167,394.5 412.5,395.5C 414.648,394.242 416.815,394.242 419,395.5C 420.261,395.241 421.261,394.574 422,393.5C 422.309,394.766 422.809,395.933 423.5,397C 426.191,396.946 428.024,398.113 429,400.5C 429.333,400.167 429.667,399.833 430,399.5C 432.177,404.595 433.01,409.928 432.5,415.5 Z"/></g>
<g><path style="opacity:1" fill="#e3e1e4" d="M 145.5,392.5 C 146.625,394.129 147.959,395.629 149.5,397C 153.368,397.22 155.534,399.053 156,402.5C 154.745,403.211 153.579,404.044 152.5,405C 155.166,408.612 158.5,411.446 162.5,413.5C 155.677,412.941 149.177,413.941 143,416.5C 140.474,415.936 137.974,415.269 135.5,414.5C 130.189,414.318 124.855,414.652 119.5,415.5C 119.946,418.01 119.28,420.01 117.5,421.5C 117.5,420.833 117.5,420.167 117.5,419.5C 118.83,416.56 118.663,413.56 117,410.5C 108.564,401.093 98.0644,397.593 85.5,400C 82.8748,402.196 81.8748,405.03 82.5,408.5C 83.9606,413.631 86.9606,417.631 91.5,420.5C 90.448,420.649 89.448,420.483 88.5,420C 82.4039,416.343 79.7372,410.843 80.5,403.5C 77.4277,404.87 74.261,405.87 71,406.5C 70.2249,404.777 68.8916,403.777 67,403.5C 63.0783,404.687 59.245,404.354 55.5,402.5C 44.374,404.881 41.5407,401.214 47,391.5C 47.6821,393.938 47.1821,396.105 45.5,398C 45.9031,399.473 46.5697,400.806 47.5,402C 50.6564,402.603 53.6564,402.103 56.5,400.5C 62.3301,401.554 68.1634,402.554 74,403.5C 77.6308,403.435 80.4641,401.935 82.5,399C 89.5,398.333 96.5,398.333 103.5,399C 108.123,400.979 112.456,403.479 116.5,406.5C 117.5,405.167 118.5,403.833 119.5,402.5C 122.823,402.017 125.49,400.517 127.5,398C 130.853,397.253 134.02,397.753 137,399.5C 138.559,398.971 140.059,398.304 141.5,397.5C 142.736,398.246 144.07,398.579 145.5,398.5C 145.5,397.167 145.5,395.833 145.5,394.5C 140.391,395.197 135.724,394.197 131.5,391.5C 129.512,393.147 128.179,392.814 127.5,390.5C 128.117,390.611 128.617,390.944 129,391.5C 132.228,388.87 135.395,389.036 138.5,392C 140.81,392.497 143.143,392.663 145.5,392.5 Z"/></g>
<g><path style="opacity:1" fill="#3e5a61" d="M 117.5,419.5 C 117.631,418.761 117.464,418.094 117,417.5C 115.587,419.414 113.753,420.747 111.5,421.5C 110.614,422.325 110.281,423.325 110.5,424.5C 108.774,424.815 107.107,424.981 105.5,425C 101.289,420.75 96.2891,417.75 90.5,416C 87.3078,413.972 84.6411,411.472 82.5,408.5C 81.8748,405.03 82.8748,402.196 85.5,400C 98.0644,397.593 108.564,401.093 117,410.5C 118.663,413.56 118.83,416.56 117.5,419.5 Z"/></g>
<g><path style="opacity:1" fill="#20333a" d="M 112.5,414.5 C 106.158,407.601 98.158,404.601 88.5,405.5C 86.9503,402.683 87.9503,401.35 91.5,401.5C 100.275,401.476 107.442,404.809 113,411.5C 113.74,412.749 113.573,413.749 112.5,414.5 Z"/></g>
<g><path style="opacity:1" fill="#ecdaeb" d="M 358.5,394.5 C 355.534,396.451 352.534,398.451 349.5,400.5C 349.67,401.822 349.337,402.989 348.5,404C 346.5,404.333 344.5,404.667 342.5,405C 339.199,407.945 335.199,409.279 330.5,409C 329.62,410.356 329.286,411.856 329.5,413.5C 321.033,416.756 312.367,418.756 303.5,419.5C 311.48,417.325 319.48,414.825 327.5,412C 328.167,410.667 328.833,409.333 329.5,408C 332.444,407.03 335.444,406.196 338.5,405.5C 340.008,402.582 342.175,401.916 345,403.5C 346.055,400.944 347.888,399.277 350.5,398.5C 352.026,395.107 354.693,393.774 358.5,394.5 Z"/></g>
<g><path style="opacity:1" fill="#edf0f1" d="M 88.5,405.5 C 98.158,404.601 106.158,407.601 112.5,414.5C 112.863,416.911 111.863,418.411 109.5,419C 100.636,419.152 93.4695,415.652 88,408.5C 87.5304,407.423 87.6971,406.423 88.5,405.5 Z"/></g>
<g><path style="opacity:0.999" fill="#f4f4f4" d="M 264.5,410.5 C 267.747,411.252 271.081,411.752 274.5,412C 277.539,413.577 278.872,416.077 278.5,419.5C 281.687,420.752 285.02,421.418 288.5,421.5C 293.508,420.831 298.508,420.165 303.5,419.5C 312.367,418.756 321.033,416.756 329.5,413.5C 334.287,413.348 338.954,414.015 343.5,415.5C 345.798,415.268 347.965,414.601 350,413.5C 355.254,417.359 360.42,417.359 365.5,413.5C 367.453,414.156 369.453,414.489 371.5,414.5C 371.5,418.833 371.5,423.167 371.5,427.5C 369.896,428.287 369.229,429.62 369.5,431.5C 368.521,434.625 368.187,437.958 368.5,441.5C 355.552,446.065 342.886,451.232 330.5,457C 326.775,461.416 325.108,466.582 325.5,472.5C 324.566,471.432 324.232,470.099 324.5,468.5C 268.441,476.288 212.608,474.954 157,464.5C 155.93,464.528 155.097,464.861 154.5,465.5C 150.521,462.188 146.854,458.521 143.5,454.5C 144.5,454.167 145.5,453.833 146.5,453.5C 151.847,454.504 157.181,455.504 162.5,456.5C 168.8,457.992 175.134,459.325 181.5,460.5C 181.5,459.5 181.5,458.5 181.5,457.5C 181.5,457.167 181.5,456.833 181.5,456.5C 181.174,454.339 180.174,452.506 178.5,451C 172.895,449.245 167.562,446.911 162.5,444C 156.658,442.283 150.658,440.949 144.5,440C 141.705,438.964 139.038,437.631 136.5,436C 132.221,434.923 127.888,434.09 123.5,433.5C 121.952,431.624 119.952,430.624 117.5,430.5C 114.983,429.107 113.316,427.107 112.5,424.5C 114.332,423.752 115.999,422.752 117.5,421.5C 119.28,420.01 119.946,418.01 119.5,415.5C 124.855,414.652 130.189,414.318 135.5,414.5C 137.974,415.269 140.474,415.936 143,416.5C 149.177,413.941 155.677,412.941 162.5,413.5C 182.362,419.605 202.695,423.272 223.5,424.5C 226.85,424.335 230.183,424.502 233.5,425C 235.676,425.163 237.509,425.996 239,427.5C 239.667,426.5 239.667,425.5 239,424.5C 237.414,423.624 235.914,422.624 234.5,421.5C 236.197,417.584 239.197,415.25 243.5,414.5C 244.167,412.5 244.833,410.5 245.5,408.5C 252.4,404.106 258.733,404.772 264.5,410.5 Z"/></g>
<g><path style="opacity:1" fill="#30454e" d="M 82.5,408.5 C 84.6411,411.472 87.3078,413.972 90.5,416C 96.2891,417.75 101.289,420.75 105.5,425C 107.107,424.981 108.774,424.815 110.5,424.5C 110.281,423.325 110.614,422.325 111.5,421.5C 113.753,420.747 115.587,419.414 117,417.5C 117.464,418.094 117.631,418.761 117.5,419.5C 117.5,420.167 117.5,420.833 117.5,421.5C 115.999,422.752 114.332,423.752 112.5,424.5C 111.18,425.942 109.514,426.608 107.5,426.5C 107.737,427.791 107.404,428.791 106.5,429.5C 102.333,425.244 97.3328,422.244 91.5,420.5C 86.9606,417.631 83.9606,413.631 82.5,408.5 Z"/></g>
<g><path style="opacity:1" fill="#f4e9f4" d="M 264.5,410.5 C 258.733,404.772 252.4,404.106 245.5,408.5C 244.833,410.5 244.167,412.5 243.5,414.5C 239.197,415.25 236.197,417.584 234.5,421.5C 235.914,422.624 237.414,423.624 239,424.5C 239.667,425.5 239.667,426.5 239,427.5C 237.509,425.996 235.676,425.163 233.5,425C 230.183,424.502 226.85,424.335 223.5,424.5C 225.391,421.828 228.058,420.828 231.5,421.5C 232.637,416.894 235.637,414.06 240.5,413C 242.5,409 245.5,406 249.5,404C 256.292,402.403 261.292,404.569 264.5,410.5 Z"/></g>
<g><path style="opacity:1" fill="#dfc3df" d="M 112.5,424.5 C 113.316,427.107 114.983,429.107 117.5,430.5C 119.051,433.402 121.385,435.069 124.5,435.5C 124.167,435.5 123.833,435.5 123.5,435.5C 121.589,436.075 119.922,437.075 118.5,438.5C 118.5,437.5 118.5,436.5 118.5,435.5C 117.5,435.5 116.5,435.5 115.5,435.5C 116.091,434.849 116.757,434.182 117.5,433.5C 115.486,431.155 113.153,429.155 110.5,427.5C 109.534,429.396 109.201,431.396 109.5,433.5C 106.287,433.81 103.287,433.477 100.5,432.5C 102.5,432.5 104.5,432.5 106.5,432.5C 106.5,431.5 106.5,430.5 106.5,429.5C 107.404,428.791 107.737,427.791 107.5,426.5C 109.514,426.608 111.18,425.942 112.5,424.5 Z"/></g>
<g><path style="opacity:1" fill="#3d555e" d="M 97.5,431.5 C 97.4431,432.609 97.1098,433.609 96.5,434.5C 95.596,435.209 95.2627,436.209 95.5,437.5C 93.1256,436.314 90.7922,436.314 88.5,437.5C 79.7774,442.462 70.7774,442.796 61.5,438.5C 60.5836,438.543 59.9169,438.876 59.5,439.5C 57.8621,440.159 56.1955,440.826 54.5,441.5C 52.4501,440.923 51.4501,439.59 51.5,437.5C 53.6648,437.884 55.3315,437.217 56.5,435.5C 54.699,430.667 55.3657,426.334 58.5,422.5C 68.1665,419.407 77.4998,420.24 86.5,425C 88.9614,429.23 92.6281,431.397 97.5,431.5 Z M 70.5,428.5 C 73.3431,429.921 74.6764,431.921 74.5,434.5C 71.4318,434.453 68.4318,433.953 65.5,433C 63.6763,432.34 62.343,431.173 61.5,429.5C 64.3728,427.645 67.3728,427.312 70.5,428.5 Z"/></g>
<g><path style="opacity:0.986" fill="#ebeef0" d="M 70.5,428.5 C 75.466,427.361 80.1327,428.361 84.5,431.5C 84.1193,432.931 83.1193,433.764 81.5,434C 79.1902,434.497 76.8568,434.663 74.5,434.5C 74.6764,431.921 73.3431,429.921 70.5,428.5 Z"/></g>
<g><path style="opacity:1" fill="#22373e" d="M 84.5,431.5 C 80.1327,428.361 75.466,427.361 70.5,428.5C 67.3728,427.312 64.3728,427.645 61.5,429.5C 60.2089,428.458 60.2089,427.292 61.5,426C 69.4728,422.363 77.1395,423.03 84.5,428C 85.7911,429.292 85.7911,430.458 84.5,431.5 Z"/></g>
<g><path style="opacity:1" fill="#92558e" d="M 96.5,434.5 C 99.6548,436.076 102.988,437.076 106.5,437.5C 108.662,438.128 110.328,439.461 111.5,441.5C 106.101,440.366 100.768,439.032 95.5,437.5C 95.2627,436.209 95.596,435.209 96.5,434.5 Z"/></g>
<g><path style="opacity:1" fill="#2c444e" d="M 431.5,415.5 C 432.138,423.391 429.138,429.557 422.5,434C 408.478,443.93 393.478,445.93 377.5,440C 373.205,436.907 371.538,432.74 372.5,427.5C 372.5,426.5 372.5,425.5 372.5,424.5C 374.268,426.508 375.934,428.674 377.5,431C 381.752,433.306 386.252,434.806 391,435.5C 398.771,433.175 406.605,431.008 414.5,429C 417.64,425.185 421.64,422.685 426.5,421.5C 428.45,418.876 429.95,415.876 431,412.5C 431.483,413.448 431.649,414.448 431.5,415.5 Z"/></g>
<g><path style="opacity:0.149" fill="#a6b0b3" d="M 88.5,437.5 C 88.4431,438.609 88.1098,439.609 87.5,440.5C 78.0826,443.273 68.7493,442.94 59.5,439.5C 59.9169,438.876 60.5836,438.543 61.5,438.5C 70.7774,442.796 79.7774,442.462 88.5,437.5 Z"/></g>
<g><path style="opacity:1" fill="#c67fc1" d="M 159.5,472.5 C 159.5,473.5 159.5,474.5 159.5,475.5C 153.647,474.605 148.314,472.438 143.5,469C 132.649,460.309 121.982,451.476 111.5,442.5C 111.5,442.167 111.5,441.833 111.5,441.5C 110.328,439.461 108.662,438.128 106.5,437.5C 107.75,437.423 108.583,436.756 109,435.5C 121.032,447.739 133.866,458.905 147.5,469C 151.307,470.881 155.307,472.047 159.5,472.5 Z"/></g>
<g><path style="opacity:1" fill="#ce6fc7" d="M 432.5,431.5 C 424.843,442.605 414.176,449.105 400.5,451C 393.167,451.333 385.833,451.667 378.5,452C 369.833,458.667 361.167,465.333 352.5,472C 346.541,476.183 340.207,477.35 333.5,475.5C 332.542,474.038 331.376,472.705 330,471.5C 329.251,470.365 329.417,469.365 330.5,468.5C 332.956,469.948 335.622,470.614 338.5,470.5C 343.119,470.236 347.452,469.069 351.5,467C 358.421,461.72 365.088,456.22 371.5,450.5C 377.884,445.418 385.051,444.085 393,446.5C 396.477,446.672 399.644,446.006 402.5,444.5C 408.456,443.57 414.123,441.737 419.5,439C 422.159,435.839 425.325,433.339 429,431.5C 430.861,429.112 432.194,426.446 433,423.5C 433.722,426.261 433.555,428.927 432.5,431.5 Z"/></g>
<g><path style="opacity:1" fill="#fbe9fa" d="M 117.5,430.5 C 119.952,430.624 121.952,431.624 123.5,433.5C 127.888,434.09 132.221,434.923 136.5,436C 139.038,437.631 141.705,438.964 144.5,440C 150.658,440.949 156.658,442.283 162.5,444C 167.562,446.911 172.895,449.245 178.5,451C 180.174,452.506 181.174,454.339 181.5,456.5C 177.369,452.218 172.369,449.385 166.5,448C 153.551,443.683 140.551,439.85 127.5,436.5C 126.391,436.443 125.391,436.11 124.5,435.5C 121.385,435.069 119.051,433.402 117.5,430.5 Z"/></g>
<g><path style="opacity:1" fill="#e5a2e0" d="M 123.5,435.5 C 123.833,435.5 124.167,435.5 124.5,435.5C 125.391,436.11 126.391,436.443 127.5,436.5C 128.903,437.931 130.569,439.098 132.5,440C 141.419,441.396 150.085,443.73 158.5,447C 157.5,447.333 156.5,447.667 155.5,448C 156.833,449 158.167,450 159.5,451C 162.304,451.129 164.97,450.796 167.5,450C 170.167,450.667 170.167,451.333 167.5,452C 170.893,452.798 174.226,453.798 177.5,455C 178.252,455.671 178.586,456.504 178.5,457.5C 163.683,454.118 149.017,450.118 134.5,445.5C 133.893,445.624 133.56,445.957 133.5,446.5C 131.124,443.148 128.124,440.481 124.5,438.5C 123.614,437.675 123.281,436.675 123.5,435.5 Z"/></g>
<g><path style="opacity:1" fill="#eeecee" d="M 95.5,437.5 C 100.768,439.032 106.101,440.366 111.5,441.5C 111.5,441.833 111.5,442.167 111.5,442.5C 114.764,446.431 118.431,450.098 122.5,453.5C 123.386,454.325 123.719,455.325 123.5,456.5C 121.66,454.832 119.66,453.332 117.5,452C 110.961,449.379 104.627,446.379 98.5,443C 94.9855,441.438 91.3189,440.605 87.5,440.5C 88.1098,439.609 88.4431,438.609 88.5,437.5C 90.7922,436.314 93.1256,436.314 95.5,437.5 Z"/></g>
<g><path style="opacity:1" fill="#e2abdc" d="M 127.5,436.5 C 140.551,439.85 153.551,443.683 166.5,448C 172.369,449.385 177.369,452.218 181.5,456.5C 181.5,456.833 181.5,457.167 181.5,457.5C 180.5,457.5 179.5,457.5 178.5,457.5C 178.586,456.504 178.252,455.671 177.5,455C 174.226,453.798 170.893,452.798 167.5,452C 170.167,451.333 170.167,450.667 167.5,450C 164.97,450.796 162.304,451.129 159.5,451C 158.167,450 156.833,449 155.5,448C 156.5,447.667 157.5,447.333 158.5,447C 150.085,443.73 141.419,441.396 132.5,440C 130.569,439.098 128.903,437.931 127.5,436.5 Z"/></g>
<g><path style="opacity:1" fill="#92558d" d="M 133.5,446.5 C 133.56,445.957 133.893,445.624 134.5,445.5C 149.017,450.118 163.683,454.118 178.5,457.5C 179.5,457.5 180.5,457.5 181.5,457.5C 181.5,458.5 181.5,459.5 181.5,460.5C 175.134,459.325 168.8,457.992 162.5,456.5C 154.041,453.714 145.374,451.214 136.5,449C 135.627,447.955 134.627,447.122 133.5,446.5 Z"/></g>
<g><path style="opacity:1" fill="#e4a7df" d="M 431.5,415.5 C 431.833,415.5 432.167,415.5 432.5,415.5C 433.401,416.29 434.068,417.29 434.5,418.5C 435.097,423.294 434.43,427.627 432.5,431.5C 433.555,428.927 433.722,426.261 433,423.5C 432.194,426.446 430.861,429.112 429,431.5C 425.325,433.339 422.159,435.839 419.5,439C 414.123,441.737 408.456,443.57 402.5,444.5C 394.762,444.856 387.095,444.356 379.5,443C 376.667,440.833 373.833,438.667 371,436.5C 370.639,439.525 370.139,442.525 369.5,445.5C 370.187,447.177 370.854,448.844 371.5,450.5C 365.088,456.22 358.421,461.72 351.5,467C 347.452,469.069 343.119,470.236 338.5,470.5C 335.622,470.614 332.956,469.948 330.5,468.5C 329.417,469.365 329.251,470.365 330,471.5C 331.376,472.705 332.542,474.038 333.5,475.5C 327.793,473.042 325.959,468.709 328,462.5C 332.439,458.699 337.273,455.533 342.5,453C 351.202,449.662 359.869,446.329 368.5,443C 369.46,439.27 369.793,435.437 369.5,431.5C 369.229,429.62 369.896,428.287 371.5,427.5C 371.833,427.5 372.167,427.5 372.5,427.5C 371.538,432.74 373.205,436.907 377.5,440C 393.478,445.93 408.478,443.93 422.5,434C 429.138,429.557 432.138,423.391 431.5,415.5 Z"/></g>
<g><path style="opacity:0.522" fill="#e6dbe6" d="M 434.5,418.5 C 435.797,420.371 436.797,422.371 437.5,424.5C 437.398,433.201 433.732,440.034 426.5,445C 411.853,454.518 395.853,458.518 378.5,457C 370.652,462.759 362.985,468.759 355.5,475C 348.547,479.985 340.881,481.652 332.5,480C 328.582,478.917 326.248,476.417 325.5,472.5C 325.108,466.582 326.775,461.416 330.5,457C 342.886,451.232 355.552,446.065 368.5,441.5C 368.187,437.958 368.521,434.625 369.5,431.5C 369.793,435.437 369.46,439.27 368.5,443C 359.869,446.329 351.202,449.662 342.5,453C 337.273,455.533 332.439,458.699 328,462.5C 325.959,468.709 327.793,473.042 333.5,475.5C 340.207,477.35 346.541,476.183 352.5,472C 361.167,465.333 369.833,458.667 378.5,452C 385.833,451.667 393.167,451.333 400.5,451C 414.176,449.105 424.843,442.605 432.5,431.5C 434.43,427.627 435.097,423.294 434.5,418.5 Z"/></g>
<g><path style="opacity:1" fill="#e6a1e1" d="M 402.5,444.5 C 399.644,446.006 396.477,446.672 393,446.5C 385.051,444.085 377.884,445.418 371.5,450.5C 370.854,448.844 370.187,447.177 369.5,445.5C 370.139,442.525 370.639,439.525 371,436.5C 373.833,438.667 376.667,440.833 379.5,443C 387.095,444.356 394.762,444.856 402.5,444.5 Z"/></g>
<g><path style="opacity:0.698" fill="#e7d7e9" d="M 111.5,442.5 C 121.982,451.476 132.649,460.309 143.5,469C 148.314,472.438 153.647,474.605 159.5,475.5C 159.5,474.5 159.5,473.5 159.5,472.5C 159.5,472.167 159.5,471.833 159.5,471.5C 162.52,474.527 161.854,476.527 157.5,477.5C 153.314,476.954 149.314,475.787 145.5,474C 137.691,468.683 130.358,462.85 123.5,456.5C 123.719,455.325 123.386,454.325 122.5,453.5C 118.431,450.098 114.764,446.431 111.5,442.5 Z"/></g>
<g><path style="opacity:1" fill="#ebbce7" d="M 115.5,435.5 C 114.596,436.209 114.263,437.209 114.5,438.5C 115.833,438.5 117.167,438.5 118.5,438.5C 119.922,437.075 121.589,436.075 123.5,435.5C 123.281,436.675 123.614,437.675 124.5,438.5C 128.124,440.481 131.124,443.148 133.5,446.5C 134.627,447.122 135.627,447.955 136.5,449C 145.374,451.214 154.041,453.714 162.5,456.5C 157.181,455.504 151.847,454.504 146.5,453.5C 145.5,453.833 144.5,454.167 143.5,454.5C 146.854,458.521 150.521,462.188 154.5,465.5C 156.167,467.5 157.833,469.5 159.5,471.5C 159.5,471.833 159.5,472.167 159.5,472.5C 155.307,472.047 151.307,470.881 147.5,469C 133.866,458.905 121.032,447.739 109,435.5C 108.583,436.756 107.75,437.423 106.5,437.5C 102.988,437.076 99.6548,436.076 96.5,434.5C 97.1098,433.609 97.4431,432.609 97.5,431.5C 98.391,432.11 99.391,432.443 100.5,432.5C 103.287,433.477 106.287,433.81 109.5,433.5C 109.201,431.396 109.534,429.396 110.5,427.5C 113.153,429.155 115.486,431.155 117.5,433.5C 116.757,434.182 116.091,434.849 115.5,435.5 Z"/></g>
<g><path style="opacity:1" fill="#514c67" d="M 115.5,435.5 C 116.5,435.5 117.5,435.5 118.5,435.5C 118.5,436.5 118.5,437.5 118.5,438.5C 117.167,438.5 115.833,438.5 114.5,438.5C 114.263,437.209 114.596,436.209 115.5,435.5 Z"/></g>
</svg>
