<?xml version="1.0" encoding="UTF-8"?>
<!DOCTYPE svg PUBLIC "-//W3C//DTD SVG 1.1//EN" "http://www.w3.org/Graphics/SVG/1.1/DTD/svg11.dtd">
<svg xmlns="http://www.w3.org/2000/svg" version="1.1" width="89px" height="51px" style="shape-rendering:geometricPrecision; text-rendering:geometricPrecision; image-rendering:optimizeQuality; fill-rule:evenodd; clip-rule:evenodd" xmlns:xlink="http://www.w3.org/1999/xlink">
<g><path style="opacity:0.082" fill="#fee6fc" d="M 77.5,-0.5 C 78.1667,-0.5 78.8333,-0.5 79.5,-0.5C 80.8333,0.166667 82.1667,0.833333 83.5,1.5C 83.1667,1.5 82.8333,1.5 82.5,1.5C 80.5,1.5 78.5,1.5 76.5,1.5C 76.8333,0.833333 77.1667,0.166667 77.5,-0.5 Z"/></g>
<g><path style="opacity:0.592" fill="#c176b0" d="M 76.5,1.5 C 78.5,1.5 80.5,1.5 82.5,1.5C 82.5,1.83333 82.5,2.16667 82.5,2.5C 80.8333,2.5 79.1667,2.5 77.5,2.5C 77.5,4.16667 77.5,5.83333 77.5,7.5C 77.1667,7.5 76.8333,7.5 76.5,7.5C 76.5,5.5 76.5,3.5 76.5,1.5 Z"/></g>
<g><path style="opacity:0.627" fill="#ae53a3" d="M 12.5,2.5 C 11.8333,2.5 11.5,2.83333 11.5,3.5C 10.1667,3.5 8.83333,3.5 7.5,3.5C 7.5,3.16667 7.5,2.83333 7.5,2.5C 9.16667,1.16667 10.8333,1.16667 12.5,2.5 Z"/></g>
<g><path style="opacity:0.933" fill="#da79c0" d="M 82.5,2.5 C 84.1667,2.5 85.8333,2.5 87.5,2.5C 87.5,4.16667 87.5,5.83333 87.5,7.5C 86.5,7.5 85.5,7.5 84.5,7.5C 82.9519,7.17876 82.2852,6.17876 82.5,4.5C 82.5,3.83333 82.5,3.16667 82.5,2.5 Z"/></g>
<g><path style="opacity:1" fill="#a02280" d="M 82.5,2.5 C 82.5,3.16667 82.5,3.83333 82.5,4.5C 80.8706,6.06034 79.704,5.72701 79,3.5C 78.79,5.05814 78.29,6.39147 77.5,7.5C 77.5,5.83333 77.5,4.16667 77.5,2.5C 79.1667,2.5 80.8333,2.5 82.5,2.5 Z"/></g>
<g><path style="opacity:0.376" fill="#eeaddc" d="M 82.5,2.5 C 82.5,2.16667 82.5,1.83333 82.5,1.5C 82.8333,1.5 83.1667,1.5 83.5,1.5C 85.1667,1.5 86.8333,1.5 88.5,1.5C 88.5,5.16667 88.5,8.83333 88.5,12.5C 88.1667,12.5 87.8333,12.5 87.5,12.5C 87.5,10.8333 87.5,9.16667 87.5,7.5C 87.5,5.83333 87.5,4.16667 87.5,2.5C 85.8333,2.5 84.1667,2.5 82.5,2.5 Z"/></g>
<g><path style="opacity:0.133" fill="#d770bb" d="M 7.5,2.5 C 7.5,2.83333 7.5,3.16667 7.5,3.5C 5.73758,4.26231 4.73758,5.59565 4.5,7.5C 4.16667,7.5 3.83333,7.5 3.5,7.5C 3.16667,7.5 2.83333,7.5 2.5,7.5C 3.18936,4.81057 4.85603,3.1439 7.5,2.5 Z"/></g>
<g><path style="opacity:1" fill="#e36ec3" d="M 7.5,3.5 C 7.5,4.83333 7.5,6.16667 7.5,7.5C 6.5,7.5 5.5,7.5 4.5,7.5C 4.73758,5.59565 5.73758,4.26231 7.5,3.5 Z"/></g>
<g><path style="opacity:0.067" fill="#f5c8f0" d="M 76.5,1.5 C 76.5,3.5 76.5,5.5 76.5,7.5C 74.5853,7.21552 72.9187,7.54885 71.5,8.5C 70.5,9.16667 69.5,9.83333 68.5,10.5C 68.1667,10.5 67.8333,10.5 67.5,10.5C 69.1927,7.31823 71.8593,5.65156 75.5,5.5C 75.2322,3.90097 75.5655,2.56764 76.5,1.5 Z"/></g>
<g><path style="opacity:1" fill="#b02a94" d="M 7.5,3.5 C 8.83333,3.5 10.1667,3.5 11.5,3.5C 11.7678,5.09903 11.4345,6.43236 10.5,7.5C 9.5,7.5 8.5,7.5 7.5,7.5C 7.5,6.16667 7.5,4.83333 7.5,3.5 Z"/></g>
<g><path style="opacity:0.153" fill="#fdc4f8" d="M 13.5,3.5 C 14.6262,5.53634 16.2929,6.86967 18.5,7.5C 16.8333,7.5 15.1667,7.5 13.5,7.5C 13.5,6.16667 13.5,4.83333 13.5,3.5 Z"/></g>
<g><path style="opacity:1" fill="#a0378c" d="M 12.5,2.5 C 13.1667,2.5 13.5,2.83333 13.5,3.5C 13.5,4.83333 13.5,6.16667 13.5,7.5C 15.1667,7.5 16.8333,7.5 18.5,7.5C 18.5,7.83333 18.5,8.16667 18.5,8.5C 18.5,9.83333 18.5,11.1667 18.5,12.5C 18.1667,12.5 17.8333,12.5 17.5,12.5C 17.8333,9.5 16.5,8.16667 13.5,8.5C 12.209,8.73731 11.209,8.40397 10.5,7.5C 11.4345,6.43236 11.7678,5.09903 11.5,3.5C 11.5,2.83333 11.8333,2.5 12.5,2.5 Z"/></g>
<g><path style="opacity:1" fill="#a52590" d="M 82.5,4.5 C 82.2852,6.17876 82.9519,7.17876 84.5,7.5C 84.3713,9.2161 84.038,10.8828 83.5,12.5C 83.1667,12.5 82.8333,12.5 82.5,12.5C 82.7709,10.6203 82.1042,9.28696 80.5,8.5C 78.302,9.06713 75.9686,9.06713 73.5,8.5C 72.8333,9.83333 72.1667,11.1667 71.5,12.5C 71.5,11.1667 71.5,9.83333 71.5,8.5C 72.9187,7.54885 74.5853,7.21552 76.5,7.5C 76.8333,7.5 77.1667,7.5 77.5,7.5C 78.29,6.39147 78.79,5.05814 79,3.5C 79.704,5.72701 80.8706,6.06034 82.5,4.5 Z"/></g>
<g><path style="opacity:1" fill="#980688" d="M 7.5,7.5 C 8.5,7.5 9.5,7.5 10.5,7.5C 11.209,8.40397 12.209,8.73731 13.5,8.5C 13.5,8.83333 13.5,9.16667 13.5,9.5C 11.7033,9.93487 9.70329,9.93487 7.5,9.5C 7.5,8.83333 7.5,8.16667 7.5,7.5 Z"/></g>
<g><path style="opacity:1" fill="#970384" d="M 80.5,8.5 C 82.1042,9.28696 82.7709,10.6203 82.5,12.5C 81.5,12.5 80.5,12.5 79.5,12.5C 79.5,11.8333 79.5,11.1667 79.5,10.5C 80.3382,10.1583 80.6716,9.49162 80.5,8.5 Z"/></g>
<g><path style="opacity:0.996" fill="#b3398f" d="M 84.5,7.5 C 85.5,7.5 86.5,7.5 87.5,7.5C 87.5,9.16667 87.5,10.8333 87.5,12.5C 86.1667,12.5 84.8333,12.5 83.5,12.5C 84.038,10.8828 84.3713,9.2161 84.5,7.5 Z"/></g>
<g><path style="opacity:1" fill="#af27a0" d="M 3.5,7.5 C 3.83333,7.5 4.16667,7.5 4.5,7.5C 5.5,7.5 6.5,7.5 7.5,7.5C 7.5,8.16667 7.5,8.83333 7.5,9.5C 7.5,10.1667 7.5,10.8333 7.5,11.5C 5.29014,11.106 3.95681,9.77271 3.5,7.5 Z"/></g>
<g><path style="opacity:1" fill="#a71ea0" d="M 13.5,8.5 C 16.5,8.16667 17.8333,9.5 17.5,12.5C 16.1667,12.5 14.8333,12.5 13.5,12.5C 13.5,11.5 13.5,10.5 13.5,9.5C 13.5,9.16667 13.5,8.83333 13.5,8.5 Z"/></g>
<g><path style="opacity:1" fill="#a30b95" d="M 73.5,8.5 C 75.9686,9.06713 78.302,9.06713 80.5,8.5C 80.6716,9.49162 80.3382,10.1583 79.5,10.5C 77.5,10.8333 75.5,11.1667 73.5,11.5C 73.5,10.5 73.5,9.5 73.5,8.5 Z"/></g>
<g><path style="opacity:0.459" fill="#9e3f98" d="M 2.5,7.5 C 2.83333,7.5 3.16667,7.5 3.5,7.5C 3.95681,9.77271 5.29014,11.106 7.5,11.5C 8.30071,13.0418 8.63404,14.7085 8.5,16.5C 7.48784,14.0357 5.65451,12.369 3,11.5C 2.50999,10.2068 2.34332,8.87344 2.5,7.5 Z"/></g>
<g><path style="opacity:1" fill="#940992" d="M 7.5,9.5 C 9.70329,9.93487 11.7033,9.93487 13.5,9.5C 13.5,10.5 13.5,11.5 13.5,12.5C 13.7148,14.1788 13.0481,15.1788 11.5,15.5C 12.9143,13.4017 12.2476,12.4017 9.5,12.5C 9.5,13.8333 9.5,15.1667 9.5,16.5C 9.16667,16.5 8.83333,16.5 8.5,16.5C 8.63404,14.7085 8.30071,13.0418 7.5,11.5C 7.5,10.8333 7.5,10.1667 7.5,9.5 Z"/></g>
<g><path style="opacity:0.463" fill="#f0abe8" d="M 71.5,8.5 C 71.5,9.83333 71.5,11.1667 71.5,12.5C 70.1667,12.5 68.8333,12.5 67.5,12.5C 67.8333,11.8333 68.1667,11.1667 68.5,10.5C 69.5,9.83333 70.5,9.16667 71.5,8.5 Z"/></g>
<g><path style="opacity:0.361" fill="#efb4f3" d="M 18.5,8.5 C 19.8333,9.83333 21.1667,11.1667 22.5,12.5C 21.1667,12.5 19.8333,12.5 18.5,12.5C 18.5,11.1667 18.5,9.83333 18.5,8.5 Z"/></g>
<g><path style="opacity:1" fill="#94058d" d="M 79.5,10.5 C 79.5,11.1667 79.5,11.8333 79.5,12.5C 78.5084,12.3284 77.8417,12.6618 77.5,13.5C 75.847,13.6596 74.5137,14.3263 73.5,15.5C 73.1667,15.5 72.8333,15.5 72.5,15.5C 72.8333,14.1667 73.1667,12.8333 73.5,11.5C 75.5,11.1667 77.5,10.8333 79.5,10.5 Z"/></g>
<g><path style="opacity:1" fill="#a310a3" d="M 11.5,15.5 C 11.1583,16.3382 10.4916,16.6716 9.5,16.5C 9.5,15.1667 9.5,13.8333 9.5,12.5C 12.2476,12.4017 12.9143,13.4017 11.5,15.5 Z"/></g>
<g><path style="opacity:0.29" fill="#fac9f7" d="M 82.5,12.5 C 82.8333,12.5 83.1667,12.5 83.5,12.5C 84.8333,12.5 86.1667,12.5 87.5,12.5C 87.8333,12.5 88.1667,12.5 88.5,12.5C 88.5,12.8333 88.5,13.1667 88.5,13.5C 87.0222,13.238 85.6888,13.5713 84.5,14.5C 84.0576,15.7387 83.3909,16.7387 82.5,17.5C 82.5,16.5 82.5,15.5 82.5,14.5C 82.5,14.1667 82.5,13.8333 82.5,13.5C 82.5,13.1667 82.5,12.8333 82.5,12.5 Z"/></g>
<g><path style="opacity:1" fill="#920b8b" d="M 13.5,12.5 C 14.8333,12.5 16.1667,12.5 17.5,12.5C 17.7148,14.1788 17.0481,15.1788 15.5,15.5C 14.0937,15.9731 13.427,16.9731 13.5,18.5C 12.609,17.8902 11.609,17.5569 10.5,17.5C 9.50838,17.6716 8.84171,17.3382 8.5,16.5C 8.83333,16.5 9.16667,16.5 9.5,16.5C 10.4916,16.6716 11.1583,16.3382 11.5,15.5C 13.0481,15.1788 13.7148,14.1788 13.5,12.5 Z"/></g>
<g><path style="opacity:0.561" fill="#e8a3d9" d="M 67.5,10.5 C 67.8333,10.5 68.1667,10.5 68.5,10.5C 68.1667,11.1667 67.8333,11.8333 67.5,12.5C 66.8333,12.5 66.5,12.8333 66.5,13.5C 65.5655,14.5676 65.2322,15.901 65.5,17.5C 63.901,17.2322 62.5676,17.5655 61.5,18.5C 60.8333,18.5 60.1667,18.5 59.5,18.5C 61.8333,15.5 64.5,12.8333 67.5,10.5 Z"/></g>
<g><path style="opacity:1" fill="#ba38ab" d="M 79.5,12.5 C 80.5,12.5 81.5,12.5 82.5,12.5C 82.5,12.8333 82.5,13.1667 82.5,13.5C 80.5887,14.075 78.922,15.075 77.5,16.5C 77.5,15.5 77.5,14.5 77.5,13.5C 77.8417,12.6618 78.5084,12.3284 79.5,12.5 Z"/></g>
<g><path style="opacity:1" fill="#8f0887" d="M 73.5,8.5 C 73.5,9.5 73.5,10.5 73.5,11.5C 73.1667,12.8333 72.8333,14.1667 72.5,15.5C 71.8333,16.1667 71.1667,16.8333 70.5,17.5C 70.573,15.9731 69.9063,14.9731 68.5,14.5C 69.5,13.8333 70.5,13.1667 71.5,12.5C 72.1667,11.1667 72.8333,9.83333 73.5,8.5 Z"/></g>
<g><path style="opacity:1" fill="#8a0a83" d="M 77.5,13.5 C 77.5,14.5 77.5,15.5 77.5,16.5C 77.5,16.8333 77.5,17.1667 77.5,17.5C 77.5,17.8333 77.5,18.1667 77.5,18.5C 77.1667,18.5 76.8333,18.5 76.5,18.5C 75.1667,18.5 73.8333,18.5 72.5,18.5C 72.9175,17.7784 73.5842,17.2784 74.5,17C 73.944,16.6174 73.6107,16.1174 73.5,15.5C 74.5137,14.3263 75.847,13.6596 77.5,13.5 Z"/></g>
<g><path style="opacity:1" fill="#8d0a93" d="M 15.5,15.5 C 15.5569,16.609 15.8902,17.609 16.5,18.5C 14.9519,18.8212 14.2852,19.8212 14.5,21.5C 14.1667,21.5 13.8333,21.5 13.5,21.5C 13.5,20.5 13.5,19.5 13.5,18.5C 13.427,16.9731 14.0937,15.9731 15.5,15.5 Z"/></g>
<g><path style="opacity:1" fill="#8f048d" d="M 17.5,12.5 C 17.8333,12.5 18.1667,12.5 18.5,12.5C 18.5,12.8333 18.5,13.1667 18.5,13.5C 18.5,14.8333 18.5,16.1667 18.5,17.5C 19.5,17.5 20.5,17.5 21.5,17.5C 21.8333,17.5 22.1667,17.5 22.5,17.5C 21.3157,18.6879 21.3157,19.8545 22.5,21C 21.2068,21.49 19.8734,21.6567 18.5,21.5C 18.7148,19.8212 18.0481,18.8212 16.5,18.5C 15.8902,17.609 15.5569,16.609 15.5,15.5C 17.0481,15.1788 17.7148,14.1788 17.5,12.5 Z"/></g>
<g><path style="opacity:1" fill="#a2169e" d="M 18.5,13.5 C 19.5,13.5 20.5,13.5 21.5,13.5C 21.5,14.8333 21.5,16.1667 21.5,17.5C 20.5,17.5 19.5,17.5 18.5,17.5C 18.5,16.1667 18.5,14.8333 18.5,13.5 Z"/></g>
<g><path style="opacity:1" fill="#8d038a" d="M 68.5,14.5 C 69.9063,14.9731 70.573,15.9731 70.5,17.5C 69.6522,18.625 68.6522,18.625 67.5,17.5C 67.2627,16.209 67.596,15.209 68.5,14.5 Z"/></g>
<g><path style="opacity:0.969" fill="#b2479f" d="M 82.5,13.5 C 82.5,13.8333 82.5,14.1667 82.5,14.5C 81.6255,16.69 79.9589,17.69 77.5,17.5C 77.5,17.1667 77.5,16.8333 77.5,16.5C 78.922,15.075 80.5887,14.075 82.5,13.5 Z"/></g>
<g><path style="opacity:0.929" fill="#9e3094" d="M 18.5,13.5 C 18.5,13.1667 18.5,12.8333 18.5,12.5C 19.8333,12.5 21.1667,12.5 22.5,12.5C 22.8333,13.1667 23.1667,13.8333 23.5,14.5C 23.5,15.5 23.5,16.5 23.5,17.5C 23.1667,17.5 22.8333,17.5 22.5,17.5C 22.1667,17.5 21.8333,17.5 21.5,17.5C 21.5,16.1667 21.5,14.8333 21.5,13.5C 20.5,13.5 19.5,13.5 18.5,13.5 Z"/></g>
<g><path style="opacity:0.275" fill="#d98bce" d="M 23.5,14.5 C 24.4884,15.795 25.4884,17.1283 26.5,18.5C 25.8333,18.5 25.1667,18.5 24.5,18.5C 23.8333,18.5 23.5,18.1667 23.5,17.5C 23.5,16.5 23.5,15.5 23.5,14.5 Z"/></g>
<g><path style="opacity:1" fill="#cb5ab9" d="M 66.5,13.5 C 66.5,15.1667 66.5,16.8333 66.5,18.5C 64.8333,18.5 63.1667,18.5 61.5,18.5C 62.5676,17.5655 63.901,17.2322 65.5,17.5C 65.2322,15.901 65.5655,14.5676 66.5,13.5 Z"/></g>
<g><path style="opacity:1" fill="#8d0680" d="M 72.5,15.5 C 72.8333,15.5 73.1667,15.5 73.5,15.5C 73.6107,16.1174 73.944,16.6174 74.5,17C 73.5842,17.2784 72.9175,17.7784 72.5,18.5C 72.5,19.1667 72.5,19.8333 72.5,20.5C 71.0357,19.5946 69.7024,19.5946 68.5,20.5C 67.8333,20.5 67.5,20.1667 67.5,19.5C 67.5,18.8333 67.5,18.1667 67.5,17.5C 68.6522,18.625 69.6522,18.625 70.5,17.5C 71.1667,16.8333 71.8333,16.1667 72.5,15.5 Z"/></g>
<g><path style="opacity:0.604" fill="#b676b1" d="M 82.5,14.5 C 82.5,15.5 82.5,16.5 82.5,17.5C 82.1583,18.3382 81.4916,18.6716 80.5,18.5C 79.5,18.5 78.5,18.5 77.5,18.5C 77.5,18.1667 77.5,17.8333 77.5,17.5C 79.9589,17.69 81.6255,16.69 82.5,14.5 Z"/></g>
<g><path style="opacity:1" fill="#850e77" d="M 67.5,12.5 C 68.8333,12.5 70.1667,12.5 71.5,12.5C 70.5,13.1667 69.5,13.8333 68.5,14.5C 67.596,15.209 67.2627,16.209 67.5,17.5C 67.5,18.1667 67.5,18.8333 67.5,19.5C 65.8333,19.5 64.1667,19.5 62.5,19.5C 62.5,20.8333 62.5,22.1667 62.5,23.5C 62.1667,23.5 61.8333,23.5 61.5,23.5C 61.5,21.8333 61.5,20.1667 61.5,18.5C 63.1667,18.5 64.8333,18.5 66.5,18.5C 66.5,16.8333 66.5,15.1667 66.5,13.5C 66.5,12.8333 66.8333,12.5 67.5,12.5 Z"/></g>
<g><path style="opacity:0.18" fill="#ac6bb0" d="M 10.5,17.5 C 11.609,17.5569 12.609,17.8902 13.5,18.5C 13.5,19.5 13.5,20.5 13.5,21.5C 12.5116,20.205 11.5116,18.8717 10.5,17.5 Z"/></g>
<g><path style="opacity:0.718" fill="#a22c94" d="M 24.5,18.5 C 25.1667,18.5 25.8333,18.5 26.5,18.5C 27.5,18.8333 28.1667,19.5 28.5,20.5C 28.5,21.5 28.5,22.5 28.5,23.5C 28.1667,23.5 27.8333,23.5 27.5,23.5C 27.5,22.5 27.5,21.5 27.5,20.5C 26.209,20.7373 25.209,20.404 24.5,19.5C 24.5,19.1667 24.5,18.8333 24.5,18.5 Z"/></g>
<g><path style="opacity:1" fill="#c454b8" d="M 72.5,18.5 C 73.8333,18.5 75.1667,18.5 76.5,18.5C 76.5,19.1667 76.5,19.8333 76.5,20.5C 75.3951,21.6005 74.0618,22.2671 72.5,22.5C 72.5,21.8333 72.5,21.1667 72.5,20.5C 72.5,19.8333 72.5,19.1667 72.5,18.5 Z"/></g>
<g><path style="opacity:1" fill="#a11e9f" d="M 16.5,18.5 C 18.0481,18.8212 18.7148,19.8212 18.5,21.5C 18.5,22.1667 18.5,22.8333 18.5,23.5C 17.8333,23.5 17.1667,23.5 16.5,23.5C 15.5,23.1667 14.8333,22.5 14.5,21.5C 14.2852,19.8212 14.9519,18.8212 16.5,18.5 Z"/></g>
<g><path style="opacity:1" fill="#a61a98" d="M 24.5,19.5 C 25.209,20.404 26.209,20.7373 27.5,20.5C 27.5,21.5 27.5,22.5 27.5,23.5C 26.0413,23.5674 24.7079,23.2341 23.5,22.5C 23.2627,21.209 23.596,20.209 24.5,19.5 Z"/></g>
<g><path style="opacity:1" fill="#86057a" d="M 67.5,19.5 C 67.5,20.1667 67.8333,20.5 68.5,20.5C 68.4431,21.609 68.1098,22.609 67.5,23.5C 66.6618,23.8417 66.3284,24.5084 66.5,25.5C 66.1667,25.5 65.8333,25.5 65.5,25.5C 65.6505,20.3861 64.6505,19.7194 62.5,23.5C 62.5,22.1667 62.5,20.8333 62.5,19.5C 64.1667,19.5 65.8333,19.5 67.5,19.5 Z"/></g>
<g><path style="opacity:1" fill="#92137f" d="M 72.5,20.5 C 72.5,21.1667 72.5,21.8333 72.5,22.5C 72.5,23.1667 72.1667,23.5 71.5,23.5C 71.1667,23.5 70.8333,23.5 70.5,23.5C 69.5,23.5 68.5,23.5 67.5,23.5C 68.1098,22.609 68.4431,21.609 68.5,20.5C 69.7024,19.5946 71.0357,19.5946 72.5,20.5 Z"/></g>
<g><path style="opacity:1" fill="#8e0487" d="M 22.5,17.5 C 22.8333,17.5 23.1667,17.5 23.5,17.5C 23.5,18.1667 23.8333,18.5 24.5,18.5C 24.5,18.8333 24.5,19.1667 24.5,19.5C 23.596,20.209 23.2627,21.209 23.5,22.5C 22.791,23.404 21.791,23.7373 20.5,23.5C 19.8333,23.5 19.1667,23.5 18.5,23.5C 18.5,22.8333 18.5,22.1667 18.5,21.5C 19.8734,21.6567 21.2068,21.49 22.5,21C 21.3157,19.8545 21.3157,18.6879 22.5,17.5 Z"/></g>
<g><path style="opacity:0.776" fill="#d771c4" d="M 59.5,18.5 C 60.1667,18.5 60.8333,18.5 61.5,18.5C 61.5,20.1667 61.5,21.8333 61.5,23.5C 60.8333,23.5 60.1667,23.5 59.5,23.5C 58.8333,23.5 58.1667,23.5 57.5,23.5C 57.5,22.5 57.5,21.5 57.5,20.5C 57.8333,19.5 58.5,18.8333 59.5,18.5 Z"/></g>
<g><path style="opacity:0.059" fill="#dca7d5" d="M 76.5,18.5 C 76.8333,18.5 77.1667,18.5 77.5,18.5C 78.5,18.5 79.5,18.5 80.5,18.5C 79.1667,19.8333 77.8333,21.1667 76.5,22.5C 76.5,21.8333 76.5,21.1667 76.5,20.5C 76.5,19.8333 76.5,19.1667 76.5,18.5 Z"/></g>
<g><path style="opacity:0.176" fill="#e79cdb" d="M 28.5,20.5 C 29.8333,21.1667 30.8333,22.1667 31.5,23.5C 30.5,23.5 29.5,23.5 28.5,23.5C 28.5,22.5 28.5,21.5 28.5,20.5 Z"/></g>
<g><path style="opacity:0.792" fill="#d889cc" d="M 57.5,20.5 C 57.5,21.5 57.5,22.5 57.5,23.5C 56.5084,23.3284 55.8417,23.6618 55.5,24.5C 54.5,24.5 53.5,24.5 52.5,24.5C 53.5794,22.457 55.246,21.1237 57.5,20.5 Z"/></g>
<g><path style="opacity:0.329" fill="#d990c8" d="M 76.5,20.5 C 76.5,21.1667 76.5,21.8333 76.5,22.5C 74.9991,23.7515 73.3325,24.7515 71.5,25.5C 71.5,24.8333 71.5,24.1667 71.5,23.5C 72.1667,23.5 72.5,23.1667 72.5,22.5C 74.0618,22.2671 75.3951,21.6005 76.5,20.5 Z"/></g>
<g><path style="opacity:0.129" fill="#ffb0fb" d="M 16.5,23.5 C 17.1667,23.5 17.8333,23.5 18.5,23.5C 18.5,24.1667 18.5,24.8333 18.5,25.5C 17.5,25.1667 16.8333,24.5 16.5,23.5 Z"/></g>
<g><path style="opacity:1" fill="#9a1790" d="M 23.5,22.5 C 24.7079,23.2341 26.0413,23.5674 27.5,23.5C 27.8333,23.5 28.1667,23.5 28.5,23.5C 29.5,23.5 30.5,23.5 31.5,23.5C 32.1667,23.5 32.5,23.8333 32.5,24.5C 31.791,25.404 30.791,25.7373 29.5,25.5C 29.1667,25.5 28.8333,25.5 28.5,25.5C 24.9912,23.9259 23.9912,24.9259 25.5,28.5C 25.5,29.8333 25.5,31.1667 25.5,32.5C 26.5,32.5 27.5,32.5 28.5,32.5C 29.1667,32.5 29.5,32.8333 29.5,33.5C 29.5,33.8333 29.5,34.1667 29.5,34.5C 28.2921,33.7659 26.9587,33.4326 25.5,33.5C 24.8333,33.5 24.5,33.1667 24.5,32.5C 23.4618,29.419 22.1285,26.419 20.5,23.5C 21.791,23.7373 22.791,23.404 23.5,22.5 Z"/></g>
<g><path style="opacity:1" fill="#8e0281" d="M 65.5,25.5 C 64.1667,26.1667 62.8333,26.8333 61.5,27.5C 61.5,26.1667 61.5,24.8333 61.5,23.5C 61.8333,23.5 62.1667,23.5 62.5,23.5C 64.6505,19.7194 65.6505,20.3861 65.5,25.5 Z"/></g>
<g><path style="opacity:0.655" fill="#a63d9e" d="M 18.5,23.5 C 19.1667,23.5 19.8333,23.5 20.5,23.5C 22.1285,26.419 23.4618,29.419 24.5,32.5C 22.5889,30.243 20.5889,27.9096 18.5,25.5C 18.5,24.8333 18.5,24.1667 18.5,23.5 Z"/></g>
<g><path style="opacity:1" fill="#9d128e" d="M 57.5,23.5 C 58.1667,23.5 58.8333,23.5 59.5,23.5C 59.5,24.1667 59.5,24.8333 59.5,25.5C 57.5695,25.7706 56.2362,26.7706 55.5,28.5C 55.5,27.1667 55.5,25.8333 55.5,24.5C 55.8417,23.6618 56.5084,23.3284 57.5,23.5 Z"/></g>
<g><path style="opacity:1" fill="#d169cb" d="M 67.5,23.5 C 68.5,23.5 69.5,23.5 70.5,23.5C 69.7886,25.2014 68.4553,26.2014 66.5,26.5C 66.5,26.1667 66.5,25.8333 66.5,25.5C 66.3284,24.5084 66.6618,23.8417 67.5,23.5 Z"/></g>
<g><path style="opacity:1" fill="#92028d" d="M 28.5,25.5 C 28.5,26.5 28.5,27.5 28.5,28.5C 27.5,28.5 26.5,28.5 25.5,28.5C 23.9912,24.9259 24.9912,23.9259 28.5,25.5 Z"/></g>
<g><path style="opacity:1" fill="#cc56bc" d="M 52.5,24.5 C 53.5,24.5 54.5,24.5 55.5,24.5C 55.5,25.8333 55.5,27.1667 55.5,28.5C 53.8333,28.5 52.1667,28.5 50.5,28.5C 50.5,27.5 50.5,26.5 50.5,25.5C 50.8417,24.6618 51.5084,24.3284 52.5,24.5 Z"/></g>
<g><path style="opacity:1" fill="#92038a" d="M 59.5,25.5 C 59.5,26.8333 59.5,28.1667 59.5,29.5C 59.7148,31.1788 59.0481,32.1788 57.5,32.5C 56.3995,31.3951 55.7329,30.0618 55.5,28.5C 56.2362,26.7706 57.5695,25.7706 59.5,25.5 Z"/></g>
<g><path style="opacity:1" fill="#92047d" d="M 59.5,23.5 C 60.1667,23.5 60.8333,23.5 61.5,23.5C 61.5,24.8333 61.5,26.1667 61.5,27.5C 60.6618,27.8417 60.3284,28.5084 60.5,29.5C 60.1667,29.5 59.8333,29.5 59.5,29.5C 59.5,28.1667 59.5,26.8333 59.5,25.5C 59.5,24.8333 59.5,24.1667 59.5,23.5 Z"/></g>
<g><path style="opacity:1" fill="#d27ccb" d="M 70.5,23.5 C 70.8333,23.5 71.1667,23.5 71.5,23.5C 71.5,24.1667 71.5,24.8333 71.5,25.5C 71.1667,26.5 70.5,27.1667 69.5,27.5C 68.5,27.5 67.5,27.5 66.5,27.5C 66.5,27.1667 66.5,26.8333 66.5,26.5C 68.4553,26.2014 69.7886,25.2014 70.5,23.5 Z"/></g>
<g><path style="opacity:1" fill="#b11da9" d="M 32.5,24.5 C 33.4916,24.3284 34.1583,24.6618 34.5,25.5C 33.1667,26.1667 32.1667,27.1667 31.5,28.5C 29.9519,28.1788 29.2852,27.1788 29.5,25.5C 30.791,25.7373 31.791,25.404 32.5,24.5 Z"/></g>
<g><path style="opacity:0.106" fill="#ffd1fc" d="M 34.5,25.5 C 35.8717,26.5116 37.205,27.5116 38.5,28.5C 37.1667,28.5 35.8333,28.5 34.5,28.5C 34.5,27.5 34.5,26.5 34.5,25.5 Z"/></g>
<g><path style="opacity:0.114" fill="#ffd7f8" d="M 50.5,25.5 C 50.5,26.5 50.5,27.5 50.5,28.5C 49.1667,28.5 47.8333,28.5 46.5,28.5C 47.795,27.5116 49.1283,26.5116 50.5,25.5 Z"/></g>
<g><path style="opacity:1" fill="#922881" d="M 65.5,25.5 C 65.8333,25.5 66.1667,25.5 66.5,25.5C 66.5,25.8333 66.5,26.1667 66.5,26.5C 66.5,26.8333 66.5,27.1667 66.5,27.5C 66.5,28.1667 66.1667,28.5 65.5,28.5C 64.1667,28.5 62.8333,28.5 61.5,28.5C 61.5,30.5 61.5,32.5 61.5,34.5C 61.1667,34.5 60.8333,34.5 60.5,34.5C 59.1667,34.5 57.8333,34.5 56.5,34.5C 57.5676,33.5655 58.901,33.2322 60.5,33.5C 60.5,32.1667 60.5,30.8333 60.5,29.5C 60.3284,28.5084 60.6618,27.8417 61.5,27.5C 62.8333,26.8333 64.1667,26.1667 65.5,25.5 Z"/></g>
<g><path style="opacity:1" fill="#a818a1" d="M 25.5,28.5 C 26.5,28.5 27.5,28.5 28.5,28.5C 28.5,29.8333 28.5,31.1667 28.5,32.5C 27.5,32.5 26.5,32.5 25.5,32.5C 25.5,31.1667 25.5,29.8333 25.5,28.5 Z"/></g>
<g><path style="opacity:1" fill="#980492" d="M 28.5,25.5 C 28.8333,25.5 29.1667,25.5 29.5,25.5C 29.2852,27.1788 29.9519,28.1788 31.5,28.5C 31.7024,29.3636 32.0357,30.3636 32.5,31.5C 33.1835,31.1373 33.8501,30.8039 34.5,30.5C 34.5,31.5 34.5,32.5 34.5,33.5C 32.64,32.9285 30.9733,32.9285 29.5,33.5C 29.5,32.8333 29.1667,32.5 28.5,32.5C 28.5,31.1667 28.5,29.8333 28.5,28.5C 28.5,27.5 28.5,26.5 28.5,25.5 Z"/></g>
<g><path style="opacity:1" fill="#961390" d="M 34.5,25.5 C 34.5,26.5 34.5,27.5 34.5,28.5C 34.5,28.8333 34.5,29.1667 34.5,29.5C 34.5,29.8333 34.5,30.1667 34.5,30.5C 33.8501,30.8039 33.1835,31.1373 32.5,31.5C 32.0357,30.3636 31.7024,29.3636 31.5,28.5C 32.1667,27.1667 33.1667,26.1667 34.5,25.5 Z"/></g>
<g><path style="opacity:1" fill="#a413a3" d="M 34.5,30.5 C 35.5,30.5 36.5,30.5 37.5,30.5C 37.5,31.5 37.5,32.5 37.5,33.5C 36.5,33.5 35.5,33.5 34.5,33.5C 34.5,32.5 34.5,31.5 34.5,30.5 Z"/></g>
<g><path style="opacity:1" fill="#910984" d="M 50.5,28.5 C 52.1667,28.5 53.8333,28.5 55.5,28.5C 55.7329,30.0618 56.3995,31.3951 57.5,32.5C 56.209,32.2627 55.209,32.596 54.5,33.5C 54.1667,33.5 53.8333,33.5 53.5,33.5C 53.8795,30.4331 52.8795,29.4331 50.5,30.5C 50.5,29.8333 50.5,29.1667 50.5,28.5 Z"/></g>
<g><path style="opacity:1" fill="#e599dd" d="M 65.5,28.5 C 63.7215,29.6697 62.7215,31.3364 62.5,33.5C 62.5,34.1667 62.1667,34.5 61.5,34.5C 61.5,32.5 61.5,30.5 61.5,28.5C 62.8333,28.5 64.1667,28.5 65.5,28.5 Z"/></g>
<g><path style="opacity:0.91" fill="#e3afde" d="M 66.5,27.5 C 67.5,27.5 68.5,27.5 69.5,27.5C 67.1918,29.4707 64.8585,31.4707 62.5,33.5C 62.7215,31.3364 63.7215,29.6697 65.5,28.5C 66.1667,28.5 66.5,28.1667 66.5,27.5 Z"/></g>
<g><path style="opacity:0.729" fill="#a01b9b" d="M 34.5,30.5 C 34.5,30.1667 34.5,29.8333 34.5,29.5C 35.8333,29.5 37.1667,29.5 38.5,29.5C 38.2322,31.099 38.5655,32.4324 39.5,33.5C 39.5,33.8333 39.5,34.1667 39.5,34.5C 38.8333,34.5 38.1667,34.5 37.5,34.5C 37.5,34.1667 37.5,33.8333 37.5,33.5C 37.5,32.5 37.5,31.5 37.5,30.5C 36.5,30.5 35.5,30.5 34.5,30.5 Z"/></g>
<g><path style="opacity:0.095" fill="#facffa" d="M 45.5,28.5 C 45.5,29.1667 45.5,29.8333 45.5,30.5C 44.596,31.209 44.2627,32.209 44.5,33.5C 43.1667,33.5 41.8333,33.5 40.5,33.5C 40.5,32.5 40.5,31.5 40.5,30.5C 41.1515,31.0906 41.8182,31.7573 42.5,32.5C 43.1497,30.8164 44.1497,29.4831 45.5,28.5 Z"/></g>
<g><path style="opacity:1" fill="#b63ead" d="M 45.5,28.5 C 45.8333,28.5 46.1667,28.5 46.5,28.5C 47.8333,28.5 49.1667,28.5 50.5,28.5C 50.5,29.1667 50.5,29.8333 50.5,30.5C 50.5,31.8333 50.5,33.1667 50.5,34.5C 50.1667,34.5 49.8333,34.5 49.5,34.5C 48.1667,34.5 46.8333,34.5 45.5,34.5C 45.5,33.1667 45.5,31.8333 45.5,30.5C 45.5,29.8333 45.5,29.1667 45.5,28.5 Z"/></g>
<g><path style="opacity:0.62" fill="#9e3c98" d="M 34.5,29.5 C 34.5,29.1667 34.5,28.8333 34.5,28.5C 35.8333,28.5 37.1667,28.5 38.5,28.5C 39.1667,28.5 39.5,28.8333 39.5,29.5C 39.5,30.8333 39.5,32.1667 39.5,33.5C 38.5655,32.4324 38.2322,31.099 38.5,29.5C 37.1667,29.5 35.8333,29.5 34.5,29.5 Z"/></g>
<g><path style="opacity:1" fill="#94018a" d="M 53.5,33.5 C 52.391,33.5569 51.391,33.8902 50.5,34.5C 50.5,33.1667 50.5,31.8333 50.5,30.5C 52.8795,29.4331 53.8795,30.4331 53.5,33.5 Z"/></g>
<g><path style="opacity:1" fill="#9a0e9f" d="M 34.5,33.5 C 35.5,33.5 36.5,33.5 37.5,33.5C 37.5,33.8333 37.5,34.1667 37.5,34.5C 36.5,34.5 35.5,34.5 34.5,34.5C 34.5,35.5 34.5,36.5 34.5,37.5C 32.0107,37.7593 30.344,36.7593 29.5,34.5C 29.5,34.1667 29.5,33.8333 29.5,33.5C 30.9733,32.9285 32.64,32.9285 34.5,33.5 Z"/></g>
<g><path style="opacity:0.302" fill="#dc86d6" d="M 39.5,29.5 C 40.1667,29.5 40.5,29.8333 40.5,30.5C 40.5,31.5 40.5,32.5 40.5,33.5C 41.8333,33.5 43.1667,33.5 44.5,33.5C 44.2627,32.209 44.596,31.209 45.5,30.5C 45.5,31.8333 45.5,33.1667 45.5,34.5C 43.5,34.5 41.5,34.5 39.5,34.5C 39.5,34.1667 39.5,33.8333 39.5,33.5C 39.5,32.1667 39.5,30.8333 39.5,29.5 Z"/></g>
<g><path style="opacity:1" fill="#980593" d="M 53.5,33.5 C 53.8333,33.5 54.1667,33.5 54.5,33.5C 54.5,34.8333 54.5,36.1667 54.5,37.5C 52.4348,37.047 50.7682,36.047 49.5,34.5C 49.8333,34.5 50.1667,34.5 50.5,34.5C 51.391,33.8902 52.391,33.5569 53.5,33.5 Z"/></g>
<g><path style="opacity:1" fill="#8d2584" d="M 59.5,29.5 C 59.8333,29.5 60.1667,29.5 60.5,29.5C 60.5,30.8333 60.5,32.1667 60.5,33.5C 58.901,33.2322 57.5676,33.5655 56.5,34.5C 56.5,35.8333 56.5,37.1667 56.5,38.5C 56.5,39.1667 56.1667,39.5 55.5,39.5C 54.5,39.5 53.5,39.5 52.5,39.5C 53.1667,38.8333 53.8333,38.1667 54.5,37.5C 54.5,36.1667 54.5,34.8333 54.5,33.5C 55.209,32.596 56.209,32.2627 57.5,32.5C 59.0481,32.1788 59.7148,31.1788 59.5,29.5 Z"/></g>
<g><path style="opacity:1" fill="#8c0791" d="M 37.5,34.5 C 38.1667,34.5 38.8333,34.5 39.5,34.5C 40.5511,35.2223 41.2178,36.2223 41.5,37.5C 40.4168,37.4606 39.4168,37.1272 38.5,36.5C 37.6143,37.325 37.281,38.325 37.5,39.5C 36.596,40.209 36.2627,41.209 36.5,42.5C 35.8333,41.5 35.1667,40.5 34.5,39.5C 34.5,38.8333 34.5,38.1667 34.5,37.5C 34.5,36.5 34.5,35.5 34.5,34.5C 35.5,34.5 36.5,34.5 37.5,34.5 Z"/></g>
<g><path style="opacity:1" fill="#8b0b89" d="M 39.5,34.5 C 41.5,34.5 43.5,34.5 45.5,34.5C 46.8333,34.5 48.1667,34.5 49.5,34.5C 50.7682,36.047 52.4348,37.047 54.5,37.5C 53.8333,38.1667 53.1667,38.8333 52.5,39.5C 51.8333,39.5 51.1667,39.5 50.5,39.5C 49.8333,40.8333 49.1667,42.1667 48.5,43.5C 48.7678,41.901 48.4345,40.5676 47.5,39.5C 46.4324,38.5655 45.099,38.2322 43.5,38.5C 42.8333,38.1667 42.1667,37.8333 41.5,37.5C 41.2178,36.2223 40.5511,35.2223 39.5,34.5 Z"/></g>
<g><path style="opacity:1" fill="#8c0195" d="M 41.5,37.5 C 42.1667,37.8333 42.8333,38.1667 43.5,38.5C 42.713,40.1042 41.3797,40.7709 39.5,40.5C 39.1583,39.6618 38.4916,39.3284 37.5,39.5C 37.281,38.325 37.6143,37.325 38.5,36.5C 39.4168,37.1272 40.4168,37.4606 41.5,37.5 Z"/></g>
<g><path style="opacity:0.42" fill="#f8baee" d="M 56.5,34.5 C 57.8333,34.5 59.1667,34.5 60.5,34.5C 59.5,36.1667 58.1667,37.5 56.5,38.5C 56.5,37.1667 56.5,35.8333 56.5,34.5 Z"/></g>
<g><path style="opacity:0.439" fill="#a641a3" d="M 25.5,33.5 C 26.9587,33.4326 28.2921,33.7659 29.5,34.5C 30.344,36.7593 32.0107,37.7593 34.5,37.5C 34.5,38.1667 34.5,38.8333 34.5,39.5C 33.8333,39.5 33.1667,39.5 32.5,39.5C 29.7438,37.9802 27.4104,35.9802 25.5,33.5 Z"/></g>
<g><path style="opacity:1" fill="#90018c" d="M 43.5,38.5 C 45.099,38.2322 46.4324,38.5655 47.5,39.5C 45.9519,39.8212 45.2852,40.8212 45.5,42.5C 43.5,42.5 41.5,42.5 39.5,42.5C 39.5,41.8333 39.5,41.1667 39.5,40.5C 41.3797,40.7709 42.713,40.1042 43.5,38.5 Z"/></g>
<g><path style="opacity:0.145" fill="#f9b4fa" d="M 32.5,39.5 C 33.1667,39.5 33.8333,39.5 34.5,39.5C 34.5,40.5 34.5,41.5 34.5,42.5C 33.5987,41.7095 32.9321,40.7095 32.5,39.5 Z"/></g>
<g><path style="opacity:1" fill="#a6169e" d="M 37.5,39.5 C 38.4916,39.3284 39.1583,39.6618 39.5,40.5C 39.5,41.1667 39.5,41.8333 39.5,42.5C 38.5,43.8333 37.5,43.8333 36.5,42.5C 36.2627,41.209 36.596,40.209 37.5,39.5 Z"/></g>
<g><path style="opacity:1" fill="#a7169a" d="M 47.5,39.5 C 48.4345,40.5676 48.7678,41.901 48.5,43.5C 47.5,43.5 46.5,43.5 45.5,43.5C 45.5,43.1667 45.5,42.8333 45.5,42.5C 45.2852,40.8212 45.9519,39.8212 47.5,39.5 Z"/></g>
<g><path style="opacity:0.161" fill="#fac0ee" d="M 50.5,39.5 C 51.1667,39.5 51.8333,39.5 52.5,39.5C 53.5,39.5 54.5,39.5 55.5,39.5C 53.5968,40.9473 51.9301,42.614 50.5,44.5C 50.5,42.8333 50.5,41.1667 50.5,39.5 Z"/></g>
<g><path style="opacity:1" fill="#8b1984" d="M 34.5,39.5 C 35.1667,40.5 35.8333,41.5 36.5,42.5C 37.5,43.8333 38.5,43.8333 39.5,42.5C 41.5,42.5 43.5,42.5 45.5,42.5C 45.5,42.8333 45.5,43.1667 45.5,43.5C 44.5084,43.3284 43.8417,43.6618 43.5,44.5C 42.1667,44.5 40.8333,44.5 39.5,44.5C 38.5,44.5 37.5,44.5 36.5,44.5C 35.1667,44.5 34.5,43.8333 34.5,42.5C 34.5,41.5 34.5,40.5 34.5,39.5 Z"/></g>
<g><path style="opacity:0.514" fill="#8c2681" d="M 50.5,39.5 C 50.5,41.1667 50.5,42.8333 50.5,44.5C 48.8333,44.5 47.1667,44.5 45.5,44.5C 44.8333,44.5 44.1667,44.5 43.5,44.5C 43.8417,43.6618 44.5084,43.3284 45.5,43.5C 46.5,43.5 47.5,43.5 48.5,43.5C 49.1667,42.1667 49.8333,40.8333 50.5,39.5 Z"/></g>
<g><path style="opacity:1" fill="#b93da6" d="M 39.5,44.5 C 40.8333,44.5 42.1667,44.5 43.5,44.5C 44.1667,44.5 44.8333,44.5 45.5,44.5C 45.1667,45.1667 44.8333,45.8333 44.5,46.5C 42.302,46.8799 40.6354,46.2132 39.5,44.5 Z"/></g>
<g><path style="opacity:0.145" fill="#df93d1" d="M 45.5,44.5 C 47.1667,44.5 48.8333,44.5 50.5,44.5C 46.725,44.6157 45.0583,46.6157 45.5,50.5C 43.5,50.5 41.5,50.5 39.5,50.5C 39.5,49.5 39.5,48.5 39.5,47.5C 40.7791,48.968 42.4458,49.6347 44.5,49.5C 44.5,48.5 44.5,47.5 44.5,46.5C 44.8333,45.8333 45.1667,45.1667 45.5,44.5 Z"/></g>
<g><path style="opacity:0.939" fill="#ce68b3" d="M 36.5,44.5 C 37.5,44.5 38.5,44.5 39.5,44.5C 40.6354,46.2132 42.302,46.8799 44.5,46.5C 44.5,47.5 44.5,48.5 44.5,49.5C 42.4458,49.6347 40.7791,48.968 39.5,47.5C 38.6935,46.2719 37.6935,45.2719 36.5,44.5 Z"/></g>
</svg>
